<?xml version="1.0" encoding="UTF-8"?>
<svg id="Layer_2" data-name="Layer 2" xmlns="http://www.w3.org/2000/svg" viewBox="0 0 223.65 280.1">
  <defs>
    <style>
      .cls-1 {
        fill: none;
      }

      .cls-2 {
        fill: #f99d0b;
      }

      .cls-3 {
        fill: #ea3139;
      }

      .cls-4 {
        fill: #fff;
      }

      .cls-5 {
        fill: #ffc969;
      }

      .cls-6 {
        fill: #ff8f17;
      }

      .cls-7 {
        fill: #656591;
      }

      .cls-8 {
        fill: #d8d8d8;
      }

      .cls-9 {
        fill: #c61421;
      }

      .cls-10 {
        fill: #a6fdf3;
      }

      .cls-11 {
        fill: #161616;
      }

      .cls-12 {
        fill: #05aa8e;
      }

      .cls-13 {
        fill: #3cd3bd;
      }

      .cls-14 {
        fill: #9494b8;
      }

      .cls-15 {
        fill: #464565;
      }
    </style>
  </defs>
  <g id="Layer_3" data-name="Layer 3">
    <g>
      <g>
        <path class="cls-3" d="M90.42,242.26l-.74,.26c-.23,.23-.46,.47-.68,.72-.36,.32-.72,.66-1.01,1.09-.44,.65-.77-.61-.92,.17-.05,.27-1.84,1.07-1.86,1.34-.02,.2-.83,1.59-.82,1.79l-.21,.12c0,.35-.07,.08,0,.42,.08,.38-.11,0,.05,.35-.34-.64,0,.64,0-.09l-.09,1.46c-1.37,.65-1.62,.3-2.16,1.72-.18,.49-.82,.85-.82,1.36,0,.1-.24,.65-.24,.75-.12,0,.14,1.42,.02,1.46l-.87,.16c-1.08,.17-1.14-.17-1.69,.75-.03,.03-.06,.06-.09,.1-.52,.69-1.35,.69-1.28,1.5-1.41,.19-3.1,.97-3.4,2.34-.03,.15-.05,.3-.05,.44-2.57-1.96-5.79-3.12-9.27-3.12-8.46,0-15.31,6.85-15.31,15.31,0,1.16,.13,2.3,.38,3.39h29.85s-.04-.1-.04-.1h.05s-.01,.06-.02,.1h27.45c-.11-2.53,.04-33.85,.04-33.85"/>
        <path class="cls-4" d="M48.86,272.73c0,1.1,.12,2.18,.34,3.22h29.77c.22-1.04,.34-2.11,.34-3.22,0-2.21-.41-4.18-1.26-6.07-.53-1.19-2.35-1.56-3.15-2.56-.72-.9-.91-2.22-1.46-3.13-1.71-2.85-5.78-3.46-9.36-3.46-8.41,0-15.23,6.81-15.23,15.22Z"/>
        <path class="cls-8" d="M72.89,259.75c-5.3-3.08-11.86-3.55-17.07,0-2.4,1.63-4.64,3.58-5.82,6.29-1.29,2.97-1.38,6.23-1.25,9.41,.06,1.44,2.31,1.45,2.25,0-.11-2.76-.11-5.61,.92-8.21,.96-2.4,2.94-4.12,5.03-5.55,4.57-3.11,10.14-2.7,14.8,0,1.25,.73,2.39-1.21,1.14-1.94h0Z"/>
        <path class="cls-8" d="M105.8,276.31c-18.6,0-37.2-.17-55.8-.17-.97,0-.97,1.5,0,1.5,18.6,0,37.2,.17,55.8,.17,.97,0,.97-1.5,0-1.5h0Z"/>
        <line class="cls-1" x1="78.97" y1="275.95" x2="82.9" y2="275.95"/>
        <path class="cls-4" d="M106.69,266.76c-7.84,0-8.15,9.34-8.15,9.34h8.16l-.02-9.34Z"/>
        <path class="cls-11" d="M76.78,257.22c-1.16,.13-2.33,.62-3.06,1.57-.87,1.14-.7,2.57-.17,3.82,1.15,2.7,3.8,4.28,6.52,5.04,.45,.13,.64-.57,.19-.69-2.32-.65-4.57-1.89-5.77-4.06-.56-1-1-2.35-.38-3.42,.54-.92,1.63-1.42,2.66-1.54,.46-.05,.46-.77,0-.72h0Z"/>
        <path class="cls-11" d="M80.2,255.01c-1.41,.23-2.79,1.16-3.23,2.57-.5,1.61,.37,3.25,1.4,4.44,.3,.35,.81-.16,.51-.51-.86-1-1.64-2.39-1.22-3.74,.37-1.18,1.56-1.88,2.72-2.07,.46-.08,.26-.77-.19-.69h0Z"/>
        <path class="cls-11" d="M83.9,249.58c-1.8,.8-3.32,2.53-3.32,4.58,0,2.16,1.63,3.9,3.3,5.06,.38,.26,.74-.36,.36-.62-1.46-1.01-2.94-2.55-2.94-4.44s1.39-3.26,2.96-3.96c.42-.19,.06-.81-.36-.62h0Z"/>
        <path class="cls-11" d="M87.66,243.92c-1.81,.53-3.54,1.93-3.89,3.87-.41,2.21,.96,4.25,2.53,5.67,.34,.31,.85-.2,.51-.51-1.35-1.23-2.69-3.03-2.34-4.97,.3-1.7,1.81-2.9,3.39-3.37,.44-.13,.26-.82-.19-.69h0Z"/>
        <path class="cls-11" d="M77.9,266.68c1.23,2.96,1.55,6.14,.87,9.28l.35-.26c-8.69,0-17.39,0-26.08,0h-3.77l.35,.26c-1.3-5.96,1.11-12.24,6.2-15.68,5.36-3.62,12.18-3.22,17.38,.47,.38,.27,.74-.36,.36-.62-5.48-3.89-12.81-4.22-18.38-.28-5.19,3.67-7.6,10.12-6.26,16.3,.03,.15,.2,.26,.35,.26,8.69,0,17.39,0,26.08,0h3.77c.15,0,.31-.11,.35-.26,.71-3.26,.41-6.58-.87-9.66-.18-.42-.87-.24-.69,.19h0Z"/>
        <path class="cls-11" d="M98.84,276.06c.1-2.83,1.3-6.18,3.73-7.83,1.19-.81,2.59-1.14,4.02-1.15,.46,0,.46-.72,0-.72-2.58,.02-4.88,1.11-6.38,3.23-1.07,1.52-1.68,3.37-1.96,5.19-.06,.42-.12,.85-.14,1.27-.02,.46,.7,.46,.72,0h0Z"/>
        <path class="cls-11" d="M106.21,276.06c0,4.03-4.85,3.3-7.5,3.3h-13.46c-10.46,0-20.92,0-31.37,0h-4.75c-.33,0-.67,.03-1,0-.34-.03-.21,.17-.86-.2-.95-.55-.97-1.97,0-2.53,.4-.24,.94-.2,1.39-.2s.46-.72,0-.72c-1.39,0-2.84,.54-2.84,2.2,0,1.25,1.02,2.09,2.2,2.18,.77,.05,1.55,0,2.32,0h13.48c11.39,0,22.78,0,34.16,0,1.49,0,2.98,0,4.46,0,2.34-.01,4.49-1.46,4.49-4.02,0-.46-.72-.46-.72,0h0Z"/>
        <path class="cls-11" d="M79.12,276.42h27.45c.19,0,.36-.16,.36-.36v-33.76c0-.19-.16-.36-.36-.36h-17.76c-.46,0-.46,.72,0,.72h17.76l-.36-.36v33.76l.36-.36h-27.45c-.46,0-.46,.72,0,.72h0Z"/>
        <path class="cls-4" d="M90.58,235.36c-1.96,.81-3.46,2.65-3.85,4.74s.34,4.34,1.87,5.81c2.13,2.04,5.32,2.35,8.22,2.89,.85,.16,1.72,.35,2.45,.82,.75,.48,1.29,1.2,1.96,1.79,1.54,1.35,3.91,.6,5.89,.08v-10.65"/>
        <path class="cls-5" d="M107.03,240.6l-4.45,1.59-4.09,.71-5.91-1.34c-1.06,0-1.91-.86-1.91-1.91v-52.02h16.46l-.09,52.98Z"/>
        <path class="cls-2" d="M105.67,215.8c-4.75,1.64-9.9,1.66-14.66,.06h0c-1.06,0-.34-.43-.34-1.49v-52.02h16.46l-.09,52.98-1.36,.47Z"/>
        <g>
          <path class="cls-11" d="M60.13,272.92l-5.27-4.71c-.34-.31-.86,.2-.51,.51l5.27,4.71c.34,.31,.86-.2,.51-.51h0Z"/>
          <path class="cls-11" d="M58.83,269.51c-1.07-1-2.14-2-3.21-3-.34-.32-.85,.19-.51,.51,1.07,1,2.14,2,3.21,3,.34,.32,.85-.19,.51-.51h0Z"/>
        </g>
        <path class="cls-11" d="M84.13,249.78c-2.11-.08-4.22-.57-6.07-1.62-1.75-.99-3.65-2.75-3.97-4.84-.39-2.56,2.65-3.98,4.76-3.23,2.29,.81,3.55,3.13,4.11,5.36,1.05,4.16,.5,8.78,3.72,12.1,1.17,1.21,3.04,2.56,4.8,2.5,1.5-.05,2.53-1.47,2.59-2.88,.1-2.18-1.74-4.08-3.36-5.29-1.84-1.38-4.01-2.16-6.29-2.37-.46-.04-.46,.68,0,.72,2.38,.21,4.66,1.14,6.47,2.71,.83,.72,1.62,1.57,2.09,2.57,.57,1.21,.53,2.99-.85,3.65-1.09,.52-2.45-.24-3.37-.83-1.06-.67-1.98-1.59-2.65-2.65-1.32-2.07-1.58-4.56-1.87-6.94-.45-3.63-1.4-8.27-5.48-9.44-1.55-.44-3.25,0-4.38,1.16s-1.29,2.77-.6,4.25c1.79,3.89,6.31,5.64,10.34,5.79,.46,.02,.46-.7,0-.72h0Z"/>
        <path class="cls-11" d="M76.5,256.11c-1.51-.06-3.02-.41-4.34-1.16-1.23-.7-2.59-1.95-2.82-3.43-.27-1.78,1.86-2.74,3.32-2.23,1.62,.57,2.51,2.23,2.9,3.8,.76,3.03,.37,6.37,2.71,8.79,.86,.89,2.24,1.88,3.54,1.84,1.14-.03,1.93-1.11,1.97-2.18,.07-1.62-1.28-3.01-2.48-3.91-1.34-1-2.93-1.58-4.6-1.73-.46-.04-.46,.68,0,.72,1.69,.15,3.32,.82,4.6,1.93,.59,.51,1.16,1.12,1.5,1.84,.38,.82,.37,2.05-.56,2.5-.75,.36-1.71-.19-2.35-.59-.75-.48-1.4-1.13-1.88-1.88-.95-1.48-1.13-3.26-1.34-4.96-.33-2.67-1.03-6.06-4.03-6.92-1.15-.33-2.42,0-3.26,.86s-.97,2.08-.45,3.19c1.32,2.84,4.6,4.12,7.56,4.23,.46,.02,.46-.7,0-.72h0Z"/>
        <path class="cls-8" d="M89.61,243.3c2.26,2,5.63,2.35,8.53,2.46s6.11-.42,8.71-2.03c1.64-1.01,.14-3.61-1.51-2.59-2.1,1.29-4.5,1.68-6.94,1.63-1.21-.03-2.43-.16-3.62-.38-1.07-.2-2.21-.46-3.04-1.21-1.44-1.28-3.57,.84-2.12,2.12h0Z"/>
        <path class="cls-11" d="M91.03,228.07v-5.79c0-.46-.72-.46-.72,0v5.79c0,.46,.72,.46,.72,0h0Z"/>
        <path class="cls-11" d="M91.03,219.81v-32.19l-.36,.36h16.46l-.36-.36v51.52c0,.41,.02,.82,0,1.23,0,.05,.02,.13,0,.18,.16-.54,.12-.16-.11-.14-.14,0-.64,.35-.73,.39-.82,.41-1.68,.75-2.55,1.01-3.15,.94-6.55,.86-9.66-.23-.8-.28-1.58-.63-2.33-1.04-.44-.24-.47-.57-.36,0,0-.04,0-.08,0-.12-.06-.51,0-1.07,0-1.58v-8.59c0-.46-.72-.46-.72,0v8.19c0,.6-.14,1.39,0,1.98,.19,.79,1.29,1.06,2,1.37,1.66,.73,3.42,1.18,5.23,1.33,3.44,.29,6.79-.56,9.78-2.27,.11-.06,.18-.18,.18-.31v-52.93c0-.19-.16-.36-.36-.36h-16.46c-.19,0-.36,.16-.36,.36v32.19c0,.46,.72,.46,.72,0h0Z"/>
        <path class="cls-11" d="M90.4,235.05c-2.45,1.08-4.16,3.54-4.13,6.25s1.8,5.21,4.35,6.35c1.34,.6,2.78,.9,4.22,1.16,1.75,.32,3.58,.43,4.95,1.68,1.04,.95,1.73,1.85,3.21,2.01s2.86-.31,4.21-.67c.15-.04,.26-.19,.26-.35v-10.65c0-.46-.72-.46-.72,0v10.65l.26-.35c-1.21,.32-2.47,.73-3.74,.66-1.62-.08-2.32-1.35-3.49-2.25-1.92-1.48-4.86-1.32-7.12-1.94-2.76-.75-5.15-2.46-5.61-5.45-.43-2.77,1.18-5.37,3.7-6.48,.42-.19,.06-.81-.36-.62h0Z"/>
      </g>
      <path class="cls-3" d="M107.59,242.2s.15,31.32,.04,33.85h27.45s-.01-.06-.02-.1h.05l-.04,.1h29.85c.25-1.09,.38-2.23,.38-3.39,0-8.46-6.85-15.31-15.31-15.31-3.48,0-6.7,1.16-9.27,3.12,0-.15-.02-.3-.05-.44-.3-1.38-1.99-2.16-3.4-2.34,.08-.82-.75-.82-1.28-1.5-.03-.04-.06-.06-.09-.1-.56-.92-.61-.58-1.69-.75l-.87-.16c-.11-.04,.14-1.45,.02-1.46,0-.1-.24-.65-.24-.75,0-.52-.64-.87-.82-1.36-.54-1.42-.79-1.07-2.16-1.72l-.09-1.46c0,.74,.34-.54,0,.09,.15-.36-.03,.03,.05-.35,.07-.34,0-.08,0-.42l-.21-.12c0-.2-.8-1.59-.82-1.79-.02-.27-1.81-1.08-1.86-1.34-.15-.77-.48,.48-.92-.17-.29-.43-.64-.76-1.01-1.09-.22-.25-.45-.49-.68-.72l-.74-.26"/>
      <path class="cls-4" d="M165.43,272.73c0,1.1-.12,2.18-.34,3.22h-29.77c-.22-1.04-.34-2.11-.34-3.22,0-2.21,.41-4.18,1.26-6.07,.53-1.19,2.35-1.56,3.15-2.56,.72-.9,.91-2.22,1.46-3.13,1.71-2.85,5.78-3.46,9.36-3.46,8.41,0,15.23,6.81,15.23,15.22Z"/>
      <path class="cls-8" d="M142.54,261.69c4.65-2.71,10.23-3.11,14.8,0,2.1,1.43,4.07,3.14,5.03,5.55,1.04,2.6,1.03,5.46,.92,8.21-.06,1.45,2.19,1.45,2.25,0,.13-3.18,.04-6.45-1.25-9.41-1.18-2.71-3.41-4.65-5.82-6.29-5.21-3.55-11.76-3.08-17.07,0-1.25,.73-.12,2.67,1.14,1.94h0Z"/>
      <path class="cls-8" d="M108.49,277.81c18.6,0,37.2-.17,55.8-.17,.97,0,.97-1.5,0-1.5-18.6,0-37.2,.17-55.8,.17-.97,0-.97,1.5,0,1.5h0Z"/>
      <path class="cls-4" d="M107.61,266.76c7.84,0,8.15,9.34,8.15,9.34h-8.16l.02-9.34Z"/>
      <path class="cls-11" d="M137.51,257.94c1.03,.12,2.12,.62,2.66,1.54,.63,1.07,.18,2.42-.38,3.42-1.21,2.16-3.45,3.41-5.77,4.06-.45,.12-.26,.82,.19,.69,2.72-.76,5.37-2.34,6.52-5.04,.52-1.22,.71-2.64-.13-3.76-.73-.98-1.91-1.48-3.1-1.62-.46-.05-.46,.67,0,.72h0Z"/>
      <path class="cls-11" d="M133.9,255.71c1.16,.19,2.36,.89,2.72,2.07,.42,1.35-.36,2.74-1.22,3.74-.3,.35,.21,.86,.51,.51,1.03-1.19,1.9-2.83,1.4-4.44-.44-1.41-1.81-2.34-3.23-2.57-.45-.07-.65,.62-.19,.69h0Z"/>
      <path class="cls-11" d="M130.03,250.2c1.57,.69,2.97,2.15,2.96,3.96s-1.48,3.43-2.94,4.44c-.38,.26-.02,.89,.36,.62,1.68-1.16,3.29-2.9,3.3-5.06,0-2.05-1.52-3.78-3.32-4.58-.42-.19-.79,.43-.36,.62h0Z"/>
      <path class="cls-11" d="M126.44,244.62c1.59,.46,3.09,1.67,3.39,3.37,.35,1.94-.99,3.74-2.34,4.97-.34,.31,.17,.82,.51,.51,1.56-1.42,2.93-3.46,2.53-5.67-.36-1.94-2.08-3.34-3.89-3.87-.45-.13-.64,.56-.19,.69h0Z"/>
      <path class="cls-11" d="M135.7,266.49c-1.28,3.08-1.58,6.4-.87,9.66,.03,.15,.2,.26,.35,.26,8.69,0,17.39,0,26.08,0,1.26,0,2.51,0,3.77,0,.15,0,.31-.11,.35-.26,1.34-6.19-1.07-12.64-6.26-16.3-5.57-3.94-12.89-3.61-18.38,.28-.38,.27-.02,.89,.36,.62,5.2-3.68,12.02-4.09,17.38-.47s7.49,9.71,6.2,15.68l.35-.26c-8.69,0-17.39,0-26.08,0-1.26,0-2.51,0-3.77,0l.35,.26c-.68-3.14-.36-6.32,.87-9.28,.18-.43-.52-.61-.69-.19h0Z"/>
      <path class="cls-11" d="M116.17,276.06c-.11-3.16-1.47-6.75-4.2-8.52-1.27-.82-2.77-1.17-4.28-1.18-.46,0-.46,.72,0,.72,2.41,.01,4.55,1.06,5.9,3.08,.96,1.44,1.49,3.14,1.75,4.84,.05,.33,.1,.7,.11,1.06,.02,.46,.74,.46,.72,0h0Z"/>
      <path class="cls-11" d="M107.36,276.06c0,2.4,2,3.99,4.27,4.02,1.09,.01,2.19,0,3.28,0h14.61c11.08,0,22.16,0,33.24,0,1.14,0,2.29,.05,3.43,0,1.06-.04,2.02-.65,2.24-1.75,.36-1.83-1.26-2.62-2.79-2.62-.46,0-.46,.72,0,.72,1.15,0,2.34,.5,2.01,1.85-.17,.72-.74,1.02-1.43,1.09-.25,.02-.51,0-.77,0h-3.66c-4.55,0-9.1,0-13.65,0-10.41,0-20.81,0-31.22,0h-4.58c-2.06,0-4.27-.77-4.27-3.3,0-.46-.72-.46-.72,0h0Z"/>
      <line class="cls-3" x1="123.87" y1="242.26" x2="107.72" y2="242.26"/>
      <path class="cls-11" d="M135.17,275.7c-8.01,0-16.01,0-24.02,0-1.15,0-2.29,0-3.44,0l.36,.36c0-9.84,0-19.68,0-29.52v-4.24c-.12,.12-.24,.24-.36,.36,5.92,0,11.84,0,17.76,0,.46,0,.46-.72,0-.72-5.92,0-11.84,0-17.76,0-.19,0-.36,.16-.36,.36,0,9.84,0,19.68,0,29.52v4.24c0,.19,.16,.36,.36,.36,8.01,0,16.01,0,24.02,0,1.15,0,2.29,0,3.44,0,.46,0,.46-.72,0-.72h0Z"/>
      <path class="cls-4" d="M123.71,235.36c1.96,.81,3.46,2.65,3.85,4.74s-.34,4.34-1.87,5.81c-2.13,2.04-5.32,2.35-8.22,2.89-.85,.16-1.72,.35-2.45,.82-.75,.48-1.29,1.2-1.96,1.79-1.54,1.35-3.91,.6-5.89,.08v-10.65"/>
      <path class="cls-5" d="M107.26,240.6l4.45,1.59,4.09,.71,5.91-1.34c1.06,0,1.91-.86,1.91-1.91v-52.02s-16.46,0-16.46,0l.09,52.98Z"/>
      <path class="cls-2" d="M108.62,215.8c4.75,1.64,9.9,1.66,14.66,.06h0c1.06,0,.34-.43,.34-1.49v-52.02s-16.46,0-16.46,0l.09,52.98,1.36,.47Z"/>
      <path class="cls-11" d="M130.16,250.5c3.57-.14,7.35-1.45,9.53-4.43,.99-1.35,1.73-3.1,.88-4.7-.72-1.36-2.3-2.27-3.83-2.25-4.22,.04-5.99,4.69-6.51,8.15-.34,2.26-.42,4.6-1.24,6.75s-2.45,3.93-4.55,4.88c-.77,.35-1.71,.65-2.49,.15-.63-.4-.98-1.17-1.03-1.9-.09-1.44,.92-2.74,1.88-3.69,1.89-1.88,4.4-3.01,7.05-3.25,.46-.04,.46-.76,0-.72-3.64,.33-8.12,2.49-9.41,6.18-.52,1.47-.15,3.38,1.36,4.12s3.58-.43,4.81-1.39c3.61-2.81,3.7-7.14,4.36-11.29,.36-2.25,1.05-4.59,2.86-6.11s4.63-1.67,5.98,.5c1.43,2.3-1.17,5.08-2.98,6.27-1.98,1.3-4.33,1.9-6.68,1.99-.46,.02-.46,.74,0,.72h0Z"/>
      <path class="cls-11" d="M137.8,256.83c2.62-.1,5.38-1.07,6.97-3.25,.74-1,1.27-2.31,.64-3.5-.54-1.02-1.71-1.69-2.86-1.68-3.1,.03-4.42,3.42-4.8,5.97-.24,1.63-.31,3.32-.9,4.88s-1.75,2.79-3.24,3.47c-.53,.24-1.16,.44-1.7,.11-.42-.26-.66-.81-.69-1.29-.07-1.01,.66-1.93,1.33-2.6,1.35-1.34,3.14-2.15,5.02-2.32,.46-.04,.46-.76,0-.72-2.67,.24-5.95,1.83-6.9,4.54-.39,1.11-.1,2.53,1.03,3.09s2.66-.29,3.57-1c2.64-2.05,2.71-5.19,3.2-8.22,.26-1.61,.74-3.29,2.04-4.37,1.23-1.03,3.22-1.17,4.17,.34,1,1.61-.86,3.57-2.12,4.4-1.42,.93-3.1,1.36-4.78,1.43-.46,.02-.46,.74,0,.72h0Z"/>
      <path class="cls-8" d="M122.56,241.17c-.84,.74-1.97,1-3.04,1.21-1.19,.23-2.41,.35-3.62,.38-2.43,.06-4.84-.33-6.94-1.63-1.65-1.02-3.16,1.58-1.51,2.59,2.6,1.6,5.69,2.14,8.71,2.03s6.27-.46,8.53-2.46c1.45-1.28-.68-3.4-2.12-2.12h0Z"/>
      <path class="cls-11" d="M106.99,240.86c3.78,2.16,8.18,2.9,12.43,1.82,1.01-.26,1.99-.61,2.94-1.05,.53-.25,1.43-.49,1.63-1.08,.05-.15,0-.39,0-.54v-9.98c0-11.22,0-22.44,0-33.66,0-2.91,0-5.83,0-8.74,0-.19-.16-.36-.36-.36-5.49,0-10.97,0-16.46,0-.19,0-.36,.16-.36,.36,0,5.96,0,11.91,0,17.87,0,9.5,0,19,0,28.5,0,2.19,0,4.38,0,6.57,0,.46,.72,.46,.72,0,0-5.96,0-11.91,0-17.87,0-9.5,0-19,0-28.5,0-2.19,0-4.38,0-6.57l-.36,.36c5.49,0,10.97,0,16.46,0l-.36-.36c0,7.25,0,14.5,0,21.74,0,9.7,0,19.4,0,29.1,0,.53-.04,1.07,0,1.6,0,.12,0,.25,0,.38,0,.03,0,.06,0,.09,0-.45,.33-.23-.18-.08-.71,.2-1.43,.74-2.13,1-.63,.24-1.27,.44-1.92,.59-1.4,.33-2.83,.47-4.27,.41-2.64-.1-5.13-.91-7.42-2.21-.4-.23-.77,.39-.36,.62Z"/>
      <path class="cls-11" d="M123.53,235.67c2.43,1.07,4.03,3.54,3.74,6.23-.35,3.11-2.81,4.93-5.65,5.7-2.26,.61-5.15,.47-7.09,1.91-1.12,.83-1.79,2.09-3.29,2.25-1.34,.15-2.69-.3-3.97-.64l.26,.35v-10.65c0-.46-.72-.46-.72,0v10.65c0,.16,.11,.31,.26,.35,1.36,.36,2.79,.82,4.21,.67s2.17-1.06,3.21-2.01c1.37-1.25,3.2-1.36,4.95-1.68,1.44-.26,2.88-.56,4.22-1.16,2.55-1.14,4.32-3.51,4.35-6.35s-1.68-5.17-4.13-6.25c-.42-.19-.79,.43-.36,.62h0Z"/>
      <path class="cls-10" d="M175.92,193.81c-5.16,.9-10.46,.57-15.63-.2-3.95-.59-8.05-1.51-11.08-4.12l-.05-.02,2,30.74c0,2.73,1.81,5.14,4.44,5.87l1.92,.46c6.71,2.1,12.06,2.12,18.79,.06"/>
      <path class="cls-13" d="M180.13,189.03c-6.55-2.39-14.04-2.46-20.97-1.73-3.36,.35-6.74,.86-9.85,2.17v.02c3.02,2.6,7.12,3.53,11.07,4.12,5.18,.77,10.48,1.1,15.63,.2"/>
      <path class="cls-11" d="M178.67,189.78c-5.34-1.54-12.12-1.83-17.78-1.36-2.74,.23-5.5,.55-8.03,1.4h-.01c2.47,1.69,5.81,2.29,9.04,2.67,4.22,.5,10.28,.62,14.48,.04"/>
      <path class="cls-8" d="M31.98,39.52c.31,.06,.6,.14,.9,.23l.29,.1c-.19-.09-.2-.09,0,0,.23,.11,.46,.24,.68,.37,0,0,.72,.54,.39,.26,.24,.2,.44,.43,.67,.64l.21,.23c-.11-.17-.11-.17,0,0,.15,.21,.29,.43,.42,.65,0,.01,.39,.83,.22,.4,.51,1.3,.59,2.58,1.65,3.62,1.33,1.3,3.28,1.23,5.01,1.14,1.56-.08,3.14-.29,4.67-.63,.64-.14,1.61-.23,2.18-.57,.45-.27-.29-.14-.36-.09-.15-.08-.15-.05,0,.08,.11,.12,.22,.24,.33,.37,1.08,1.23,2.41,2.18,4.11,2.19,1.92,0,3.37-1.25,3.99-2.98,.55-1.53-.62-3.28-2.1-3.69-1.66-.46-3.14,.56-3.69,2.1l1.8-1.42c.33-.04,.58,.05,.77,.26-.01,.01-.3-.31-.42-.44-.39-.43-.74-.84-1.2-1.21-1.31-1.05-2.78-1.33-4.43-1.03-1.27,.23-2.49,.68-3.78,.88-.48,.07-.97,.12-1.45,.15-.55,.04-1.55-.12-2.06,.05-.89,.3,1.57,.69,1.13,.98,.08,.18,.07,.12-.03-.19l-.06-.28c-.14-.53-.32-1.03-.53-1.53-.48-1.13-1.11-2.12-1.92-3.05-1.48-1.69-3.58-2.92-5.77-3.37-1.59-.33-3.24,.46-3.69,2.1-.41,1.49,.5,3.36,2.1,3.69h0Z"/>
      <path class="cls-11" d="M172.56,114.21s59.86,29.36,26.35,88.85l-2.58-1.53-6.14-12.75c18.38-30.84-12.92-53.3-12.92-53.3l-4.71-21.27Z"/>
      <path class="cls-4" d="M200.31,208.34c-.17-1.42-.36-2.87-.95-4.17-.59-1.31-2.12-2.48-3.49-2.9l-.56,.13c.91-.3,1.73-.75,2.31-1.5,.76-1,.92-2.34,.76-3.59-.28-2.2-1.51-4.25-3.31-5.55-1.44-1.04-3.17-1.57-4.9-1.98-4.27-1.03-9.25-1.27-12.55,1.62-.97,.85-1.76,2.01-1.78,3.3-.02,1.29,.99,2.62,2.89,2.67l.46,.02c-.37,.03-.74,.04-1.1,.08-2.23,.25-4.52,.75-6.29,2.13s-2.84,3.85-2.02,5.94c.63,1.59,2.19,2.63,3.81,3.17,.02,0,.05,.01,.07,.02,.03-.01,.05-.02,.08-.03v.06s.07,.02,.1,.03l-.11,.16v-.18s-.05-.01-.07-.02c-1.62,.61-2.99,1.91-3.53,3.56-.55,1.67-.15,3.65,1.12,4.87,.62,.6,1.41,.99,2.22,1.29l.04-1.48,.11,1.53s-.1-.03-.15-.05v.42c-1.56,.95-2.05,3.14-1.38,4.84,.67,1.69,2.25,2.9,3.96,3.52,1.71,.62,3.56,.74,5.38,.83,3,.15,6.03,.24,8.97-.38,2.94-.62,5.8-2.02,7.66-4.37,3-3.81,2.81-9.17,2.24-13.98Z"/>
      <path class="cls-11" d="M33.5,50.02c-39.78,31.1-3.72,69.14,2.24,74.92l-2.29,18.07S-34.3,91.09,25.1,41.81l.02-.02c.33,.25,.73,.44,1.13,.56,.79,.23,1.62,.27,2.41,.48,1.83,.49,3.37,1.95,3.95,3.75,.3,.9,.36,1.86,.67,2.75"/>
      <g>
        <path class="cls-13" d="M130.31,62.41c-8.74-5.12-19.77-4.99-29.43-1.97-7.47,2.34-14.99,6.34-22.66,4.83-2.07-.41-4.18-1.3-5.37-3.05-2.08-3.04-.56-7.28,1.74-10.16,5.1-6.39,13.28-9.45,21.25-11.26,11.88-2.7,24.24-3.27,36.32-1.67,3.64,.48,7.29,1.17,10.67,2.61,3.38,1.44,6.49,3.7,8.46,6.8,1.59,2.51,2.37,5.66,1.58,8.52-1.05,3.79-4.64,6.44-8.43,7.49-4.12,1.14-8.67,.69-12.48-1.25"/>
        <path class="cls-13" d="M79.21,47.55c-3.09-2.26-4.26-6.54-3.52-10.29s3.12-7.01,5.94-9.6,6.11-4.59,9.26-6.76c4.35-3,8.52-6.39,11.57-10.7,2.46-3.48,4.47-7.76,8.45-9.29,3.36-1.29,7.26-.12,10.15,2.03s4.99,5.17,7.13,8.06,4.46,5.79,7.6,7.56c1.26,.71,2.62,1.21,3.9,1.88,4.36,2.28,7.61,6.43,9.19,11.09s1.57,9.78,.41,14.56"/>
      </g>
      <path class="cls-12" d="M152.77,56.92c-1.05,3.79-4.64,6.44-8.43,7.49-4.12,1.15-8.67,.69-12.48-1.25l-1.65-.89c-.06-.04-.13-.07-.19-.11,2.04-1.36,3.66-3.27,4.3-5.62,.79-2.86,.01-6-1.58-8.52-.38-.6-.8-1.16-1.26-1.7-.23-.27-.47-.53-.72-.79,.52-2.16,.82-4.38,.83-6.61,.01-2.69-.38-5.37-1.24-7.91-1.59-4.66-4.84-8.81-9.2-11.09-1.28-.67-2.64-1.18-3.9-1.89-3.14-1.76-5.46-4.66-7.6-7.55-1.3-1.77-2.59-3.57-4.06-5.2,1.41-1.96,3.01-3.67,5.23-4.52,3.36-1.29,7.26-.12,10.15,2.03,2.89,2.15,4.99,5.17,7.13,8.06,2.14,2.9,4.46,5.8,7.6,7.56,1.26,.71,2.62,1.21,3.9,1.88,4.36,2.28,7.61,6.44,9.19,11.1,1.59,4.65,1.58,9.75,.42,14.52,.74,.76,1.41,1.59,1.98,2.49,1.59,2.51,2.37,5.65,1.58,8.52Z"/>
      <path class="cls-4" d="M83.4,42.41c-.9-3.12,.08-6.25,1.77-8.92s4.03-4.17,6.73-5.61,5.19-2.86,7.55-4.74c2.51-1.99,4.67-4.34,6.54-6.94,1.13-1.57-1.47-3.07-2.59-1.51-2,2.78-4.46,5.22-7.25,7.21-2.55,1.82-5.41,3.05-8.07,4.68-5.42,3.34-9.44,10.17-7.58,16.62,.53,1.85,3.43,1.06,2.89-.8h0Z"/>
      <polygon class="cls-5" points="178.06 74.3 176.93 97.17 199.52 84.89 200.51 63.29 178.06 74.3"/>
      <polygon class="cls-5" points="223.15 102.84 204.81 91.4 181.88 103.03 201.35 115.08 223.15 102.84"/>
      <polygon class="cls-6" points="200.07 77.86 199.66 85.17 177.08 97.46 177.48 89.29 200.07 77.86"/>
      <polygon class="cls-6" points="204.51 91.55 209.6 94.87 187.92 106.87 182.42 103.34 204.51 91.55"/>
      <path class="cls-3" d="M24.89,41.81c1.09,.52,2.24,.88,3.36,1.31,.79,.3,1.69,.78,2.29,1.4,.36,.37,.8,.81,1.03,1.16,.31,.47,.39,.93,.5,1.53,.27,1.44,.76,3.2,2.33,3.7,1.39,.44,2.62-.53,3.19-1.74s.29-2.6,.05-3.86c-.47-2.46-1.57-4.71-3.56-6.3-1.25-1-2.7-1.29-4.26-1.38s-3.14-.06-4.61,.63c-.93,.44-.89,1.69-.3,2.36,.74,.84,1.8,1.06,2.85,1.21s1.91,.44,2.68,1.07c1.56,1.26,2.63,3.4,3.22,5.35,.24,.77,1.05,1.27,1.85,1.05s1.28-1.07,1.05-1.85c-.72-2.36-1.96-4.82-3.8-6.51-.94-.85-2.06-1.5-3.29-1.83-.5-.14-1.01-.18-1.52-.27-.25-.04-.5-.09-.74-.18,.15,.06,.03,.03-.04-.03,.2,.16-.12-.12-.14-.14l-.3,2.36c.81-.38,1.89-.27,2.84-.23s1.68,.08,2.37,.51c.05,.03,.34,.24,.14,.09,.08,.06,.16,.13,.24,.2,.17,.15,.32,.3,.48,.46,.36,.37,.59,.65,.85,1.06,.12,.19,.24,.38,.34,.58,.05,.09,.1,.19,.14,.29-.08-.2,0,.03,.01,.06,.16,.53,.34,1.04,.47,1.58,.05,.22,.1,.44,.15,.66,.02,.11,.04,.22,.06,.33,.06,.31,.03,.18,.02,.11,.04,.27,.06,.54,.08,.81,0,.12-.01,.27,.02,.38,.07,.27,.07-.27,.01,.02-.08,.36,.09-.13-.03,.07-.05,.08-.09,.16-.15,.24-.13,.2,.14-.14-.02,.02l-.05,.05c-.11,.1-.12,.11-.03,.04,.05,.02,.41-.17,.59-.12-.11-.03,.3,.06,.23,.11-.03,.02-.25-.52-.26-.55-.37-1.12-.36-2.27-.98-3.31-.52-.87-1.28-1.7-2.05-2.36-.89-.76-1.92-1.25-3.01-1.67-.96-.37-2.06-.71-2.8-1.07s-1.62-.2-2.05,.54c-.38,.65-.2,1.7,.54,2.05h0Z"/>
      <path class="cls-3" d="M147.32,198.8c-11.86,8.54-26.42,13.58-42.17,13.58-39.81,0-72.08-32.17-72.08-71.86s32.27-71.86,72.08-71.86,72.08,32.17,72.08,71.86c0,17.18-6.05,32.95-16.13,45.31l-1.22,1.18-5.98,.89-4.85,1.51,.33,8.02-2.06,1.36Z"/>
      <path class="cls-4" d="M136.11,183.3c-8.7,6.27-19.4,9.97-30.96,9.97-29.22,0-52.91-23.62-52.91-52.75s23.69-52.75,52.91-52.75,52.91,23.62,52.91,52.75c0,12.61-4.44,24.19-11.84,33.26"/>
      <path class="cls-3" d="M127,170.71c-6.14,4.42-13.69,7.03-21.84,7.03-20.62,0-37.34-16.67-37.34-37.22s16.72-37.22,37.34-37.22,37.34,16.67,37.34,37.22c0,8.9-3.13,17.07-8.36,23.47"/>
      <path class="cls-9" d="M123.59,165.17c-5.99,4.26-13.07,6.39-20.43,5.98-2.89-.16-5.84-.76-8.82-1.83-2.46-.88-5.19-2.33-7.58-4.02-2.08-1.48-4.44-3.74-6.26-5.99-.23-.29-.61-.8-1-1.35-.43-.63-.85-1.27-1.24-1.92-.73-1.22-1.52-2.76-2-3.89-2.28-5.41-2.98-11.8-1.95-17.42,.55-3.04,1.51-5.91,2.76-8.41,1.37-2.71,2.91-4.96,4.8-7.04,3.98-4.37,8.94-7.47,14.53-9.07,5.88-1.69,11.96-1.64,17.84,.14,5.53,1.67,10.44,4.86,14.37,9.3,1.82,2.06,3.46,4.54,4.77,7.27,1.13,2.35,2.07,5.42,2.56,8.32s.53,6.57,0,9.74c-.6,3.57-1.76,7.01-3.52,10.17-.85,1.52-1.8,2.99-2.9,4.35-1.02,1.26-1.23,3.01,0,4.24,1.05,1.05,3.22,1.27,4.24,0,5.42-6.72,8.54-14.95,8.54-23.63,0-7.01-2.02-14.05-5.83-19.94-7.67-11.9-21.8-18.67-35.9-16.88s-26.16,11.5-30.78,24.99-.73,28.88,9.55,38.65c11.22,10.67,28.15,13.23,42.1,6.52,1.81-.87,3.54-1.91,5.18-3.08,1.32-.94,1.95-2.62,1.08-4.1-.76-1.3-2.78-2.02-4.1-1.08h0Z"/>
      <path class="cls-8" d="M132.82,178.26c-8.99,6.42-19.78,9.57-30.82,8.89-8.76-.54-17.33-3.68-24.63-8.97-14.22-10.31-21.61-28.86-18.34-46.14,3.31-17.45,16.35-31.71,33.33-36.49,8.81-2.48,18.08-2.35,26.86,.38,8.25,2.57,15.63,7.43,21.42,14.05,5.68,6.49,9.45,14.63,10.86,23.4,.71,4.43,.74,9.94-.08,14.74-.92,5.38-2.72,10.56-5.41,15.31-1.25,2.21-2.67,4.34-4.27,6.32-1.02,1.26-1.23,3.01,0,4.24,1.05,1.05,3.22,1.27,4.24,0,7.72-9.54,12.08-21.34,12.04-33.65-.03-10.01-2.96-20-8.43-28.39-10.97-16.84-31.06-26.31-51.05-23.73s-36.97,16.37-43.5,35.4c-6.57,19.14-1.09,41.05,13.53,54.98,7.12,6.78,16.15,11.59,25.81,13.55,11.53,2.33,23.57,.83,34.15-4.33,2.56-1.25,4.99-2.72,7.31-4.37,1.32-.94,1.95-2.62,1.08-4.1-.76-1.3-2.78-2.02-4.1-1.08h0Z"/>
      <path class="cls-8" d="M132.82,178.26c-8.99,6.42-19.78,9.57-30.82,8.89-8.76-.54-17.33-3.68-24.63-8.97-14.22-10.31-21.61-28.86-18.34-46.14,3.31-17.45,16.35-31.71,33.33-36.49,8.81-2.48,18.08-2.35,26.86,.38,8.25,2.57,15.63,7.43,21.42,14.05,5.68,6.49,9.45,14.63,10.86,23.4,.71,4.43,.74,9.94-.08,14.74-.92,5.38-2.72,10.56-5.41,15.31-1.25,2.21-2.67,4.34-4.27,6.32-1.02,1.26-1.23,3.01,0,4.24,1.05,1.05,3.22,1.27,4.24,0,7.72-9.54,12.08-21.34,12.04-33.65-.03-10.01-2.96-20-8.43-28.39-10.97-16.84-31.06-26.31-51.05-23.73s-36.97,16.37-43.5,35.4c-6.57,19.14-1.09,41.05,13.53,54.98,7.12,6.78,16.15,11.59,25.81,13.55,11.53,2.33,23.57,.83,34.15-4.33,2.56-1.25,4.99-2.72,7.31-4.37,1.32-.94,1.95-2.62,1.08-4.1-.76-1.3-2.78-2.02-4.1-1.08h0Z"/>
      <g>
        <path class="cls-4" d="M72.77,85.57c4.3-3.09,9.14-5.26,14.31-6.4,1.88-.42,1.09-3.31-.8-2.89-5.4,1.19-10.54,3.48-15.03,6.7-.66,.47-.97,1.31-.54,2.05,.38,.65,1.39,1.01,2.05,.54h0Z"/>
        <path class="cls-4" d="M92.63,78.72c1.93,0,1.93-3,0-3s-1.93,3,0,3h0Z"/>
      </g>
      <path class="cls-4" d="M148.71,161.75c-.23,2.13-.66,4.29-1.74,6.15s-2.91,3.37-5.04,3.64-4.48-1-5.05-3.06c-.25-.88-.17-1.82-.22-2.73-.16-3-1.92-6.05-4.77-7.01-.81-.27-1.68-.38-2.45-.75-1.98-.95-2.79-3.55-2.13-5.65s2.49-3.65,4.51-4.51c3.77-1.6,8.35-.96,11.68,1.43s5.37,6.4,5.58,10.5"/>
      <path class="cls-4" d="M68.93,154.4c-3.81,2.02-6.56,5.35-7.12,9.01-.4,2.59,.03,5.46,1.81,7.39s5.12,2.48,7.06,.72c1.64-1.5,1.89-4.08,3.48-5.63,1.87-1.82,5.02-1.71,6.94-3.47,1.65-1.51,1.93-4.18,.91-6.17s-3.16-3.26-5.37-3.57-4.48,.06-6.48,1.06"/>
      <path class="cls-11" d="M130.87,62.1c-10.09-5.81-22.13-4.75-32.73-.99-5.81,2.06-11.91,4.76-18.22,4.01-3.04-.36-6.51-1.65-7.2-5.01-.6-2.9,.96-5.92,2.75-8.09,3.55-4.33,8.64-7.07,13.85-8.89,5.87-2.05,12.11-3.19,18.27-3.88,6.53-.73,13.13-.84,19.68-.31s13.06,1.23,18.56,4.56,10.2,10.86,5.35,16.72c-4.44,5.35-12.79,5.68-18.67,2.79-.41-.2-.78,.42-.36,.62,5.21,2.57,11.81,2.7,16.79-.51,2.06-1.33,3.79-3.25,4.55-5.61,.86-2.68,.34-5.62-.91-8.08-2.79-5.49-8.78-8.37-14.51-9.7-6.93-1.6-14.27-1.98-21.36-1.82s-14.36,1.06-21.34,2.72c-5.69,1.35-11.42,3.33-16.15,6.86-3.84,2.87-8.81,8.21-7,13.51,1.95,5.68,10.14,5.38,14.83,4.42,7.4-1.53,14.11-5.22,21.65-6.3s15.22-.18,21.81,3.61c.4,.23,.77-.39,.36-.62h0Z"/>
      <path class="cls-11" d="M79.77,47.24c-3.32-2.55-4.2-7.15-3.07-11.03s4.17-7.3,7.41-9.86c3.47-2.74,7.31-4.96,10.81-7.67,3.14-2.43,6.05-5.19,8.34-8.45,2.06-2.93,3.76-6.53,6.96-8.41,4.08-2.4,9-.5,12.25,2.42,3.06,2.75,5.17,6.33,7.76,9.49,1.25,1.52,2.61,2.95,4.2,4.12,1.68,1.24,3.62,1.93,5.46,2.9,9.1,4.77,11.65,15.88,9.43,25.25-.11,.45,.59,.64,.69,.19,2-8.47,.38-18.09-6.57-23.9-1.62-1.36-3.44-2.29-5.35-3.17-2.24-1.03-4.15-2.38-5.85-4.16-3.16-3.33-5.38-7.44-8.67-10.65-2.83-2.76-6.79-4.87-10.86-4.15-3.81,.67-6.19,3.84-8.19,6.87-2.58,3.92-5.39,7.33-9.04,10.31s-7.93,5.42-11.72,8.39-7.02,6.6-8.01,11.27c-.85,3.99,.34,8.36,3.64,10.89,.37,.28,.73-.34,.36-.62h0Z"/>
      <path class="cls-11" d="M109.82,40.8c.36,5.14,.51,10.28,.45,15.43,0,.46,.71,.46,.72,0,.06-5.15-.09-10.3-.45-15.43-.03-.46-.75-.46-.72,0h0Z"/>
      <path class="cls-11" d="M118.39,39.63c3.9,4.43,4.91,11.05,2.5,16.43-.19,.42,.43,.79,.62,.36,2.56-5.7,1.52-12.61-2.61-17.3-.31-.35-.81,.16-.51,.51h0Z"/>
      <path class="cls-11" d="M128.28,40.55c2.19,2.84,3.94,5.72,4.12,9.4,.16,3.35-.85,6.71-2.94,9.33-.29,.36,.22,.87,.51,.51,2.15-2.7,3.27-6.1,3.17-9.56-.11-3.93-1.9-7.01-4.23-10.05-.28-.36-.9,0-.62,.36h0Z"/>
      <path class="cls-11" d="M140.7,42.72c3.15,7.05,1.23,15.32-4.63,20.31-.35,.3,.16,.81,.51,.51,6.12-5.21,8.02-13.85,4.74-21.18-.19-.42-.81-.06-.62,.36h0Z"/>
      <path class="cls-11" d="M83.65,42.17c-1.09-4.28,1.37-8.47,4.52-11.21s7.1-4.51,10.55-6.91c6.17-4.29,10.62-10.75,12.53-18.01,.12-.45-.58-.64-.69-.19-2.22,8.41-7.7,14.97-15.06,19.4-3.44,2.07-7.15,4.01-9.75,7.15-2.3,2.78-3.71,6.35-2.79,9.95,.11,.45,.81,.26,.69-.19h0Z"/>
      <path class="cls-11" d="M92.49,38.84c-.22-3.82,1.98-6.8,5.34-8.38,1.52-.71,3.1-1.27,4.54-2.14,1.31-.79,2.5-1.78,3.56-2.88,4.83-5.01,6.59-11.93,7.66-18.61,.07-.45-.62-.65-.69-.19-1.14,7.15-3.11,14.78-8.9,19.63-1.38,1.16-2.92,2.01-4.56,2.72-1.52,.65-3.07,1.25-4.37,2.3-2.27,1.81-3.45,4.68-3.28,7.56,.03,.46,.75,.46,.72,0h0Z"/>
      <path class="cls-11" d="M104.41,37.5c-.07-3.52,1.36-6.41,3.7-8.96,1.91-2.07,3.71-4.02,4.93-6.59,2.37-4.94,2.82-10.53,3.23-15.91,.03-.46-.69-.46-.72,0-.43,5.75-.91,11.85-3.86,16.95-1.47,2.55-3.73,4.37-5.49,6.69s-2.57,4.99-2.51,7.83c0,.46,.73,.46,.72,0h0Z"/>
      <path class="cls-11" d="M117.56,6.38c-.58,4.86-1.12,10.47,2.03,14.63,1.66,2.2,4.21,3.65,5.52,6.13,1.44,2.73,1.39,5.94,1.33,8.94,0,.46,.71,.46,.72,0,.05-2.65,.08-5.41-.83-7.94s-2.77-4.08-4.62-5.87c-4.45-4.3-4.1-10.2-3.42-15.89,.06-.46-.67-.46-.72,0h0Z"/>
      <path class="cls-11" d="M121.2,9.17c-.56,5.06,2.12,9.75,5.64,13.19,2.05,2,4.52,3.51,6.17,5.89s2.49,5.29,2.44,8.2c0,.46,.71,.46,.72,0,.04-2.45-.49-4.86-1.62-7.04-1.27-2.46-3.24-4.18-5.35-5.92-4.26-3.52-7.93-8.52-7.28-14.33,.05-.46-.67-.46-.72,0h0Z"/>
      <path class="cls-11" d="M124.51,11.06c-.03,5.7,4.79,9.56,9.08,12.5,2.35,1.61,4.79,3.21,6.71,5.34,2.37,2.63,3.42,5.91,3.04,9.43-.05,.46,.67,.46,.72,0,.31-2.92-.29-5.83-1.94-8.28-1.47-2.18-3.53-3.86-5.65-5.38-4.69-3.37-11.26-7-11.23-13.61,0-.46-.72-.46-.72,0h0Z"/>
      <path class="cls-11" d="M38.09,46.35c-.32-2.44-.95-4.97-2.68-6.82-1.49-1.6-3.64-2.44-5.8-1.98l.44,.44c1.15-7.8,4.61-15.17,9.95-20.99,2.72-2.96,6.33-6.4,10.61-6.46,1.31-.02,2.5,.23,3.21,1.43,.6,1.02,.9,2.28,.97,3.46,.13,2.16-.59,4.35-2.11,5.91s-4.52,3.02-6.62,1.94c-1.3-.67-1.44-2.35-.75-3.53,.65-1.11,1.78-1.8,2.89-2.38,.41-.22,.05-.84-.36-.62-1.78,.94-3.67,2.33-3.66,4.55,0,1.94,1.47,2.94,3.29,2.98,4.75,.08,8.31-4.27,8.05-8.85-.11-1.88-.73-4.49-2.67-5.28-2.04-.83-4.59-.15-6.47,.77-4.5,2.19-8.15,6.56-10.85,10.68-3.2,4.88-5.3,10.42-6.16,16.19-.04,.27,.15,.5,.44,.44,4.82-1.02,7.07,4.28,7.57,8.11,.06,.45,.78,.46,.72,0h0Z"/>
      <path class="cls-11" d="M51.41,22.49c-1.67,1.14-2.29,3.5-.64,4.95,1.55,1.37,3.93,1.31,5.77,.66,4.6-1.61,7.02-6.99,4.96-11.47-1.08-2.34-3.66-4.01-6.2-2.84-.42,.19-.06,.81,.36,.62,2.71-1.25,5.02,1.37,5.62,3.77s0,5.2-1.71,7.08c-1.5,1.66-3.88,2.8-6.15,2.53-.97-.12-2.04-.52-2.6-1.36-.77-1.17-.11-2.6,.94-3.32,.38-.26,.02-.88-.36-.62h0Z"/>
      <path class="cls-11" d="M55.87,27.65c-.86,1.48-1.25,3.72,.39,4.83s4,.33,5.6-.37c1.87-.82,3.5-2.15,4.7-3.81s2.07-3.97,1.16-5.98c-1.01-2.22-3.62-3.06-5.79-2.06-.42,.19-.06,.81,.36,.62,1.73-.79,3.8-.13,4.69,1.56s.14,3.77-.88,5.26c-.93,1.35-2.18,2.47-3.61,3.28-1.34,.76-3.04,1.4-4.6,1.28-.96-.08-1.82-.6-2.01-1.59-.18-.91,.16-1.87,.62-2.66,.23-.4-.39-.76-.62-.36h0Z"/>
      <path class="cls-11" d="M47.01,38.31c2.46,.33,5.14,.53,7.43-.63,1.81-.92,3.25-2.67,3.29-4.76,0-.46-.71-.46-.72,0-.04,1.95-1.52,3.53-3.24,4.28-2.11,.92-4.55,.68-6.77,.39-.46-.06-.45,.66,0,.72h0Z"/>
      <path class="cls-11" d="M49.5,42.84c-.82,1.15-.78,2.75-.06,3.95s2.13,2,3.53,2.24c.8,.14,1.58,.11,2.32-.25s1.32-.9,1.82-1.5c.97-1.16,1.59-2.58,1.73-4.09,.18-1.83-.38-3.7-1.48-5.16-.28-.37-.9,0-.62,.36,2.11,2.8,1.8,6.84-.89,9.15-.76,.65-1.6,.95-2.6,.8-.8-.12-1.6-.42-2.25-.91-1.31-.98-1.87-2.83-.87-4.23,.27-.38-.35-.74-.62-.36h0Z"/>
      <path class="cls-11" d="M57.68,38.21c.83-1.51,2.54-2.01,4.13-2.3,1.8-.32,3.64-.47,5.44-.76,3.03-.49,6.19-1.44,8.36-3.74,1.65-1.74,2.92-4.76,.63-6.55s-5.95-1.19-8.44-.18c-.42,.17-.24,.87,.19,.69,2.28-.92,6.73-1.86,8.41,.68,1.76,2.67-1.98,5.79-4.05,6.83-2.78,1.41-5.95,1.65-8.99,2.06-2.29,.31-5.07,.64-6.31,2.89-.22,.41,.4,.77,.62,.36h0Z"/>
      <path class="cls-11" d="M68.75,154.09c-3.76,2.05-6.93,5.51-7.38,9.92-.4,4.02,1.55,8.71,6.12,8.93,1.97,.09,3.57-.92,4.55-2.6,.54-.93,.89-1.95,1.41-2.89,.68-1.22,1.64-1.99,2.92-2.51,1.85-.75,4.01-1.08,5.37-2.68,1.23-1.44,1.52-3.57,.94-5.35-1.72-5.23-8.51-5.51-12.71-3.49-.42,.2-.05,.82,.36,.62,3.71-1.79,9.77-1.71,11.56,2.8,.7,1.77,.39,3.99-1.04,5.31-1.36,1.25-3.33,1.51-4.97,2.22-1.55,.67-2.57,1.72-3.31,3.23-.82,1.66-1.42,3.68-3.33,4.37-1.75,.63-3.85,.03-5.16-1.24-1.5-1.45-2.05-3.63-2.03-5.66,.04-4.61,3.19-8.25,7.08-10.37,.41-.22,.04-.84-.36-.62h0Z"/>
      <path class="cls-11" d="M132.78,184.3c1.71-5.02,1.23-10.74-1.29-15.41-.77-1.42-1.73-2.75-2.97-3.78-3.99-3.3-10.37-2.62-14.24,.81-1.38,1.23-2.5,2.73-3.86,3.98s-3.11,2.25-4.96,2.13c-3.8-.25-5.84-4.82-9.41-6.16-2.91-1.09-6.79-.35-9.44,1.28-3.94,2.42-7.02,6.69-7.26,11.31-.08,1.59,.26,3.18,.81,4.67,1.88,5.04,6.18,8.94,11.1,11.14s10.4,2.82,15.78,2.72c4.66-.09,9.36-.71,13.7-2.42s8.31-4.57,10.84-8.48"/>
      <path class="cls-11" d="M148.35,161.75c-.29,2.54-.85,5.22-2.58,7.21-1.54,1.77-3.95,2.83-6.23,1.87-1.08-.46-1.99-1.31-2.32-2.45s-.13-2.28-.28-3.4c-.23-1.71-.95-3.39-2.11-4.68-.53-.59-1.16-1.11-1.86-1.48-.97-.52-2.04-.62-3.05-1.01-2.34-.92-3-3.82-2.03-5.96,2.01-4.42,8.06-5.27,12.2-3.91,5.08,1.67,8.3,6.62,8.63,11.83,.03,.46,.75,.46,.72,0-.32-4.97-3.09-9.78-7.69-11.94-4.3-2.02-10.33-1.69-13.54,2.17-1.35,1.63-1.9,3.82-1.12,5.83,.32,.82,.84,1.57,1.56,2.09,1.18,.86,2.7,.83,3.96,1.51,2.6,1.4,3.62,4.3,3.7,7.09,.06,2.22,.77,4.05,2.94,4.97,2.35,1,4.91,.11,6.65-1.63,2.15-2.15,2.83-5.2,3.16-8.11,.05-.46-.67-.46-.72,0h0Z"/>
      <path class="cls-11" d="M133.13,159.09c.09-1.86,.76-3.72,2.09-5.06s3.33-1.97,5.18-1.51c2.05,.51,3.42,2.48,3.97,4.43s.06,4.05-1.35,5.52c-1.59,1.66-4.07,2.09-6.18,1.26-.43-.17-.62,.53-.19,.69,2.11,.83,4.59,.49,6.35-.96s2.55-3.59,2.27-5.73-1.7-4.7-3.83-5.62c-1.9-.83-4.22-.5-5.89,.7-2,1.45-3.02,3.86-3.14,6.28-.02,.46,.7,.46,.72,0h0Z"/>
      <path class="cls-11" d="M145.1,158.77c-.01,2-1.08,3.96-2.75,5.07-1.59,1.05-3.66,1.3-5.45,.67-.53-2.48-2.09-4.78-4.41-5.72,.21-2.25,1.26-4.46,3.11-5.75,1.98-1.38,4.87-1.52,6.76-.02,.52,.41,.94,.92,1.32,1.47,.86,1.26,1.43,2.75,1.42,4.28Z"/>
      <g>
        <path class="cls-11" d="M193.13,202.27c2.88-.49,5.56-1.6,5.67-4.93,.1-3.1-1.83-6.04-4.5-7.49s-6.41-2.15-9.56-2.14c-2.94,0-6.15,.84-8.1,3.19s-1.17,5.61,2.11,5.83c.46,.03,.46-.69,0-.72-2.08-.14-3.09-1.93-2.14-3.79,.77-1.51,2.39-2.56,3.95-3.12,2.88-1.03,6.1-.75,9.03-.09,3.41,.76,6.76,2.16,8.04,5.7,.59,1.63,.79,3.79-.46,5.17-1.05,1.16-2.76,1.44-4.23,1.69-.46,.08-.26,.77,.19,.69h0Z"/>
        <path class="cls-11" d="M189.19,196.57c-3.66-.69-7.39-.88-11.09-.45-2.82,.32-5.94,1.06-7.73,3.47-1.5,2.02-1.7,4.77,.11,6.67,2.16,2.26,5.68,2.56,8.62,2.45,4.45-.17,8.91-.77,13.34-1.18,.46-.04,.46-.76,0-.72-4.1,.38-8.2,.85-12.3,1.12-3.27,.22-8.89,.16-10.1-3.77s3.42-6.55,6.67-7.12c4.04-.71,8.28-.53,12.29,.23,.45,.09,.65-.61,.19-.69h0Z"/>
        <path class="cls-11" d="M173.66,207.36c-2.21,.87-4,2.77-4.11,5.23-.12,2.59,1.57,4.39,3.88,5.24,6.44,2.36,13.58,.58,19.97-1.03,.45-.11,.26-.81-.19-.69-5.32,1.34-10.91,2.74-16.42,1.84-2.42-.4-5.56-1.13-6.34-3.82s.97-5.12,3.4-6.07c.43-.17,.24-.86-.19-.69h0Z"/>
        <path class="cls-11" d="M173.29,217.58c-2.81,1.93-2.07,5.79,.32,7.71,1.58,1.27,3.57,1.77,5.55,1.99,2.46,.27,5.02,.35,7.49,.24,4.1-.19,8.46-1.31,11.29-4.49s3.21-7.21,3.03-11.1c-.1-2.31-.23-4.84-.96-7.05-.64-1.94-2.13-3.29-4.04-3.95-.44-.15-.63,.54-.19,.69,2.59,.89,3.62,2.98,4.01,5.54,.33,2.1,.51,4.25,.49,6.37-.04,4.63-1.58,8.99-5.83,11.32s-9.44,2.13-14.16,1.8c-2.39-.17-5-.6-6.75-2.39-1.63-1.66-2.02-4.61,.11-6.06,.38-.26,.02-.88-.36-.62h0Z"/>
      </g>
      <path class="cls-11" d="M149.52,84.34c11.05,8.75,19.46,20.62,23.84,34.03,4.72,14.46,4.66,30.35-.16,44.78-2.72,8.15-6.95,15.75-12.36,22.42-.29,.36,.22,.87,.51,.51,9.79-12.06,15.54-27.04,16.18-42.57,.6-14.73-3.36-29.47-11.33-41.88-4.36-6.78-9.84-12.79-16.16-17.79-.36-.28-.87,.22-.51,.51h0Z"/>
      <path class="cls-11" d="M53.79,90.61c8.78-8.93,19.79-15.54,31.86-18.92,12.81-3.6,26.59-3.56,39.38,.11,7.17,2.06,13.96,5.25,20.16,9.39,.39,.26,.75-.37,.36-.62-22.43-14.97-52.12-16.27-75.71-3.13-6.1,3.4-11.67,7.69-16.57,12.67-.33,.33,.18,.84,.51,.51h0Z"/>
      <path class="cls-11" d="M45.32,101.07c1.83-2.74,3.84-5.36,6.02-7.83,.31-.35-.2-.86-.51-.51-2.22,2.52-4.27,5.18-6.13,7.98-.26,.39,.37,.75,.62,.36h0Z"/>
      <path class="cls-11" d="M42.25,174.88c-9.16-16.73-11.29-36.79-5.76-55.06,1.51-5,3.59-9.8,6.14-14.35,.23-.4-.39-.77-.62-.36-9.42,16.78-11.82,37-6.45,55.51,1.48,5.09,3.53,9.99,6.07,14.64,.22,.41,.84,.04,.62-.36h0Z"/>
      <path class="cls-11" d="M74.52,205.18c-11.91-5.67-22.1-14.5-29.38-25.5-.25-.38-.88-.02-.62,.36,7.35,11.1,17.61,20.04,29.64,25.76,.42,.2,.78-.42,.36-.62h0Z"/>
      <path class="cls-11" d="M147.14,198.49c-15.28,10.94-34.47,15.56-53.06,12.68-5.34-.83-10.57-2.27-15.59-4.26-.43-.17-.62,.53-.19,.69,17.84,7.05,38.14,6.79,55.75-.85,4.75-2.06,9.25-4.64,13.46-7.65,.37-.27,.01-.89-.36-.62h0Z"/>
      <path class="cls-9" d="M76.72,185.34c-15.95-10.16-25.39-28.29-24.51-47.22,.77-16.59,9.84-32.36,23.72-41.47s32.83-11.35,49.07-4.93c7.39,2.92,14.29,7.82,19.77,13.91,5.47,6.09,9.54,13.64,11.66,21.66,4.74,17.96-.61,37.87-14.09,51.11-1.57,1.54-3.32,3.08-5.01,4.36-1.29,.98-1.96,2.59-1.08,4.1,.74,1.27,2.8,2.06,4.1,1.08,8.5-6.43,15.16-14.81,19.29-24.65,3.98-9.48,5.35-19.98,4-30.16-2.45-18.55-13.84-35.2-30.33-44.11-16.93-9.14-37.67-9.39-54.85-.76-16.46,8.28-28.54,24.5-31.49,42.72-3.32,20.5,4.36,41.78,20.49,55.01,1.99,1.63,4.06,3.15,6.22,4.52,1.37,.87,3.31,.28,4.1-1.08,.85-1.45,.29-3.23-1.08-4.1h0Z"/>
      <path class="cls-11" d="M126.34,109.91c10.01,6.97,16.04,18.4,16.1,30.6,0,.46,.72,.46,.72,0-.06-12.46-6.23-24.11-16.46-31.22-.38-.27-.74,.36-.36,.62h0Z"/>
      <path class="cls-11" d="M92.87,105.39c9.91-3.37,20.81-2.51,30.05,2.42,.41,.22,.77-.4,.36-.62-9.4-5.02-20.51-5.93-30.6-2.49-.44,.15-.25,.84,.19,.69h0Z"/>
      <path class="cls-11" d="M82.29,111.13c2.15-1.65,4.47-3.08,6.92-4.24,.42-.2,.05-.82-.36-.62-2.45,1.16-4.77,2.59-6.92,4.24-.36,.28,0,.9,.36,.62h0Z"/>
      <path class="cls-11" d="M68.9,149.3c-3.11-13.14,1.1-26.96,10.98-36.14,.34-.32-.17-.82-.51-.51-10.08,9.36-14.34,23.46-11.17,36.84,.11,.45,.8,.26,.69-.19h0Z"/>
      <ellipse class="cls-4" cx="105.15" cy="138.51" rx="18.25" ry="18.2"/>
      <path class="cls-11" d="M37.59,47.05c3.77,.71,8,1.4,11.37-.93,.38-.26,.02-.89-.36-.62-3.2,2.22-7.24,1.53-10.82,.86-.45-.09-.65,.61-.19,.69h0Z"/>
      <path class="cls-11" d="M35.02,123.88c-4.87-4.36-9.03-9.77-12.43-15.3-6.49-10.56-10.18-23.28-6.38-35.48,2.91-9.34,9.6-16.86,17.16-22.81,.36-.29-.15-.79-.51-.51-6.84,5.38-12.93,12-16.27,20.14-2.55,6.2-3.23,12.97-2.2,19.58,1.71,11.01,7.71,21.07,14.88,29.41,1.64,1.91,3.36,3.81,5.24,5.49,.34,.31,.86-.2,.51-.51h0Z"/>
      <path class="cls-11" d="M29.7,38.25c.46,0,.46-.72,0-.72s-.46,.72,0,.72h0Z"/>
      <path class="cls-11" d="M33.26,142.7c-7.08-5.43-13.87-12.9-19.21-20.31C4.07,108.54-2.34,91.34,2.24,74.27c3.5-13.05,12.54-23.71,22.73-32.21,.36-.3-.16-.8-.51-.51-9.29,7.74-17.57,17.22-21.73,28.73-3.12,8.66-3.53,18.02-1.47,26.97,1.89,8.21,5.66,15.91,10.34,22.88,3.9,5.82,8.46,11.21,13.43,16.14,1.65,1.64,3.36,3.23,5.11,4.76,.8,.69,1.64,1.61,2.56,2.14,.06,.03,.12,.09,.17,.13,.37,.28,.73-.34,.36-.62h0Z"/>
      <path class="cls-11" d="M177.08,135.79c3.48,2.5,6.55,5.77,9.2,9.1,5.57,7,9.39,15.56,9.32,24.62-.06,6.79-2.31,13.28-5.73,19.08-.24,.4,.39,.76,.62,.36,5.71-9.67,7.57-20.89,3.72-31.59-2.62-7.28-7.34-13.73-12.96-18.99-1.21-1.13-2.46-2.24-3.8-3.21-.38-.27-.74,.35-.36,.62h0Z"/>
      <path class="cls-11" d="M172.37,114.52c6.65,3.27,12.79,8.13,18.05,13.29,10.9,10.69,18.22,24.74,18.31,40.23,.07,12.32-4.17,24.2-10.14,34.84-.23,.4,.39,.77,.62,.36,5.4-9.63,9.39-20.21,10.12-31.3,.55-8.42-.91-16.85-4.27-24.58-2.9-6.68-7.14-12.73-12.13-18.01-3.92-4.15-8.32-7.86-13.03-11.1-1.54-1.06-3.11-2.06-4.73-3.01-.71-.41-1.54-1.06-2.33-1.29-.04-.01-.07-.04-.11-.05-.41-.2-.78,.42-.36,.62h0Z"/>
      <g>
        <path class="cls-11" d="M177.58,96.61c.34-6.94,.69-13.88,1.03-20.82,.03-.53,.09-1.07,.08-1.6,0-.64,.1-.2-.12-.16,.8-.14,1.76-.87,2.49-1.22l11.35-5.57c2.86-1.4,5.71-2.8,8.57-4.2l-.54-.31c-.29,6.28-.58,12.57-.86,18.85l-.13,2.75c-.02,.46,.7,.46,.72,0,.29-6.28,.58-12.57,.86-18.85l.13-2.75c.01-.29-.31-.42-.54-.31-6.54,3.21-13.08,6.42-19.62,9.63-.94,.46-1.88,.92-2.82,1.39-.12,.06-.17,.19-.18,.31-.33,6.67-.66,13.34-.99,20.01-.05,.95-.09,1.91-.14,2.86-.02,.46,.7,.46,.72,0h0Z"/>
        <path class="cls-11" d="M184.48,70.49c-.21,6.5-.41,13-.62,19.5l-.09,2.81c-.01,.46,.71,.46,.72,0,.21-6.5,.41-13,.62-19.5l.09-2.81c.01-.46-.71-.46-.72,0h0Z"/>
        <path class="cls-11" d="M191.96,66.82c-.21,6.5-.41,13-.62,19.5l-.09,2.81c-.01,.46,.71,.46,.72,0,.21-6.5,.41-13,.62-19.5l.09-2.81c.01-.46-.71-.46-.72,0h0Z"/>
      </g>
      <g>
        <path class="cls-11" d="M181.84,103.48c5.68,3.51,11.36,7.03,17.04,10.54,.81,.5,1.62,1,2.43,1.51,.11,.07,.25,.06,.36,0,6.35-3.57,12.71-7.13,19.06-10.7,.91-.51,1.83-1.03,2.74-1.54,.24-.14,.22-.48,0-.62-5.34-3.33-10.68-6.66-16.02-9.99-.78-.48-1.55-.97-2.33-1.45-.39-.25-.76,.38-.36,.62,5.34,3.33,10.68,6.66,16.02,9.99,.78,.48,1.55,.97,2.33,1.45v-.62c-6.09,3.42-12.18,6.84-18.27,10.25-1.05,.59-2.26,1.1-3.23,1.81-.45,.33-.09,0,0,.13-.15-.22-.67-.42-.9-.55l-9.94-6.15c-2.86-1.77-5.72-3.54-8.58-5.3-.4-.24-.76,.38-.36,.62h0Z"/>
        <path class="cls-11" d="M208.03,111.4c-5.48-3.52-10.95-7.05-16.43-10.57-.78-.5-1.56-1-2.34-1.5-.39-.25-.75,.37-.36,.62,5.48,3.52,10.95,7.05,16.43,10.57,.78,.5,1.56,1,2.34,1.5,.39,.25,.75-.37,.36-.62h0Z"/>
        <path class="cls-11" d="M215.3,107.32c-5.48-3.52-10.95-7.05-16.43-10.57-.78-.5-1.56-1-2.34-1.5-.39-.25-.75,.37-.36,.62,5.48,3.52,10.95,7.05,16.43,10.57,.78,.5,1.56,1,2.34,1.5,.39,.25,.75-.37,.36-.62h0Z"/>
      </g>
      <path class="cls-11" d="M149.12,189.72c4.83-1.98,10.31-2.41,15.49-2.54s10.29,.38,15.15,2.11c.44,.16,.63-.54,.19-.69-4.91-1.75-10.15-2.27-15.34-2.13s-10.8,.57-15.68,2.57c-.42,.17-.24,.87,.19,.69h0Z"/>
      <path class="cls-11" d="M72.71,167.74c-1.97,.22-3.98-.6-5.1-2.27s-1.21-3.68-.35-5.43c1.62-3.3,6.54-5.99,9.73-3.2,1.83,1.61,2.26,4.16,1.85,6.46-.08,.45,.61,.65,.69,.19,.42-2.32,.09-4.79-1.5-6.62-1.48-1.7-3.71-2.28-5.86-1.68-4.17,1.16-7.69,5.77-5.53,10.04,1.13,2.23,3.61,3.5,6.07,3.23,.46-.05,.46-.77,0-.72h0Z"/>
      <path class="cls-11" d="M79.4,163.22c-1.75,.74-3.79,1.04-5.14,2.37-.73,.72-1.18,1.67-1.62,2.62-1.63,.14-3.31-.47-4.47-1.63-1.22-1.21-1.83-3-1.62-4.71,.27-2.18,1.8-4.04,3.65-5.22,1.5-.95,3.35-1.54,5.07-1.12,1.6,.39,2.93,1.63,3.62,3.12,.65,1.42,.77,3.03,.51,4.57Z"/>
      <circle class="cls-4" cx="70.22" cy="161.6" r="2.26"/>
      <circle class="cls-4" cx="140.67" cy="156.52" r="2.26"/>
      <path class="cls-11" d="M28.74,37.35c-1.84-.05-4.19,.08-4.97,2.1s1.18,3.14,2.84,3.44c1.12,.2,2.17,.37,3.14,1.01,.89,.59,1.61,1.46,2.01,2.44,.7,1.72,.47,4.34,2.54,5.18,.96,.39,2.01,.03,2.74-.66,.85-.8,1.19-1.98,1.49-3.07,.12-.45-.57-.64-.69-.19-.31,1.13-.66,2.44-1.74,3.08-1.3,.76-2.41-.22-2.84-1.44-.37-1.05-.4-2.19-.84-3.22-.35-.84-.9-1.59-1.58-2.19s-1.42-1.02-2.26-1.28c-1.07-.33-2.28-.26-3.28-.83-1.19-.67-1.22-2-.23-2.88s2.46-.8,3.68-.77c.46,.01,.46-.71,0-.72h0Z"/>
      <path class="cls-8" d="M120.87,138.4c-.07,6.58-4.2,12.64-10.46,14.85s-13.3,.3-17.56-4.77-4.81-12.48-1.43-18.14,10.23-8.75,16.74-7.42c7.35,1.5,12.64,8,12.71,15.48,.01,1.45,2.26,1.45,2.25,0-.08-7.52-4.75-14.26-11.8-16.91-7.05-2.65-15.37-.44-20.17,5.36s-5.58,14.36-1.59,20.88,11.61,9.78,19.02,8.35c8.4-1.63,14.45-9.21,14.53-17.68,.01-1.45-2.24-1.45-2.25,0Z"/>
      <path class="cls-11" d="M135.63,97.72c10.31,7.36,17.8,18.29,20.74,30.64s1.1,26.61-5.44,38.07c-3.55,6.23-8.38,11.67-14.1,16-.36,.28,0,.9,.36,.62,10.39-7.87,17.76-19.34,20.29-32.16,2.58-13.07,.13-26.89-6.88-38.23-3.78-6.11-8.78-11.39-14.62-15.56-.38-.27-.74,.35-.36,.62h0Z"/>
      <path class="cls-11" d="M86.64,91.37c14.72-5.43,31.26-4.09,44.88,3.71,.4,.23,.77-.39,.36-.62-13.77-7.89-30.54-9.28-45.43-3.78-.43,.16-.24,.86,.19,.69h0Z"/>
      <path class="cls-11" d="M57.11,119.03c5.14-11.27,14.09-20.42,25.23-25.82,.42-.2,.05-.82-.36-.62-11.24,5.45-20.3,14.72-25.49,26.08-.19,.42,.43,.78,.62,.36h0Z"/>
      <path class="cls-11" d="M76.99,184.86c-14.96-9.53-24.35-26.18-24.48-43.96-.04-6.07,.98-12.1,2.97-17.83,.15-.44-.54-.63-.69-.19-6.32,18.17-2.29,38.71,10.55,53.05,3.3,3.69,7.11,6.89,11.29,9.55,.39,.25,.75-.37,.36-.62h0Z"/>
      <rect class="cls-7" x="92.78" y="107.45" width="130.41" height="7.91" rx="3.95" ry="3.95" transform="translate(-33.77 86.94) rotate(-27.92)"/>
      <path class="cls-4" d="M124.52,167.3c-.17-1.93-1.02-3.5-2.71-4.45-2.68,.13-5.38,1.17-7.4,2.96-.55,.49-1.07,1.03-1.57,1.58,.05,.21,.11,.41,.18,.61,0,.01,.01,.03,.01,.04-.16-.04-.31-.09-.47-.14-.01,0-.02,0-.04,0-.03-.02-.06-.03-.1-.04-.6,.66-1.21,1.33-1.87,1.93-1.37,1.25-3.11,2.26-4.96,2.14-3.8-.25-5.84-4.83-9.41-6.16-1.4-.52-3.02-.63-4.62-.41-.35,.07-.69,.16-1.02,.28-1.11,.39-2.14,1.02-3.27,1.34-.24,1.9,.12,3.91,1.21,5.48,1.13,1.61,3.08,2.68,5.03,2.5,1.9-.16,3.66-1.63,3.99-3.5,.03,1.06,.43,2.11,1.13,2.91,1.01,1.15,2.62,1.74,4.13,1.53,1.31-.19,2.62-1.13,2.75-2.45v-1.52l.05,.34v1.6c.33,1.82,2.1,3.12,3.92,3.43,1.72,.3,3.58-.14,4.89-1.29,1.03-.89,1.69-2.23,1.75-3.59l.05,.07c.22,.19,.31,.15,.57,.28,1.71,.91,3.92,.72,5.5-.41,1.57-1.12,2.45-3.13,2.28-5.05Z"/>
      <path class="cls-10" d="M115.85,195.5s-.01,.02-.02,.03c-.11,.26-.22,.51-.37,.74-2.67,.53-5.41,.76-8.14,.81-4.29,.08-8.65-.3-12.72-1.58-.02-.2,.01-.41,.07-.6,0,0,.01-.01,.01-.02,.28-2.14,1.53-4.14,3.34-5.33,1.92-1.25,4.43-1.56,6.6-.8,.6,.21,1.18,.52,1.69,.91,.04,.03,.07,.06,.11,.1,.98-2.2,3.39-3.73,5.8-3.53,2.42,.19,4.61,2.19,4.91,4.59,.2,1.64-.4,3.27-1.28,4.68Z"/>
      <path class="cls-8" d="M88.88,168.46c1.56-.46,3.16-.93,4.8-.9,1.8,.03,3.03,.88,4.28,2.09,2.14,2.06,4.49,3.97,7.58,4.14s5.55-1.53,7.7-3.47c2.33-2.1,4.69-4.93,8.1-4.86,1.45,.03,1.45-2.22,0-2.25-3.17-.06-5.74,1.83-7.96,3.9s-4.85,4.92-8.34,4.38-4.98-3.65-7.73-5.23-6.12-.82-9.03,.04c-1.39,.41-.8,2.58,.6,2.17h0Z"/>
      <path class="cls-11" d="M86.88,166.71c-.43,3.28,.91,6.83,4.16,8.11,1.4,.55,2.98,.52,4.32-.19s2.26-1.92,2.48-3.37c.07-.45-.63-.65-.69-.19-.19,1.3-1.04,2.38-2.21,2.97s-2.66,.57-3.9,0c-2.81-1.28-3.81-4.45-3.43-7.33,.06-.46-.66-.45-.72,0h0Z"/>
      <path class="cls-11" d="M97.26,169.86c-.63,2.38,.56,4.93,2.84,5.9,1.95,.83,5.04,.37,5.66-2.02,.16-.62,.07-1.31,.07-1.94,0-.46-.72-.46-.72,0s.01,.94,0,1.41c-.02,.81-.63,1.45-1.31,1.82-1.84,1.01-4.31,.14-5.36-1.6-.61-1.01-.78-2.24-.48-3.38,.12-.45-.58-.64-.69-.19h0Z"/>
      <path class="cls-11" d="M112.37,168.11c1.46,.24,2.7,1.31,3.15,2.73s.03,3.12-.96,4.28c-2,2.33-6.31,2.47-8.15-.15-.34-.48-.55-1-.55-1.59v-1.25c0-.46-.72-.46-.72,0,0,1.12-.07,2.09,.57,3.08,.91,1.42,2.56,2.23,4.21,2.38,1.79,.16,3.68-.44,4.94-1.73s1.82-3.06,1.47-4.78c-.37-1.83-1.92-3.36-3.77-3.67-.45-.07-.65,.62-.19,.69h0Z"/>
      <path class="cls-11" d="M115.94,172.67c.45,.34,1.11,.56,1.64,.71,.62,.17,1.27,.23,1.91,.18,1.26-.1,2.47-.59,3.41-1.45,1.86-1.69,2.41-4.45,1.54-6.77-.47-1.26-1.34-2.25-2.49-2.93-.4-.23-.76,.39-.36,.62,2.4,1.41,3.22,4.59,1.96,7.05-.65,1.28-1.78,2.23-3.17,2.6-.7,.18-1.44,.22-2.15,.1-.63-.11-1.41-.35-1.92-.73-.37-.28-.73,.35-.36,.62h0Z"/>
      <path class="cls-13" d="M95.33,195.54c3.42,.74,6.9,1.17,10.39,1.24,1.76,.04,3.53-.02,5.28-.16,1.41-.12,3.33-.03,4.39-1.13,2.06-2.13,2.23-5.58,.42-7.9s-4.86-2.5-7.17-1.06c-1.22,.77-.1,2.71,1.14,1.94,1.74-1.09,3.96-.62,4.76,1.38,.44,1.09,.37,2.1-.19,3.13-.31,.57-.53,1.02-1.2,1.16-.63,.13-1.32,.15-1.96,.21-5.11,.44-10.26,.1-15.27-.98-1.41-.31-2.01,1.86-.6,2.17h0Z"/>
      <path class="cls-11" d="M94.81,194.94c.28-3.06,2.49-5.66,5.48-6.38,2.61-.62,6.6,.3,7.05,3.44,.07,.46,.76,.26,.69-.19-.49-3.45-4.81-4.59-7.72-3.99-3.42,.71-5.9,3.67-6.22,7.12-.04,.46,.68,.46,.72,0h0Z"/>
      <path class="cls-11" d="M133.22,184.16c2.74-8.34-.51-22.25-11.42-21.79-2.18,.09-4.36,.76-6.2,1.94-2.12,1.35-3.51,3.44-5.35,5.1-2.27,2.04-5.03,2.71-7.61,.85-1.67-1.2-2.96-2.86-4.65-4.03-3.72-2.59-8.94-1.48-12.41,1s-6.49,6.84-6.51,11.43,3.05,9.3,6.6,12.26c4.02,3.35,9.05,5.12,14.19,5.81,11.28,1.53,25.35-.48,32.13-10.7,.26-.39-.37-.75-.62-.36-5.83,8.79-17.06,11.02-26.93,10.71s-20.62-4.08-23.98-13.99c-1.68-4.96,.33-9.99,4.09-13.4,3.28-2.98,8.76-4.95,12.82-2.32,2.88,1.87,5.06,5.84,8.97,5.47,4.55-.43,6.56-5.53,10.24-7.57,4.78-2.65,10.71-1.72,13.86,2.89s3.87,11.08,2.09,16.51c-.14,.44,.55,.63,.69,.19h0Z"/>
      <path class="cls-11" d="M106.58,189.46c1.27-2.78,4.77-4.12,7.48-2.55,1.27,.73,2.25,1.99,2.5,3.45,.31,1.84-.53,3.66-1.55,5.14-.26,.38,.36,.74,.62,.36,1.69-2.45,2.5-5.64,.47-8.15-1.69-2.09-4.55-2.74-7-1.68-1.39,.6-2.51,1.69-3.14,3.06-.19,.42,.43,.78,.62,.36h0Z"/>
      <path class="cls-4" d="M80.63,129.23c-2.87,6.92-2.14,14.89,1.85,21.22,1.03,1.63,3.63,.12,2.59-1.51-3.62-5.72-4.14-12.67-1.55-18.91,.31-.75-.34-1.64-1.05-1.85-.86-.25-1.54,.3-1.85,1.05h0Z"/>
      <path class="cls-4" d="M84.72,122.68c-.47,.54-.92,1.1-1.35,1.67-.11,.17-.17,.36-.18,.56-.04,.2-.04,.4,.03,.6,.05,.2,.14,.37,.27,.51,.11,.16,.25,.29,.42,.39l.36,.15c.27,.07,.53,.07,.8,0l.36-.15c.23-.13,.4-.31,.54-.54,.07-.09,.14-.18,.2-.27l-.23,.3c.29-.38,.59-.74,.91-1.1,.15-.14,.25-.3,.31-.48,.09-.18,.14-.37,.13-.58,0-.21-.04-.4-.13-.58-.06-.19-.16-.35-.31-.48l-.3-.23c-.23-.14-.49-.2-.76-.2l-.4,.05c-.25,.07-.47,.2-.66,.39h0Z"/>
      <path class="cls-11" d="M62.94,156.66c2.35-2.84,5.82-4.64,9.51-4.88,.46-.03,.46-.75,0-.72-3.87,.25-7.55,2.1-10.02,5.09-.29,.35,.21,.87,.51,.51h0Z"/>
      <path class="cls-11" d="M139.9,145.2c4.7,.87,9.28,3.74,10.42,8.65,.11,.45,.8,.26,.69-.19-1.2-5.14-5.99-8.24-10.92-9.15-.45-.08-.65,.61-.19,.69h0Z"/>
      <path class="cls-15" d="M215.92,82.57c0,1.42-.76,2.79-2.1,3.5l-108.25,57.36c-1.93,1.02-4.32,.29-5.34-1.64-.32-.59,.29,.19,.29-.43,1.02,.4,2.21,.36,3.26-.19l108.42-57.6c1.34-.71,1.17-3.25,1.17-4.67h0c.87,.32,1.61,.95,2.08,1.82,.31,.59,.46,1.23,.46,1.85Z"/>
      <path class="cls-14" d="M211.47,78.9c.16,1.91,1.18,3.67,2.56,5,.29,.28,.61,.55,1.01,.61,.07,.01,.15,.01,.21-.03,.05-.03,.07-.09,.09-.14,.42-1.06,.58-2.08,.23-3.16-.1-.3-.65-.78-.82-1.04-.15-.24-.34-.44-.55-.63-.67-.58-1.54-.93-2.42-.98"/>
      <path class="cls-11" d="M112.64,131.31c4.08-2.16,8.16-4.33,12.25-6.49l28.15-14.92,31.46-16.67c7.41-3.92,14.81-7.85,22.22-11.77,1.21-.64,2.4-1.33,3.63-1.92,1.77-.85,3.92-.28,4.86,1.51s.16,3.86-1.53,4.86c-.32,.19-.67,.35-1,.53-5.58,2.96-11.15,5.91-16.73,8.87-9.74,5.16-19.48,10.32-29.22,15.49-10.5,5.56-21,11.13-31.5,16.69-7.86,4.17-15.72,8.33-23.58,12.5l-5.53,2.93c-.67,.35-1.28,.7-2.08,.76-2.55,.19-4.51-2.4-3.65-4.8,.49-1.36,1.64-1.93,2.82-2.55,1.99-1.05,3.97-2.1,5.96-3.16,.41-.22,.05-.84-.36-.62-2.09,1.11-4.18,2.21-6.27,3.32-1.02,.54-1.96,1.09-2.54,2.14-.81,1.48-.67,3.34,.34,4.68,1.34,1.79,3.68,2.1,5.6,1.13,.48-.25,.96-.51,1.44-.76,6.25-3.31,12.51-6.63,18.76-9.94,10.31-5.46,20.61-10.92,30.92-16.38,10.66-5.65,21.32-11.3,31.98-16.95,7.21-3.82,14.41-7.64,21.62-11.46,1.13-.6,2.28-1.16,3.38-1.79,2.87-1.66,3.08-5.93,.05-7.59-1.46-.8-3.02-.59-4.43,.14-5.4,2.81-10.75,5.7-16.13,8.55-10.25,5.43-20.5,10.87-30.76,16.3-10.48,5.55-20.96,11.11-31.45,16.66-6.06,3.21-12.12,6.42-18.19,9.64l-.88,.46c-.41,.22-.05,.84,.36,.62h0Z"/>
      <path class="cls-11" d="M210.96,78.96c.08,2.45,1.48,4.77,3.62,5.97,.4,.23,.77-.39,.36-.62-1.92-1.08-3.19-3.14-3.26-5.35-.02-.46-.74-.46-.72,0h0Z"/>
      <path class="cls-11" d="M99.1,137.74c.4-1.41,1.47-2.62,2.84-3.17,.18-.07,.31-.24,.25-.44-.05-.17-.26-.32-.44-.25-1.61,.64-2.86,2-3.34,3.67-.13,.45,.57,.64,.69,.19h0Z"/>
      <path class="cls-11" d="M98.4,135.28c.09-.19,.19-.37,.31-.54,.03-.04,.06-.08,.09-.12,.02-.02,.04-.05,.05-.07,.04-.05-.02,.02,0,0,.07-.08,.13-.16,.2-.24,.14-.15,.29-.29,.44-.42,.02-.02,.04-.03,.06-.05,.08-.06-.06,.04,.02-.02,.04-.03,.08-.06,.12-.09,.09-.06,.18-.12,.28-.18,.16-.1,.24-.33,.13-.49s-.32-.23-.49-.13c-.79,.47-1.44,1.16-1.84,1.99-.08,.17-.05,.4,.13,.49,.16,.09,.41,.05,.49-.13h0Z"/>
      <path class="cls-11" d="M56.21,95.03l5.73,.64c.46,.05,.46-.67,0-.72l-5.73-.64c-.46-.05-.46,.67,0,.72h0Z"/>
      <path class="cls-11" d="M59.6,93.47c1.46,.01,2.91,.2,4.33,.55,.45,.11,.64-.58,.19-.69-1.48-.37-3-.56-4.52-.57-.46,0-.46,.72,0,.72h0Z"/>
      <path class="cls-4" d="M35.03,48.93c1.93,0,1.93-3,0-3s-1.93,3,0,3h0Z"/>
      <path class="cls-4" d="M58.75,61.78c1.93,0,1.93-3,0-3s-1.93,3,0,3h0Z"/>
      <path class="cls-4" d="M86.55,49.15c-.45,2.53-.09,5.08,1.12,7.36,.37,.69,1.39,.96,2.05,.54,.71-.46,.93-1.31,.54-2.05-.11-.2-.28-.45-.33-.67,.08,.2,.09,.22,.03,.06-.03-.07-.05-.13-.08-.2-.04-.1-.07-.2-.11-.3-.16-.49-.29-.99-.37-1.5-.06-.4,.02,.24-.01-.08-.01-.12-.03-.25-.03-.37-.02-.25-.03-.5-.02-.75s.01-.5,.03-.75c0-.12,0-.26,.04-.37-.03,.22-.03,.25,0,.08,.01-.07,.02-.14,.04-.21,.14-.77-.21-1.65-1.05-1.85-.73-.17-1.7,.22-1.85,1.05h0Z"/>
      <path class="cls-4" d="M91.5,60.51c1.93,0,1.93-3,0-3s-1.93,3,0,3h0Z"/>
      <path class="cls-11" d="M81.18,48.54c-2.58,5.2-.56,11.56,4.58,14.26,.41,.22,.77-.41,.36-.62-4.78-2.51-6.73-8.42-4.32-13.28,.21-.41-.42-.78-.62-.36h0Z"/>
      <path class="cls-11" d="M94.75,60.05c-1.96-1.7-3.42-3.91-4.21-6.39s-1.1-5.64,.18-8.03c.22-.41-.4-.77-.62-.36-1.33,2.5-1.11,5.72-.32,8.36s2.35,5.1,4.46,6.93c.35,.3,.86-.2,.51-.51h0Z"/>
      <path class="cls-11" d="M103.16,57.86c-1.89-2.12-3.29-4.65-4.02-7.41-.77-2.9-.73-6.25,1.62-8.42,.34-.32-.17-.82-.51-.51-4.89,4.53-1.24,12.76,2.4,16.85,.31,.35,.82-.16,.51-.51h0Z"/>
      <path class="cls-11" d="M91.44,241.06c2.71-.88,5.18-2.41,7.16-4.46,.32-.33-.19-.84-.51-.51-1.9,1.96-4.25,3.43-6.84,4.28-.44,.14-.25,.84,.19,.69h0Z"/>
      <circle class="cls-11" cx="124.68" cy="108.63" r=".5"/>
      <circle class="cls-11" cx="43.64" cy="103.06" r=".5"/>
      <circle class="cls-11" cx="56.13" cy="120.77" r=".5"/>
      <circle class="cls-11" cx="43.36" cy="177.52" r=".5"/>
      <circle class="cls-11" cx="84.23" cy="91.9" r=".5"/>
      <path class="cls-11" d="M122.69,134.95c1.66,8.66-3.22,17.48-11.61,20.4-7.9,2.75-16.89-.45-21.23-7.6-2.73-4.49-3.26-9.94-1.65-14.93,.14-.44-.55-.63-.69-.19-2.88,8.94,1.32,18.85,9.92,22.76,7.89,3.59,17.47,1.14,22.67-5.79,3.19-4.25,4.3-9.65,3.3-14.84-.09-.45-.78-.26-.69,.19h0Z"/>
      <path class="cls-11" d="M89.57,129.74c2.88-4.95,7.95-8.37,13.68-8.96s11.86,1.83,15.73,6.42c.3,.35,.81-.16,.51-.51-4.08-4.82-10.33-7.36-16.62-6.59-5.84,.71-10.98,4.21-13.92,9.28-.23,.4,.39,.76,.62,.36h0Z"/>
      <path class="cls-4" d="M149.97,193.29c6.69,3.17,14.71,4.42,22.07,3.52,.81-.1,1.49-.62,1.5-1.5,0-.73-.7-1.6-1.5-1.5-6.82,.84-14.34-.17-20.56-3.11-1.74-.82-3.26,1.76-1.51,2.59h0Z"/>
      <path class="cls-4" d="M155.13,194.49c.63,9.07,1.25,18.14,1.88,27.21l.26,3.82c.13,1.92,3.13,1.93,3,0-.63-9.07-1.25-18.14-1.88-27.21l-.26-3.82c-.13-1.92-3.13-1.93-3,0h0Z"/>
      <path class="cls-11" d="M148.6,189.38c.65,9.95,1.29,19.89,1.94,29.84,.04,.68,.04,1.39,.16,2.05,.44,2.46,2.25,4.35,4.6,5.07,.44,.14,.63-.56,.19-.69-2.58-.8-3.99-2.91-4.18-5.54-.03-.4-.05-.79-.08-1.19l-.43-6.62c-.4-6.12-.8-12.23-1.19-18.35l-.3-4.57c-.03-.46-.75-.46-.72,0h0Z"/>
      <path class="cls-11" d="M148.76,189.65c3.38,2.81,7.7,3.72,11.95,4.31,5.02,.7,10.1,.94,15.12,.1,.46-.08,.26-.77-.19-.69-4.88,.82-9.85,.58-14.74-.1-4.1-.57-8.36-1.41-11.63-4.13-.35-.29-.87,.21-.51,.51h0Z"/>
      <path class="cls-11" d="M157.23,226.8c3.08,.95,6.25,1.59,9.49,1.61s6.41-.61,9.5-1.54c.44-.13,.25-.83-.19-.69-3.03,.91-6.13,1.53-9.3,1.52s-6.27-.65-9.3-1.58c-.44-.14-.63,.56-.19,.69h0Z"/>
      <path class="cls-4" d="M152.62,202.72c.16,2.68,.32,5.37,.48,8.05,.06,.96,1.56,.97,1.5,0-.16-2.68-.32-5.37-.48-8.05-.06-.96-1.56-.97-1.5,0h0Z"/>
    </g>
  </g>
</svg>