<svg xmlns="http://www.w3.org/2000/svg" xmlns:xlink="http://www.w3.org/1999/xlink" width="800" zoomAndPan="magnify" viewBox="0 0 600 599.999999" height="800" preserveAspectRatio="xMidYMid meet" version="1.2"><defs><clipPath id="396520a8dd"><path d="M 127 301 L 286 301 L 286 506.6875 L 127 506.6875 Z M 127 301 "/></clipPath><clipPath id="cea43a3193"><path d="M 432.457031 438.683594 L 555.949219 438.683594 L 555.949219 495.449219 L 432.457031 495.449219 Z M 432.457031 438.683594 "/></clipPath><clipPath id="370179af48"><path d="M 10 133 L 99 133 L 99 222 L 10 222 Z M 10 133 "/></clipPath><clipPath id="1a61457f2f"><path d="M 16.507812 128.636719 L 103.589844 139.425781 L 92.800781 226.511719 L 5.71875 215.722656 Z M 16.507812 128.636719 "/></clipPath><clipPath id="dd83287e83"><path d="M 16.507812 128.636719 L 103.589844 139.425781 L 92.800781 226.511719 L 5.71875 215.722656 Z M 16.507812 128.636719 "/></clipPath><clipPath id="245574b90e"><path d="M 14 136 L 96 136 L 96 219 L 14 219 Z M 14 136 "/></clipPath><clipPath id="96524c0a4d"><path d="M 16.507812 128.636719 L 103.589844 139.425781 L 92.800781 226.511719 L 5.71875 215.722656 Z M 16.507812 128.636719 "/></clipPath><clipPath id="0b9f81d157"><path d="M 16.507812 128.636719 L 103.589844 139.425781 L 92.800781 226.511719 L 5.71875 215.722656 Z M 16.507812 128.636719 "/></clipPath></defs><g id="214108ca8c"><path style=" stroke:none;fill-rule:nonzero;fill:#ffffff;fill-opacity:1;" d="M 456.425781 479.125 L 187.023438 479.125 C 184.011719 479.125 181.546875 476.679688 181.546875 473.648438 L 181.546875 127.710938 C 181.546875 124.699219 183.988281 122.234375 187.023438 122.234375 L 456.425781 122.234375 C 459.4375 122.234375 461.90625 124.675781 461.90625 127.710938 L 461.90625 473.648438 C 461.90625 476.660156 459.460938 479.125 456.425781 479.125 Z M 456.425781 479.125 "/><path style=" stroke:none;fill-rule:nonzero;fill:#010f20;fill-opacity:1;" d="M 456.425781 479.605469 L 187.023438 479.605469 C 183.75 479.605469 181.066406 476.945312 181.066406 473.648438 L 181.066406 127.710938 C 181.066406 124.4375 183.726562 121.753906 187.023438 121.753906 L 456.425781 121.753906 C 459.699219 121.753906 462.382812 124.414062 462.382812 127.710938 L 462.382812 473.671875 C 462.382812 476.921875 459.722656 479.605469 456.425781 479.605469 Z M 187.023438 122.714844 C 184.273438 122.714844 182.023438 124.960938 182.023438 127.710938 L 182.023438 473.648438 C 182.023438 476.398438 184.273438 478.644531 187.023438 478.644531 L 456.425781 478.644531 C 459.175781 478.644531 461.425781 476.398438 461.425781 473.648438 L 461.425781 127.710938 C 461.425781 124.960938 459.175781 122.714844 456.425781 122.714844 Z M 187.023438 122.714844 "/><path style=" stroke:none;fill-rule:nonzero;fill:#010f20;fill-opacity:1;" d="M 447.328125 465.027344 L 196.144531 465.027344 C 195.882812 465.027344 195.664062 464.808594 195.664062 464.546875 L 195.664062 136.8125 C 195.664062 136.550781 195.882812 136.332031 196.144531 136.332031 L 447.328125 136.332031 C 447.589844 136.332031 447.808594 136.550781 447.808594 136.8125 L 447.808594 464.546875 C 447.808594 464.808594 447.589844 465.027344 447.328125 465.027344 Z M 196.625 464.066406 L 446.847656 464.066406 L 446.847656 137.292969 L 196.625 137.292969 Z M 196.625 464.066406 "/><path style=" stroke:none;fill-rule:nonzero;fill:#a5e9ff;fill-opacity:1;" d="M 245.769531 107.132812 L 245.769531 126.945312 C 245.769531 140.105469 256.441406 150.777344 269.601562 150.777344 L 373.871094 150.777344 C 387.03125 150.777344 397.703125 140.105469 397.703125 126.945312 L 397.703125 107.132812 Z M 245.769531 107.132812 "/><path style=" stroke:none;fill-rule:nonzero;fill:#010f20;fill-opacity:1;" d="M 427.164062 247.191406 L 343.582031 247.191406 C 343.320312 247.191406 343.101562 246.972656 343.101562 246.710938 C 343.101562 246.449219 343.320312 246.230469 343.582031 246.230469 L 427.164062 246.230469 C 427.425781 246.230469 427.640625 246.449219 427.640625 246.710938 C 427.640625 246.972656 427.425781 247.191406 427.164062 247.191406 Z M 427.164062 247.191406 "/><path style=" stroke:none;fill-rule:nonzero;fill:#010f20;fill-opacity:1;" d="M 314.074219 247.191406 L 276.757812 247.191406 C 276.496094 247.191406 276.277344 246.972656 276.277344 246.710938 C 276.277344 246.449219 276.496094 246.230469 276.757812 246.230469 L 314.074219 246.230469 C 314.335938 246.230469 314.554688 246.449219 314.554688 246.710938 C 314.554688 246.972656 314.335938 247.191406 314.074219 247.191406 Z M 314.074219 247.191406 "/><path style=" stroke:none;fill-rule:nonzero;fill:#010f20;fill-opacity:1;" d="M 427.164062 268.644531 L 368.65625 268.644531 C 368.394531 268.644531 368.175781 268.425781 368.175781 268.164062 C 368.175781 267.902344 368.394531 267.683594 368.65625 267.683594 L 427.164062 267.683594 C 427.425781 267.683594 427.640625 267.902344 427.640625 268.164062 C 427.640625 268.425781 427.425781 268.644531 427.164062 268.644531 Z M 427.164062 268.644531 "/><path style=" stroke:none;fill-rule:nonzero;fill:#010f20;fill-opacity:1;" d="M 349.710938 268.644531 L 276.757812 268.644531 C 276.496094 268.644531 276.277344 268.425781 276.277344 268.164062 C 276.277344 267.902344 276.496094 267.683594 276.757812 267.683594 L 349.734375 267.683594 C 349.996094 267.683594 350.214844 267.902344 350.214844 268.164062 C 350.191406 268.425781 349.972656 268.644531 349.710938 268.644531 Z M 349.710938 268.644531 "/><path style=" stroke:none;fill-rule:nonzero;fill:#010f20;fill-opacity:1;" d="M 427.164062 290.09375 L 336.773438 290.09375 C 336.511719 290.09375 336.292969 289.878906 336.292969 289.617188 C 336.292969 289.351562 336.511719 289.136719 336.773438 289.136719 L 427.164062 289.136719 C 427.425781 289.136719 427.640625 289.351562 427.640625 289.617188 C 427.640625 289.878906 427.425781 290.09375 427.164062 290.09375 Z M 427.164062 290.09375 "/><path style=" stroke:none;fill-rule:nonzero;fill:#010f20;fill-opacity:1;" d="M 314.511719 290.09375 L 276.757812 290.09375 C 276.496094 290.09375 276.277344 289.878906 276.277344 289.617188 C 276.277344 289.351562 276.496094 289.136719 276.757812 289.136719 L 314.511719 289.136719 C 314.773438 289.136719 314.992188 289.351562 314.992188 289.617188 C 314.992188 289.878906 314.773438 290.09375 314.511719 290.09375 Z M 314.511719 290.09375 "/><path style=" stroke:none;fill-rule:nonzero;fill:#010f20;fill-opacity:1;" d="M 259.277344 290.09375 L 216.375 290.09375 C 216.113281 290.09375 215.894531 289.878906 215.894531 289.617188 L 215.894531 246.710938 C 215.894531 246.449219 216.113281 246.230469 216.375 246.230469 L 256.835938 246.230469 C 257.097656 246.230469 257.3125 246.449219 257.3125 246.710938 C 257.3125 246.972656 257.097656 247.191406 256.835938 247.191406 L 216.855469 247.191406 L 216.855469 289.136719 L 258.796875 289.136719 L 258.796875 258.234375 C 258.796875 257.972656 259.015625 257.753906 259.277344 257.753906 C 259.539062 257.753906 259.757812 257.972656 259.757812 258.234375 L 259.757812 289.617188 C 259.757812 289.878906 259.539062 290.09375 259.277344 290.09375 Z M 259.277344 290.09375 "/><path style=" stroke:none;fill-rule:nonzero;fill:#010f20;fill-opacity:1;" d="M 427.164062 318.445312 L 343.582031 318.445312 C 343.320312 318.445312 343.101562 318.226562 343.101562 317.964844 C 343.101562 317.703125 343.320312 317.484375 343.582031 317.484375 L 427.164062 317.484375 C 427.425781 317.484375 427.640625 317.703125 427.640625 317.964844 C 427.640625 318.226562 427.425781 318.445312 427.164062 318.445312 Z M 427.164062 318.445312 "/><path style=" stroke:none;fill-rule:nonzero;fill:#010f20;fill-opacity:1;" d="M 314.074219 318.445312 L 276.757812 318.445312 C 276.496094 318.445312 276.277344 318.226562 276.277344 317.964844 C 276.277344 317.703125 276.496094 317.484375 276.757812 317.484375 L 314.074219 317.484375 C 314.335938 317.484375 314.554688 317.703125 314.554688 317.964844 C 314.554688 318.226562 314.335938 318.445312 314.074219 318.445312 Z M 314.074219 318.445312 "/><path style=" stroke:none;fill-rule:nonzero;fill:#010f20;fill-opacity:1;" d="M 427.164062 339.894531 L 368.65625 339.894531 C 368.394531 339.894531 368.175781 339.675781 368.175781 339.414062 C 368.175781 339.152344 368.394531 338.933594 368.65625 338.933594 L 427.164062 338.933594 C 427.425781 338.933594 427.640625 339.152344 427.640625 339.414062 C 427.640625 339.675781 427.425781 339.894531 427.164062 339.894531 Z M 427.164062 339.894531 "/><path style=" stroke:none;fill-rule:nonzero;fill:#010f20;fill-opacity:1;" d="M 349.710938 339.894531 L 276.757812 339.894531 C 276.496094 339.894531 276.277344 339.675781 276.277344 339.414062 C 276.277344 339.152344 276.496094 338.933594 276.757812 338.933594 L 349.734375 338.933594 C 349.996094 338.933594 350.214844 339.152344 350.214844 339.414062 C 350.214844 339.675781 349.972656 339.894531 349.710938 339.894531 Z M 349.710938 339.894531 "/><path style=" stroke:none;fill-rule:nonzero;fill:#010f20;fill-opacity:1;" d="M 427.164062 361.347656 L 336.773438 361.347656 C 336.511719 361.347656 336.292969 361.128906 336.292969 360.867188 C 336.292969 360.605469 336.511719 360.386719 336.773438 360.386719 L 427.164062 360.386719 C 427.425781 360.386719 427.640625 360.605469 427.640625 360.867188 C 427.640625 361.128906 427.425781 361.347656 427.164062 361.347656 Z M 427.164062 361.347656 "/><path style=" stroke:none;fill-rule:nonzero;fill:#010f20;fill-opacity:1;" d="M 314.511719 361.347656 L 276.757812 361.347656 C 276.496094 361.347656 276.277344 361.128906 276.277344 360.867188 C 276.277344 360.605469 276.496094 360.386719 276.757812 360.386719 L 314.511719 360.386719 C 314.773438 360.386719 314.992188 360.605469 314.992188 360.867188 C 314.992188 361.128906 314.773438 361.347656 314.511719 361.347656 Z M 314.511719 361.347656 "/><path style=" stroke:none;fill-rule:nonzero;fill:#010f20;fill-opacity:1;" d="M 259.277344 361.347656 L 216.375 361.347656 C 216.113281 361.347656 215.894531 361.128906 215.894531 360.867188 L 215.894531 317.964844 C 215.894531 317.703125 216.113281 317.484375 216.375 317.484375 L 256.835938 317.484375 C 257.097656 317.484375 257.3125 317.703125 257.3125 317.964844 C 257.3125 318.226562 257.097656 318.445312 256.835938 318.445312 L 216.855469 318.445312 L 216.855469 360.386719 L 258.796875 360.386719 L 258.796875 329.484375 C 258.796875 329.222656 259.015625 329.003906 259.277344 329.003906 C 259.539062 329.003906 259.757812 329.222656 259.757812 329.484375 L 259.757812 360.867188 C 259.757812 361.128906 259.539062 361.347656 259.277344 361.347656 Z M 259.277344 361.347656 "/><path style=" stroke:none;fill-rule:nonzero;fill:#010f20;fill-opacity:1;" d="M 427.164062 389.695312 L 343.582031 389.695312 C 343.320312 389.695312 343.101562 389.476562 343.101562 389.214844 C 343.101562 388.953125 343.320312 388.734375 343.582031 388.734375 L 427.164062 388.734375 C 427.425781 388.734375 427.640625 388.953125 427.640625 389.214844 C 427.640625 389.476562 427.425781 389.695312 427.164062 389.695312 Z M 427.164062 389.695312 "/><path style=" stroke:none;fill-rule:nonzero;fill:#010f20;fill-opacity:1;" d="M 314.074219 389.695312 L 276.757812 389.695312 C 276.496094 389.695312 276.277344 389.476562 276.277344 389.214844 C 276.277344 388.953125 276.496094 388.734375 276.757812 388.734375 L 314.074219 388.734375 C 314.335938 388.734375 314.554688 388.953125 314.554688 389.214844 C 314.554688 389.476562 314.335938 389.695312 314.074219 389.695312 Z M 314.074219 389.695312 "/><path style=" stroke:none;fill-rule:nonzero;fill:#010f20;fill-opacity:1;" d="M 411.929688 411.148438 L 368.65625 411.148438 C 368.394531 411.148438 368.175781 410.929688 368.175781 410.667969 C 368.175781 410.40625 368.394531 410.1875 368.65625 410.1875 L 411.929688 410.1875 C 412.191406 410.1875 412.410156 410.40625 412.410156 410.667969 C 412.410156 410.929688 412.191406 411.148438 411.929688 411.148438 Z M 411.929688 411.148438 "/><path style=" stroke:none;fill-rule:nonzero;fill:#010f20;fill-opacity:1;" d="M 349.710938 411.148438 L 276.757812 411.148438 C 276.496094 411.148438 276.277344 410.929688 276.277344 410.667969 C 276.277344 410.40625 276.496094 410.1875 276.757812 410.1875 L 349.734375 410.1875 C 349.996094 410.1875 350.214844 410.40625 350.214844 410.667969 C 350.191406 410.929688 349.972656 411.148438 349.710938 411.148438 Z M 349.710938 411.148438 "/><path style=" stroke:none;fill-rule:nonzero;fill:#010f20;fill-opacity:1;" d="M 427.164062 432.597656 L 336.773438 432.597656 C 336.511719 432.597656 336.292969 432.382812 336.292969 432.117188 C 336.292969 431.855469 336.511719 431.640625 336.773438 431.640625 L 427.164062 431.640625 C 427.425781 431.640625 427.640625 431.855469 427.640625 432.117188 C 427.640625 432.382812 427.425781 432.597656 427.164062 432.597656 Z M 427.164062 432.597656 "/><path style=" stroke:none;fill-rule:nonzero;fill:#010f20;fill-opacity:1;" d="M 314.511719 432.597656 L 276.757812 432.597656 C 276.496094 432.597656 276.277344 432.382812 276.277344 432.117188 C 276.277344 431.855469 276.496094 431.640625 276.757812 431.640625 L 314.511719 431.640625 C 314.773438 431.640625 314.992188 431.855469 314.992188 432.117188 C 314.992188 432.382812 314.773438 432.597656 314.511719 432.597656 Z M 314.511719 432.597656 "/><path style=" stroke:none;fill-rule:nonzero;fill:#010f20;fill-opacity:1;" d="M 259.277344 432.597656 L 216.375 432.597656 C 216.113281 432.597656 215.894531 432.382812 215.894531 432.117188 L 215.894531 389.214844 C 215.894531 388.953125 216.113281 388.734375 216.375 388.734375 L 256.835938 388.734375 C 257.097656 388.734375 257.3125 388.953125 257.3125 389.214844 C 257.3125 389.476562 257.097656 389.695312 256.835938 389.695312 L 216.855469 389.695312 L 216.855469 431.640625 L 258.796875 431.640625 L 258.796875 400.738281 C 258.796875 400.476562 259.015625 400.257812 259.277344 400.257812 C 259.539062 400.257812 259.757812 400.476562 259.757812 400.738281 L 259.757812 432.117188 C 259.757812 432.382812 259.539062 432.597656 259.277344 432.597656 Z M 259.277344 432.597656 "/><path style=" stroke:none;fill-rule:nonzero;fill:#a5e9ff;fill-opacity:1;" d="M 216.375 172.644531 L 427.183594 172.644531 L 427.183594 217.949219 L 216.375 217.949219 Z M 216.375 172.644531 "/><path style=" stroke:none;fill-rule:nonzero;fill:#72cff3;fill-opacity:1;" d="M 427.164062 195.230469 L 216.351562 195.230469 C 216.089844 195.230469 215.871094 195.011719 215.871094 194.75 C 215.871094 194.488281 216.089844 194.269531 216.351562 194.269531 L 427.164062 194.269531 C 427.425781 194.269531 427.640625 194.488281 427.640625 194.75 C 427.640625 195.011719 427.425781 195.230469 427.164062 195.230469 Z M 427.164062 195.230469 "/><path style=" stroke:none;fill-rule:nonzero;fill:#72cff3;fill-opacity:1;" d="M 279.464844 195.710938 C 279.203125 195.710938 278.984375 195.492188 278.984375 195.230469 L 278.984375 172.644531 C 278.984375 172.382812 279.203125 172.164062 279.464844 172.164062 C 279.726562 172.164062 279.945312 172.382812 279.945312 172.644531 L 279.945312 195.253906 C 279.945312 195.492188 279.726562 195.710938 279.464844 195.710938 Z M 279.464844 195.710938 "/><path style=" stroke:none;fill-rule:nonzero;fill:#010f20;fill-opacity:1;" d="M 237.828125 284.550781 C 237.671875 284.550781 237.519531 284.488281 237.433594 284.355469 L 225.519531 268.316406 C 225.367188 268.097656 225.410156 267.792969 225.628906 267.640625 C 225.84375 267.488281 226.152344 267.53125 226.304688 267.75 L 237.804688 283.222656 L 261.132812 246.449219 C 261.285156 246.230469 261.570312 246.164062 261.789062 246.296875 C 262.007812 246.449219 262.070312 246.734375 261.941406 246.953125 L 238.21875 284.335938 C 238.152344 284.464844 238 284.550781 237.828125 284.550781 Z M 237.828125 284.550781 "/><path style=" stroke:none;fill-rule:nonzero;fill:#010f20;fill-opacity:1;" d="M 237.828125 354.910156 C 237.671875 354.910156 237.519531 354.84375 237.433594 354.714844 L 225.519531 338.671875 C 225.367188 338.453125 225.410156 338.148438 225.628906 337.996094 C 225.84375 337.84375 226.152344 337.886719 226.304688 338.105469 L 237.804688 353.578125 L 261.132812 316.808594 C 261.285156 316.589844 261.570312 316.523438 261.789062 316.652344 C 262.007812 316.808594 262.070312 317.089844 261.941406 317.308594 L 238.242188 354.667969 C 238.152344 354.820312 238 354.886719 237.828125 354.910156 Z M 237.828125 354.910156 "/><g clip-rule="nonzero" clip-path="url(#396520a8dd)"><path style=" stroke:none;fill-rule:nonzero;fill:#72cff3;fill-opacity:1;" d="M 274.359375 506.492188 L 138.882812 506.492188 C 132.792969 506.492188 127.859375 501.558594 127.859375 495.472656 L 127.859375 312.289062 C 127.859375 306.199219 132.792969 301.269531 138.882812 301.269531 L 274.359375 301.269531 C 280.445312 301.269531 285.378906 306.199219 285.378906 312.289062 L 285.378906 495.472656 C 285.378906 501.558594 280.445312 506.492188 274.359375 506.492188 Z M 274.359375 506.492188 "/></g><path style=" stroke:none;fill-rule:nonzero;fill:#a5e9ff;fill-opacity:1;" d="M 232.800781 350.089844 C 233.65625 350.949219 234.472656 351.847656 235.242188 352.785156 C 236.011719 353.722656 236.730469 354.695312 237.40625 355.703125 C 238.078125 356.710938 238.703125 357.75 239.273438 358.820312 C 239.847656 359.890625 240.363281 360.984375 240.828125 362.105469 C 241.292969 363.226562 241.699219 364.367188 242.050781 365.527344 C 242.40625 366.6875 242.699219 367.863281 242.9375 369.050781 C 243.171875 370.242188 243.351562 371.441406 243.46875 372.648438 C 243.589844 373.855469 243.648438 375.066406 243.648438 376.277344 C 243.648438 377.492188 243.589844 378.699219 243.46875 379.90625 C 243.351562 381.113281 243.171875 382.3125 242.9375 383.503906 C 242.699219 384.691406 242.40625 385.867188 242.054688 387.027344 C 241.699219 388.1875 241.292969 389.328125 240.828125 390.449219 C 240.363281 391.570312 239.847656 392.664062 239.273438 393.734375 C 238.703125 394.804688 238.082031 395.84375 237.40625 396.851562 C 236.734375 397.859375 236.011719 398.832031 235.242188 399.773438 C 234.472656 400.710938 233.660156 401.605469 232.800781 402.464844 C 231.945312 403.320312 231.046875 404.136719 230.109375 404.90625 C 229.171875 405.675781 228.199219 406.394531 227.1875 407.070312 C 226.179688 407.742188 225.140625 408.367188 224.070312 408.9375 C 223.003906 409.511719 221.90625 410.027344 220.785156 410.492188 C 219.667969 410.957031 218.527344 411.363281 217.363281 411.71875 C 216.203125 412.070312 215.027344 412.363281 213.839844 412.601562 C 212.648438 412.835938 211.453125 413.015625 210.246094 413.132812 C 209.039062 413.253906 207.828125 413.3125 206.613281 413.3125 C 205.402344 413.3125 204.191406 413.253906 202.984375 413.132812 C 201.777344 413.015625 200.578125 412.835938 199.390625 412.601562 C 198.199219 412.363281 197.023438 412.070312 195.863281 411.71875 C 194.703125 411.363281 193.5625 410.957031 192.441406 410.492188 C 191.320312 410.027344 190.226562 409.511719 189.15625 408.9375 C 188.085938 408.367188 187.046875 407.746094 186.039062 407.070312 C 185.03125 406.398438 184.058594 405.675781 183.121094 404.90625 C 182.183594 404.136719 181.285156 403.324219 180.429688 402.464844 C 179.570312 401.609375 178.757812 400.710938 177.988281 399.773438 C 177.21875 398.835938 176.496094 397.863281 175.820312 396.851562 C 175.148438 395.84375 174.527344 394.804688 173.953125 393.734375 C 173.382812 392.667969 172.863281 391.570312 172.398438 390.449219 C 171.933594 389.332031 171.527344 388.191406 171.175781 387.027344 C 170.824219 385.867188 170.527344 384.691406 170.292969 383.503906 C 170.054688 382.3125 169.878906 381.117188 169.757812 379.910156 C 169.640625 378.703125 169.582031 377.492188 169.582031 376.277344 C 169.582031 375.066406 169.640625 373.855469 169.757812 372.648438 C 169.878906 371.441406 170.054688 370.242188 170.292969 369.054688 C 170.527344 367.863281 170.824219 366.6875 171.175781 365.527344 C 171.527344 364.367188 171.933594 363.226562 172.398438 362.105469 C 172.863281 360.984375 173.382812 359.890625 173.953125 358.820312 C 174.523438 357.75 175.148438 356.710938 175.820312 355.703125 C 176.496094 354.695312 177.21875 353.722656 177.988281 352.785156 C 178.753906 351.847656 179.570312 350.949219 180.425781 350.09375 C 181.285156 349.234375 182.183594 348.421875 183.121094 347.652344 C 184.058594 346.882812 185.03125 346.160156 186.039062 345.484375 C 187.046875 344.8125 188.085938 344.191406 189.15625 343.617188 C 190.226562 343.046875 191.320312 342.527344 192.441406 342.0625 C 193.5625 341.601562 194.703125 341.191406 195.863281 340.839844 C 197.023438 340.488281 198.199219 340.191406 199.386719 339.957031 C 200.578125 339.71875 201.777344 339.542969 202.984375 339.421875 C 204.191406 339.304688 205.402344 339.246094 206.613281 339.246094 C 207.828125 339.246094 209.035156 339.304688 210.242188 339.421875 C 211.449219 339.542969 212.648438 339.71875 213.839844 339.957031 C 215.027344 340.191406 216.203125 340.488281 217.363281 340.839844 C 218.523438 341.191406 219.664062 341.597656 220.785156 342.0625 C 221.90625 342.527344 223 343.046875 224.070312 343.617188 C 225.140625 344.1875 226.179688 344.8125 227.1875 345.484375 C 228.195312 346.160156 229.167969 346.882812 230.105469 347.652344 C 231.046875 348.417969 231.941406 349.234375 232.800781 350.089844 Z M 232.800781 350.089844 "/><path style=" stroke:none;fill-rule:nonzero;fill:#a5e9ff;fill-opacity:1;" d="M 166.859375 442.835938 L 246.359375 442.835938 L 246.359375 457.28125 L 166.859375 457.28125 Z M 166.859375 442.835938 "/><path style=" stroke:none;fill-rule:nonzero;fill:#72cff3;fill-opacity:1;" d="M 584.660156 352.945312 C 587.777344 344.390625 590.070312 334.613281 590.746094 323.636719 C 593.257812 283.59375 541.382812 242.847656 541.382812 242.847656 L 527.242188 242.105469 L 541.382812 335.160156 L 539.15625 342.777344 C 547.667969 347.402344 566.808594 356.175781 584.660156 352.945312 Z M 584.660156 352.945312 "/><path style=" stroke:none;fill-rule:nonzero;fill:#ffffff;fill-opacity:1;" d="M 539.15625 342.777344 L 527.242188 383.476562 C 527.242188 383.476562 547.667969 401.285156 556.113281 394.5625 C 562.246094 389.671875 576.410156 375.597656 584.679688 352.945312 C 566.808594 356.175781 547.667969 347.402344 539.15625 342.777344 Z M 539.15625 342.777344 "/><path style=" stroke:none;fill-rule:nonzero;fill:#010f20;fill-opacity:1;" d="M 551.292969 396.570312 C 541.625 396.570312 527.613281 384.457031 526.914062 383.847656 C 526.71875 383.671875 526.695312 383.367188 526.871094 383.171875 C 527.046875 382.972656 527.351562 382.953125 527.546875 383.125 C 527.746094 383.300781 547.757812 400.605469 555.808594 394.210938 C 558.929688 391.726562 575.011719 378.019531 584.222656 352.816406 C 584.308594 352.574219 584.59375 352.445312 584.832031 352.53125 C 585.074219 352.617188 585.203125 352.902344 585.117188 353.140625 C 575.84375 378.609375 559.5625 392.445312 556.398438 394.976562 C 554.957031 396.089844 553.210938 396.570312 551.292969 396.570312 Z M 551.292969 396.570312 "/><path style=" stroke:none;fill-rule:nonzero;fill:#010f20;fill-opacity:1;" d="M 474.910156 383.476562 L 561.351562 383.476562 L 578.265625 307.203125 L 491.824219 307.203125 Z M 474.910156 383.476562 "/><path style=" stroke:none;fill-rule:nonzero;fill:#72cff3;fill-opacity:1;" d="M 420.289062 410.929688 C 439.425781 356.089844 458.585938 301.246094 477.726562 246.382812 C 478.226562 244.964844 478.707031 243.546875 479.210938 242.128906 C 509.433594 241.148438 541.363281 242.847656 541.363281 242.847656 L 545.222656 410.929688 Z M 420.289062 410.929688 "/><path style=" stroke:none;fill-rule:nonzero;fill:#010f20;fill-opacity:1;" d="M 543.019531 307.050781 C 543 307.050781 542.953125 307.050781 542.933594 307.050781 C 542.671875 307.007812 542.496094 306.746094 542.539062 306.484375 L 546.359375 284.792969 C 546.382812 284.617188 546.488281 284.488281 546.664062 284.421875 C 546.816406 284.355469 546.992188 284.378906 547.125 284.488281 L 549.589844 286.296875 C 549.808594 286.449219 549.851562 286.757812 549.699219 286.976562 C 549.546875 287.191406 549.238281 287.238281 549.023438 287.082031 L 547.167969 285.730469 L 543.480469 306.660156 C 543.457031 306.878906 543.261719 307.050781 543.019531 307.050781 Z M 543.019531 307.050781 "/><path style=" stroke:none;fill-rule:nonzero;fill:#72cff3;fill-opacity:1;" d="M 479.230469 242.148438 L 407.871094 251.054688 C 407.871094 251.054688 408.832031 247.78125 410.097656 242.738281 C 392.246094 252.125 378.957031 245.730469 372.824219 240.382812 C 365.664062 250.835938 359.097656 264.039062 361.933594 274.578125 C 367.542969 295.375 412.324219 308.207031 477.179688 289.484375 L 486.433594 246.886719 Z M 479.230469 242.148438 "/><path style=" stroke:none;fill-rule:nonzero;fill:#ffffff;fill-opacity:1;" d="M 410.097656 242.71875 C 412.476562 233.203125 415.96875 217.382812 416.164062 205.226562 C 416.46875 186.632812 407.652344 178.558594 404.445312 179.78125 C 401.238281 181.003906 403.113281 184.734375 404.445312 188.007812 C 405.777344 191.257812 406.453125 194.097656 406.453125 194.097656 C 406.453125 194.097656 401.652344 188.792969 398.027344 194.792969 C 398.027344 194.792969 392.441406 189.140625 389.824219 195.40625 C 389.824219 195.40625 383.820312 190.867188 381.289062 198.089844 C 378.757812 205.3125 384.957031 205.226562 384.957031 205.226562 C 384.957031 205.226562 385.066406 216.964844 387.3125 222.597656 C 387.3125 222.597656 379.785156 230.167969 372.824219 240.339844 C 378.933594 245.707031 392.222656 252.125 410.097656 242.71875 Z M 410.097656 242.71875 "/><path style=" stroke:none;fill-rule:nonzero;fill:#010f20;fill-opacity:1;" d="M 410.597656 241.167969 C 410.554688 241.167969 410.535156 241.167969 410.488281 241.148438 C 410.226562 241.082031 410.074219 240.820312 410.140625 240.558594 C 412.5625 230.585938 415.507812 216.355469 415.683594 205.203125 C 415.902344 191.78125 411.382812 183.796875 407.457031 181.046875 C 406.34375 180.261719 405.296875 179.953125 404.621094 180.21875 C 403.964844 180.457031 403.550781 180.828125 403.332031 181.328125 C 402.742188 182.683594 403.660156 184.886719 404.554688 187.003906 C 404.664062 187.265625 404.773438 187.550781 404.882812 187.8125 C 406.210938 191.0625 406.910156 193.945312 406.910156 193.964844 C 406.953125 194.183594 406.867188 194.402344 406.671875 194.511719 C 406.472656 194.621094 406.234375 194.578125 406.082031 194.402344 C 406.058594 194.378906 404.03125 192.175781 401.804688 192.414062 C 400.539062 192.546875 399.402344 193.417969 398.441406 195.035156 C 398.355469 195.164062 398.226562 195.253906 398.09375 195.273438 C 397.941406 195.296875 397.789062 195.230469 397.703125 195.144531 C 397.679688 195.121094 395.105469 192.570312 392.855469 193.003906 C 391.789062 193.222656 390.914062 194.097656 390.28125 195.625 C 390.214844 195.753906 390.105469 195.863281 389.953125 195.90625 C 389.800781 195.953125 389.648438 195.90625 389.539062 195.820312 C 389.519531 195.796875 387.050781 193.964844 384.804688 194.664062 C 383.472656 195.078125 382.445312 196.277344 381.75 198.285156 C 380.964844 200.535156 380.964844 202.234375 381.769531 203.347656 C 382.816406 204.8125 384.933594 204.789062 384.957031 204.789062 C 385.085938 204.789062 385.21875 204.832031 385.304688 204.921875 C 385.394531 205.007812 385.457031 205.136719 385.457031 205.269531 C 385.457031 205.378906 385.589844 216.988281 387.792969 222.464844 C 387.859375 222.640625 387.816406 222.859375 387.683594 222.988281 C 387.621094 223.054688 380.089844 230.648438 373.238281 240.667969 C 373.085938 240.882812 372.78125 240.949219 372.5625 240.796875 C 372.34375 240.644531 372.277344 240.339844 372.429688 240.121094 C 378.695312 231 385.480469 223.863281 386.769531 222.53125 C 384.824219 217.359375 384.542969 207.933594 384.5 205.726562 C 383.667969 205.640625 382.011719 205.3125 381.007812 203.917969 C 380.003906 202.542969 379.960938 200.535156 380.855469 197.980469 C 381.660156 195.667969 382.90625 194.25 384.542969 193.746094 C 386.617188 193.113281 388.710938 194.160156 389.625 194.730469 C 390.390625 193.203125 391.394531 192.308594 392.660156 192.066406 C 394.820312 191.652344 397.023438 193.289062 397.941406 194.074219 C 399.011719 192.503906 400.277344 191.628906 401.71875 191.5 C 403.246094 191.347656 404.621094 192.066406 405.558594 192.722656 C 405.230469 191.585938 404.707031 189.949219 403.988281 188.203125 C 403.878906 187.941406 403.769531 187.679688 403.660156 187.417969 C 402.699219 185.105469 401.695312 182.703125 402.4375 181.003906 C 402.765625 180.261719 403.375 179.714844 404.25 179.367188 C 405.253906 178.972656 406.5625 179.320312 407.980469 180.304688 C 412.105469 183.183594 416.839844 191.457031 416.621094 205.269531 C 416.449219 216.488281 413.480469 230.800781 411.035156 240.820312 C 411.011719 241.015625 410.816406 241.167969 410.597656 241.167969 Z M 410.597656 241.167969 "/><path style=" stroke:none;fill-rule:nonzero;fill:#010f20;fill-opacity:1;" d="M 385.285156 203.894531 C 385.261719 203.894531 385.21875 203.894531 385.195312 203.894531 C 384.933594 203.851562 384.761719 203.589844 384.824219 203.328125 L 385.457031 200.183594 C 385.503906 199.921875 385.765625 199.75 386.027344 199.8125 C 386.289062 199.859375 386.460938 200.121094 386.398438 200.382812 L 385.765625 203.523438 C 385.71875 203.742188 385.523438 203.894531 385.285156 203.894531 Z M 385.285156 203.894531 "/><path style=" stroke:none;fill-rule:nonzero;fill:#010f20;fill-opacity:1;" d="M 405.425781 260.722656 C 405.382812 260.722656 405.359375 260.722656 405.316406 260.699219 C 405.054688 260.632812 404.902344 260.371094 404.945312 260.132812 L 406.757812 252.101562 C 406.824219 251.839844 407.0625 251.6875 407.324219 251.730469 C 407.585938 251.796875 407.738281 252.035156 407.695312 252.296875 L 405.886719 260.328125 C 405.839844 260.570312 405.644531 260.722656 405.425781 260.722656 Z M 405.425781 260.722656 "/><path style=" stroke:none;fill-rule:nonzero;fill:#ffffff;fill-opacity:1;" d="M 492.785156 219.300781 L 496.167969 240.578125 L 487.785156 242.238281 C 487.785156 242.238281 489.183594 245.53125 519.734375 244.003906 C 542.015625 242.890625 507.558594 207.386719 507.558594 207.386719 C 507.558594 207.386719 500.464844 212.164062 492.785156 219.300781 Z M 492.785156 219.300781 "/><path style=" stroke:none;fill-rule:nonzero;fill:#010f20;fill-opacity:1;" d="M 487.785156 242.585938 C 487.566406 242.585938 487.351562 242.433594 487.304688 242.195312 C 487.261719 241.933594 487.4375 241.691406 487.699219 241.625 L 495.621094 240.1875 L 492.652344 221.332031 C 492.632812 221.179688 492.675781 221.003906 492.804688 220.894531 C 500.269531 213.957031 502.277344 205.183594 502.296875 205.09375 C 502.363281 204.832031 502.605469 204.679688 502.867188 204.722656 C 503.128906 204.789062 503.28125 205.03125 503.238281 205.292969 C 503.148438 205.664062 501.164062 214.304688 493.636719 221.417969 L 496.625 240.492188 C 496.667969 240.753906 496.492188 240.992188 496.230469 241.039062 L 487.851562 242.566406 C 487.851562 242.585938 487.808594 242.585938 487.785156 242.585938 Z M 487.785156 242.585938 "/><path style=" stroke:none;fill-rule:nonzero;fill:#010f20;fill-opacity:1;" d="M 483.160156 174.675781 C 492.195312 172.1875 497.757812 170.398438 511.550781 178.121094 C 524.078125 185.148438 559.300781 233.769531 564.210938 244.703125 C 569.121094 255.636719 568.160156 269.210938 560.980469 278.8125 C 553.824219 288.414062 540.445312 293.257812 528.988281 289.617188 C 518.882812 286.40625 511.378906 277.4375 507.734375 267.507812 C 504.066406 257.601562 503.761719 246.796875 504.199219 236.257812 C 504.414062 231.152344 504.785156 216.464844 501.972656 212.164062 C 500.203125 209.480469 497.367188 216.792969 494.683594 215.003906 C 489.992188 211.902344 485.515625 200.96875 479.296875 196.890625 C 468.363281 189.667969 473.207031 177.402344 483.160156 174.675781 Z M 483.160156 174.675781 "/><path style=" stroke:none;fill-rule:nonzero;fill:#ffffff;fill-opacity:1;" d="M 479.910156 191.476562 C 479.910156 191.476562 491.757812 190.671875 493.066406 196.148438 C 494.378906 201.625 495.488281 204.199219 498.828125 205.3125 C 498.828125 205.3125 506.46875 198.636719 510.199219 204.332031 C 513.910156 210.050781 508.367188 215.285156 502.667969 215.65625 C 502.667969 215.65625 499.875 223.46875 489.882812 223.054688 C 479.886719 222.640625 478.488281 207.320312 479.910156 191.476562 Z M 479.910156 191.476562 "/><path style=" stroke:none;fill-rule:nonzero;fill:#010f20;fill-opacity:1;" d="M 490.644531 223.558594 C 490.382812 223.558594 490.121094 223.558594 489.859375 223.535156 C 487.351562 223.425781 485.234375 222.421875 483.574219 220.523438 C 479.515625 215.898438 478.117188 206.097656 479.429688 191.433594 C 479.449219 191.195312 479.648438 191.019531 479.863281 190.996094 C 480.367188 190.953125 492.128906 190.234375 493.527344 196.039062 C 494.769531 201.253906 495.796875 203.675781 498.71875 204.769531 C 499.65625 204.003906 503.433594 201.125 506.882812 201.601562 C 508.410156 201.820312 509.652344 202.652344 510.570312 204.070312 C 512.054688 206.339844 512.25 208.78125 511.160156 210.988281 C 509.761719 213.757812 506.511719 215.789062 502.976562 216.117188 C 502.363281 217.535156 499.15625 223.558594 490.644531 223.558594 Z M 480.34375 191.957031 C 479.144531 205.925781 480.519531 215.59375 484.292969 219.914062 C 485.777344 221.59375 487.65625 222.507812 489.902344 222.597656 C 499.417969 222.988281 502.101562 215.832031 502.210938 215.527344 C 502.277344 215.351562 502.453125 215.222656 502.625 215.199219 C 505.898438 214.980469 509.042969 213.082031 510.308594 210.574219 C 511.269531 208.675781 511.070312 206.601562 509.785156 204.613281 C 509.019531 203.4375 507.996094 202.738281 506.773438 202.5625 C 503.324219 202.082031 499.199219 205.640625 499.15625 205.683594 C 499.023438 205.792969 498.851562 205.835938 498.699219 205.773438 C 495.164062 204.59375 493.960938 201.886719 492.609375 196.277344 C 491.519531 191.804688 482.394531 191.871094 480.34375 191.957031 Z M 480.34375 191.957031 "/><path style=" stroke:none;fill-rule:nonzero;fill:#010f20;fill-opacity:1;" d="M 500.53125 211.335938 C 500.464844 211.335938 500.378906 211.316406 500.3125 211.292969 C 500.074219 211.160156 499.984375 210.878906 500.117188 210.636719 C 501.1875 208.566406 503.5 207.144531 505.855469 207.125 C 506.140625 207.125 506.335938 207.34375 506.335938 207.605469 C 506.335938 207.867188 506.117188 208.085938 505.855469 208.085938 C 503.847656 208.105469 501.882812 209.308594 500.96875 211.074219 C 500.878906 211.226562 500.707031 211.335938 500.53125 211.335938 Z M 500.53125 211.335938 "/><path style=" stroke:none;fill-rule:nonzero;fill:#010f20;fill-opacity:1;" d="M 599.519531 411.148438 L 551.988281 411.148438 C 551.726562 411.148438 551.507812 410.929688 551.507812 410.667969 C 551.507812 410.40625 551.726562 410.1875 551.988281 410.1875 L 599.039062 410.1875 L 599.039062 218.429688 L 562.3125 218.429688 C 562.050781 218.429688 561.832031 218.210938 561.832031 217.949219 C 561.832031 217.6875 562.050781 217.46875 562.3125 217.46875 L 599.519531 217.46875 C 599.78125 217.46875 600 217.6875 600 217.949219 L 600 410.667969 C 600 410.929688 599.78125 411.148438 599.519531 411.148438 Z M 599.519531 411.148438 "/><path style=" stroke:none;fill-rule:nonzero;fill:#ffffff;fill-opacity:1;" d="M 110.40625 351.601562 L 0.484375 351.601562 L 0.484375 241.679688 L 110.40625 241.679688 Z M 110.40625 351.601562 "/><path style=" stroke:none;fill-rule:nonzero;fill:#010f20;fill-opacity:1;" d="M 110.402344 352.074219 L 0.480469 352.074219 C 0.21875 352.074219 0 351.855469 0 351.59375 L 0 241.671875 C 0 241.410156 0.21875 241.191406 0.480469 241.191406 L 110.402344 241.191406 C 110.664062 241.191406 110.882812 241.410156 110.882812 241.671875 L 110.882812 351.59375 C 110.882812 351.875 110.664062 352.074219 110.402344 352.074219 Z M 0.960938 351.113281 L 109.921875 351.113281 L 109.921875 242.148438 L 0.960938 242.148438 Z M 0.960938 351.113281 "/><path style=" stroke:none;fill-rule:nonzero;fill:#ffffff;fill-opacity:1;" d="M 91.53125 331.132812 L 19.339844 331.132812 L 19.339844 277.339844 L 91.53125 277.339844 Z M 91.53125 331.132812 "/><path style=" stroke:none;fill-rule:nonzero;fill:#010f20;fill-opacity:1;" d="M 91.527344 331.625 L 19.355469 331.625 C 19.09375 331.625 18.875 331.40625 18.875 331.144531 L 18.875 277.351562 C 18.875 277.089844 19.09375 276.871094 19.355469 276.871094 L 91.546875 276.871094 C 91.808594 276.871094 92.027344 277.089844 92.027344 277.351562 L 92.027344 331.144531 C 92.003906 331.40625 91.808594 331.625 91.527344 331.625 Z M 19.835938 330.664062 L 91.046875 330.664062 L 91.046875 277.832031 L 19.835938 277.832031 Z M 19.835938 330.664062 "/><path style=" stroke:none;fill-rule:nonzero;fill:#010f20;fill-opacity:1;" d="M 62.390625 309.953125 L 48.511719 309.953125 C 48.25 309.953125 48.03125 309.734375 48.03125 309.472656 L 48.03125 297.40625 C 48.03125 297.144531 48.25 296.925781 48.511719 296.925781 L 62.390625 296.925781 C 62.652344 296.925781 62.871094 297.144531 62.871094 297.40625 L 62.871094 309.472656 C 62.871094 309.734375 62.652344 309.953125 62.390625 309.953125 Z M 48.992188 308.992188 L 61.910156 308.992188 L 61.910156 297.886719 L 48.992188 297.886719 Z M 48.992188 308.992188 "/><path style=" stroke:none;fill-rule:nonzero;fill:#010f20;fill-opacity:1;" d="M 62.390625 304.714844 C 62.238281 304.714844 62.085938 304.652344 62 304.519531 C 61.847656 304.300781 61.890625 303.996094 62.109375 303.84375 L 87.664062 285.839844 C 87.882812 285.6875 88.1875 285.730469 88.339844 285.949219 C 88.492188 286.167969 88.449219 286.472656 88.230469 286.625 L 62.652344 304.628906 C 62.566406 304.695312 62.480469 304.714844 62.390625 304.714844 Z M 62.390625 304.714844 "/><path style=" stroke:none;fill-rule:nonzero;fill:#010f20;fill-opacity:1;" d="M 48.511719 304.714844 C 48.425781 304.714844 48.316406 304.695312 48.230469 304.628906 L 22.675781 286.625 C 22.457031 286.472656 22.414062 286.167969 22.566406 285.949219 C 22.71875 285.730469 23.023438 285.6875 23.242188 285.839844 L 48.796875 303.84375 C 49.015625 303.996094 49.058594 304.300781 48.90625 304.519531 C 48.796875 304.652344 48.664062 304.714844 48.511719 304.714844 Z M 48.511719 304.714844 "/><path style=" stroke:none;fill-rule:nonzero;fill:#010f20;fill-opacity:1;" d="M 73.257812 272.769531 C 72.996094 272.769531 72.78125 272.550781 72.78125 272.289062 L 72.78125 267.335938 C 72.78125 264.738281 70.664062 262.621094 68.066406 262.621094 L 42.816406 262.621094 C 40.21875 262.621094 38.101562 264.738281 38.101562 267.335938 L 38.101562 272.289062 C 38.101562 272.550781 37.882812 272.769531 37.621094 272.769531 C 37.359375 272.769531 37.144531 272.550781 37.144531 272.289062 L 37.144531 267.335938 C 37.144531 264.214844 39.695312 261.660156 42.816406 261.660156 L 68.066406 261.660156 C 71.1875 261.660156 73.738281 264.214844 73.738281 267.335938 L 73.738281 272.289062 C 73.738281 272.550781 73.523438 272.769531 73.257812 272.769531 Z M 73.257812 272.769531 "/><path style=" stroke:none;fill-rule:nonzero;fill:#010f20;fill-opacity:1;" d="M 41.398438 274.578125 L 33.871094 274.578125 C 33.605469 274.578125 33.390625 274.359375 33.390625 274.097656 C 33.390625 273.835938 33.605469 273.617188 33.871094 273.617188 L 41.398438 273.617188 C 41.660156 273.617188 41.878906 273.835938 41.878906 274.097656 C 41.878906 274.359375 41.660156 274.578125 41.398438 274.578125 Z M 41.398438 274.578125 "/><path style=" stroke:none;fill-rule:nonzero;fill:#010f20;fill-opacity:1;" d="M 77.011719 274.578125 L 69.484375 274.578125 C 69.222656 274.578125 69.003906 274.359375 69.003906 274.097656 C 69.003906 273.835938 69.222656 273.617188 69.484375 273.617188 L 77.011719 273.617188 C 77.273438 273.617188 77.492188 273.835938 77.492188 274.097656 C 77.492188 274.359375 77.273438 274.578125 77.011719 274.578125 Z M 77.011719 274.578125 "/><path style=" stroke:none;fill-rule:nonzero;fill:#ffffff;fill-opacity:1;" d="M 110.40625 232.160156 L 0.484375 232.160156 L 0.484375 122.238281 L 110.40625 122.238281 Z M 110.40625 232.160156 "/><path style=" stroke:none;fill-rule:nonzero;fill:#010f20;fill-opacity:1;" d="M 110.402344 232.636719 L 0.480469 232.636719 C 0.21875 232.636719 0 232.417969 0 232.15625 L 0 122.234375 C 0 121.972656 0.21875 121.753906 0.480469 121.753906 L 110.402344 121.753906 C 110.664062 121.753906 110.882812 121.972656 110.882812 122.234375 L 110.882812 232.15625 C 110.882812 232.417969 110.664062 232.636719 110.402344 232.636719 Z M 0.960938 231.675781 L 109.921875 231.675781 L 109.921875 122.714844 L 0.960938 122.714844 Z M 0.960938 231.675781 "/><path style=" stroke:none;fill-rule:nonzero;fill:#72cff3;fill-opacity:1;" d="M 89.824219 175.808594 C 89.824219 176.910156 89.769531 178.007812 89.660156 179.101562 C 89.554688 180.199219 89.390625 181.285156 89.175781 182.363281 C 88.960938 183.445312 88.695312 184.511719 88.375 185.5625 C 88.054688 186.617188 87.6875 187.652344 87.265625 188.667969 C 86.84375 189.6875 86.375 190.679688 85.855469 191.652344 C 85.335938 192.621094 84.769531 193.566406 84.160156 194.480469 C 83.546875 195.394531 82.894531 196.277344 82.195312 197.128906 C 81.496094 197.980469 80.757812 198.792969 79.980469 199.574219 C 79.203125 200.351562 78.386719 201.089844 77.535156 201.789062 C 76.683594 202.484375 75.800781 203.140625 74.886719 203.753906 C 73.972656 204.363281 73.027344 204.929688 72.058594 205.449219 C 71.085938 205.964844 70.09375 206.4375 69.078125 206.859375 C 68.058594 207.277344 67.023438 207.648438 65.972656 207.96875 C 64.917969 208.289062 63.851562 208.554688 62.773438 208.769531 C 61.691406 208.984375 60.605469 209.144531 59.511719 209.253906 C 58.414062 209.363281 57.316406 209.414062 56.214844 209.414062 C 55.117188 209.414062 54.015625 209.363281 52.921875 209.253906 C 51.828125 209.144531 50.738281 208.984375 49.660156 208.769531 C 48.578125 208.554688 47.511719 208.289062 46.460938 207.96875 C 45.40625 207.648438 44.371094 207.277344 43.355469 206.859375 C 42.339844 206.4375 41.34375 205.964844 40.375 205.449219 C 39.402344 204.929688 38.460938 204.363281 37.542969 203.753906 C 36.628906 203.140625 35.746094 202.484375 34.894531 201.789062 C 34.042969 201.089844 33.230469 200.351562 32.453125 199.574219 C 31.671875 198.792969 30.933594 197.980469 30.238281 197.128906 C 29.539062 196.277344 28.882812 195.394531 28.273438 194.480469 C 27.660156 193.566406 27.097656 192.621094 26.578125 191.652344 C 26.058594 190.679688 25.589844 189.6875 25.167969 188.667969 C 24.746094 187.652344 24.375 186.617188 24.054688 185.5625 C 23.734375 184.511719 23.46875 183.445312 23.253906 182.363281 C 23.039062 181.285156 22.878906 180.199219 22.769531 179.101562 C 22.664062 178.007812 22.609375 176.910156 22.609375 175.808594 C 22.609375 174.707031 22.664062 173.609375 22.769531 172.515625 C 22.878906 171.417969 23.039062 170.332031 23.253906 169.253906 C 23.46875 168.171875 23.734375 167.105469 24.054688 166.054688 C 24.375 165 24.746094 163.964844 25.167969 162.949219 C 25.589844 161.929688 26.058594 160.9375 26.578125 159.964844 C 27.097656 158.996094 27.660156 158.050781 28.273438 157.136719 C 28.882812 156.222656 29.539062 155.339844 30.238281 154.488281 C 30.933594 153.636719 31.671875 152.824219 32.453125 152.042969 C 33.230469 151.265625 34.042969 150.527344 34.894531 149.828125 C 35.746094 149.132812 36.628906 148.476562 37.542969 147.863281 C 38.460938 147.253906 39.402344 146.6875 40.375 146.167969 C 41.34375 145.652344 42.339844 145.179688 43.355469 144.757812 C 44.371094 144.339844 45.40625 143.96875 46.460938 143.648438 C 47.511719 143.328125 48.578125 143.0625 49.660156 142.847656 C 50.738281 142.632812 51.828125 142.472656 52.921875 142.363281 C 54.015625 142.253906 55.117188 142.203125 56.214844 142.203125 C 57.316406 142.203125 58.414062 142.253906 59.511719 142.363281 C 60.605469 142.472656 61.691406 142.632812 62.773438 142.847656 C 63.851562 143.0625 64.917969 143.328125 65.972656 143.648438 C 67.023438 143.96875 68.058594 144.339844 69.078125 144.757812 C 70.09375 145.179688 71.085938 145.652344 72.058594 146.167969 C 73.027344 146.6875 73.972656 147.253906 74.886719 147.863281 C 75.800781 148.476562 76.683594 149.132812 77.535156 149.828125 C 78.386719 150.527344 79.203125 151.265625 79.980469 152.042969 C 80.757812 152.824219 81.496094 153.636719 82.195312 154.488281 C 82.894531 155.339844 83.546875 156.222656 84.160156 157.136719 C 84.769531 158.050781 85.335938 158.996094 85.855469 159.964844 C 86.375 160.9375 86.84375 161.929688 87.265625 162.949219 C 87.6875 163.964844 88.054688 165 88.375 166.054688 C 88.695312 167.105469 88.960938 168.171875 89.175781 169.253906 C 89.390625 170.332031 89.554688 171.417969 89.660156 172.515625 C 89.769531 173.609375 89.824219 174.707031 89.824219 175.808594 Z M 89.824219 175.808594 "/><path style=" stroke:none;fill-rule:nonzero;fill:#010f20;fill-opacity:1;" d="M 80.613281 196.953125 C 78.257812 196.953125 75.855469 195.582031 74.789062 193.527344 C 73.609375 191.304688 74.046875 188.421875 75.792969 186.699219 C 76.160156 186.328125 76.578125 186.023438 76.992188 185.695312 C 77.777344 185.105469 78.496094 184.539062 78.800781 183.753906 C 79.304688 182.355469 78.191406 180.761719 76.859375 179.910156 C 75.945312 179.320312 74.894531 178.949219 73.804688 178.558594 C 73.171875 178.339844 72.539062 178.101562 71.90625 177.839844 C 65.949219 175.21875 62.371094 168.105469 63.722656 161.644531 C 64.96875 155.753906 70.007812 150.648438 76.554688 148.617188 C 76.816406 148.53125 77.078125 148.683594 77.164062 148.945312 C 77.253906 149.207031 77.101562 149.46875 76.839844 149.554688 C 70.597656 151.476562 65.816406 156.320312 64.660156 161.863281 C 63.394531 167.886719 66.757812 174.519531 72.300781 176.964844 C 72.886719 177.226562 73.519531 177.445312 74.132812 177.664062 C 75.222656 178.054688 76.359375 178.449219 77.382812 179.105469 C 79.066406 180.171875 80.394531 182.222656 79.71875 184.078125 C 79.328125 185.148438 78.453125 185.824219 77.601562 186.457031 C 77.210938 186.765625 76.816406 187.046875 76.488281 187.375 C 75.027344 188.816406 74.679688 191.214844 75.660156 193.070312 C 76.640625 194.949219 78.933594 196.167969 81.070312 195.972656 C 81.335938 195.953125 81.574219 196.148438 81.597656 196.410156 C 81.617188 196.671875 81.421875 196.910156 81.160156 196.933594 C 80.984375 196.953125 80.808594 196.953125 80.613281 196.953125 Z M 80.613281 196.953125 "/><path style=" stroke:none;fill-rule:nonzero;fill:#010f20;fill-opacity:1;" d="M 38.34375 203.414062 C 38.101562 203.414062 37.90625 203.238281 37.863281 203 C 37.820312 202.738281 38.015625 202.5 38.277344 202.453125 C 44.757812 201.558594 51.109375 198.746094 56.152344 194.578125 C 59.03125 192.199219 60.472656 189.820312 60.382812 187.527344 C 60.320312 185.324219 58.726562 183.097656 56.390625 181.960938 C 54.46875 181.023438 52.003906 180.71875 49.101562 181.066406 C 47.617188 181.242188 46.113281 181.570312 44.648438 181.875 C 43.625 182.09375 42.578125 182.3125 41.527344 182.488281 C 40.152344 182.726562 38.429688 182.835938 37.25 181.808594 C 35.703125 180.457031 36.050781 178.078125 36.816406 176.441406 C 37.035156 175.984375 37.296875 175.523438 37.535156 175.089844 C 38.125 174.019531 38.691406 173.015625 38.800781 171.902344 C 39.042969 169.371094 36.75 167.167969 34.371094 166.492188 C 31.773438 165.75 28.9375 166.292969 26.425781 166.773438 C 26.164062 166.816406 25.902344 166.644531 25.859375 166.382812 C 25.816406 166.121094 25.992188 165.855469 26.253906 165.8125 C 28.871094 165.3125 31.839844 164.746094 34.65625 165.550781 C 37.359375 166.316406 40.089844 168.824219 39.785156 171.96875 C 39.652344 173.277344 39.019531 174.433594 38.410156 175.546875 C 38.167969 175.984375 37.929688 176.417969 37.710938 176.855469 C 37.035156 178.296875 36.835938 180.152344 37.90625 181.089844 C 38.800781 181.875 40.242188 181.746094 41.398438 181.546875 C 42.421875 181.375 43.472656 181.15625 44.476562 180.9375 C 45.960938 180.632812 47.488281 180.304688 49.015625 180.109375 C 52.113281 179.738281 54.753906 180.0625 56.847656 181.089844 C 59.53125 182.378906 61.300781 184.910156 61.386719 187.484375 C 61.453125 190.082031 59.925781 192.699219 56.804688 195.296875 C 51.546875 199.640625 45.21875 202.453125 38.453125 203.394531 C 38.386719 203.414062 38.363281 203.414062 38.34375 203.414062 Z M 38.34375 203.414062 "/><path style=" stroke:none;fill-rule:nonzero;fill:#010f20;fill-opacity:1;" d="M 40.808594 157.652344 C 40.109375 157.652344 39.414062 157.542969 38.734375 157.304688 C 35.984375 156.34375 34.109375 153.417969 34.371094 150.515625 C 34.394531 150.253906 34.632812 150.058594 34.894531 150.078125 C 35.15625 150.101562 35.351562 150.339844 35.332031 150.601562 C 35.113281 153.046875 36.726562 155.578125 39.042969 156.386719 C 41.355469 157.195312 44.214844 156.210938 45.566406 154.183594 C 46.003906 153.503906 46.332031 152.699219 46.636719 151.914062 C 47.160156 150.601562 47.683594 149.226562 48.863281 148.3125 C 49.972656 147.4375 51.414062 147.199219 52.8125 147.046875 L 53.226562 147.003906 C 54.339844 146.894531 55.496094 146.785156 56.457031 146.324219 C 57.417969 145.847656 58.289062 144.796875 58.113281 143.730469 C 58.070312 143.46875 58.246094 143.226562 58.507812 143.160156 C 58.769531 143.117188 59.007812 143.292969 59.074219 143.554688 C 59.359375 145.167969 58.136719 146.566406 56.890625 147.175781 C 55.757812 147.722656 54.515625 147.851562 53.3125 147.960938 L 52.898438 148.007812 C 51.65625 148.136719 50.390625 148.332031 49.449219 149.054688 C 48.492188 149.816406 48.03125 150.996094 47.53125 152.238281 C 47.203125 153.070312 46.875 153.921875 46.375 154.683594 C 45.152344 156.5625 42.992188 157.652344 40.808594 157.652344 Z M 40.808594 157.652344 "/><path style=" stroke:none;fill-rule:nonzero;fill:#ffffff;fill-opacity:1;" d="M 0.480469 361.105469 L 110.402344 361.105469 L 110.402344 471.03125 L 0.480469 471.03125 Z M 0.480469 361.105469 "/><path style=" stroke:none;fill-rule:nonzero;fill:#010f20;fill-opacity:1;" d="M 110.402344 471.53125 L 0.480469 471.53125 C 0.21875 471.53125 0 471.3125 0 471.050781 L 0 361.128906 C 0 360.867188 0.21875 360.648438 0.480469 360.648438 L 110.402344 360.648438 C 110.664062 360.648438 110.882812 360.867188 110.882812 361.128906 L 110.882812 471.050781 C 110.882812 471.3125 110.664062 471.53125 110.402344 471.53125 Z M 0.960938 470.550781 L 109.921875 470.550781 L 109.921875 361.585938 L 0.960938 361.585938 Z M 0.960938 470.550781 "/><path style=" stroke:none;fill-rule:nonzero;fill:#ffffff;fill-opacity:1;" d="M 11.28125 405.472656 L 55.453125 425.265625 L 99.601562 405.472656 L 55.453125 385.679688 Z M 11.28125 405.472656 "/><path style=" stroke:none;fill-rule:nonzero;fill:#010f20;fill-opacity:1;" d="M 55.453125 425.746094 C 55.386719 425.746094 55.320312 425.726562 55.253906 425.703125 L 11.109375 405.910156 C 10.933594 405.824219 10.824219 405.667969 10.824219 405.472656 C 10.824219 405.277344 10.933594 405.101562 11.109375 405.035156 L 55.253906 385.242188 C 55.386719 385.179688 55.515625 385.179688 55.648438 385.242188 L 99.796875 405.035156 C 99.972656 405.125 100.078125 405.277344 100.078125 405.472656 C 100.078125 405.667969 99.972656 405.84375 99.796875 405.910156 L 55.648438 425.703125 C 55.582031 425.726562 55.515625 425.746094 55.453125 425.746094 Z M 12.460938 405.472656 L 55.453125 424.742188 L 98.421875 405.472656 L 55.453125 386.203125 Z M 12.460938 405.472656 "/><path style=" stroke:none;fill-rule:nonzero;fill:#ffffff;fill-opacity:1;" d="M 31.121094 429.304688 L 79.761719 429.304688 L 79.761719 411.386719 C 79.761719 408.046875 77.929688 405.191406 75.355469 404.46875 C 62.085938 400.78125 48.796875 400.78125 35.527344 404.46875 C 32.953125 405.191406 31.121094 408.070312 31.121094 411.386719 Z M 31.121094 429.304688 "/><path style=" stroke:none;fill-rule:nonzero;fill:#010f20;fill-opacity:1;" d="M 79.761719 429.785156 L 31.121094 429.785156 C 30.859375 429.785156 30.640625 429.566406 30.640625 429.304688 L 30.640625 411.386719 C 30.640625 407.832031 32.601562 404.773438 35.398438 404.011719 C 48.6875 400.324219 62.171875 400.324219 75.484375 404.011719 C 78.300781 404.796875 80.242188 407.832031 80.242188 411.386719 L 80.242188 429.304688 C 80.242188 429.566406 80.023438 429.785156 79.761719 429.785156 Z M 31.601562 428.824219 L 79.28125 428.824219 L 79.28125 411.386719 C 79.28125 408.308594 77.582031 405.582031 75.222656 404.925781 C 62.085938 401.285156 48.773438 401.285156 35.660156 404.925781 C 33.300781 405.582031 31.601562 408.289062 31.601562 411.386719 Z M 31.601562 428.824219 "/><path style=" stroke:none;fill-rule:nonzero;fill:#ffffff;fill-opacity:1;" d="M 79.785156 429.304688 C 79.785156 429.488281 79.746094 429.667969 79.667969 429.851562 C 79.589844 430.035156 79.472656 430.214844 79.316406 430.394531 C 79.160156 430.574219 78.96875 430.75 78.738281 430.925781 C 78.503906 431.101562 78.238281 431.273438 77.933594 431.441406 C 77.628906 431.609375 77.289062 431.777344 76.910156 431.9375 C 76.535156 432.097656 76.125 432.253906 75.683594 432.40625 C 75.242188 432.558594 74.765625 432.707031 74.261719 432.847656 C 73.757812 432.988281 73.222656 433.125 72.65625 433.253906 C 72.09375 433.382812 71.503906 433.507812 70.886719 433.621094 C 70.273438 433.738281 69.632812 433.847656 68.96875 433.949219 C 68.308594 434.050781 67.625 434.144531 66.921875 434.230469 C 66.21875 434.316406 65.5 434.394531 64.765625 434.464844 C 64.027344 434.535156 63.277344 434.597656 62.515625 434.648438 C 61.753906 434.703125 60.980469 434.746094 60.199219 434.785156 C 59.417969 434.820312 58.628906 434.847656 57.835938 434.863281 C 57.042969 434.882812 56.25 434.890625 55.453125 434.890625 C 54.65625 434.890625 53.859375 434.882812 53.066406 434.863281 C 52.273438 434.847656 51.488281 434.820312 50.703125 434.785156 C 49.921875 434.746094 49.152344 434.703125 48.390625 434.648438 C 47.625 434.597656 46.875 434.535156 46.140625 434.464844 C 45.402344 434.394531 44.683594 434.316406 43.980469 434.230469 C 43.277344 434.144531 42.597656 434.050781 41.933594 433.949219 C 41.269531 433.847656 40.632812 433.738281 40.015625 433.621094 C 39.398438 433.507812 38.808594 433.382812 38.246094 433.253906 C 37.683594 433.125 37.148438 432.988281 36.644531 432.847656 C 36.136719 432.707031 35.664062 432.558594 35.21875 432.40625 C 34.777344 432.253906 34.367188 432.097656 33.992188 431.9375 C 33.617188 431.777344 33.277344 431.609375 32.972656 431.441406 C 32.667969 431.273438 32.398438 431.101562 32.167969 430.925781 C 31.9375 430.75 31.742188 430.574219 31.585938 430.394531 C 31.429688 430.214844 31.316406 430.035156 31.238281 429.851562 C 31.160156 429.667969 31.121094 429.488281 31.121094 429.304688 C 31.121094 429.121094 31.160156 428.9375 31.238281 428.757812 C 31.316406 428.574219 31.429688 428.394531 31.585938 428.214844 C 31.742188 428.035156 31.9375 427.855469 32.167969 427.683594 C 32.398438 427.507812 32.667969 427.335938 32.972656 427.164062 C 33.277344 426.996094 33.617188 426.832031 33.992188 426.671875 C 34.367188 426.507812 34.777344 426.351562 35.21875 426.199219 C 35.664062 426.046875 36.136719 425.902344 36.644531 425.761719 C 37.148438 425.617188 37.683594 425.484375 38.246094 425.355469 C 38.808594 425.222656 39.398438 425.101562 40.015625 424.984375 C 40.632812 424.871094 41.269531 424.761719 41.933594 424.660156 C 42.597656 424.558594 43.277344 424.464844 43.980469 424.375 C 44.683594 424.289062 45.402344 424.210938 46.140625 424.140625 C 46.875 424.074219 47.625 424.011719 48.390625 423.957031 C 49.152344 423.90625 49.921875 423.859375 50.703125 423.824219 C 51.488281 423.789062 52.273438 423.761719 53.066406 423.746094 C 53.859375 423.726562 54.65625 423.71875 55.453125 423.71875 C 56.25 423.71875 57.042969 423.726562 57.835938 423.746094 C 58.628906 423.761719 59.417969 423.789062 60.199219 423.824219 C 60.980469 423.859375 61.753906 423.90625 62.515625 423.957031 C 63.277344 424.011719 64.027344 424.074219 64.765625 424.140625 C 65.5 424.210938 66.21875 424.289062 66.921875 424.375 C 67.625 424.464844 68.308594 424.558594 68.96875 424.660156 C 69.632812 424.761719 70.273438 424.871094 70.886719 424.984375 C 71.503906 425.101562 72.09375 425.222656 72.65625 425.355469 C 73.222656 425.484375 73.757812 425.617188 74.261719 425.761719 C 74.765625 425.902344 75.242188 426.046875 75.683594 426.199219 C 76.125 426.351562 76.535156 426.507812 76.910156 426.671875 C 77.289062 426.832031 77.628906 426.996094 77.933594 427.164062 C 78.238281 427.335938 78.503906 427.507812 78.738281 427.683594 C 78.96875 427.855469 79.160156 428.035156 79.316406 428.214844 C 79.472656 428.394531 79.589844 428.574219 79.667969 428.757812 C 79.746094 428.9375 79.785156 429.121094 79.785156 429.304688 Z M 79.785156 429.304688 "/><path style=" stroke:none;fill-rule:nonzero;fill:#010f20;fill-opacity:1;" d="M 55.453125 435.371094 C 43.425781 435.371094 30.640625 433.230469 30.640625 429.28125 C 30.640625 425.332031 43.425781 423.195312 55.453125 423.195312 C 67.476562 423.195312 80.265625 425.332031 80.265625 429.28125 C 80.242188 433.253906 67.476562 435.371094 55.453125 435.371094 Z M 55.453125 424.199219 C 41.398438 424.199219 31.601562 426.902344 31.601562 429.304688 C 31.601562 431.726562 41.398438 434.410156 55.453125 434.410156 C 69.507812 434.410156 79.304688 431.703125 79.304688 429.304688 C 79.28125 426.882812 69.507812 424.199219 55.453125 424.199219 Z M 55.453125 424.199219 "/><path style=" stroke:none;fill-rule:nonzero;fill:#010f20;fill-opacity:1;" d="M 95.648438 430.199219 C 95.386719 430.199219 95.167969 429.980469 95.167969 429.71875 L 95.167969 409.050781 C 95.167969 408.789062 95.386719 408.570312 95.648438 408.570312 C 95.910156 408.570312 96.128906 408.789062 96.128906 409.050781 L 96.128906 429.71875 C 96.128906 429.980469 95.910156 430.199219 95.648438 430.199219 Z M 95.648438 430.199219 "/><path style=" stroke:none;fill-rule:nonzero;fill:#ffffff;fill-opacity:1;" d="M 92.3125 449.578125 L 98.988281 449.578125 L 95.648438 432.316406 Z M 92.3125 449.578125 "/><path style=" stroke:none;fill-rule:nonzero;fill:#010f20;fill-opacity:1;" d="M 98.988281 450.058594 L 92.3125 450.058594 C 92.160156 450.058594 92.027344 449.992188 91.941406 449.882812 C 91.851562 449.773438 91.808594 449.621094 91.832031 449.488281 L 95.167969 432.226562 C 95.214844 432.011719 95.410156 431.835938 95.648438 431.835938 C 95.890625 431.835938 96.085938 431.988281 96.128906 432.226562 L 99.46875 449.488281 C 99.492188 449.621094 99.46875 449.773438 99.359375 449.882812 C 99.273438 449.992188 99.140625 450.058594 98.988281 450.058594 Z M 92.898438 449.097656 L 98.398438 449.097656 L 95.648438 434.847656 Z M 92.898438 449.097656 "/><path style=" stroke:none;fill-rule:nonzero;fill:#010f20;fill-opacity:1;" d="M 154.832031 291.273438 C 154.570312 291.273438 154.355469 291.054688 154.355469 290.792969 L 154.355469 179.191406 L 123.082031 179.191406 C 122.820312 179.191406 122.601562 178.972656 122.601562 178.710938 C 122.601562 178.449219 122.820312 178.230469 123.082031 178.230469 L 154.832031 178.230469 C 155.09375 178.230469 155.3125 178.449219 155.3125 178.710938 L 155.3125 290.816406 C 155.3125 291.078125 155.09375 291.273438 154.832031 291.273438 Z M 154.832031 291.273438 "/><path style=" stroke:none;fill-rule:nonzero;fill:#a5e9ff;fill-opacity:1;" d="M 432.550781 439.582031 L 555.960938 439.582031 L 555.960938 495.363281 L 432.550781 495.363281 Z M 432.550781 439.582031 "/><path style=" stroke:none;fill-rule:nonzero;fill:#72cff3;fill-opacity:1;" d="M 467.054688 478.164062 L 467.207031 478.710938 L 467.359375 478.164062 L 475.523438 455.425781 L 477.921875 455.425781 L 468.277344 481.375 L 466.183594 481.375 L 456.535156 455.425781 L 458.914062 455.425781 Z M 467.054688 478.164062 "/><path style=" stroke:none;fill-rule:nonzero;fill:#72cff3;fill-opacity:1;" d="M 482.222656 455.425781 L 484.402344 455.425781 L 484.402344 481.375 L 482.222656 481.375 Z M 482.222656 455.425781 "/><path style=" stroke:none;fill-rule:nonzero;fill:#72cff3;fill-opacity:1;" d="M 506.117188 475 C 506.117188 473.5625 505.617188 472.425781 504.613281 471.597656 C 503.609375 470.765625 501.753906 469.960938 499.070312 469.21875 C 496.382812 468.453125 494.421875 467.648438 493.199219 466.753906 C 491.429688 465.488281 490.558594 463.851562 490.558594 461.796875 C 490.558594 459.8125 491.367188 458.199219 493.003906 456.953125 C 494.640625 455.710938 496.710938 455.097656 499.265625 455.097656 C 500.988281 455.097656 502.539062 455.425781 503.890625 456.101562 C 505.246094 456.757812 506.3125 457.695312 507.054688 458.875 C 507.796875 460.050781 508.167969 461.382812 508.167969 462.847656 L 505.964844 462.847656 C 505.964844 461.078125 505.355469 459.636719 504.152344 458.570312 C 502.929688 457.5 501.316406 456.953125 499.265625 456.953125 C 497.28125 456.953125 495.707031 457.390625 494.53125 458.285156 C 493.351562 459.179688 492.761719 460.335938 492.761719 461.753906 C 492.761719 463.085938 493.285156 464.15625 494.355469 464.984375 C 495.402344 465.8125 497.105469 466.554688 499.441406 467.1875 C 501.773438 467.820312 503.519531 468.476562 504.722656 469.175781 C 505.921875 469.851562 506.816406 470.679688 507.425781 471.617188 C 508.039062 472.578125 508.34375 473.691406 508.34375 474.980469 C 508.34375 477.03125 507.535156 478.667969 505.898438 479.890625 C 504.261719 481.132812 502.125 481.746094 499.441406 481.746094 C 497.605469 481.746094 495.925781 481.417969 494.398438 480.761719 C 492.871094 480.109375 491.714844 479.191406 490.929688 478.011719 C 490.144531 476.835938 489.75 475.480469 489.75 473.976562 L 491.933594 473.976562 C 491.933594 475.808594 492.609375 477.25 493.984375 478.296875 C 495.359375 479.34375 497.171875 479.890625 499.441406 479.890625 C 501.46875 479.890625 503.085938 479.453125 504.304688 478.558594 C 505.507812 477.640625 506.117188 476.464844 506.117188 475 Z M 506.117188 475 "/><path style=" stroke:none;fill-rule:nonzero;fill:#72cff3;fill-opacity:1;" d="M 527.046875 474.085938 L 515.261719 474.085938 L 512.597656 481.375 L 510.308594 481.375 L 520.128906 455.425781 L 522.222656 455.425781 L 532.042969 481.375 L 529.773438 481.375 Z M 515.960938 472.230469 L 526.371094 472.230469 L 521.175781 458.109375 Z M 515.960938 472.230469 "/><g clip-rule="nonzero" clip-path="url(#cea43a3193)"><path style=" stroke:none;fill-rule:nonzero;fill:#72cff3;fill-opacity:1;" d="M 432.457031 438.683594 L 555.960938 438.683594 L 555.960938 495.449219 L 432.457031 495.449219 Z M 432.457031 438.683594 "/></g><g style="fill:#ffffff;fill-opacity:1;"><g transform="translate(469.902985, 458.066808)"><path style="stroke:none" d="M 4.125 -10.765625 L 4.125 -7.8125 L 9.875 -7.8125 L 9.875 -5.5 L 4.125 -5.5 L 4.125 0 L 1.390625 0 L 1.390625 -13.078125 L 10.6875 -13.078125 L 10.6875 -10.765625 Z M 4.125 -10.765625 "/></g></g><g style="fill:#ffffff;fill-opacity:1;"><g transform="translate(483.39844, 458.066808)"><path style="stroke:none" d="M 1.171875 0 L 1.171875 -13.078125 L 3.90625 -13.078125 L 3.90625 0 Z M 1.171875 0 "/></g></g><g style="fill:#ffffff;fill-opacity:1;"><g transform="translate(490.829661, 458.066808)"><path style="stroke:none" d="M 11.421875 -8.90625 C 11.421875 -8.144531 11.253906 -7.441406 10.921875 -6.796875 C 10.597656 -6.160156 10.128906 -5.65625 9.515625 -5.28125 C 8.898438 -4.90625 8.179688 -4.71875 7.359375 -4.71875 L 4.125 -4.71875 L 4.125 0 L 1.390625 0 L 1.390625 -13.078125 L 7.359375 -13.078125 C 8.617188 -13.078125 9.609375 -12.703125 10.328125 -11.953125 C 11.054688 -11.203125 11.421875 -10.1875 11.421875 -8.90625 Z M 8.6875 -9.015625 C 8.6875 -9.660156 8.5 -10.125 8.125 -10.40625 C 7.757812 -10.6875 7.175781 -10.828125 6.375 -10.828125 L 4.125 -10.828125 L 4.125 -6.984375 L 6.71875 -6.984375 C 8.03125 -6.984375 8.6875 -7.660156 8.6875 -9.015625 Z M 8.6875 -9.015625 "/></g></g><g style="fill:#ffffff;fill-opacity:1;"><g transform="translate(505.344935, 458.066808)"><path style="stroke:none" d="M 6.453125 -1.96875 C 8.203125 -1.96875 9.078125 -2.796875 9.078125 -4.453125 L 9.078125 -13.078125 L 11.859375 -13.078125 L 11.859375 -4.484375 C 11.859375 -2.929688 11.398438 -1.738281 10.484375 -0.90625 C 9.578125 -0.0703125 8.242188 0.34375 6.484375 0.34375 C 4.867188 0.34375 3.601562 -0.0625 2.6875 -0.875 C 1.769531 -1.6875 1.3125 -2.882812 1.3125 -4.46875 L 1.3125 -13.078125 L 4.09375 -13.078125 L 4.09375 -4.515625 C 4.09375 -3.742188 4.300781 -3.125 4.71875 -2.65625 C 5.144531 -2.195312 5.722656 -1.96875 6.453125 -1.96875 Z M 6.453125 -1.96875 "/></g></g><g style="fill:#ffffff;fill-opacity:1;"><g transform="translate(449.828767, 483.566807)"><path style="stroke:none" d="M 11.421875 -8.90625 C 11.421875 -8.144531 11.253906 -7.441406 10.921875 -6.796875 C 10.597656 -6.160156 10.128906 -5.65625 9.515625 -5.28125 C 8.898438 -4.90625 8.179688 -4.71875 7.359375 -4.71875 L 4.125 -4.71875 L 4.125 0 L 1.390625 0 L 1.390625 -13.078125 L 7.359375 -13.078125 C 8.617188 -13.078125 9.609375 -12.703125 10.328125 -11.953125 C 11.054688 -11.203125 11.421875 -10.1875 11.421875 -8.90625 Z M 8.6875 -9.015625 C 8.6875 -9.660156 8.5 -10.125 8.125 -10.40625 C 7.757812 -10.6875 7.175781 -10.828125 6.375 -10.828125 L 4.125 -10.828125 L 4.125 -6.984375 L 6.71875 -6.984375 C 8.03125 -6.984375 8.6875 -7.660156 8.6875 -9.015625 Z M 8.6875 -9.015625 "/></g></g><g style="fill:#ffffff;fill-opacity:1;"><g transform="translate(464.34404, 483.566807)"><path style="stroke:none" d="M 12.109375 -9.375 C 12.109375 -8.632812 11.929688 -7.984375 11.578125 -7.421875 C 11.234375 -6.867188 10.738281 -6.484375 10.09375 -6.265625 L 10.53125 -6.046875 C 11.03125 -5.773438 11.359375 -5.394531 11.515625 -4.90625 C 11.671875 -4.425781 11.75 -3.820312 11.75 -3.09375 L 11.75 -1.875 C 11.75 -0.945312 11.941406 -0.4375 12.328125 -0.34375 L 12.328125 0 L 9.3125 0 C 9.238281 -0.21875 9.171875 -0.503906 9.109375 -0.859375 C 9.054688 -1.210938 9.03125 -1.546875 9.03125 -1.859375 L 9.015625 -3.28125 C 9.015625 -3.84375 8.914062 -4.253906 8.71875 -4.515625 C 8.53125 -4.773438 8.289062 -4.941406 8 -5.015625 C 7.707031 -5.085938 7.332031 -5.125 6.875 -5.125 L 4.0625 -5.125 L 4.0625 0 L 1.390625 0 L 1.390625 -13.078125 L 8.140625 -13.078125 C 8.953125 -13.078125 9.660156 -12.90625 10.265625 -12.5625 C 10.867188 -12.226562 11.328125 -11.78125 11.640625 -11.21875 C 11.953125 -10.664062 12.109375 -10.050781 12.109375 -9.375 Z M 9.375 -9.109375 C 9.375 -9.628906 9.207031 -10.046875 8.875 -10.359375 C 8.539062 -10.671875 8.097656 -10.828125 7.546875 -10.828125 L 4.0625 -10.828125 L 4.0625 -7.328125 L 7.34375 -7.328125 C 8.019531 -7.328125 8.523438 -7.460938 8.859375 -7.734375 C 9.203125 -8.003906 9.375 -8.460938 9.375 -9.109375 Z M 9.375 -9.109375 "/></g></g><g style="fill:#ffffff;fill-opacity:1;"><g transform="translate(479.860912, 483.566807)"><path style="stroke:none" d="M 9.8125 0 L 8.984375 -2.703125 L 4.15625 -2.703125 L 3.25 0 L 0.359375 0 L 5.03125 -13.078125 L 8.1875 -13.078125 L 12.796875 0 Z M 8.21875 -4.953125 L 6.59375 -10.125 L 6.5625 -10.125 L 4.875 -4.953125 Z M 8.21875 -4.953125 "/></g></g><g style="fill:#ffffff;fill-opacity:1;"><g transform="translate(495.377783, 483.566807)"><path style="stroke:none" d="M 9.3125 -13.078125 L 12.84375 -13.078125 L 7.5 -7.71875 L 13.15625 0 L 9.640625 0 L 5.59375 -5.734375 L 4.3125 -4.421875 L 4.3125 0 L 1.578125 0 L 1.578125 -13.078125 L 4.3125 -13.078125 L 4.3125 -7.765625 Z M 9.3125 -13.078125 "/></g></g><g style="fill:#ffffff;fill-opacity:1;"><g transform="translate(510.894655, 483.566807)"><path style="stroke:none" d="M 5.734375 -11.171875 C 5.066406 -11.171875 4.519531 -11.023438 4.09375 -10.734375 C 3.675781 -10.453125 3.46875 -10.070312 3.46875 -9.59375 C 3.46875 -9.25 3.566406 -8.960938 3.765625 -8.734375 C 3.960938 -8.515625 4.378906 -8.332031 5.015625 -8.1875 L 8.09375 -7.4375 C 9.351562 -7.132812 10.226562 -6.695312 10.71875 -6.125 C 11.207031 -5.550781 11.453125 -4.820312 11.453125 -3.9375 C 11.453125 -3 11.222656 -2.207031 10.765625 -1.5625 C 10.316406 -0.914062 9.703125 -0.4375 8.921875 -0.125 C 8.148438 0.1875 7.269531 0.34375 6.28125 0.34375 C 4.5625 0.34375 3.210938 -0.0195312 2.234375 -0.75 C 1.265625 -1.476562 0.753906 -2.570312 0.703125 -4.03125 L 3.328125 -4.03125 C 3.359375 -3.363281 3.609375 -2.84375 4.078125 -2.46875 C 4.554688 -2.09375 5.234375 -1.90625 6.109375 -1.90625 C 6.992188 -1.90625 7.671875 -2.046875 8.140625 -2.328125 C 8.609375 -2.609375 8.84375 -3.035156 8.84375 -3.609375 C 8.84375 -3.972656 8.71875 -4.253906 8.46875 -4.453125 C 8.21875 -4.660156 7.800781 -4.847656 7.21875 -5.015625 C 6.632812 -5.191406 5.660156 -5.429688 4.296875 -5.734375 C 3.109375 -6.003906 2.242188 -6.429688 1.703125 -7.015625 C 1.171875 -7.597656 0.90625 -8.394531 0.90625 -9.40625 C 0.90625 -10.175781 1.085938 -10.863281 1.453125 -11.46875 C 1.828125 -12.082031 2.390625 -12.5625 3.140625 -12.90625 C 3.898438 -13.25 4.832031 -13.421875 5.9375 -13.421875 C 6.945312 -13.421875 7.832031 -13.25 8.59375 -12.90625 C 9.351562 -12.5625 9.941406 -12.066406 10.359375 -11.421875 C 10.785156 -10.785156 11.015625 -10.046875 11.046875 -9.203125 L 8.421875 -9.203125 C 8.296875 -10.515625 7.398438 -11.171875 5.734375 -11.171875 Z M 5.734375 -11.171875 "/></g></g><g style="fill:#ffffff;fill-opacity:1;"><g transform="translate(525.409929, 483.566807)"><path style="stroke:none" d="M 9.8125 0 L 8.984375 -2.703125 L 4.15625 -2.703125 L 3.25 0 L 0.359375 0 L 5.03125 -13.078125 L 8.1875 -13.078125 L 12.796875 0 Z M 8.21875 -4.953125 L 6.59375 -10.125 L 6.5625 -10.125 L 4.875 -4.953125 Z M 8.21875 -4.953125 "/></g></g><g style="fill:#ffffff;fill-opacity:1;"><g transform="translate(149.36292, 482.394839)"><path style="stroke:none" d="M 12.046875 -9.390625 C 12.046875 -8.585938 11.875 -7.847656 11.53125 -7.171875 C 11.1875 -6.503906 10.691406 -5.972656 10.046875 -5.578125 C 9.398438 -5.179688 8.640625 -4.984375 7.765625 -4.984375 L 4.34375 -4.984375 L 4.34375 0 L 1.453125 0 L 1.453125 -13.796875 L 7.765625 -13.796875 C 9.097656 -13.796875 10.144531 -13.398438 10.90625 -12.609375 C 11.664062 -11.816406 12.046875 -10.742188 12.046875 -9.390625 Z M 9.171875 -9.515625 C 9.171875 -10.191406 8.972656 -10.675781 8.578125 -10.96875 C 8.191406 -11.269531 7.570312 -11.421875 6.71875 -11.421875 L 4.34375 -11.421875 L 4.34375 -7.359375 L 7.09375 -7.359375 C 8.476562 -7.359375 9.171875 -8.078125 9.171875 -9.515625 Z M 9.171875 -9.515625 "/></g></g><g style="fill:#ffffff;fill-opacity:1;"><g transform="translate(164.672631, 482.394839)"><path style="stroke:none" d="M 7.171875 -10.453125 L 7.171875 -7.71875 C 6.960938 -7.75 6.71875 -7.765625 6.4375 -7.765625 C 4.757812 -7.765625 3.921875 -6.96875 3.921875 -5.375 L 3.921875 0 L 1.234375 0 L 1.234375 -10.21875 L 3.8125 -10.21875 L 3.8125 -8.453125 L 3.84375 -8.453125 C 4.226562 -9.210938 4.640625 -9.742188 5.078125 -10.046875 C 5.515625 -10.347656 6.039062 -10.5 6.65625 -10.5 C 6.71875 -10.5 6.890625 -10.484375 7.171875 -10.453125 Z M 7.171875 -10.453125 "/></g></g><g style="fill:#ffffff;fill-opacity:1;"><g transform="translate(174.642769, 482.394839)"><path style="stroke:none" d="M 1.328125 -11.4375 L 1.328125 -13.9375 L 4.015625 -13.9375 L 4.015625 -11.4375 Z M 1.328125 0 L 1.328125 -10.21875 L 4.015625 -10.21875 L 4.015625 0 Z M 1.328125 0 "/></g></g><g style="fill:#ffffff;fill-opacity:1;"><g transform="translate(182.480919, 482.394839)"><path style="stroke:none" d="M 1.328125 -11.4375 L 1.328125 -13.9375 L 4.015625 -13.9375 L 4.015625 -11.4375 Z M 3.703125 2.875 C 3.554688 3.1875 3.375 3.425781 3.15625 3.59375 C 2.945312 3.769531 2.644531 3.898438 2.25 3.984375 C 1.851562 4.066406 1.304688 4.109375 0.609375 4.109375 L 0.0625 4.109375 L 0.0625 1.953125 L 0.46875 1.953125 C 0.769531 1.953125 0.988281 1.882812 1.125 1.75 C 1.257812 1.625 1.328125 1.375 1.328125 1 L 1.328125 -10.21875 L 4.015625 -10.21875 L 4.015625 1.171875 C 4.015625 1.890625 3.910156 2.457031 3.703125 2.875 Z M 3.703125 2.875 "/></g></g><g style="fill:#ffffff;fill-opacity:1;"><g transform="translate(190.319068, 482.394839)"><path style="stroke:none" d="M 10.125 -0.40625 L 10.125 0 L 7.21875 0 C 7.070312 -0.445312 6.988281 -0.847656 6.96875 -1.203125 C 6.488281 -0.679688 5.984375 -0.304688 5.453125 -0.078125 C 4.929688 0.148438 4.335938 0.265625 3.671875 0.265625 C 2.734375 0.265625 1.976562 0 1.40625 -0.53125 C 0.84375 -1.070312 0.5625 -1.796875 0.5625 -2.703125 C 0.5625 -3.566406 0.789062 -4.28125 1.25 -4.84375 C 1.71875 -5.414062 2.554688 -5.804688 3.765625 -6.015625 L 5.6875 -6.296875 C 6.175781 -6.378906 6.5 -6.476562 6.65625 -6.59375 C 6.820312 -6.707031 6.90625 -6.898438 6.90625 -7.171875 C 6.90625 -7.554688 6.765625 -7.847656 6.484375 -8.046875 C 6.210938 -8.242188 5.757812 -8.34375 5.125 -8.34375 C 4.113281 -8.34375 3.566406 -7.867188 3.484375 -6.921875 L 0.890625 -6.921875 C 0.984375 -8.085938 1.375 -8.972656 2.0625 -9.578125 C 2.75 -10.191406 3.851562 -10.5 5.375 -10.5 C 6.6875 -10.5 7.707031 -10.238281 8.4375 -9.71875 C 9.164062 -9.207031 9.53125 -8.503906 9.53125 -7.609375 L 9.53125 -1.90625 C 9.53125 -1.425781 9.578125 -1.070312 9.671875 -0.84375 C 9.773438 -0.625 9.925781 -0.476562 10.125 -0.40625 Z M 6.90625 -3.703125 L 6.90625 -4.984375 C 6.664062 -4.835938 6.410156 -4.722656 6.140625 -4.640625 C 5.878906 -4.554688 5.492188 -4.476562 4.984375 -4.40625 C 4.398438 -4.320312 3.960938 -4.160156 3.671875 -3.921875 C 3.390625 -3.691406 3.25 -3.34375 3.25 -2.875 C 3.25 -2.507812 3.363281 -2.210938 3.59375 -1.984375 C 3.820312 -1.765625 4.125 -1.65625 4.5 -1.65625 C 4.894531 -1.65625 5.273438 -1.738281 5.640625 -1.90625 C 6.015625 -2.082031 6.316406 -2.328125 6.546875 -2.640625 C 6.785156 -2.953125 6.90625 -3.304688 6.90625 -3.703125 Z M 6.90625 -3.703125 "/></g></g><g style="fill:#ffffff;fill-opacity:1;"><g transform="translate(203.49679, 482.394839)"><path style="stroke:none" d="M 5.40625 -2.6875 L 7.578125 -10.21875 L 10.4375 -10.21875 L 6.75 0 L 3.921875 0 L 0.25 -10.21875 L 3.25 -10.21875 L 5.359375 -2.6875 Z M 5.40625 -2.6875 "/></g></g><g style="fill:#ffffff;fill-opacity:1;"><g transform="translate(216.674513, 482.394839)"><path style="stroke:none" d="M 10.5 -7.15625 L 10.5 0 L 7.796875 0 L 7.796875 -6.484375 C 7.796875 -7.046875 7.644531 -7.472656 7.34375 -7.765625 C 7.050781 -8.066406 6.617188 -8.21875 6.046875 -8.21875 C 5.421875 -8.21875 4.910156 -8.015625 4.515625 -7.609375 C 4.128906 -7.203125 3.9375 -6.644531 3.9375 -5.9375 L 3.9375 0 L 1.25 0 L 1.25 -10.21875 L 3.828125 -10.21875 L 3.828125 -8.71875 L 3.859375 -8.71875 C 4.179688 -9.320312 4.601562 -9.769531 5.125 -10.0625 C 5.65625 -10.351562 6.257812 -10.5 6.9375 -10.5 C 7.644531 -10.5 8.265625 -10.351562 8.796875 -10.0625 C 9.335938 -9.769531 9.753906 -9.367188 10.046875 -8.859375 C 10.347656 -8.359375 10.5 -7.789062 10.5 -7.15625 Z M 10.5 -7.15625 "/></g></g><g style="fill:#ffffff;fill-opacity:1;"><g transform="translate(230.908628, 482.394839)"><path style="stroke:none" d="M 1.328125 -11.4375 L 1.328125 -13.9375 L 4.015625 -13.9375 L 4.015625 -11.4375 Z M 1.328125 0 L 1.328125 -10.21875 L 4.015625 -10.21875 L 4.015625 0 Z M 1.328125 0 "/></g></g><g style="fill:#ffffff;fill-opacity:1;"><g transform="translate(238.746777, 482.394839)"><path style="stroke:none" d="M 5.609375 -8.21875 C 4.890625 -8.21875 4.34375 -7.945312 3.96875 -7.40625 C 3.601562 -6.875 3.421875 -6.109375 3.421875 -5.109375 C 3.421875 -3.941406 3.601562 -3.117188 3.96875 -2.640625 C 4.34375 -2.171875 4.851562 -1.9375 5.5 -1.9375 C 6 -1.9375 6.414062 -2.101562 6.75 -2.4375 C 7.082031 -2.78125 7.273438 -3.210938 7.328125 -3.734375 L 10.046875 -3.734375 C 9.878906 -2.546875 9.398438 -1.582031 8.609375 -0.84375 C 7.816406 -0.101562 6.738281 0.265625 5.375 0.265625 C 3.84375 0.265625 2.671875 -0.191406 1.859375 -1.109375 C 1.054688 -2.023438 0.65625 -3.265625 0.65625 -4.828125 C 0.65625 -6.660156 1.078125 -8.0625 1.921875 -9.03125 C 2.765625 -10.007812 3.972656 -10.5 5.546875 -10.5 C 6.367188 -10.5 7.113281 -10.34375 7.78125 -10.03125 C 8.445312 -9.726562 8.984375 -9.273438 9.390625 -8.671875 C 9.796875 -8.078125 10.023438 -7.378906 10.078125 -6.578125 L 7.34375 -6.578125 C 7.257812 -7.078125 7.070312 -7.472656 6.78125 -7.765625 C 6.5 -8.066406 6.109375 -8.21875 5.609375 -8.21875 Z M 5.609375 -8.21875 "/></g></g><g style="fill:#ffffff;fill-opacity:1;"><g transform="translate(251.9245, 482.394839)"><path style="stroke:none" d="M 10.125 -0.40625 L 10.125 0 L 7.21875 0 C 7.070312 -0.445312 6.988281 -0.847656 6.96875 -1.203125 C 6.488281 -0.679688 5.984375 -0.304688 5.453125 -0.078125 C 4.929688 0.148438 4.335938 0.265625 3.671875 0.265625 C 2.734375 0.265625 1.976562 0 1.40625 -0.53125 C 0.84375 -1.070312 0.5625 -1.796875 0.5625 -2.703125 C 0.5625 -3.566406 0.789062 -4.28125 1.25 -4.84375 C 1.71875 -5.414062 2.554688 -5.804688 3.765625 -6.015625 L 5.6875 -6.296875 C 6.175781 -6.378906 6.5 -6.476562 6.65625 -6.59375 C 6.820312 -6.707031 6.90625 -6.898438 6.90625 -7.171875 C 6.90625 -7.554688 6.765625 -7.847656 6.484375 -8.046875 C 6.210938 -8.242188 5.757812 -8.34375 5.125 -8.34375 C 4.113281 -8.34375 3.566406 -7.867188 3.484375 -6.921875 L 0.890625 -6.921875 C 0.984375 -8.085938 1.375 -8.972656 2.0625 -9.578125 C 2.75 -10.191406 3.851562 -10.5 5.375 -10.5 C 6.6875 -10.5 7.707031 -10.238281 8.4375 -9.71875 C 9.164062 -9.207031 9.53125 -8.503906 9.53125 -7.609375 L 9.53125 -1.90625 C 9.53125 -1.425781 9.578125 -1.070312 9.671875 -0.84375 C 9.773438 -0.625 9.925781 -0.476562 10.125 -0.40625 Z M 6.90625 -3.703125 L 6.90625 -4.984375 C 6.664062 -4.835938 6.410156 -4.722656 6.140625 -4.640625 C 5.878906 -4.554688 5.492188 -4.476562 4.984375 -4.40625 C 4.398438 -4.320312 3.960938 -4.160156 3.671875 -3.921875 C 3.390625 -3.691406 3.25 -3.34375 3.25 -2.875 C 3.25 -2.507812 3.363281 -2.210938 3.59375 -1.984375 C 3.820312 -1.765625 4.125 -1.65625 4.5 -1.65625 C 4.894531 -1.65625 5.273438 -1.738281 5.640625 -1.90625 C 6.015625 -2.082031 6.316406 -2.328125 6.546875 -2.640625 C 6.785156 -2.953125 6.90625 -3.304688 6.90625 -3.703125 Z M 6.90625 -3.703125 "/></g></g><g clip-rule="nonzero" clip-path="url(#370179af48)"><g clip-rule="nonzero" clip-path="url(#1a61457f2f)"><g clip-rule="nonzero" clip-path="url(#dd83287e83)"><path style=" stroke:none;fill-rule:evenodd;fill:#000000;fill-opacity:1;" d="M 59.992188 134.027344 C 83.90625 136.988281 101.050781 158.980469 98.085938 182.898438 C 95.125 206.8125 73.132812 223.957031 49.214844 220.992188 C 25.300781 218.03125 8.15625 196.039062 11.117188 172.121094 C 14.082031 148.207031 36.074219 131.0625 59.992188 134.027344 Z M 59.832031 135.292969 C 83.054688 138.167969 99.695312 159.519531 96.820312 182.742188 C 93.945312 205.960938 72.59375 222.605469 49.371094 219.726562 C 26.152344 216.851562 9.507812 195.5 12.386719 172.28125 C 15.261719 149.058594 36.613281 132.414062 59.832031 135.292969 Z M 59.832031 135.292969 "/></g></g></g><g clip-rule="nonzero" clip-path="url(#245574b90e)"><g clip-rule="nonzero" clip-path="url(#96524c0a4d)"><g clip-rule="nonzero" clip-path="url(#0b9f81d157)"><path style=" stroke:none;fill-rule:evenodd;fill:#a5e9ff;fill-opacity:1;" d="M 59.589844 137.261719 C 60.90625 137.425781 62.214844 137.652344 63.511719 137.945312 C 64.804688 138.234375 66.085938 138.589844 67.34375 139.007812 C 68.605469 139.425781 69.84375 139.902344 71.058594 140.441406 C 72.273438 140.980469 73.457031 141.578125 74.613281 142.234375 C 75.765625 142.890625 76.886719 143.601562 77.972656 144.363281 C 79.058594 145.128906 80.105469 145.945312 81.109375 146.816406 C 82.113281 147.683594 83.074219 148.597656 83.992188 149.5625 C 84.90625 150.523438 85.773438 151.527344 86.589844 152.578125 C 87.40625 153.625 88.167969 154.707031 88.878906 155.832031 C 89.589844 156.953125 90.242188 158.109375 90.839844 159.296875 C 91.433594 160.480469 91.972656 161.695312 92.449219 162.933594 C 92.925781 164.175781 93.34375 165.433594 93.695312 166.714844 C 94.050781 167.996094 94.339844 169.289062 94.566406 170.597656 C 94.792969 171.90625 94.953125 173.222656 95.050781 174.546875 C 95.148438 175.875 95.179688 177.199219 95.144531 178.527344 C 95.113281 179.855469 95.015625 181.179688 94.851562 182.496094 C 94.6875 183.8125 94.460938 185.121094 94.167969 186.417969 C 93.875 187.714844 93.523438 188.992188 93.105469 190.253906 C 92.6875 191.511719 92.210938 192.75 91.671875 193.964844 C 91.132812 195.179688 90.535156 196.363281 89.878906 197.519531 C 89.222656 198.675781 88.511719 199.792969 87.746094 200.878906 C 86.984375 201.964844 86.164062 203.011719 85.296875 204.015625 C 84.429688 205.023438 83.515625 205.980469 82.550781 206.898438 C 81.589844 207.8125 80.585938 208.679688 79.535156 209.496094 C 78.488281 210.3125 77.402344 211.074219 76.28125 211.785156 C 75.160156 212.496094 74.003906 213.148438 72.816406 213.746094 C 71.628906 214.339844 70.417969 214.878906 69.179688 215.355469 C 67.9375 215.832031 66.679688 216.25 65.398438 216.601562 C 64.117188 216.957031 62.824219 217.246094 61.515625 217.472656 C 60.207031 217.699219 58.890625 217.859375 57.5625 217.957031 C 56.238281 218.054688 54.914062 218.085938 53.585938 218.050781 C 52.257812 218.019531 50.933594 217.921875 49.617188 217.757812 C 48.296875 217.59375 46.992188 217.367188 45.695312 217.074219 C 44.398438 216.785156 43.121094 216.429688 41.859375 216.011719 C 40.597656 215.59375 39.363281 215.117188 38.148438 214.578125 C 36.933594 214.039062 35.75 213.441406 34.59375 212.785156 C 33.4375 212.128906 32.316406 211.421875 31.234375 210.65625 C 30.148438 209.890625 29.101562 209.074219 28.097656 208.203125 C 27.089844 207.335938 26.132812 206.421875 25.214844 205.457031 C 24.300781 204.496094 23.433594 203.492188 22.617188 202.441406 C 21.800781 201.394531 21.039062 200.3125 20.328125 199.1875 C 19.617188 198.066406 18.964844 196.910156 18.367188 195.722656 C 17.769531 194.539062 17.234375 193.324219 16.757812 192.085938 C 16.28125 190.84375 15.863281 189.585938 15.511719 188.304688 C 15.15625 187.023438 14.867188 185.730469 14.640625 184.421875 C 14.414062 183.113281 14.253906 181.796875 14.15625 180.472656 C 14.058594 179.144531 14.027344 177.820312 14.058594 176.492188 C 14.09375 175.164062 14.191406 173.839844 14.355469 172.523438 C 14.519531 171.207031 14.746094 169.898438 15.039062 168.601562 C 15.328125 167.304688 15.683594 166.027344 16.101562 164.765625 C 16.519531 163.507812 16.996094 162.269531 17.535156 161.054688 C 18.074219 159.839844 18.671875 158.65625 19.328125 157.5 C 19.984375 156.34375 20.691406 155.226562 21.457031 154.140625 C 22.222656 153.054688 23.039062 152.007812 23.910156 151.003906 C 24.777344 149.996094 25.691406 149.039062 26.65625 148.121094 C 27.617188 147.207031 28.621094 146.339844 29.667969 145.523438 C 30.71875 144.707031 31.800781 143.945312 32.925781 143.234375 C 34.046875 142.523438 35.203125 141.871094 36.386719 141.273438 C 37.574219 140.679688 38.789062 140.140625 40.027344 139.664062 C 41.265625 139.1875 42.527344 138.769531 43.808594 138.417969 C 45.089844 138.0625 46.382812 137.773438 47.691406 137.546875 C 49 137.320312 50.316406 137.160156 51.640625 137.0625 C 52.964844 136.964844 54.292969 136.933594 55.621094 136.96875 C 56.949219 137 58.269531 137.097656 59.589844 137.261719 Z M 59.589844 137.261719 "/></g></g></g><g style="fill:#ffffff;fill-opacity:1;"><g transform="translate(28.975436, 184.794154)"><path style="stroke:none" d="M 4.34375 -11.359375 L 4.34375 -8.25 L 10.421875 -8.25 L 10.421875 -5.796875 L 4.34375 -5.796875 L 4.34375 0 L 1.453125 0 L 1.453125 -13.796875 L 11.28125 -13.796875 L 11.28125 -11.359375 Z M 4.34375 -11.359375 "/></g></g><g style="fill:#ffffff;fill-opacity:1;"><g transform="translate(43.209551, 184.794154)"><path style="stroke:none" d="M 1.234375 0 L 1.234375 -13.796875 L 4.109375 -13.796875 L 4.109375 0 Z M 1.234375 0 "/></g></g><g style="fill:#ffffff;fill-opacity:1;"><g transform="translate(51.047701, 184.794154)"><path style="stroke:none" d="M 12.046875 -9.390625 C 12.046875 -8.585938 11.875 -7.847656 11.53125 -7.171875 C 11.1875 -6.503906 10.691406 -5.972656 10.046875 -5.578125 C 9.398438 -5.179688 8.640625 -4.984375 7.765625 -4.984375 L 4.34375 -4.984375 L 4.34375 0 L 1.453125 0 L 1.453125 -13.796875 L 7.765625 -13.796875 C 9.097656 -13.796875 10.144531 -13.398438 10.90625 -12.609375 C 11.664062 -11.816406 12.046875 -10.742188 12.046875 -9.390625 Z M 9.171875 -9.515625 C 9.171875 -10.191406 8.972656 -10.675781 8.578125 -10.96875 C 8.191406 -11.269531 7.570312 -11.421875 6.71875 -11.421875 L 4.34375 -11.421875 L 4.34375 -7.359375 L 7.09375 -7.359375 C 8.476562 -7.359375 9.171875 -8.078125 9.171875 -9.515625 Z M 9.171875 -9.515625 "/></g></g><g style="fill:#ffffff;fill-opacity:1;"><g transform="translate(66.357412, 184.794154)"><path style="stroke:none" d="M 6.796875 -2.078125 C 8.648438 -2.078125 9.578125 -2.945312 9.578125 -4.6875 L 9.578125 -13.796875 L 12.515625 -13.796875 L 12.515625 -4.734375 C 12.515625 -3.085938 12.03125 -1.828125 11.0625 -0.953125 C 10.101562 -0.078125 8.695312 0.359375 6.84375 0.359375 C 5.132812 0.359375 3.796875 -0.0664062 2.828125 -0.921875 C 1.867188 -1.773438 1.390625 -3.035156 1.390625 -4.703125 L 1.390625 -13.796875 L 4.328125 -13.796875 L 4.328125 -4.765625 C 4.328125 -3.941406 4.546875 -3.285156 4.984375 -2.796875 C 5.429688 -2.316406 6.035156 -2.078125 6.796875 -2.078125 Z M 6.796875 -2.078125 "/></g></g></g></svg>