<?xml version="1.0" encoding="UTF-8"?>
<svg id="Layer_2" data-name="Layer 2" xmlns="http://www.w3.org/2000/svg" viewBox="0 0 90.44 101.6">
  <defs>
    <style>
      .cls-1 {
        stroke-width: .37px;
      }

      .cls-1, .cls-2, .cls-3, .cls-4, .cls-5, .cls-6, .cls-7, .cls-8, .cls-9, .cls-10, .cls-11, .cls-12, .cls-13, .cls-14, .cls-15, .cls-16, .cls-17, .cls-18, .cls-19, .cls-20, .cls-21, .cls-22, .cls-23 {
        fill: none;
        stroke-linecap: round;
        stroke-linejoin: round;
      }

      .cls-1, .cls-15, .cls-16 {
        stroke: #1f1712;
      }

      .cls-2 {
        stroke: #62c6f9;
        stroke-width: .75px;
      }

      .cls-24, .cls-25, .cls-26 {
        fill: #f8a547;
      }

      .cls-27 {
        fill: #048edd;
      }

      .cls-28 {
        fill: #000201;
      }

      .cls-29 {
        fill: #0087bc;
      }

      .cls-30 {
        fill: #eef47a;
      }

      .cls-31 {
        fill: #fafcfc;
      }

      .cls-32 {
        fill: #fdc6a2;
      }

      .cls-33, .cls-34, .cls-35, .cls-36 {
        fill: #fff;
      }

      .cls-37 {
        fill: #ffe8dc;
      }

      .cls-38 {
        fill: #ffe56b;
      }

      .cls-39 {
        fill: #ffc871;
      }

      .cls-40 {
        fill: #ffb320;
      }

      .cls-41, .cls-42 {
        fill: #ff9976;
      }

      .cls-43 {
        fill: #e78427;
      }

      .cls-44 {
        fill: #faff9f;
      }

      .cls-45 {
        fill: #fbd947;
      }

      .cls-46 {
        fill: #7382a8;
      }

      .cls-47, .cls-48, .cls-49, .cls-50 {
        fill: #6a9bc9;
      }

      .cls-51, .cls-52 {
        fill: #9ea4b7;
      }

      .cls-53, .cls-54 {
        fill: #303030;
      }

      .cls-55 {
        fill: #c9d2df;
      }

      .cls-56 {
        fill: #def6ff;
      }

      .cls-57 {
        fill: #d3d4d8;
      }

      .cls-58 {
        fill: #c5f3ff;
      }

      .cls-59 {
        fill: #1f1712;
      }

      .cls-60 {
        fill: #3ec4ff;
      }

      .cls-61 {
        fill: #3eacec;
      }

      .cls-62 {
        fill: #42caf8;
      }

      .cls-63 {
        fill: #1b3c47;
      }

      .cls-64 {
        fill: #3e3126;
      }

      .cls-65, .cls-66 {
        fill: #3e3f3f;
      }

      .cls-67 {
        fill: #3d6bad;
      }

      .cls-68 {
        fill: #0b97dd;
      }

      .cls-69, .cls-70 {
        fill: #a1c92f;
      }

      .cls-71 {
        fill: #99d8f4;
      }

      .cls-72 {
        fill: #62c6f9;
      }

      .cls-73 {
        fill: #587ec1;
      }

      .cls-74 {
        fill: #606060;
      }

      .cls-75 {
        fill: #5e5e5e;
      }

      .cls-3 {
        stroke-width: .46px;
      }

      .cls-3, .cls-4, .cls-5, .cls-7, .cls-8, .cls-10, .cls-11, .cls-14, .cls-17, .cls-19, .cls-20, .cls-22, .cls-23 {
        stroke: #000201;
      }

      .cls-4 {
        stroke-width: .55px;
      }

      .cls-5 {
        stroke-width: .63px;
      }

      .cls-6 {
        stroke-width: .52px;
      }

      .cls-6, .cls-12, .cls-13 {
        stroke: #fff;
      }

      .cls-7 {
        stroke-width: .52px;
      }

      .cls-8 {
        stroke-width: .4px;
      }

      .cls-9 {
        stroke-dasharray: 0 0 2.51 2.51;
      }

      .cls-9, .cls-21 {
        stroke: #000402;
        stroke-width: .42px;
      }

      .cls-34 {
        isolation: isolate;
        opacity: .55;
      }

      .cls-10 {
        stroke-width: .48px;
      }

      .cls-11 {
        stroke-width: .42px;
      }

      .cls-12, .cls-14 {
        stroke-width: .5px;
      }

      .cls-13 {
        stroke-width: .5px;
      }

      .cls-15 {
        stroke-width: .49px;
      }

      .cls-16 {
        stroke-width: .45px;
      }

      .cls-17 {
        stroke-width: .51px;
      }

      .cls-76 {
        opacity: .15;
      }

      .cls-77, .cls-25, .cls-48 {
        opacity: .5;
      }

      .cls-18 {
        stroke: #ff9976;
        stroke-width: .85px;
      }

      .cls-19 {
        stroke-width: .41px;
      }

      .cls-20 {
        stroke-width: .43px;
      }

      .cls-22 {
        stroke-width: .42px;
      }

      .cls-23 {
        stroke-width: .39px;
      }

      .cls-66 {
        opacity: .69;
      }

      .cls-35 {
        opacity: .6;
      }

      .cls-78 {
        fill: #6395c6;
        opacity: .75;
      }

      .cls-54 {
        opacity: .29;
      }

      .cls-49 {
        opacity: .27;
      }

      .cls-42 {
        opacity: .25;
      }

      .cls-70 {
        opacity: .47;
      }

      .cls-26, .cls-50 {
        opacity: .4;
      }

      .cls-52 {
        opacity: .39;
      }

      .cls-36 {
        opacity: .35;
      }
    </style>
  </defs>
  <g id="Layer_1-2" data-name="Layer 1">
    <g>
      <g>
        <polygon class="cls-51" points="64.04 101.03 66.41 101.01 58.12 80.45 55.87 81.15 64.04 101.03"/>
        <polygon class="cls-51" points="71.84 99.54 74.3 99.48 65.92 78.96 63.67 79.66 71.84 99.54"/>
      </g>
      <ellipse class="cls-52" cx="54.01" cy="96.1" rx="21.04" ry="3.59"/>
      <g>
        <polygon class="cls-46" points="60.34 91.92 62.58 91.9 54.42 72.01 52.17 72.71 60.34 91.92"/>
        <polygon class="cls-46" points="67.8 89.22 69.72 88.8 61.56 68.91 59.53 69.91 67.8 89.22"/>
      </g>
      <g>
        <polygon class="cls-51" points="42 101.29 39.55 101.26 47.59 80.57 49.85 81.22 42 101.29"/>
        <polygon class="cls-51" points="34.17 99.98 31.91 99.33 39.76 79.26 42.02 79.91 34.17 99.98"/>
      </g>
      <g>
        <polygon class="cls-46" points="47.52 86.92 44.96 86.69 51.83 69.76 54.09 70.41 47.52 86.92"/>
        <polygon class="cls-46" points="39.95 85.4 37.69 84.75 44 68.45 46.26 69.1 39.95 85.4"/>
      </g>
      <g>
        <g>
          <polygon class="cls-5" points="64.04 101.01 66.58 101.01 58.12 80.45 55.87 81.15 64.04 101.01"/>
          <polyline class="cls-5" points="70.55 90.17 65.92 78.96 63.67 79.66 71.84 99.54 74.41 99.52 71.49 92.46"/>
        </g>
        <g>
          <polygon class="cls-5" points="42 101.29 39.35 101.29 47.59 80.57 49.85 81.22 42 101.29"/>
          <polygon class="cls-5" points="34.17 99.98 31.91 99.33 39.76 79.26 42.02 79.91 34.17 99.98"/>
        </g>
      </g>
      <g>
        <path class="cls-61" d="M40.48,90.72l-3.99,4.48c-.37-.33-8.95-8.08-8.22-18.36,.47-6.6,4.58-12.51,12.21-17.57l3.32,5c-5.98,3.97-9.19,8.33-9.53,12.96-.54,7.32,6.16,13.43,6.23,13.49Z"/>
        <path class="cls-16" d="M39.7,89.9c.49,.53,.81,.82,.83,.83l-3.99,4.48c-.15-.13-1.69-1.52-3.39-3.82"/>
        <path class="cls-16" d="M34.49,64.18c1.67-1.71,3.69-3.34,6.03-4.89l3.32,5c-1.85,1.23-3.44,2.5-4.76,3.8"/>
        <path class="cls-29" d="M44.49,62.08l-.79,2.19c-5.98,3.96-9.07,8.4-9.41,13.03-.55,7.32,5.93,13.44,5.99,13.5l-1.45,1.62c-6.07-4.86-8.2-12.46-5.08-20.13,1.77-4.35,6.83-8.24,10.73-10.21Z"/>
        <g>
          <path class="cls-59" d="M32.48,91.07h10.9c.64,0,1.16,.52,1.16,1.16v.81c0,2.44-1.98,4.43-4.43,4.43h-3c-2.92,0-5.28-2.37-5.28-5.28v-.47c0-.36,.29-.65,.65-.65Z" transform="translate(133.29 130.35) rotate(132.83)"/>
          <path class="cls-59" d="M33.91,89.15h5.38v1.18c0,1.3-1.05,2.35-2.35,2.35h-.68c-1.3,0-2.35-1.05-2.35-2.35v-1.18h0Z" transform="translate(128.15 125.88) rotate(132.83)"/>
        </g>
        <path class="cls-2" d="M31.71,88.16s-3.78-6.2-2.84-11.57"/>
        <path class="cls-16" d="M32.32,90.23c-2.21-3.29-5.28-10.55-4.9-15.94,.04-.51,.09-1.02,.17-1.52"/>
        <circle class="cls-72" cx="31.57" cy="86.7" r=".5"/>
        <circle class="cls-72" cx="29.2" cy="77.65" r=".36"/>
        <circle class="cls-72" cx="30.12" cy="80.81" r=".17"/>
        <circle class="cls-72" cx="30.55" cy="76.65" r=".17" transform="translate(-51.96 76.11) rotate(-67.89)"/>
        <circle class="cls-72" cx="30.25" cy="82.27" r=".08"/>
        <circle class="cls-72" cx="29.54" cy="79.15" r=".17"/>
        <circle class="cls-72" cx="30.3" cy="79.57" r=".07"/>
        <circle class="cls-72" cx="30.77" cy="84.75" r=".05"/>
        <circle class="cls-72" cx="30.6" cy="83.48" r=".14"/>
        <circle class="cls-72" cx="32.8" cy="88.45" r=".14"/>
        <path class="cls-72" d="M33.32,89.58l.13,.05-.13-.05-.13-.05,.13,.05Z"/>
        <circle class="cls-72" cx="30.22" cy="78.83" r=".11"/>
        <circle class="cls-29" cx="33.6" cy="72.31" r=".33"/>
        <circle class="cls-68" cx="33.58" cy="71.02" r=".17"/>
        <circle class="cls-68" cx="32.55" cy="72.42" r=".14"/>
        <circle class="cls-68" cx="32.16" cy="74.43" r=".14"/>
        <circle class="cls-68" cx="32.3" cy="75.7" r=".08"/>
        <circle class="cls-29" cx="32.28" cy="78.41" r=".22"/>
        <circle class="cls-29" cx="35.2" cy="69.69" r=".36"/>
        <circle class="cls-29" cx="34.59" cy="69.53" r=".27"/>
        <circle class="cls-29" cx="33.09" cy="74.32" r=".29"/>
        <circle class="cls-68" cx="32.02" cy="76.83" r=".09"/>
        <circle class="cls-68" cx="31.73" cy="76.4" r=".06"/>
        <circle class="cls-68" cx="31.63" cy="75.2" r=".13"/>
        <path class="cls-16" d="M37.37,69.97c-1.86,2.33-2.88,4.76-3.07,7.28-.06,.86-.03,1.7,.09,2.52"/>
        <path class="cls-16" d="M34.81,81.7c.91,3.16,2.82,5.8,4.18,7.4"/>
        <path class="cls-16" d="M38.61,68.55c-.2,.21-.39,.42-.58,.63"/>
        <circle class="cls-28" cx="34.54" cy="80.7" r=".29"/>
        <path class="cls-13" d="M30.41,84.61s-.24-.58-.47-1.34"/>
        <circle class="cls-33" cx="29.78" cy="82.46" r=".28"/>
        <path class="cls-13" d="M30.63,70.14c.1-.2,.21-.41,.33-.62"/>
        <path class="cls-13" d="M29.38,73.53s.16-.85,.67-2.13"/>
        <path class="cls-16" d="M28.73,74.12c.74-3.19,2.38-6.21,4.9-9.02"/>
      </g>
      <g>
        <path class="cls-21" d="M44.63,65.87c-.41,.1-.82,.19-1.24,.28"/>
        <path class="cls-9" d="M40.93,66.61c-1.68,.24-3.37,.3-5.02-.1-2.09-.51-3.94-1.71-5.7-2.94-1.95-1.36-3.87-2.79-5.39-4.61-2.7-3.23-3.94-7.63-3.34-11.8,.33-2.31,1.57-4.85,3.86-5.28,2.23-.42,4.43,1.66,4.56,3.93,.14,2.27-1.4,4.4-3.41,5.46-3.26,1.73-7.5,.87-10.29-1.54-2.79-2.41-4.25-6.09-4.57-9.76-.6-6.73,2.58-13.63,7.95-17.7"/>
        <path class="cls-21" d="M20.6,21.56c.35-.23,.72-.45,1.09-.66"/>
      </g>
      <g>
        <path class="cls-38" d="M17.51,28.02c-1.07,1.79-4.6,2.69-4.6,2.69,0,0-.88-3.54,.19-5.33,1.07-1.79,2.92-2.64,4.14-1.91,1.22,.73,1.34,2.77,.27,4.55Z"/>
        <path class="cls-40" d="M15.34,26.03l2.5,1.5c-.05,.1-.1,.2-.16,.29-.02,.04-.04,.07-.07,.11-.54,.54-1.17,1-1.84,1.36-.36,.19-.69,.68-1.08,.58,.22-.7,.33-1.73,.47-2.44-.37,.11-.73,.22-1.09,.33-.07-.24-.03-.4,.01-.74,.07-.53,.18-1.05,.35-1.55l.47,.28,.44,.26Z"/>
        <path class="cls-55" d="M19.66,24.35l-.79,3.38c-.07,.31-.42,.45-.69,.29l-2.31-1.38-.78-.47-2.31-1.38c-.27-.16-.31-.54-.07-.75l2.6-2.3"/>
        <path class="cls-57" d="M19.66,24.35l-.79,3.38c-.07,.31-.42,.45-.69,.29l-2.31-1.38-.78-.47-2.31-1.38c-.27-.16-.31-.54-.07-.75l2.6-2.3"/>
        <path class="cls-78" d="M19.42,25.11c-.95,0-1.91-.24-2.78-.76s-1.54-1.25-1.99-2.09l.6-.53,.21,.12c.42,.64,1,1.2,1.7,1.62s1.47,.66,2.24,.74l.21,.12-.18,.78Z"/>
        <path class="cls-47" d="M19.28,25.96c-1.15,.34-2.06,0-2.94-.52s-1.56-1.83-1.8-3l1.25-1.04,.21,.12c.19,.57,.6,.86,.98,1.25,.19,.2,.28,.58,.52,.72,.71,.42,1.55,.54,2.45,.38l-.25,.04-.41,2.05Z"/>
        <circle class="cls-64" cx="14.94" cy="26.09" r=".26"/>
        <path class="cls-64" d="M12.69,24.95c-.18-.11-.29-.29-.31-.49-.02-.21,.06-.4,.21-.54l2.6-2.3c.07-.07,.19-.06,.25,.02,.06,.07,.06,.19-.02,.25l-2.6,2.3c-.07,.06-.1,.15-.1,.24,0,.09,.06,.17,.14,.22,.08,.05,.11,.16,.06,.24s-.16,.11-.24,.06Z"/>
        <path class="cls-64" d="M13.82,25.69l-1.16-.7c-.19-.11-.31-.31-.33-.53-.02-.22,.06-.43,.23-.58l2.6-2.3c.09-.08,.24-.07,.32,.02,.08,.09,.07,.24-.02,.32l-2.6,2.3c-.06,.05-.09,.12-.08,.2,0,.08,.05,.14,.12,.18l1.16,.7c.11,.06,.14,.2,.08,.31s-.2,.14-.31,.08Z"/>
        <path class="cls-64" d="M18.06,28.22l-2.31-1.38c-.11-.06-.14-.2-.08-.31s.2-.14,.31-.08l2.31,1.38c.07,.04,.14,.05,.22,.01,.07-.03,.12-.09,.14-.17l.79-3.38c.03-.12,.15-.2,.27-.17,.12,.03,.2,.15,.17,.27l-.79,3.38c-.05,.22-.2,.39-.4,.48-.21,.09-.43,.07-.62-.04Z"/>
        <path class="cls-62" d="M22.78,26.8l.76,.45c1.49-.78,2.44-1.72,3.04-2.72,1.88-3.15,.16-6.76,.16-6.76l-4.01,5.57c1.29,1.22,.6,2.67,.06,3.45Z"/>
        <g>
          <path class="cls-64" d="M22.77,27.06s0,0-.01,0c-.1-.07-.13-.21-.06-.31,.6-.86,1.09-2.11-.03-3.16-.09-.09-.09-.23,0-.32,.09-.09,.23-.09,.32,0,1.42,1.34,.67,2.93,.09,3.75-.07,.1-.2,.12-.3,.06Z"/>
          <path class="cls-64" d="M27.41,20.73c-.06-.04-.1-.1-.11-.17-.14-1.49-.66-2.61-.67-2.62-.05-.11,0-.25,.11-.3,.11-.05,.25,0,.3,.11,.02,.05,.56,1.19,.71,2.77,.01,.12-.08,.23-.2,.25-.05,0-.1,0-.14-.03Z"/>
        </g>
        <path class="cls-27" d="M22.87,23.67c.22,.21,.38,.42,.5,.65,.82-.44,1.52-1.1,2.03-1.95l1.88-3.14c-.19-.7-.4-1.14-.4-1.14l-2.27,3.8c-.45,.75-1.05,1.35-1.73,1.78Z"/>
        <path class="cls-64" d="M23.53,27.52s-.06-.05-.08-.09c-.06-.11-.01-.25,.1-.31,2.36-1.23,3.63-3.05,3.78-5.4,0-.12,.12-.22,.24-.21s.22,.12,.21,.24c-.16,2.48-1.55,4.48-4.02,5.77-.07,.04-.16,.03-.22,0Z"/>
        <path class="cls-64" d="M27.39,20.52c-.06-.03-.1-.09-.11-.17-.16-1.39-.64-2.4-.64-2.41-.05-.11,0-.25,.11-.3,.11-.05,.25,0,.3,.11,.02,.04,.51,1.09,.69,2.55,.01,.12-.07,.24-.2,.25-.05,0-.1,0-.14-.03Z"/>
        <path class="cls-64" d="M22.77,27.06s0,0-.01,0c-.1-.07-.13-.21-.06-.31,.6-.86,1.09-2.11-.03-3.16-.09-.09-.09-.23,0-.32,.09-.09,.23-.09,.32,0,1.42,1.34,.67,2.93,.09,3.75-.07,.1-.2,.12-.3,.06Z"/>
        <path class="cls-62" d="M11.56,20.09l-.76-.45c-.02-1.68,.36-2.97,.96-3.96,1.88-3.15,5.88-3.34,5.88-3.34l-3.01,6.17c-1.68-.56-2.64,.73-3.07,1.58Z"/>
        <path class="cls-58" d="M12.19,16.03c-.6,1-.98,2.29-.96,3.96l-.49-.29c-.02-1.68,.36-2.97,.96-3.96,1.88-3.15,5.88-3.34,5.88-3.34l-.12,.07c-1.22,.2-3.87,1.21-5.27,3.56Z"/>
        <g>
          <path class="cls-64" d="M11.44,20.29c-.1-.06-.14-.19-.09-.3,.45-.9,1.49-2.31,3.35-1.7,.12,.04,.18,.17,.14,.29-.04,.12-.17,.18-.29,.14-1.46-.48-2.33,.53-2.8,1.47-.06,.11-.19,.16-.3,.1,0,0,0,0-.01,0Z"/>
          <path class="cls-64" d="M10.68,19.83c-.07-.04-.11-.11-.11-.19-.08-7.11,6.98-7.53,7.05-7.53,.12,0,.23,.09,.24,.22,0,.12-.09,.23-.22,.24-.27,.01-6.7,.4-6.62,7.07,0,.12-.1,.23-.22,.23-.04,0-.08-.01-.12-.03Z"/>
        </g>
        <path class="cls-57" d="M30.19,12.26l-5.61,9.39c-1.52,2.55-4.82,3.38-7.36,1.85s-3.37-4.81-1.85-7.36l5.61-9.39c1.09-1.82,2.57-3.33,4.31-4.45,1.74-1.12,3.73-1.84,5.84-2.07,1.59,3.94,1.24,8.39-.94,12.03Z"/>
        <path class="cls-31" d="M17.56,23.83c-.14-.07-.28-.14-.41-.22-2.54-1.52-3.38-4.8-1.87-7.33l5.57-9.32c1.08-1.81,2.56-3.31,4.29-4.41,1.73-1.11,3.72-1.82,5.82-2.04,.07,.19,.15,.37,.21,.56-1.88,.28-3.66,.95-5.23,1.96-1.73,1.11-3.21,2.61-4.29,4.41l-5.57,9.32c-1.43,2.39-.76,5.46,1.48,7.07Z"/>
        <path class="cls-27" d="M14.44,18.63c-.29-.1-.56-.14-.81-.13,0-.93,.25-1.86,.76-2.71l2.84-3.29c.71-.16,.23-.04,.23-.04l-2.27,3.8c-.45,.75-.69,1.56-.75,2.37Z"/>
        <path class="cls-47" d="M30.18,12.25l-5.61,9.39c-1.52,2.55-4.82,3.38-7.36,1.85-1.78-1.07-2.72-3-2.6-4.94,.44,.7,1.04,1.31,1.8,1.77,2.55,1.52,5.84,.69,7.36-1.85l5.61-9.39c1.57-2.63,2.19-5.68,1.81-8.66,1.5,3.88,1.13,8.25-1.02,11.83Z"/>
        <circle class="cls-64" cx="19.53" cy="9.17" r=".26"/>
        <circle class="cls-64" cx="29.64" cy="13.18" r=".26"/>
        <path class="cls-64" d="M17.1,23.69c-2.65-1.58-3.51-5.02-1.93-7.67l3.62-6.06c.06-.11,.2-.14,.31-.08s.14,.2,.08,.31l-3.62,6.06c-1.46,2.43-.66,5.6,1.77,7.05s5.6,.66,7.05-1.77l3.47-5.8c.06-.11,.2-.14,.31-.08s.14,.2,.08,.31l-3.47,5.8c-1.58,2.65-5.03,3.51-7.67,1.93Z"/>
        <rect class="cls-60" x="18.19" y="15.77" width="1.23" height="9.87" rx=".62" ry=".62" transform="translate(13.29 -6.72) rotate(30.88)"/>
        <path class="cls-27" d="M19.42,20.89l-2.2,3.68c-.18,.3-.55,.39-.85,.22s-.39-.55-.21-.85l1.89-3.16c.45,.1,.91,.14,1.37,.12Z"/>
        <path class="cls-64" d="M16.28,25.05c-.37-.22-.49-.71-.27-1.08l2.54-4.25c.05-.08,.15-.11,.23-.06s.11,.15,.06,.23l-2.54,4.25c-.13,.21-.06,.49,.15,.61s.49,.06,.61-.15l4.43-7.41c.13-.21,.06-.49-.15-.61s-.49-.06-.61,.15l-.69,1.15c-.05,.08-.15,.11-.23,.06s-.11-.15-.06-.23l.69-1.15c.22-.37,.71-.49,1.08-.27s.49,.71,.27,1.08l-4.43,7.41c-.22,.37-.71,.49-1.08,.27Z"/>
        <path class="cls-64" d="M19.78,19.2c-.05-.03-.07-.1-.04-.16l.59-.99c.03-.05,.1-.07,.16-.04s.07,.1,.04,.16l-.59,.99c-.03,.05-.1,.07-.16,.04Z"/>
        <path class="cls-64" d="M10.68,19.83c-.07-.04-.11-.11-.11-.19-.08-7.11,6.98-7.53,7.05-7.53,.12,0,.23,.09,.24,.22,0,.12-.09,.23-.22,.24-.27,.01-6.7,.4-6.62,7.07,0,.12-.1,.23-.22,.23-.04,0-.08-.01-.12-.03Z"/>
        <path class="cls-64" d="M11.44,20.29c-.1-.06-.14-.19-.09-.3,.45-.9,1.49-2.31,3.35-1.7,.12,.04,.18,.17,.14,.29-.04,.12-.17,.18-.29,.14-1.46-.48-2.33,.53-2.8,1.47-.06,.11-.19,.16-.3,.1,0,0,0,0-.01,0Z"/>
        <ellipse class="cls-27" cx="14.51" cy="15.7" rx=".64" ry=".42" transform="translate(-6.41 20.1) rotate(-59.12)"/>
        <circle class="cls-27" cx="15.28" cy="14.75" r=".21"/>
        <circle class="cls-27" cx="13.33" cy="17.41" r=".28"/>
        <circle class="cls-27" cx="13.51" cy="16.48" r=".09"/>
        <circle class="cls-27" cx="15.36" cy="14" r=".12"/>
        <circle class="cls-27" cx="16.08" cy="13.83" r=".19"/>
        <circle class="cls-64" cx="19.08" cy="19.18" r=".26"/>
        <path class="cls-62" d="M32.04,3.8c-.87-.12-1.72-.41-2.52-.89s-1.44-1.08-1.95-1.77l.03-.05c1.12-.45,2.31-.75,3.54-.88,.47,1.17,.77,2.37,.9,3.6Z"/>
        <path class="cls-31" d="M31.18,.99c-1.03,.16-2.02,.43-2.97,.81-.19-.19-.36-.38-.52-.59,1.05-.39,2.14-.66,3.28-.78,.07,.19,.15,.37,.21,.56Z"/>
        <path class="cls-27" d="M32.03,3.82c-.27-.04-.53-.09-.8-.17,.12-1.06,.11-2.14-.02-3.2,.42,1.09,.69,2.22,.82,3.37Z"/>
        <path class="cls-64" d="M28.62,14.88c-.11-.06-.14-.2-.08-.31l.44-.74c.06-.11,.2-.14,.31-.08s.14,.2,.08,.31l-.44,.74c-.06,.11-.2,.14-.31,.08Z"/>
        <path class="cls-64" d="M19.94,8.48c-.11-.06-.14-.2-.08-.31l.92-1.54c1.08-1.81,2.6-3.38,4.38-4.53C26.95,.96,29.01,.23,31.1,0c.1-.01,.2,.05,.23,.14,1.6,3.98,1.25,8.55-.95,12.23-.06,.11-.2,.14-.31,.08s-.14-.2-.08-.31c2.1-3.51,2.46-7.86,.99-11.67-1.97,.24-3.89,.94-5.57,2.01-1.73,1.11-3.19,2.63-4.24,4.38l-.92,1.54c-.06,.11-.2,.14-.31,.08Z"/>
        <path class="cls-33" d="M12.78,27.09c0,.84-.01,1.67,.1,2.5,.01,.11,.15,.18,.25,.15,.12-.03,.17-.14,.15-.25-.1-.8-.08-1.59-.08-2.39,0-.27-.42-.27-.42,0h0Z"/>
        <path class="cls-64" d="M12.79,30.9c-.05-.03-.09-.08-.1-.14-.04-.15-.89-3.66,.22-5.5,.06-.11,.2-.14,.31-.08s.14,.2,.08,.31c-.86,1.43-.38,4.13-.22,4.93,.78-.23,3.39-1.09,4.24-2.52,.06-.11,.2-.14,.31-.08s.14,.2,.08,.31c-1.1,1.84-4.59,2.75-4.74,2.79-.06,.01-.12,0-.17-.03Z"/>
        <circle class="cls-47" cx="24.95" cy="10.71" r="4.07"/>
        <g>
          <circle class="cls-71" cx="25.37" cy="9.59" r="3.98"/>
          <path class="cls-56" d="M28.67,11.84c-.05,.09-.11,.17-.16,.25,.93-1.85,.28-4.12-1.52-5.2s-4.11-.57-5.3,1.12c.05-.09,.09-.17,.14-.26,1.13-1.89,3.57-2.5,5.46-1.37,1.88,1.13,2.5,3.57,1.37,5.46Z"/>
          <path class="cls-73" d="M27.24,10.94c-.65,1.09-2.06,1.44-3.14,.79s-1.44-2.06-.79-3.15,2.06-1.44,3.15-.79,1.44,2.05,.79,3.14Z"/>
          <path class="cls-67" d="M27.34,10.76c-.05,.09-.11,.17-.18,.25,.45-1.04,.07-2.27-.93-2.87s-2.27-.35-2.97,.54c.04-.09,.08-.19,.14-.27,.65-1.09,2.06-1.44,3.15-.79s1.44,2.05,.79,3.14Z"/>
          <path class="cls-64" d="M23.21,13.2c-1.99-1.19-2.64-3.78-1.45-5.78s3.78-2.64,5.78-1.45,2.64,3.78,1.45,5.78c-1.19,1.99-3.78,2.64-5.78,1.45Zm4.08-6.83c-1.77-1.06-4.08-.48-5.14,1.29s-.48,4.08,1.29,5.14c1.77,1.06,4.08,.48,5.14-1.29,1.06-1.77,.48-4.08-1.29-5.14Z"/>
          <rect class="cls-56" x="24.82" y="7.14" width=".59" height="4.58" transform="translate(19.03 -16.7) rotate(56.3)"/>
          <polygon class="cls-56" points="24.19 11.44 23.82 11.28 27.41 8.94 27.62 9.15 24.19 11.44"/>
          <path class="cls-64" d="M24.09,11.73c-1.18-.7-1.56-2.24-.86-3.42,.7-1.18,2.24-1.56,3.42-.86s1.56,2.24,.86,3.41c-.7,1.18-2.24,1.56-3.42,.86Zm2.35-3.93c-.99-.59-2.28-.27-2.87,.72s-.27,2.28,.72,2.87,2.28,.27,2.87-.72,.27-2.28-.72-2.87Z"/>
          <circle class="cls-64" cx="22.59" cy="8.18" r=".22"/>
          <circle class="cls-64" cx="27.92" cy="11.36" r=".22"/>
          <circle class="cls-64" cx="23.99" cy="12.33" r=".22"/>
          <circle class="cls-64" cx="27.13" cy="7.06" r=".22"/>
        </g>
        <g>
          <path class="cls-64" d="M31.93,4.23l-4.67-2.79c-.08-.05-.1-.14-.05-.22s.14-.1,.22-.05l4.67,2.79c.08,.05,.1,.14,.05,.22s-.14,.1-.22,.05Z"/>
          <ellipse class="cls-64" cx="29.67" cy="2.72" rx=".36" ry="2.19" transform="translate(12.11 26.79) rotate(-59.12)"/>
        </g>
        <g>
          <ellipse class="cls-31" cx="16.95" cy="15.44" rx=".99" ry=".67" transform="translate(-5 22.06) rotate(-59.12)"/>
          <circle class="cls-31" cx="18.65" cy="14.39" r=".49"/>
        </g>
        <g>
          <ellipse class="cls-31" cx="25" cy="3.78" rx=".99" ry=".67" transform="translate(8.93 23.29) rotate(-59.12)"/>
          <circle class="cls-31" cx="26.7" cy="2.73" r=".49"/>
        </g>
        <g>
          <path class="cls-64" d="M16.7,17.51s-.02-.02-.03-.03c-.03-.04-.02-.11,.03-.13,0,0,0,0,0,0l1.16-.73s.11-.01,.14,.03c.03,.05,.01,.11-.03,.13l-1.16,.72s-.08,.02-.11,0Z"/>
          <path class="cls-64" d="M17.56,17.4s-.02-.02-.03-.03c-.03-.04-.02-.11,.03-.13,0,0,0,0,0,0l.62-.39s.11-.01,.14,.03c.03,.05,.01,.11-.03,.13l-.62,.39s-.08,.02-.11,0Z"/>
        </g>
        <g>
          <path class="cls-64" d="M24.97,4.58s-.02-.02-.03-.03c-.03-.04-.02-.11,.03-.13,0,0,0,0,0,0l1.16-.73s.11-.01,.14,.03c.03,.05,.01,.11-.03,.13l-1.16,.72s-.08,.02-.11,0Z"/>
          <path class="cls-64" d="M25.83,4.47s-.02-.02-.03-.03c-.03-.04-.02-.11,.03-.13,0,0,0,0,0,0l.62-.39s.11-.01,.14,.03c.03,.05,.01,.11-.03,.13l-.62,.39s-.08,.02-.11,0Z"/>
        </g>
      </g>
      <ellipse class="cls-57" cx="60.72" cy="68.21" rx="16.85" ry="13.05" transform="translate(-21.76 107.41) rotate(-73.75)"/>
      <path class="cls-6" d="M64.43,52.21s4.38,.68,6.62,4.97"/>
      <path class="cls-48" d="M68.64,70.87c-.52,1.79,.28,4.24,2.03,6.48,3.61,4.61-12.34,6.05-16.92,4.72-5.92-1.73-8.85-9.54-6.55-17.44,2.31-7.91,8.97-12.92,14.89-11.19,5.92,1.73,8.85,9.54,6.55,17.44Z"/>
      <path class="cls-14" d="M73.93,68.67c-.14,1.05-.37,2.12-.68,3.19-2.6,8.93-10.33,14.54-17.25,12.53s-10.42-10.9-7.82-19.83c2.6-8.93,10.33-14.54,17.25-12.53,3.85,1.12,6.63,4.36,7.91,8.55"/>
      <path class="cls-14" d="M73.89,63.03c.21,1.41,.27,2.89,.16,4.4"/>
      <g>
        <path class="cls-39" d="M49.38,56.55h0c2.22,0,4.02,1.8,4.02,4.02v5.47c0,.77-.63,1.4-1.4,1.4h-5.25c-.77,0-1.4-.63-1.4-1.4v-5.47c0-2.22,1.8-4.02,4.02-4.02Z" transform="translate(12.25 -8.03) rotate(10.6)"/>
        <path class="cls-17" d="M50.96,67.84l-5.16-.97c-.76-.14-1.26-.87-1.12-1.63l1.01-5.38c.41-2.18,2.51-3.62,4.7-3.21l.98,.18c2.18,.41,2.64,2.33,2.23,4.51l-1.01,5.38c-.14,.76-.87,1.26-1.63,1.12Z"/>
      </g>
      <g>
        <path class="cls-61" d="M47.94,70.81h17.67v6.18c0,4.88-3.96,8.83-8.83,8.83h0c-4.88,0-8.83-3.96-8.83-8.83v-6.18h0Z"/>
        <path class="cls-4" d="M47.94,70.81h17.67v6.18c0,4.88-3.96,8.83-8.83,8.83h0c-4.88,0-8.83-3.96-8.83-8.83v-6.18h0Z"/>
      </g>
      <rect class="cls-45" x="46.72" y="53.72" width="19.75" height="25.89" rx="9.88" ry="9.88"/>
      <path class="cls-25" d="M56.6,79.61l2.65,.51c-1.68,.8-6.65-3.14-10.23-3.58l3.87-5.84c0-2.73,3.17-6.54,4.38-8.99,1.44-2.9-.63-7.01,3.65-7.01l-4.33-.98c5.45,0,9.88,4.42,9.88,9.88v6.14c0,5.45-4.42,9.88-9.88,9.88Z"/>
      <path class="cls-33" d="M57.67,79.56c-.33,.03-.67,.05-1.01,.05-5.46,0-9.88-4.42-9.88-9.88v-6.13c0-5.46,4.42-9.88,9.88-9.88,.34,0,.68,.02,1.01,.05-4.97,.52-9.84,4.72-9.84,9.83v6.13c0,5.11,4.87,9.31,9.84,9.83Z"/>
      <path class="cls-43" d="M66.47,63.34v6.14c0,5.45-4.42,9.87-9.87,9.87-.43,0-.86-.03-1.28-.08,4.85-.63,8.6-4.77,8.6-9.79v-6.14c0-2.73-1.1-5.19-2.89-6.98-1.51-1.51-3.49-2.52-5.71-2.81,.42-.05,.85-.08,1.28-.08,2.72,0,5.19,1.1,6.98,2.89,1.78,1.79,2.89,4.25,2.89,6.98Z"/>
      <path class="cls-17" d="M56.6,79.61h0c-5.45,0-9.88-4.42-9.88-9.88v-6.14c0-1.32,.26-2.58,.73-3.73,1.47-3.6,5.01-6.14,9.15-6.14h0c5.45,0,9.88,4.42,9.88,9.88v6.14c0,5.45-4.42,9.88-9.88,9.88Z"/>
      <g>
        <rect class="cls-33" x="48.7" y="62.46" width=".56" height="1.7" rx=".25" ry=".25"/>
        <circle class="cls-33" cx="48.98" cy="64.86" r=".35"/>
      </g>
      <path class="cls-32" d="M52.98,47.94h4.56v5.77c0,1.26-1.02,2.28-2.28,2.28h0c-1.26,0-2.28-1.02-2.28-2.28v-5.77h0Z"/>
      <path class="cls-41" d="M52.98,45.23h4.56v5.77c0,1.26-1.02,2.28-2.28,2.28h0c-1.26,0-2.28-1.02-2.28-2.28v-5.77h0Z"/>
      <path class="cls-23" d="M52.98,47.94h4.56v5.77c0,1.26-1.02,2.28-2.28,2.28h0c-1.26,0-2.28-1.02-2.28-2.28v-5.77h0Z"/>
      <g>
        <path class="cls-32" d="M63.83,74.03c-.28,.01-.57-.01-.86-.07l-11.47-2.36,.81-3.94,10.75,2.21c-1.42-6.64-1.4-6.7-1.16-7.37l3.78,1.37c.14-.4,.12-.73,.11-.79,.02,.17,.17,1.14,1.36,6.66,.25,1.17-.1,2.38-.94,3.23-.64,.65-1.49,1.01-2.37,1.05Z"/>
        <path class="cls-41" d="M66.11,72.88c-.64,.65-1.49,1.01-2.38,1.05-.28,0-.57-.01-.86-.08l-11.47-2.35-.13-1.15,9.59,2.05c.29,.06,1.77,.43,2.05,.42,.89-.04,2.13-.41,2.77-1.06,.84-.84-.08-3.04-.34-4.21-.41-1.87-.69-3.22-.88-4.19l1.13,.41c.14-.4,.12-.72,.11-.79,.02,.17,.16,1.15,1.35,6.67,.25,1.17-.1,2.38-.94,3.24Z"/>
        <path class="cls-22" d="M63.83,74.03c-.28,.01-.57-.01-.86-.07l-11.47-2.36,.81-3.94,10.75,2.21c-1.42-6.64-1.4-6.7-1.16-7.37l3.78,1.37c.14-.4,.12-.73,.11-.79,.02,.17,.17,1.14,1.36,6.66,.25,1.17-.1,2.38-.94,3.23-.64,.65-1.49,1.01-2.37,1.05Z"/>
        <g>
          <circle class="cls-33" cx="51.3" cy="69.55" r="2.51"/>
          <ellipse class="cls-32" cx="51.68" cy="69.84" rx="2.02" ry="1.94" transform="translate(-19.34 119.87) rotate(-88.66)"/>
          <circle class="cls-22" cx="51.28" cy="69.36" r="2.51"/>
        </g>
      </g>
      <path class="cls-45" d="M62.74,56.61h0c2.1,0,3.8,1.7,3.8,3.8v5.17c0,.73-.59,1.32-1.32,1.32h-4.96c-.73,0-1.32-.59-1.32-1.32v-5.17c0-2.1,1.7-3.8,3.8-3.8Z" transform="translate(-14.26 19.08) rotate(-15.55)"/>
      <g>
        <polygon class="cls-75" points="64.81 77.86 23.36 78.35 23 76.19 64.8 75.85 64.81 77.86"/>
        <polygon class="cls-65" points="64.81 76.77 23 77.11 23 76.19 64.8 75.85 64.81 76.77"/>
        <polygon class="cls-15" points="64.81 77.86 23.36 78.35 23 76.19 64.8 75.85 64.81 77.86"/>
      </g>
      <g>
        <circle class="cls-33" cx="67.94" cy="54.36" r=".48"/>
        <circle class="cls-35" cx="66.8" cy="54.9" r=".28"/>
        <circle class="cls-35" cx="68.98" cy="55.34" r=".34"/>
        <circle class="cls-36" cx="67.72" cy="55.39" r=".23"/>
      </g>
      <path class="cls-75" d="M50.91,76.27l-28.65,.32-5.54-18.35c-.09-.23,.08-.48,.33-.49l28.14-.32,5.73,18.84Z"/>
      <path class="cls-66" d="M50.73,76.17l-28.65,.31-.32-.75c.98-2.06,5.5-4.6,7.63-6.31,5.19-4.14,9.74-8.16,12-12.12l3.46-.11c.2,0,.38,.12,.43,.31l5.45,18.66Z"/>
      <ellipse class="cls-74" cx="32.93" cy="67.8" rx="2.56" ry="2.78" transform="translate(-16.96 11.3) rotate(-15.54)"/>
      <path class="cls-1" d="M32.18,65.13c1.36-.38,2.8,.51,3.21,1.99s-.36,2.98-1.72,3.36-2.8-.51-3.21-1.99c-.23-.84-.08-1.7,.34-2.34"/>
      <line class="cls-12" x1="17.99" y1="58.19" x2="28.35" y2="57.97"/>
      <path class="cls-14" d="M35.07,57.41l9.78-.17c.26,0,.49,.16,.56,.41l5.51,18.61-28.77,.25-5.42-18.29c-.09-.23,.08-.48,.33-.49l15.36-.28"/>
      <g class="cls-77">
        <path class="cls-24" d="M62.7,56.54h0c2.1,0,3.8,1.7,3.8,3.8v5.17c0,.73-.59,1.32-1.32,1.32h-4.96c-.73,0-1.32-.59-1.32-1.32v-5.17c0-2.1,1.7-3.8,3.8-3.8Z" transform="translate(-14.24 19.07) rotate(-15.55)"/>
      </g>
      <path class="cls-25" d="M65.94,59.39l1.39,4.98c.2,.71-.22,1.43-.92,1.63l-1.71,.48c.7-.2,1.12-.92,.92-1.63l-1.39-4.98c-.28-1.01-.94-1.81-1.79-2.29-.59-.34-1.29-.51-2-.49,.26-.14,.54-.26,.83-.34,1.01-.28,2.04-.13,2.89,.35,.85,.48,1.51,1.28,1.79,2.29Z"/>
      <path class="cls-10" d="M61.32,56.73h0c2.02-.56,4.12,.62,4.68,2.64l1.39,4.98c.2,.7-.22,1.43-.92,1.63l-4.78,1.33c-.7,.2-1.43-.22-1.63-.92"/>
      <g>
        <g>
          <circle class="cls-24" cx="64.79" cy="61.75" r=".8" transform="translate(-11.39 14.76) rotate(-11.96)"/>
          <circle class="cls-24" cx="63.01" cy="61.58" r=".27" transform="translate(-11.39 14.39) rotate(-11.96)"/>
          <circle class="cls-24" cx="65.53" cy="63.49" r=".27" transform="translate(-11.73 14.95) rotate(-11.96)"/>
          <circle class="cls-24" cx="63.54" cy="59.97" r=".33" transform="translate(-11.05 14.47) rotate(-11.96)"/>
        </g>
        <g>
          <circle class="cls-26" cx="64.5" cy="63.49" r=".23" transform="translate(-11.76 14.74) rotate(-11.96)"/>
          <circle class="cls-26" cx="63.69" cy="62.95" r=".24" transform="translate(-11.66 14.56) rotate(-11.96)"/>
          <circle class="cls-26" cx="62.72" cy="63.18" r=".09" transform="translate(-11.73 14.37) rotate(-11.96)"/>
        </g>
      </g>
      <g>
        <path class="cls-28" d="M49.32,59.87s-.04-.02-.06-.03c-.07-.06-.09-.16-.03-.24,0,0,0,0,0,0l1.48-1.86c.06-.07,.17-.09,.24-.03,.07,.06,.09,.17,.03,.24l-1.48,1.86c-.04,.06-.11,.08-.18,.06Z"/>
        <path class="cls-28" d="M50.79,59.18s-.04-.02-.06-.03c-.07-.06-.09-.16-.03-.24,0,0,0,0,0,0l.79-1c.06-.07,.17-.09,.24-.03,.07,.06,.09,.17,.03,.24l-.79,.99c-.04,.06-.11,.08-.18,.06Z"/>
      </g>
      <g>
        <path class="cls-64" d="M21.07,64.83s-.06,0-.09-.02c-.12-.05-.17-.18-.13-.3,0,0,0,0,0,0l1.25-2.96c.05-.12,.18-.17,.3-.12,.12,.05,.17,.18,.12,.3l-1.25,2.96c-.03,.09-.12,.15-.21,.15Z"/>
        <path class="cls-64" d="M22.74,63.4s-.06,0-.09-.02c-.12-.05-.17-.18-.13-.3,0,0,0,0,0,0l.67-1.59c.05-.12,.18-.17,.3-.12,.12,.05,.17,.18,.12,.3l-.67,1.58c-.03,.09-.12,.15-.21,.15Z"/>
      </g>
      <g>
        <circle class="cls-57" cx="39.51" cy="37.16" r="1.47"/>
        <circle class="cls-48" cx="39.64" cy="37.1" r=".83"/>
        <circle class="cls-8" cx="39.51" cy="37.16" r="1.47"/>
      </g>
      <g>
        <path class="cls-33" d="M61.74,37.02c.08-.26,.27-.48,.51-.62,.21-.09,.1-.44-.11-.34-.33,.16-.59,.45-.72,.8-.08,.22,.24,.38,.32,.17h0Z"/>
        <ellipse class="cls-33" cx="61.36" cy="37.71" rx=".29" ry=".23" transform="translate(18.08 95.28) rotate(-84.65)"/>
      </g>
      <path class="cls-14" d="M63.6,32.15l-.06-1.22"/>
      <path class="cls-6" d="M62.85,23.52s-.63,1.61-.07,3.19"/>
      <circle class="cls-35" cx="61.63" cy="21.59" r=".26"/>
      <circle class="cls-35" cx="63.31" cy="24.51" r=".17"/>
      <circle class="cls-36" cx="63.51" cy="25.38" r=".17"/>
      <path class="cls-32" d="M64.57,34.95l1.23-.04c1.61-.06,2.97,1.2,3.03,2.82h0c.06,1.61-1.2,2.96-2.8,3.01,0,0,0,0-.01,0h0l-1.23,.04c-1.61,.05-2.96-1.21-3.02-2.81h0c-.06-1.61,1.2-2.96,2.8-3.01,0,0,0,0,0,0h0Z"/>
      <path class="cls-3" d="M64.57,34.95l1.23-.04c1.61-.06,2.97,1.2,3.03,2.82h0c.06,1.61-1.2,2.96-2.8,3.01,0,0,0,0-.01,0h0l-1.23,.04c-1.61,.05-2.96-1.21-3.02-2.81h0c-.06-1.61,1.2-2.96,2.8-3.01,0,0,0,0,0,0h0Z"/>
      <path class="cls-41" d="M65.05,36.28l.64-.02c.84-.03,1.54,.63,1.57,1.47h0c.03,.84-.63,1.54-1.46,1.57l-.64,.02c-.84,.03-1.54-.63-1.57-1.47h0c-.03-.84,.63-1.53,1.46-1.57Z"/>
      <path class="cls-32" d="M60.49,21.86c.13,.1,.25,.21,.37,.32,2.14,1.92,3.43,4.62,3.58,7.49l.59,11.17c.34,5.98-4.23,11.1-10.21,11.44-5.92,.34-11.01-4.14-11.43-10.05l-.61-11.4c-.17-3.04,.96-6.01,3.1-8.18,3.42-3.48,10.82-3.85,14.6-.78Z"/>
      <path class="cls-42" d="M64.46,29.25l.6,11.17c.34,5.98-4.23,11.09-10.21,11.44h-.04s-1.73-32.49-1.73-32.49c2.75-.15,5.54,.52,7.43,2.06,.13,.1,.25,.21,.37,.32,2.14,1.92,3.43,4.62,3.58,7.49Z"/>
      <g>
        <ellipse class="cls-33" cx="46.17" cy="30.37" rx=".54" ry=".31" transform="translate(4.7 66.89) rotate(-74.71)"/>
        <circle class="cls-34" cx="47.15" cy="30.62" r=".17"/>
        <path class="cls-34" d="M46.64,30.82c.07,0,.14,.05,.14,.13s-.05,.14-.13,.14-.14-.05-.14-.13,.05-.14,.13-.14h0Z"/>
        <circle class="cls-34" cx="46.75" cy="29.71" r=".18"/>
      </g>
      <path class="cls-41" d="M64.44,29.12l.59,11.17c.34,5.98-4.24,11.1-10.21,11.44-.27,.01-.53,.02-.79,.02,5.61-.7,10.29-5.67,9.96-11.4l-.59-11.17c-.15-2.87-1.93-5.54-4.07-7.47-.12-.11-.24-.22-.37-.32-1.72-1.4-4.19-2.08-6.69-2.08,3-.33,6.16,.32,8.23,2,.13,.1,.25,.21,.37,.32,2.14,1.92,3.43,4.62,3.58,7.49Z"/>
      <path class="cls-33" d="M55.28,51.82c-.19,.02-.39,.04-.59,.05-5.98,.3-11.07-4.31-11.35-9.82l-.59-11.17c-.18-3.34,.81-6.16,2.74-8.3,.11-.12,.21-.24,.33-.36,1.84-1.86,4.83-2.83,7.78-2.86-2.54,.24-4.99,1.19-6.59,2.8-.12,.11-.22,.23-.33,.36-1.93,2.14-2.93,4.96-2.77,7.83l.59,11.17c.29,5.78,5.06,10.28,10.77,10.3Z"/>
      <path class="cls-14" d="M42.74,30.39c-.17-3.04,.96-6.01,3.1-8.18,3.42-3.48,10.82-3.85,14.6-.78,.13,.1,.25,.21,.37,.32,2.14,1.92,3.43,4.62,3.58,7.49l.12,2.33,.11,2.1,.36,6.73c.34,5.98-4.23,11.1-10.21,11.44-2.6,.15-5.03-.63-6.99-2.05"/>
      <rect class="cls-37" x="46.02" y="32.01" width=".88" height="4.76" rx=".44" ry=".44" transform="translate(-1.76 2.52) rotate(-3.05)"/>
      <g>
        <path class="cls-75" d="M65.74,34.96h0c.42-.02,.74-.38,.72-.8l-1.05-5.68c-.02-.42,.36-.78-.06-.76h0c-.42,.02-.74,.38-.72,.8l.3,5.72c.02,.42,.38,.74,.8,.72Z"/>
        <path class="cls-11" d="M65.74,34.96h0c.42-.02,.74-.38,.72-.8l-1.05-5.68c-.02-.42,.36-.78-.06-.76h0c-.42,.02-.74,.38-.72,.8l.3,5.72c.02,.42,.38,.74,.8,.72Z"/>
      </g>
      <path class="cls-75" d="M63.65,36.12h0c.58,.03,1.07-.42,1.1-1l-.65-7.94c.03-.58,.61-1.02,.03-1.05h0c-.58-.03-1.07,.42-1.1,1l-.38,7.89c-.03,.58,.42,1.07,1,1.1Z"/>
      <path class="cls-75" d="M64.06,15.85c.76-.04-1.06-1.09-1.78-1.35-2.23-.78-4.85-.38-6.75,1.03l1-1.94c-.29-.54-.89-.87-1.5-.94s-1.23,.08-1.79,.31c-1.86,.75-3.33,2.41-3.86,4.34l-1.22-.18c-1.06-.03-2.13,.1-3.15,.44-1.09,.36-2.21,.97-2.94,1.86-.58,.7-.84,1.61-.94,2.52-.06,.54,.03,1.22,.53,1.43,.25,.1,.54,.05,.82,.04,.08,0,.16,0,.23,.03,.22,.11,.16,.43,.08,.66-.34,1.02-.45,2.13-.31,3.2,.04,.3,.1,.62,.29,.86,.36,.47,1.06,.51,1.64,.37,1.47-.37,2.58-1.78,2.68-3.28l.91-.16c.48,.13,.99,.12,1.43-.11,.67-.35,1.02-1.09,1.32-1.78,.32-.74,.64-1.47,.97-2.21,.42,1.09,1.06,2.09,1.87,2.92,.55,.57,1.22,1.07,2.01,1.17,.61,.08,1.28-.17,1.63-.64l.8-.1c.64,1.1,1.7,1.96,2.91,2.33,.09,.03,.18,.05,.26,.11,.1,.08,.14,.2,.19,.32,.67,1.75,1.91,3.28,3.5,4.28,.51,.33,1.13,.6,1.72,.43,.5-.15,.86-.62,1.05-1.11,.59-1.46,.09-3.11-.55-4.55-.47-1.06-1.12-2.17-2.23-2.53l.07-.07c.46,.1,.93,.17,1.39,.11s.93-.26,1.21-.64c.32-.42,.37-1,.3-1.53-.12-.88-.57-1.71-1.22-2.31-1.14-1.03-2.78-1.28-4.32-1.34-1.19-.05-2.41,0-3.51,.44,0,0,2.73-2.29,5.26-2.43Z"/>
      <path class="cls-53" d="M67.13,26.12c.65,1.44,1.14,3.09,.55,4.55-.19,.49-.55,.96-1.05,1.11-.58,.18-1.2-.1-1.72-.43-1.59-1-2.83-2.52-3.5-4.28-.04-.11-.09-.24-.19-.32-.08-.06-.17-.08-.26-.11-1.22-.38-2.28-1.23-2.92-2.33l-.8,.1c.06-.08,.13-.15,.2-.21,.2-.19,.44-.37,.71-.46,.67-.21,1.39,.18,2.1,.17,.56-.02,1.11-.32,1.41-.8,.29-.47,.31-1.12,.01-1.6-.37-.59-1.1-.83-1.59-1.32-.56-.56-.76-1.43-.52-2.18,.89-.22,1.84-.24,2.76-.2,1.54,.06,3.18,.31,4.32,1.35,.66,.59,1.1,1.43,1.22,2.31,.08,.53,.03,1.1-.3,1.53-.29,.37-.75,.58-1.21,.63-.46,.06-.94-.01-1.39-.11l-.07,.07c1.1,.36,1.75,1.47,2.23,2.53Z"/>
      <path class="cls-54" d="M57.24,24.45c-.36,.47-1.03,.72-1.63,.64-.79-.1-1.46-.61-2.01-1.17-.36-.37-.68-.76-.96-1.18,.36-1.02,.97-1.95,1.78-2.66,.52-.44,1.11-.81,1.61-1.28,1.12-1.07,1.66-2.73,1.42-4.26,1.55-.54,3.29-.57,4.85-.03,.72,.25,2.55,1.31,1.78,1.35-2.52,.14-5.26,2.43-5.26,2.43,.25-.1,.5-.18,.76-.24-.22,.74-.02,1.6,.53,2.14,.49,.49,1.22,.74,1.59,1.32,.29,.48,.28,1.12-.01,1.6-.29,.48-.84,.78-1.41,.8-.71,.01-1.43-.38-2.1-.17-.27,.09-.51,.27-.71,.46-.07,.06-.14,.14-.2,.21"/>
      <circle class="cls-28" cx="48.35" cy="17.16" r=".32"/>
      <circle class="cls-28" cx="65.95" cy="18.66" r=".32"/>
      <circle class="cls-28" cx="60.63" cy="16.92" r=".32"/>
      <circle class="cls-28" cx="67.19" cy="26.26" r=".32"/>
      <circle class="cls-53" cx="60.06" cy="23.67" r=".76"/>
      <circle class="cls-53" cx="59.89" cy="19.74" r=".65"/>
      <circle class="cls-53" cx="58.71" cy="20.39" r=".33"/>
      <circle class="cls-53" cx="55.78" cy="24.41" r=".61"/>
      <path class="cls-7" d="M64.95,18.28c-.84-.27-1.75-.37-2.63-.4-1.19-.05-2.41,0-3.51,.44"/>
      <path class="cls-7" d="M66.71,25.33c-.41-.78-.94-1.5-1.74-1.76h0c.46,.11,.93,.19,1.39,.13s.93-.26,1.21-.64c.32-.42,.37-1,.3-1.53-.11-.8-.49-1.57-1.06-2.15"/>
      <path class="cls-7" d="M49.38,17.34c.53-1.93,2-3.58,3.86-4.34,.57-.23,1.19-.38,1.79-.31,.31,.04,.62,.14,.88,.3,.41,.25,.5,.82,.23,1.21h0"/>
      <path class="cls-7" d="M55.54,15.57c1.9-1.42,4.51-1.82,6.75-1.03,.72,.25,1.44,.66,1.78,1.35,0,0-1.3,.19-2.38,.57"/>
      <path class="cls-6" d="M41.91,20.75s.86-2.31,4.1-2.9"/>
      <circle class="cls-33" cx="47.15" cy="17.66" r=".34"/>
      <path class="cls-7" d="M47.27,17.16c-.84,.03-1.46,.16-2.26,.43-1.09,.36-2.21,.97-2.94,1.86-.27,.33-.48,.71-.62,1.11"/>
      <g>
        <circle class="cls-33" cx="44.36" cy="18.96" r=".37"/>
        <circle class="cls-35" cx="43.91" cy="19.81" r=".21"/>
        <circle class="cls-35" cx="45.44" cy="19.08" r=".26"/>
        <circle class="cls-36" cx="44.7" cy="19.69" r=".17"/>
      </g>
      <circle class="cls-35" cx="44.04" cy="27.92" r=".26"/>
      <g>
        <path class="cls-28" d="M44.74,25.2s-.05,0-.08-.01c-.1-.03-.16-.15-.12-.25,0,0,0,0,0,0l.94-2.6c.04-.1,.15-.16,.25-.12,.1,.04,.16,.15,.12,.25l-.94,2.6c-.02,.08-.09,.13-.17,.14Z"/>
        <path class="cls-28" d="M46.11,23.9s-.05,0-.08-.01c-.1-.03-.16-.15-.12-.25,0,0,0,0,0,0l.5-1.39c.04-.1,.15-.16,.25-.12,.1,.04,.16,.15,.12,.25l-.5,1.39c-.02,.08-.09,.13-.17,.14Z"/>
      </g>
      <rect class="cls-41" x="44.5" y="39.13" width="12.88" height="1.02" transform="translate(-2.04 2.77) rotate(-3.05)"/>
      <path class="cls-14" d="M46.22,48.4c-1.62-1.75-2.68-4.04-2.87-6.6l-.49-9.22"/>
      <rect class="cls-69" x="47.34" y="34.03" width="9.87" height="4.87" transform="translate(-1.87 2.83) rotate(-3.05)"/>
      <g>
        <path class="cls-33" d="M46.47,41.21h11.86v1.16c0,3.27-2.66,5.93-5.93,5.93h0c-3.27,0-5.93-2.66-5.93-5.93v-1.16h0Z" transform="translate(-2.03 2.5) rotate(-2.68)"/>
        <path class="cls-20" d="M46.47,41.21h11.86v1.16c0,3.27-2.66,5.93-5.93,5.93h0c-3.27,0-5.93-2.66-5.93-5.93v-1.16h0Z" transform="translate(-2.03 2.5) rotate(-2.68)"/>
      </g>
      <g>
        <circle class="cls-57" cx="57.9" cy="35.94" r="1.47"/>
        <circle class="cls-48" cx="57.76" cy="35.91" r=".83"/>
        <circle class="cls-8" cx="57.9" cy="35.94" r="1.47"/>
      </g>
      <path class="cls-30" d="M40.42,34.24h16.81v4.87h-16.81c-.45,0-.81-.37-.81-.81v-3.25c0-.45,.37-.81,.81-.81Z" transform="translate(-1.88 2.63) rotate(-3.05)"/>
      <rect class="cls-69" x="49.84" y="33.97" width="7.37" height="4.87" transform="translate(-1.86 2.9) rotate(-3.05)"/>
      <rect class="cls-70" x="46.65" y="34.05" width="10.57" height="4.87" transform="translate(-1.87 2.81) rotate(-3.05)"/>
      <rect class="cls-44" x="43.36" y="34.5" width=".44" height="4.87" transform="translate(-1.9 2.37) rotate(-3.05)"/>
      <rect class="cls-33" x="41.13" y="34.73" width=".44" height="4.87" transform="translate(-1.92 2.25) rotate(-3.05)"/>
      <rect class="cls-33" x="42.16" y="34.72" width=".44" height="4.87" transform="translate(-1.92 2.31) rotate(-3.05)"/>
      <rect class="cls-44" x="44.68" y="34.43" width=".44" height="4.87" transform="translate(-1.9 2.44) rotate(-3.05)"/>
      <path class="cls-14" d="M53.2,33.98l3.23-.17c.45-.02,.83,.32,.86,.77l.17,3.24c.02,.45-.32,.83-.77,.86l-15.97,.85c-.45,.02-.83-.32-.86-.77l-.17-3.24c-.02-.45,.32-.83,.77-.86l10.07-.51"/>
      <path class="cls-7" d="M41.14,21.97c-.06,.54,.03,1.22,.53,1.43,.25,.1,.54,.05,.82,.04,.08,0,.16,0,.23,.03,.22,.11,.16,.43,.08,.66-.34,1.02-.45,2.13-.31,3.2,.04,.3,.1,.62,.29,.86,.36,.47,1.06,.51,1.64,.37,1.47-.37,2.58-1.78,2.68-3.28"/>
      <path class="cls-18" d="M58.08,25.29s1.11,1.83,2.77,1.79c0,0,.44,1.97,1.38,2.72"/>
      <path class="cls-7" d="M58.04,24.38c.64,1.1,1.7,1.96,2.91,2.33,.09,.03,.18,.05,.26,.11,.1,.08,.14,.2,.19,.32,.67,1.75,1.91,3.28,3.5,4.28,.51,.33,1.13,.6,1.72,.43,.5-.15,.86-.62,1.05-1.11,.45-1.1,.27-2.32-.12-3.47"/>
      <path class="cls-18" d="M51.77,21.79s1.53,3.75,4.31,3.67"/>
      <path class="cls-18" d="M48.23,25.52s2.28,.59,3.3-3.59"/>
      <path class="cls-7" d="M48,25.12c.48,.13,.99,.12,1.43-.11,.67-.35,1.02-1.09,1.32-1.78,.32-.74,.64-1.47,.97-2.21,.42,1.09,1.06,2.09,1.87,2.92,.55,.57,1.22,1.07,2.01,1.17,.61,.08,1.28-.17,1.63-.64"/>
      <path class="cls-18" d="M62.44,31l-.21,4.31s-.11,1.73,1.31,1.23"/>
      <path class="cls-19" d="M62.85,30.84l-.2,4.18c-.03,.58,.42,1.07,1,1.1h0c.58,.03,1.07-.42,1.1-1l-.3-3.73"/>
      <circle class="cls-28" cx="51.72" cy="34.08" r=".32"/>
      <circle class="cls-28" cx="46.94" cy="49.11" r=".32"/>
      <circle class="cls-28" cx="73.64" cy="61.78" r=".32"/>
      <circle class="cls-28" cx="33.74" cy="57.42" r=".29"/>
      <circle class="cls-28" cx="31.42" cy="65.55" r=".29"/>
      <circle class="cls-28" cx="64.58" cy="99.33" r=".29"/>
      <circle class="cls-28" cx="41.28" cy="99.55" r=".29"/>
      <circle class="cls-28" cx="72.4" cy="97.95" r=".29"/>
      <circle class="cls-28" cx="71.01" cy="91.22" r=".29"/>
      <g>
        <g class="cls-76">
          <path class="cls-63" d="M43.53,9.54h-2.17v-3.67h6.46c.14-.04,.29,.04,.34,.18,.04,.14-.04,.29-.18,.34-.05,.01-.1,.01-.15,0h-5.94v2.63h1.65c.14-.04,.29,.04,.34,.18,.04,.14-.04,.29-.18,.34-.05,.01-.1,.01-.15,0h0Z"/>
          <path class="cls-63" d="M45.23,9.54h-.93c-.14,.04-.29-.04-.34-.18-.04-.14,.04-.29,.18-.34,.05-.01,.1-.01,.15,0h.93c.14-.04,.29,.04,.34,.18,.04,.14-.04,.29-.18,.34-.05,.01-.1,.01-.15,0Z"/>
          <path class="cls-63" d="M45.96,9.54h-.02c-.14,.04-.29-.04-.34-.18-.04-.14,.04-.29,.18-.34,.05-.01,.1-.01,.15,0h.02c.14,.04,.23,.19,.18,.34-.03,.09-.1,.16-.18,.18Z"/>
          <path class="cls-63" d="M50.54,9.54h-3.84c-.14-.04-.23-.19-.18-.34,.03-.09,.1-.16,.18-.18h3.32v-2.63h-1.15c-.14,.04-.29-.04-.34-.18-.04-.14,.04-.29,.18-.34,.05-.01,.1-.01,.15,0h1.68v3.67Z"/>
          <path class="cls-63" d="M46.14,6.39h-9.18V2.73h9.18v3.66Zm-8.67-.52h8.13V3.25h-8.13v2.62Z"/>
        </g>
        <g class="cls-76">
          <path class="cls-63" d="M79.01,48.79h-2.17v-3.67h6.46c.14-.04,.29,.04,.34,.18,.04,.14-.04,.29-.18,.34-.05,.01-.1,.01-.15,0h-5.94v2.63h1.65c.14-.04,.29,.04,.34,.18,.04,.14-.04,.29-.18,.34-.05,.01-.1,.01-.15,0h0Z"/>
          <path class="cls-63" d="M80.72,48.79h-.93c-.14,.04-.29-.04-.34-.18-.04-.14,.04-.29,.18-.34,.05-.01,.1-.01,.15,0h.93c.14-.04,.29,.04,.34,.18,.04,.14-.04,.29-.18,.34-.05,.01-.1,.01-.15,0Z"/>
          <path class="cls-63" d="M81.45,48.79h-.02c-.14,.04-.29-.04-.34-.18-.04-.14,.04-.29,.18-.34,.05-.01,.1-.01,.15,0h.02c.14,.04,.23,.19,.18,.34-.03,.09-.1,.16-.18,.18Z"/>
          <path class="cls-63" d="M86.02,48.79h-3.84c-.14-.04-.23-.19-.18-.34,.03-.09,.1-.16,.18-.18h3.32v-2.63h-1.15c-.14,.04-.29-.04-.34-.18-.04-.14,.04-.29,.18-.34,.05-.01,.1-.01,.15,0h1.68v3.67Z"/>
          <path class="cls-63" d="M81.62,45.64h-9.18v-3.66h9.18v3.66Zm-8.67-.52h8.13v-2.62h-8.13v2.62Z"/>
        </g>
        <g class="cls-76">
          <path class="cls-63" d="M11.69,56.77h-.05c-.14,.04-.29-.04-.34-.18-.04-.14,.04-.29,.18-.34,.05-.01,.1-.01,.15,0h.05c.14,.04,.23,.19,.18,.34-.03,.09-.1,.16-.18,.18Z"/>
          <path class="cls-63" d="M13.59,56.77h-1.05c-.14,.04-.29-.04-.34-.18-.04-.14,.04-.29,.18-.34,.05-.01,.1-.01,.15,0h.52v-2.62H4.93v2.62h4.73c.14,.04,.23,.19,.18,.34-.03,.09-.1,.16-.18,.18H4.4v-3.66H13.59v3.66Z"/>
          <path class="cls-63" d="M10.93,56.77h-.46c-.14,.04-.29-.04-.34-.18-.04-.14,.04-.29,.18-.34,.05-.01,.1-.01,.15,0h.46c.14,.04,.23,.19,.18,.34-.03,.09-.1,.16-.18,.18h0Z"/>
          <path class="cls-63" d="M6.58,63.07h-2.17v-3.68h6.46c.14-.04,.29,.05,.33,.19,.04,.14-.05,.29-.19,.33-.05,.01-.1,.01-.14,0H4.92v2.62h1.65c.14,.04,.23,.19,.19,.33-.03,.09-.1,.17-.19,.19v.02Z"/>
          <path class="cls-63" d="M8.28,63.07h-.95c-.14-.04-.23-.19-.19-.33,.03-.09,.1-.17,.19-.19h.95c.14,.04,.23,.19,.19,.33-.03,.09-.1,.17-.19,.19Z"/>
          <path class="cls-63" d="M9,63.07h-.02c-.14-.04-.23-.19-.19-.33,.03-.09,.1-.17,.19-.19h.02c.14-.04,.29,.05,.33,.19,.04,.14-.05,.29-.19,.33-.05,.01-.1,.01-.14,0Z"/>
          <path class="cls-63" d="M13.59,63.07h-3.85c-.14-.04-.23-.19-.19-.33,.03-.09,.1-.17,.19-.19h3.32v-2.62h-1.15c-.14,.04-.29-.05-.33-.19-.04-.14,.05-.29,.19-.33,.05-.01,.1-.01,.14,0h1.68v3.67Z"/>
          <path class="cls-63" d="M9.18,59.91H0v-3.66H9.18v3.66Zm-8.67-.52H8.64v-2.61H.51v2.61Z"/>
        </g>
        <g class="cls-76">
          <path class="cls-63" d="M88.54,66.86h-.05c-.14,.04-.29-.04-.34-.18-.04-.14,.04-.29,.18-.34,.05-.01,.1-.01,.15,0h.05c.14,.04,.23,.19,.18,.34-.03,.09-.1,.16-.18,.18Z"/>
          <path class="cls-63" d="M90.43,66.86h-1.05c-.14,.04-.29-.04-.34-.18-.04-.14,.04-.29,.18-.34,.05-.01,.1-.01,.15,0h.52v-2.62h-8.13v2.62h4.73c.14,.04,.23,.19,.18,.34-.03,.09-.1,.16-.18,.18h-5.26v-3.66h9.18v3.66Z"/>
          <path class="cls-63" d="M87.78,66.86h-.46c-.14,.04-.29-.04-.34-.18-.04-.14,.04-.29,.18-.34,.05-.01,.1-.01,.15,0h.46c.14,.04,.23,.19,.18,.34-.03,.09-.1,.16-.18,.18h0Z"/>
          <path class="cls-63" d="M83.43,73.16h-2.17v-3.68h6.46c.14-.04,.29,.05,.33,.19,.04,.14-.05,.29-.19,.33-.05,.01-.1,.01-.14,0h-5.95v2.62h1.65c.14,.04,.23,.19,.19,.33-.03,.09-.1,.17-.19,.19v.02Z"/>
          <path class="cls-63" d="M85.13,73.16h-.95c-.14-.04-.23-.19-.19-.33,.03-.09,.1-.17,.19-.19h.95c.14,.04,.23,.19,.19,.33-.03,.09-.1,.17-.19,.19Z"/>
          <path class="cls-63" d="M85.85,73.16h-.02c-.14-.04-.23-.19-.19-.33,.03-.09,.1-.17,.19-.19h.02c.14-.04,.29,.05,.33,.19,.04,.14-.05,.29-.19,.33-.05,.01-.1,.01-.14,0Z"/>
          <path class="cls-63" d="M90.43,73.16h-3.85c-.14-.04-.23-.19-.19-.33,.03-.09,.1-.17,.19-.19h3.32v-2.62h-1.15c-.14,.04-.29-.05-.33-.19-.04-.14,.05-.29,.19-.33,.05-.01,.1-.01,.14,0h1.68v3.67Z"/>
          <path class="cls-63" d="M86.03,70h-9.18v-3.66h9.18v3.66Zm-8.67-.52h8.13v-2.61h-8.13v2.61Z"/>
        </g>
      </g>
      <rect class="cls-59" x="24.33" y="77.09" width="1.9" height=".58" rx=".29" ry=".29"/>
      <rect class="cls-59" x="26.74" y="77.08" width="1.9" height=".58" rx=".29" ry=".29"/>
      <path class="cls-61" d="M27.23,93.73l-5.65-2.01c.16-.46,4.12-11.33,13.92-14.53,6.29-2.05,13.32-.47,20.87,4.7l-3.38,4.95c-5.93-4.05-11.17-5.38-15.6-3.96-6.99,2.26-10.13,10.76-10.16,10.85Z"/>
      <path class="cls-16" d="M27.69,92.7c-.3,.65-.45,1.06-.46,1.08l-5.65-2.01c.07-.19,.77-2.13,2.26-4.58"/>
      <path class="cls-16" d="M49.57,78.2c2.21,.91,4.48,2.16,6.8,3.74l-3.38,4.95c-1.84-1.25-3.61-2.25-5.31-2.98"/>
      <path class="cls-29" d="M55.27,86.67l-2.32,.1c-5.92-4.05-11.19-5.24-15.61-3.81-6.99,2.25-10.22,10.55-10.25,10.63l-2.05-.73c2.22-7.45,8.46-12.28,16.74-12.28,4.7,0,10.21,3.23,13.5,6.1Z"/>
      <ellipse class="cls-57" cx="60.29" cy="82.1" rx="13.26" ry="7.8" transform="translate(-11.71 10.05) rotate(-8.69)"/>
      <path class="cls-49" d="M61.75,89.96c-7.23,1.11-13.63-1.45-14.28-5.71-.18-1.21,.11-2.42,.8-3.56,2.03,3.1,7.49,4.77,13.52,3.84,5.19-.79,9.4-3.28,11.12-6.23,.4,.6,.66,1.25,.77,1.95,.65,4.26-4.69,8.61-11.93,9.71Z"/>
      <path class="cls-6" d="M52.69,76.96s5.55-3.41,12.81-2.14"/>
      <g>
        <circle class="cls-33" cx="57.73" cy="75.48" r=".37"/>
        <circle class="cls-35" cx="57.2" cy="76.28" r=".21"/>
        <circle class="cls-35" cx="58.79" cy="75.71" r=".26"/>
        <circle class="cls-36" cx="57.99" cy="76.24" r=".17"/>
      </g>
      <g>
        <path class="cls-28" d="M50.22,82.44s-.05,0-.08-.02c-.1-.05-.14-.16-.1-.26,0,0,0,0,0,0l1.2-2.49c.05-.1,.17-.14,.26-.09,.1,.05,.14,.17,.09,.26l-1.2,2.49c-.03,.07-.11,.12-.19,.12Z"/>
        <path class="cls-28" d="M51.71,81.28s-.05,0-.08-.02c-.1-.05-.14-.16-.1-.26,0,0,0,0,0,0l.64-1.33c.05-.1,.17-.14,.26-.09,.1,.05,.14,.17,.09,.26l-.64,1.33c-.03,.07-.11,.12-.19,.12Z"/>
      </g>
      <g>
        <g>
          <circle class="cls-47" cx="61.59" cy="88.06" r=".8" transform="translate(-16.91 14.67) rotate(-11.96)"/>
          <circle class="cls-47" cx="61.76" cy="86.27" r=".27" transform="translate(-16.53 14.67) rotate(-11.96)"/>
          <circle class="cls-47" cx="59.85" cy="88.79" r=".27" transform="translate(-17.1 14.33) rotate(-11.96)"/>
          <circle class="cls-47" cx="63.37" cy="86.81" r=".33" transform="translate(-16.61 15.01) rotate(-11.96)"/>
        </g>
        <g>
          <circle class="cls-50" cx="59.85" cy="87.76" r=".23" transform="translate(-16.88 14.3) rotate(-11.96)"/>
          <circle class="cls-50" cx="60.4" cy="86.95" r=".24" transform="translate(-16.71 14.4) rotate(-11.96)"/>
          <circle class="cls-50" cx="60.16" cy="85.99" r=".09" transform="translate(-16.51 14.33) rotate(-11.96)"/>
        </g>
      </g>
      <path class="cls-47" d="M61.57,89.72c-7.23,1.11-13.63-1.45-14.28-5.71-.14-.93,0-1.87,.4-2.78,1.23,4.81,7.49,7.8,14.4,6.74,5.67-.87,10.11-4.2,11.38-8.1,.01,.05,.02,.09,.03,.14,.65,4.26-4.69,8.61-11.93,9.71Z"/>
      <ellipse class="cls-14" cx="60.29" cy="82.1" rx="13.26" ry="7.8" transform="translate(-11.71 10.05) rotate(-8.69)"/>
      <g>
        <path class="cls-59" d="M17.37,89.75h10.9c.64,0,1.16,.52,1.16,1.16v.81c0,2.44-1.98,4.43-4.43,4.43h-3c-2.92,0-5.28-2.37-5.28-5.28v-.47c0-.36,.29-.65,.65-.65Z" transform="translate(11.76 188.05) rotate(-159.27)"/>
        <path class="cls-59" d="M22.9,88.44h5.38v1.18c0,1.3-1.05,2.35-2.35,2.35h-.68c-1.3,0-2.35-1.05-2.35-2.35v-1.18h0Z" transform="translate(17.6 183.63) rotate(-159.27)"/>
      </g>
      <path class="cls-2" d="M26.3,84.64s4.32-5.84,9.65-6.98"/>
      <path class="cls-16" d="M24.61,85.99c2.22-3.29,5.75-7.07,10.89-8.74,.49-.16,.98-.3,1.47-.41"/>
      <circle class="cls-72" cx="27.6" cy="83.96" r=".5"/>
      <circle class="cls-72" cx="35.09" cy="78.37" r=".36"/>
      <circle class="cls-72" cx="32.51" cy="80.4" r=".17"/>
      <circle class="cls-72" cx="36.52" cy="79.24" r=".17"/>
      <circle class="cls-72" cx="31.21" cy="81.08" r=".08"/>
      <circle class="cls-72" cx="33.83" cy="79.24" r=".17"/>
      <circle class="cls-72" cx="33.73" cy="80.1" r=".07"/>
      <circle class="cls-72" cx="29.1" cy="82.49" r=".05"/>
      <circle class="cls-72" cx="30.21" cy="81.86" r=".14"/>
      <circle class="cls-72" cx="26.44" cy="85.76" r=".14"/>
      <circle class="cls-72" cx="34.38" cy="79.75" r=".11"/>
      <circle class="cls-29" cx="41.7" cy="80.43" r=".33"/>
      <circle class="cls-68" cx="42.88" cy="79.93" r=".17"/>
      <circle class="cls-68" cx="41.2" cy="79.5" r=".14"/>
      <circle class="cls-68" cx="39.19" cy="79.89" r=".14"/>
      <circle class="cls-68" cx="38.06" cy="80.5" r=".08"/>
      <circle class="cls-29" cx="35.55" cy="81.5" r=".22"/>
      <circle class="cls-29" cx="44.72" cy="80.93" r=".36"/>
      <circle class="cls-29" cx="44.64" cy="80.3" r=".27"/>
      <circle class="cls-29" cx="39.64" cy="80.71" r=".29"/>
      <circle class="cls-68" cx="36.91" cy="80.66" r=".09"/>
      <circle class="cls-68" cx="37.2" cy="80.24" r=".06"/>
      <circle class="cls-68" cx="38.27" cy="79.69" r=".13"/>
      <path class="cls-16" d="M45.28,83.04c-2.86-.84-5.5-.88-7.9-.11-.82,.26-1.58,.61-2.3,1.03"/>
      <path class="cls-16" d="M33.45,85.08c-2.58,2.04-4.32,4.79-5.28,6.65"/>
      <path class="cls-16" d="M47.06,83.66c-.27-.11-.54-.21-.8-.3"/>
      <circle class="cls-28" cx="34.27" cy="84.46" r=".29"/>
      <polygon class="cls-59" points="53.81 75.96 51.5 75.96 51.5 74.98 53.81 75.25 53.81 75.96"/>
      <path class="cls-13" d="M29.1,82.1s.45-.45,1.07-.94"/>
      <circle class="cls-33" cx="30.85" cy="80.71" r=".28"/>
      <path class="cls-13" d="M42.59,76.86c.23,.02,.46,.04,.7,.07"/>
      <path class="cls-13" d="M38.97,76.98s.85-.17,2.22-.18"/>
      <path class="cls-16" d="M38.18,76.59c3.24-.52,6.65-.13,10.21,1.15"/>
    </g>
  </g>
</svg>