<svg xmlns="http://www.w3.org/2000/svg" xmlns:xlink="http://www.w3.org/1999/xlink" width="800" zoomAndPan="magnify" viewBox="0 0 600 599.999999" height="800" preserveAspectRatio="xMidYMid meet" version="1.2"><defs><clipPath id="5257d36e83"><path d="M 342 179 L 431 179 L 431 267 L 342 267 Z M 342 179 "/></clipPath><clipPath id="4c640d0a9b"><path d="M 348.65625 173.945312 L 435.742188 184.734375 L 424.953125 271.816406 L 337.867188 261.027344 Z M 348.65625 173.945312 "/></clipPath><clipPath id="372b6297cb"><path d="M 348.65625 173.945312 L 435.742188 184.734375 L 424.953125 271.816406 L 337.867188 261.027344 Z M 348.65625 173.945312 "/></clipPath><clipPath id="433bbcede8"><path d="M 346 182 L 428 182 L 428 264 L 346 264 Z M 346 182 "/></clipPath><clipPath id="4233e4d98b"><path d="M 348.65625 173.945312 L 435.742188 184.734375 L 424.953125 271.816406 L 337.867188 261.027344 Z M 348.65625 173.945312 "/></clipPath><clipPath id="11d4e682fd"><path d="M 348.65625 173.945312 L 435.742188 184.734375 L 424.953125 271.816406 L 337.867188 261.027344 Z M 348.65625 173.945312 "/></clipPath></defs><g id="36edb03a7f"><path style=" stroke:none;fill-rule:nonzero;fill:#a5e9ff;fill-opacity:1;" d="M 20.242188 471.929688 C 36.789062 512.1875 75.460938 531.230469 100.179688 543.398438 C 197.605469 591.367188 345.617188 585.738281 452.171875 498.234375 C 477.109375 477.753906 600.007812 370.476562 571.40625 225.207031 C 546.117188 96.789062 461.03125 18.6875 311.742188 12.390625 C 222.675781 8.632812 107.042969 36.605469 66.070312 114.945312 C 40.300781 164.214844 71.257812 179.859375 50.179688 291.480469 C 31.9375 388.097656 0.00390625 422.683594 20.242188 471.929688 "/><path style=" stroke:none;fill-rule:nonzero;fill:#2a91b3;fill-opacity:1;" d="M 301.632812 454.679688 L 95.828125 454.679688 C 91.359375 454.679688 87.699219 451.023438 87.699219 446.550781 L 87.699219 223.023438 C 87.699219 188.375 116.050781 160.027344 150.699219 160.027344 L 241.683594 160.027344 C 279.128906 160.027344 309.761719 190.660156 309.761719 228.105469 L 309.761719 446.550781 C 309.761719 451.023438 306.109375 454.679688 301.632812 454.679688 "/><path style=" stroke:none;fill-rule:nonzero;fill:#ffffff;fill-opacity:1;" d="M 290.738281 319.683594 C 290.738281 319.683594 306.539062 448.570312 396.984375 456.574219 L 290.40625 457.082031 C 290.40625 457.082031 252.265625 373.53125 250.699219 343.152344 C 249.140625 312.777344 290.738281 319.683594 290.738281 319.683594 "/><path style=" stroke:none;fill-rule:nonzero;fill:#010f20;fill-opacity:1;" d="M 281.175781 320.039062 C 273.84375 320.039062 263.890625 321.226562 257.652344 326.800781 C 253.355469 330.636719 251.355469 336.121094 251.714844 343.101562 C 253.183594 371.601562 287.636719 448.488281 291.0625 456.0625 L 384.332031 455.621094 C 368.5 452.015625 354.148438 444.285156 341.535156 432.554688 C 328.875 420.773438 317.9375 404.960938 309.023438 385.550781 C 295.179688 355.402344 290.558594 325.707031 289.835938 320.578125 C 288.445312 320.398438 285.203125 320.039062 281.175781 320.039062 Z M 290.40625 458.101562 C 290.011719 458.101562 289.652344 457.867188 289.484375 457.507812 C 287.921875 454.085938 251.242188 373.429688 249.6875 343.207031 C 249.296875 335.582031 251.519531 329.546875 256.300781 325.277344 C 267.824219 314.992188 289.96875 318.523438 290.90625 318.683594 C 291.351562 318.753906 291.695312 319.109375 291.75 319.558594 C 291.789062 319.882812 295.863281 352.042969 310.890625 384.75 C 324.699219 414.796875 350.855469 451.472656 397.078125 455.5625 C 397.617188 455.613281 398.023438 456.078125 398 456.621094 C 397.976562 457.160156 397.535156 457.589844 396.992188 457.589844 L 290.414062 458.101562 C 290.410156 458.101562 290.410156 458.101562 290.40625 458.101562 "/><path style=" stroke:none;fill-rule:nonzero;fill:#010f20;fill-opacity:1;" d="M 319.808594 447.992188 C 319.660156 448.113281 319.503906 448.238281 319.355469 448.367188 C 317.578125 449.789062 315.753906 451.261719 313.722656 452.703125 C 312.660156 453.464844 311.535156 454.21875 310.339844 454.960938 C 309.222656 455.652344 308.03125 456.339844 306.757812 457.003906 C 306.105469 457.351562 305.421875 457.691406 304.710938 458.023438 C 301.945312 459.339844 298.777344 460.5625 295.09375 461.660156 C 294.507812 461.835938 293.933594 462.003906 293.367188 462.148438 C 291.246094 462.726562 316.03125 478.644531 314.113281 478.964844 C 298.421875 481.609375 266.929688 466.648438 275.792969 477.957031 C 291.222656 497.636719 292.171875 486.800781 263.90625 480.449219 C 263.113281 480.476562 247.46875 477.886719 246.691406 477.957031 C 235.257812 478.925781 223.410156 472.460938 215.070312 477.957031 C 202.871094 485.992188 195.980469 482.558594 186.296875 489.726562 C 178.625 495.414062 168.15625 491.203125 159.308594 489.28125 C 155.417969 488.4375 150.109375 496.8125 145.339844 492.40625 C 140.824219 488.242188 136.882812 487.996094 132.316406 478.367188 C 131.707031 476.476562 131.09375 474.535156 130.503906 472.558594 C 125.917969 457.445312 121.941406 440.144531 119.605469 420.863281 C 119.535156 420.285156 119.464844 419.710938 119.402344 419.136719 C 116.351562 392.710938 117.066406 368.292969 119.726562 346.640625 C 120.484375 340.386719 121.417969 334.359375 122.464844 328.585938 C 125.792969 310.25 130.3125 294.433594 134.617188 281.722656 C 137.722656 271.980469 141.332031 246.777344 162.019531 241.910156 C 163.160156 241.636719 164.265625 241.386719 165.339844 241.160156 C 166.378906 240.933594 167.378906 240.726562 168.382812 240.523438 C 182.359375 237.8125 195.035156 238.027344 250.65625 240.042969 C 251.414062 240.070312 252.183594 240.140625 252.949219 240.253906 C 256.148438 240.730469 259.417969 241.9375 262.617188 243.683594 C 262.609375 243.644531 262.597656 243.621094 262.589844 243.582031 C 292.3125 250.652344 302.625 333.394531 302.625 333.394531 L 294.351562 338.765625 L 277.917969 349.441406 C 277.203125 349.90625 276.382812 349.800781 275.789062 349.367188 C 276.800781 372.71875 282.714844 398.304688 298.71875 421.296875 C 301.675781 425.546875 304.414062 430.300781 307.847656 435.089844 C 309.234375 437.015625 310.722656 438.945312 312.398438 440.847656 C 314.542969 443.289062 316.964844 445.6875 319.808594 447.992188 "/><path style=" stroke:none;fill-rule:nonzero;fill:#ffffff;fill-opacity:1;" d="M 311.941406 440.160156 C 305.765625 430.484375 294.421875 425.585938 288.191406 425.941406 C 259.835938 427.542969 205.164062 398.839844 164.503906 384.964844 C 157.460938 374.71875 162.582031 352.296875 159.382812 325.386719 L 107.523438 329.871094 C 102.347656 355.519531 104.320312 399.0625 108.804688 404.824219 C 111.765625 411.890625 127.894531 432.402344 160.660156 448.386719 C 211.882812 473.375 280.449219 457.042969 280.449219 457.042969 C 280.449219 457.042969 315.195312 475.421875 330.199219 455.445312 C 330.199219 455.445312 318.121094 449.828125 311.941406 440.160156 "/><path style=" stroke:none;fill-rule:nonzero;fill:#010f20;fill-opacity:1;" d="M 280.449219 456.023438 C 280.609375 456.023438 280.773438 456.0625 280.917969 456.144531 C 281.253906 456.320312 313.914062 473.277344 328.625 455.796875 C 325.410156 454.117188 316.296875 448.863281 311.085938 440.707031 C 305.039062 431.230469 293.925781 426.628906 288.25 426.957031 C 268.667969 428.070312 236.714844 414.898438 205.8125 402.167969 C 191.679688 396.347656 177.0625 390.324219 164.175781 385.929688 C 163.96875 385.859375 163.789062 385.722656 163.664062 385.542969 C 159.324219 379.222656 159.410156 368.816406 159.519531 355.636719 C 159.589844 346.914062 159.667969 337.0625 158.484375 326.484375 L 108.371094 330.820312 C 103.316406 356.871094 105.4375 398.839844 109.605469 404.203125 C 109.660156 404.273438 109.707031 404.351562 109.738281 404.433594 C 112.835938 411.8125 129.46875 432.042969 161.109375 447.472656 C 211.417969 472.019531 279.53125 456.214844 280.210938 456.050781 C 280.289062 456.03125 280.367188 456.023438 280.449219 456.023438 Z M 309.3125 465.761719 C 306.25 465.761719 302.976562 465.421875 299.496094 464.730469 C 289.953125 462.832031 282.042969 458.992188 280.308594 458.117188 C 277.671875 458.707031 261.289062 462.222656 239.804688 463.101562 C 218.207031 463.980469 186.867188 462.300781 160.21875 449.300781 C 125.695312 432.460938 110.597656 411.539062 107.914062 405.335938 C 103.042969 398.59375 101.449219 354.847656 106.527344 329.671875 C 106.613281 329.230469 106.984375 328.898438 107.433594 328.859375 L 159.292969 324.375 C 159.847656 324.335938 160.328125 324.726562 160.390625 325.269531 C 161.710938 336.34375 161.625 346.601562 161.550781 355.65625 C 161.449219 368.273438 161.367188 378.28125 165.15625 384.117188 C 178.023438 388.519531 192.542969 394.503906 206.585938 400.289062 C 237.28125 412.933594 269.019531 426 288.132812 424.925781 C 295.234375 424.519531 306.675781 430.023438 312.796875 439.613281 C 318.75 448.929688 330.511719 454.472656 330.625 454.527344 C 330.90625 454.65625 331.113281 454.90625 331.183594 455.203125 C 331.257812 455.5 331.195312 455.8125 331.015625 456.058594 C 326.183594 462.480469 318.78125 465.761719 309.3125 465.761719 "/><path style=" stroke:none;fill-rule:nonzero;fill:#010f20;fill-opacity:1;" d="M 326.414062 456.691406 C 322.410156 456.691406 311.683594 455.527344 299.613281 444.558594 C 299.195312 444.183594 299.164062 443.539062 299.542969 443.125 C 299.917969 442.710938 300.5625 442.679688 300.980469 443.058594 C 315.226562 456 327.679688 454.609375 327.804688 454.589844 C 328.355469 454.523438 328.867188 454.917969 328.941406 455.472656 C 329.011719 456.027344 328.621094 456.535156 328.0625 456.605469 C 327.957031 456.621094 327.382812 456.691406 326.414062 456.691406 "/><path style=" stroke:none;fill-rule:nonzero;fill:#010f20;fill-opacity:1;" d="M 314.976562 462.050781 C 312.3125 462.050781 304.613281 461.09375 293.726562 451.628906 C 293.304688 451.257812 293.261719 450.617188 293.628906 450.195312 C 293.996094 449.773438 294.636719 449.730469 295.0625 450.097656 C 307.707031 461.089844 315.605469 459.996094 315.683594 459.984375 C 316.238281 459.898438 316.753906 460.273438 316.84375 460.828125 C 316.929688 461.382812 316.554688 461.90625 315.996094 461.988281 C 315.929688 462.003906 315.585938 462.050781 314.976562 462.050781 "/><path style=" stroke:none;fill-rule:nonzero;fill:#010f20;fill-opacity:1;" d="M 101.035156 348.5 C 100.6875 348.53125 100.394531 348.257812 100.414062 347.90625 C 100.777344 342.027344 103.566406 298.121094 107.523438 280.414062 C 116.453125 240.460938 171.546875 240.398438 171.546875 240.398438 C 161.414062 274.636719 158.128906 307.464844 161.34375 338.957031 C 161.542969 340.898438 160.152344 342.628906 158.214844 342.820312 L 101.035156 348.5 "/><path style=" stroke:none;fill-rule:nonzero;fill:#ffffff;fill-opacity:1;" d="M 202.332031 228.726562 L 165.199219 241.113281 C 237.09375 262.664062 254.402344 241.113281 254.402344 241.113281 L 244.125 235.054688 L 248.765625 224.296875 C 253.5 226.550781 257.960938 229.019531 261.316406 227.644531 C 269.082031 224.457031 273.3125 211.5 273.3125 211.5 L 276.832031 211.941406 C 277.347656 212.007812 277.871094 211.847656 278.265625 211.503906 C 278.664062 211.164062 278.898438 210.667969 278.914062 210.140625 C 279.121094 203.09375 278.859375 197.851562 280.859375 191.871094 C 282.828125 185.976562 284.339844 186.039062 286.160156 171.703125 L 254.183594 150.105469 L 237.941406 174.097656 C 237.941406 174.097656 235.152344 167.597656 229.167969 169.816406 C 224.816406 171.429688 222.847656 185.273438 226.910156 188.011719 L 202.332031 228.726562 "/><path style=" stroke:none;fill-rule:nonzero;fill:#010f20;fill-opacity:1;" d="M 202.332031 228.726562 L 202.339844 228.726562 Z M 168.589844 241.050781 C 203.441406 251.113281 224.574219 250.5625 236.253906 248.261719 C 246.039062 246.332031 250.925781 242.902344 252.746094 241.316406 L 243.609375 235.933594 C 243.167969 235.671875 242.988281 235.125 243.191406 234.652344 L 247.832031 223.894531 C 247.941406 223.640625 248.148438 223.441406 248.410156 223.347656 C 248.667969 223.25 248.957031 223.261719 249.203125 223.378906 C 249.640625 223.589844 250.082031 223.800781 250.511719 224.011719 C 254.523438 225.949219 258.304688 227.78125 260.929688 226.703125 C 268.167969 223.738281 272.304688 211.308594 272.347656 211.183594 C 272.5 210.71875 272.957031 210.429688 273.4375 210.492188 L 276.957031 210.933594 C 277.191406 210.960938 277.425781 210.890625 277.601562 210.734375 C 277.785156 210.578125 277.890625 210.351562 277.898438 210.109375 C 277.929688 208.960938 277.953125 207.863281 277.972656 206.800781 C 278.078125 201.378906 278.171875 196.699219 279.894531 191.546875 C 280.425781 189.957031 280.917969 188.804688 281.398438 187.6875 C 282.675781 184.695312 283.785156 182.101562 285.074219 172.195312 L 254.457031 151.515625 L 238.78125 174.667969 C 238.570312 174.972656 238.210938 175.144531 237.839844 175.109375 C 237.472656 175.074219 237.152344 174.839844 237.003906 174.5 C 236.90625 174.273438 234.515625 168.917969 229.523438 170.769531 C 227.886719 171.375 226.347656 174.789062 225.855469 178.890625 C 225.386719 182.808594 226.054688 186.210938 227.476562 187.171875 C 227.921875 187.472656 228.054688 188.074219 227.777344 188.535156 L 203.199219 229.253906 C 203.074219 229.460938 202.882812 229.617188 202.652344 229.695312 Z M 220.402344 251.683594 C 207.398438 251.683594 189.339844 249.410156 164.90625 242.085938 C 164.480469 241.960938 164.1875 241.570312 164.179688 241.128906 C 164.175781 240.683594 164.457031 240.289062 164.875 240.152344 L 201.65625 227.882812 L 225.597656 188.210938 C 223.722656 186.15625 223.429688 182.058594 223.835938 178.648438 C 224.296875 174.816406 225.875 169.953125 228.8125 168.863281 C 233.261719 167.214844 236.417969 169.773438 238.023438 172.15625 L 253.339844 149.535156 C 253.65625 149.070312 254.285156 148.949219 254.753906 149.261719 L 286.730469 170.859375 C 287.046875 171.074219 287.214844 171.449219 287.167969 171.828125 C 285.808594 182.535156 284.574219 185.425781 283.265625 188.484375 C 282.804688 189.5625 282.328125 190.679688 281.820312 192.191406 C 280.199219 197.046875 280.113281 201.371094 280.003906 206.839844 C 279.988281 207.910156 279.960938 209.019531 279.929688 210.171875 C 279.902344 210.980469 279.542969 211.75 278.933594 212.273438 C 278.316406 212.804688 277.507812 213.050781 276.703125 212.949219 L 274 212.609375 C 272.917969 215.5625 268.753906 225.691406 261.699219 228.582031 C 258.238281 230.003906 254.058594 227.980469 249.628906 225.839844 C 249.515625 225.785156 249.398438 225.726562 249.28125 225.671875 L 245.414062 234.636719 L 254.921875 240.238281 C 255.175781 240.386719 255.351562 240.640625 255.402344 240.929688 C 255.457031 241.222656 255.382812 241.519531 255.199219 241.75 C 255.011719 241.984375 250.480469 247.457031 236.964844 250.191406 C 232.726562 251.046875 227.269531 251.683594 220.402344 251.683594 "/><path style=" stroke:none;fill-rule:nonzero;fill:#010f20;fill-opacity:1;" d="M 227.140625 170.285156 C 227.140625 170.285156 237.300781 169.410156 236.582031 174.023438 C 235.574219 180.457031 234.308594 181.742188 235.484375 184.292969 C 236.117188 185.65625 237.816406 186.609375 239.242188 186.628906 C 242.230469 186.667969 243.210938 181.667969 248.503906 176.113281 C 250.742188 173.761719 253.089844 172.015625 254.429688 171.21875 C 264.691406 165.109375 276.332031 178.925781 288.792969 174.953125 C 297.089844 172.3125 303.660156 162.453125 302.03125 155.808594 C 301.347656 153.027344 299.019531 149.925781 278.574219 143.199219 C 257.886719 136.394531 247.539062 132.992188 241.34375 136.117188 C 226.8125 143.449219 227.097656 168.4375 227.140625 170.285156 "/><path style=" stroke:none;fill-rule:nonzero;fill:#010f20;fill-opacity:1;" d="M 248.765625 225.3125 C 248.5625 225.3125 248.359375 225.253906 248.183594 225.128906 L 239.984375 219.355469 C 236.214844 216.699219 234.28125 212.207031 234.929688 207.625 L 235.253906 205.363281 C 235.328125 204.808594 235.847656 204.421875 236.398438 204.503906 C 236.953125 204.578125 237.339844 205.09375 237.261719 205.648438 L 236.941406 207.910156 C 236.398438 211.734375 238.011719 215.480469 241.15625 217.695312 L 249.351562 223.464844 C 249.8125 223.789062 249.921875 224.425781 249.597656 224.882812 C 249.398438 225.164062 249.085938 225.3125 248.765625 225.3125 "/><path style=" stroke:none;fill-rule:nonzero;fill:#010f20;fill-opacity:1;" d="M 156.722656 343.984375 C 156.207031 343.984375 155.761719 343.59375 155.710938 343.070312 C 155.65625 342.511719 156.0625 342.011719 156.621094 341.957031 L 158.117188 341.808594 C 158.769531 341.742188 159.363281 341.425781 159.78125 340.914062 C 160.207031 340.398438 160.402344 339.738281 160.332031 339.0625 C 159.453125 330.449219 159.058594 321.632812 159.15625 312.863281 C 159.160156 312.300781 159.613281 311.859375 160.183594 311.855469 C 160.742188 311.863281 161.195312 312.324219 161.1875 312.882812 C 161.089844 321.582031 161.484375 330.316406 162.355469 338.855469 C 162.476562 340.074219 162.125 341.261719 161.355469 342.203125 C 160.59375 343.132812 159.515625 343.710938 158.316406 343.832031 L 156.824219 343.980469 C 156.789062 343.984375 156.753906 343.984375 156.722656 343.984375 "/><path style=" stroke:none;fill-rule:nonzero;fill:#ffffff;fill-opacity:1;" d="M 430.9375 492.871094 L 430.433594 501.261719 C 430.367188 502.390625 429.585938 503.226562 428.488281 503.339844 L 186.769531 528.601562 C 184.101562 528.878906 181.234375 527.792969 179.070312 525.683594 L 127.546875 473.363281 L 145.585938 457.207031 L 430.9375 492.871094 "/><path style=" stroke:none;fill-rule:nonzero;fill:#2a91b3;fill-opacity:1;" d="M 129.019531 473.410156 L 179.792969 524.972656 C 181.726562 526.851562 184.300781 527.835938 186.664062 527.589844 L 428.378906 502.328125 C 428.984375 502.265625 429.382812 501.835938 429.421875 501.203125 L 429.867188 493.761719 L 145.917969 458.273438 Z M 185.945312 529.65625 C 183.261719 529.65625 180.488281 528.484375 178.359375 526.414062 L 126.824219 474.078125 C 126.628906 473.878906 126.523438 473.609375 126.53125 473.332031 C 126.539062 473.054688 126.664062 472.792969 126.871094 472.605469 L 144.90625 456.453125 C 145.125 456.257812 145.421875 456.164062 145.710938 456.203125 L 431.0625 491.863281 C 431.59375 491.929688 431.984375 492.398438 431.949219 492.933594 L 431.449219 501.324219 C 431.351562 502.941406 430.175781 504.183594 428.589844 504.351562 L 186.875 529.609375 C 186.566406 529.644531 186.257812 529.65625 185.945312 529.65625 "/><path style=" stroke:none;fill-rule:nonzero;fill:#2a91b3;fill-opacity:1;" d="M 430.9375 492.871094 L 185.5 516.070312 C 183.09375 516.296875 180.519531 515.28125 178.601562 513.347656 L 123.667969 457.996094 L 355.570312 438.96875 L 430.9375 492.871094 "/><path style=" stroke:none;fill-rule:nonzero;fill:#ffffff;fill-opacity:1;" d="M 250.878906 493.898438 L 449.734375 471.164062 C 452.820312 470.808594 454.945312 468.355469 454.945312 465.136719 L 454.945312 328.785156 C 454.945312 323.96875 450.324219 319.679688 445.699219 320.210938 L 246.84375 342.945312 C 243.757812 343.300781 242.089844 345.878906 242.089844 349.097656 L 242.394531 484.601562 C 242.394531 489.417969 246.257812 494.425781 250.878906 493.898438 "/><path style=" stroke:none;fill-rule:nonzero;fill:#a5e9ff;fill-opacity:1;" d="M 246.84375 342.945312 L 248.699219 342.734375 L 248.699219 493.753906 C 244.910156 493.003906 241.636719 489.378906 241.636719 485.324219 L 241.636719 348.972656 C 241.636719 345.753906 243.757812 343.300781 246.84375 342.945312 "/><path style=" stroke:none;fill-rule:nonzero;fill:#010f20;fill-opacity:1;" d="M 246.960938 343.957031 C 244.382812 344.253906 242.652344 346.269531 242.652344 348.972656 L 242.652344 485.324219 C 242.652344 488.328125 244.816406 491.269531 247.683594 492.394531 L 247.683594 343.875 Z M 248.699219 494.765625 C 248.632812 494.765625 248.570312 494.761719 248.503906 494.75 C 244.082031 493.875 240.617188 489.738281 240.617188 485.324219 L 240.617188 348.972656 C 240.617188 345.242188 243.128906 342.351562 246.726562 341.9375 L 248.585938 341.726562 C 248.871094 341.695312 249.160156 341.785156 249.375 341.976562 C 249.59375 342.171875 249.714844 342.445312 249.714844 342.734375 L 249.714844 493.753906 C 249.714844 494.054688 249.578125 494.34375 249.34375 494.539062 C 249.160156 494.6875 248.933594 494.765625 248.699219 494.765625 "/><path style=" stroke:none;fill-rule:nonzero;fill:#2a91b3;fill-opacity:1;" d="M 336.96875 517.398438 L 336.96875 408.234375 C 336.96875 402.785156 340.542969 398.617188 345.761719 397.980469 L 374.859375 394.417969 C 379.945312 393.796875 385.054688 398.511719 385.054688 403.820312 L 385.054688 539.28125 C 385.054688 542.429688 382.992188 544.835938 379.976562 545.203125 L 339.425781 550.164062 C 337.839844 550.359375 336.136719 549.964844 334.613281 549.050781 L 299.398438 527.914062 C 296.964844 526.457031 297.132812 522.984375 299.648438 522.628906 L 336.96875 517.398438 "/><path style=" stroke:none;fill-rule:nonzero;fill:#a5e9ff;fill-opacity:1;" d="M 329.222656 360.183594 L 380.691406 353.835938 C 381.386719 353.75 381.863281 353.191406 381.863281 352.460938 L 381.863281 347.96875 C 381.863281 346.84375 380.78125 345.84375 379.703125 345.976562 L 329.683594 352.144531 C 328.597656 352.277344 327.855469 353.144531 327.855469 354.28125 L 327.855469 358.921875 C 327.855469 359.632812 328.539062 360.265625 329.222656 360.183594 "/><path style=" stroke:none;fill-rule:nonzero;fill:#a5e9ff;fill-opacity:1;" d="M 335.90625 543.996094 C 335.34375 543.996094 334.886719 543.542969 334.886719 542.980469 L 334.886719 513.335938 C 334.886719 512.773438 335.34375 512.320312 335.90625 512.320312 C 336.46875 512.320312 336.921875 512.773438 336.921875 513.335938 L 336.921875 542.980469 C 336.921875 543.542969 336.46875 543.996094 335.90625 543.996094 "/><path style=" stroke:none;fill-rule:nonzero;fill:#010f20;fill-opacity:1;" d="M 338.621094 551.230469 C 337.976562 551.230469 337.328125 551.148438 336.671875 550.992188 C 336.125 550.859375 335.792969 550.308594 335.925781 549.761719 C 336.054688 549.21875 336.605469 548.886719 337.15625 549.019531 C 337.882812 549.195312 338.605469 549.242188 339.296875 549.160156 L 379.855469 544.195312 C 382.359375 543.886719 384.039062 541.917969 384.039062 539.28125 L 384.039062 484.628906 C 384.039062 484.066406 384.492188 483.613281 385.054688 483.613281 C 385.617188 483.613281 386.074219 484.066406 386.074219 484.628906 L 386.074219 539.28125 C 386.074219 542.929688 383.617188 545.785156 380.101562 546.214844 L 339.546875 551.175781 C 339.242188 551.210938 338.929688 551.230469 338.621094 551.230469 "/><path style=" stroke:none;fill-rule:nonzero;fill:#010f20;fill-opacity:1;" d="M 385.054688 485.644531 C 384.492188 485.644531 384.039062 485.191406 384.039062 484.628906 L 384.039062 403.820312 C 384.039062 401.535156 382.917969 399.179688 381.035156 397.511719 C 379.25 395.9375 377.046875 395.175781 374.984375 395.425781 L 345.882812 398.984375 C 341.160156 399.5625 337.984375 403.277344 337.984375 408.234375 L 338.660156 451.714844 C 338.667969 452.277344 338.222656 452.734375 337.660156 452.742188 C 337.089844 452.742188 336.636719 452.304688 336.628906 451.746094 L 335.957031 408.25 C 335.957031 402.296875 339.9375 397.667969 345.640625 396.96875 L 374.734375 393.410156 C 377.375 393.085938 380.164062 394.027344 382.382812 395.992188 C 384.726562 398.066406 386.074219 400.921875 386.074219 403.820312 L 386.074219 484.628906 C 386.074219 485.191406 385.617188 485.644531 385.054688 485.644531 "/><path style=" stroke:none;fill-rule:nonzero;fill:#010f20;fill-opacity:1;" d="M 336.988281 527.558594 C 336.425781 527.558594 335.972656 527.101562 335.972656 526.539062 L 335.96875 489.738281 C 335.96875 489.175781 336.421875 488.722656 336.980469 488.722656 C 337.542969 488.722656 338 489.175781 338 489.738281 L 338.003906 526.539062 C 338.003906 527.101562 337.550781 527.558594 336.988281 527.558594 "/><path style=" stroke:none;fill-rule:nonzero;fill:#010f20;fill-opacity:1;" d="M 250.214844 494.953125 C 248.394531 494.953125 246.585938 494.226562 245.058594 492.863281 C 242.789062 490.839844 241.378906 487.671875 241.378906 484.601562 L 241.074219 349.101562 C 241.074219 345.140625 243.292969 342.328125 246.726562 341.9375 L 445.585938 319.199219 C 448.015625 318.925781 450.570312 319.800781 452.597656 321.613281 C 454.734375 323.519531 455.960938 326.132812 455.960938 328.785156 L 455.960938 465.136719 C 455.960938 468.867188 453.445312 471.761719 449.847656 472.171875 L 392.449219 478.734375 C 391.890625 478.796875 391.386719 478.398438 391.324219 477.839844 C 391.261719 477.28125 391.660156 476.777344 392.21875 476.714844 L 449.617188 470.152344 C 452.195312 469.859375 453.929688 467.84375 453.929688 465.136719 L 453.929688 328.785156 C 453.929688 326.710938 452.949219 324.648438 451.246094 323.125 C 449.644531 321.703125 447.671875 321.011719 445.816406 321.21875 L 246.960938 343.957031 C 244.117188 344.28125 243.105469 346.824219 243.105469 349.097656 L 243.414062 484.597656 C 243.414062 487.070312 244.589844 489.71875 246.410156 491.34375 C 247.335938 492.171875 248.84375 493.109375 250.761719 492.890625 L 324.371094 484.472656 C 324.929688 484.40625 325.433594 484.808594 325.496094 485.367188 C 325.558594 485.925781 325.160156 486.429688 324.601562 486.496094 L 250.992188 494.910156 C 250.734375 494.9375 250.476562 494.953125 250.214844 494.953125 "/><path style=" stroke:none;fill-rule:nonzero;fill:#a5e9ff;fill-opacity:1;" d="M 207.335938 510.566406 C 207.335938 510.566406 193.988281 514.25 174.992188 522.78125 C 173.632812 523.390625 172.59375 524.550781 172.136719 525.96875 L 168.238281 538.148438 C 167.953125 539.039062 166.679688 538.988281 166.460938 538.082031 L 165.585938 534.441406 C 164.789062 531.121094 161.09375 529.425781 158.074219 531.007812 C 147.011719 536.816406 134.480469 544.273438 122.601562 552.972656 C 137.902344 558.875 154.421875 563.578125 171.40625 566.898438 L 171.652344 566.636719 C 174.097656 563.347656 172.007812 558.648438 167.933594 558.273438 L 165.277344 558.027344 C 164.167969 557.925781 164.15625 556.304688 165.261719 556.1875 L 178.066406 554.808594 C 179.5625 554.648438 180.921875 553.851562 181.789062 552.613281 C 184.921875 548.136719 188.085938 543.460938 191.199219 538.628906 C 193.109375 535.664062 191.640625 531.695312 188.257812 530.71875 C 186.835938 530.304688 186.871094 528.273438 188.308594 527.914062 L 197.304688 525.65625 C 198.6875 525.3125 199.875 524.421875 200.582031 523.179688 C 202.9375 519.042969 205.207031 514.835938 207.335938 510.566406 "/><path style=" stroke:none;fill-rule:nonzero;fill:#2a91b3;fill-opacity:1;" d="M 120.371094 354.042969 L 120.113281 353.566406 C 119.128906 351.746094 116.757812 351.230469 115.113281 352.480469 C 74.550781 383.25 36.464844 432.066406 42.609375 505.3125 C 58.089844 521.226562 76.902344 531.773438 92.386719 539.597656 C 94.070312 514.984375 103.480469 447.375 155.339844 379.3125 C 158.492188 375.175781 162.046875 370.535156 165.824219 365.480469 C 167.074219 363.804688 166.523438 361.402344 164.664062 360.449219 L 160.824219 358.476562 C 158.289062 357.175781 159.019531 353.367188 161.855469 353.09375 L 174.273438 351.910156 C 175.253906 351.816406 176.140625 351.300781 176.707031 350.5 C 184.289062 339.703125 192.074219 327.730469 198.875 315.152344 C 200.335938 312.449219 197.730469 309.351562 194.828125 310.34375 C 181.875 314.773438 154.640625 325.367188 126.695312 344.199219 C 125.671875 344.890625 125.109375 346.09375 125.226562 347.324219 L 125.710938 352.414062 C 126.003906 355.507812 121.847656 356.777344 120.371094 354.042969 "/><path style=" stroke:none;fill-rule:nonzero;fill:#a5e9ff;fill-opacity:1;" d="M 68.902344 475.984375 C 68.8125 475.984375 68.726562 475.972656 68.636719 475.949219 C 68.09375 475.804688 67.773438 475.246094 67.921875 474.707031 C 83.226562 417.722656 117.164062 382.789062 117.507812 382.441406 C 117.898438 382.042969 118.542969 382.035156 118.941406 382.429688 C 119.34375 382.824219 119.347656 383.46875 118.953125 383.867188 C 118.617188 384.210938 85.042969 418.789062 69.882812 475.234375 C 69.761719 475.683594 69.347656 475.984375 68.902344 475.984375 "/><path style=" stroke:none;fill-rule:nonzero;fill:#a5e9ff;fill-opacity:1;" d="M 87.917969 377.148438 C 87.671875 377.148438 87.421875 377.058594 87.226562 376.878906 C 86.816406 376.492188 86.792969 375.847656 87.175781 375.4375 C 95.417969 366.609375 104.835938 358.15625 115.175781 350.316406 C 116.195312 349.542969 117.5 349.253906 118.75 349.523438 C 120.003906 349.796875 121.070312 350.597656 121.683594 351.730469 L 121.941406 352.203125 C 122.464844 353.175781 123.390625 353.300781 124.082031 353.089844 C 124.777344 352.875 125.480469 352.257812 125.375 351.152344 L 124.890625 346.0625 C 124.738281 344.457031 125.472656 342.898438 126.804688 342 C 129.726562 340.035156 132.753906 338.078125 135.804688 336.195312 C 136.28125 335.898438 136.90625 336.046875 137.203125 336.523438 C 137.496094 337 137.347656 337.625 136.871094 337.921875 C 133.84375 339.792969 130.839844 341.734375 127.941406 343.6875 C 127.226562 344.171875 126.832031 345.007812 126.914062 345.875 L 127.398438 350.960938 C 127.578125 352.847656 126.480469 354.484375 124.671875 355.03125 C 122.867188 355.582031 121.050781 354.832031 120.152344 353.171875 L 119.894531 352.695312 C 119.566406 352.085938 118.992188 351.65625 118.320312 351.511719 C 117.648438 351.363281 116.949219 351.519531 116.402344 351.933594 C 106.15625 359.707031 96.824219 368.082031 88.664062 376.824219 C 88.460938 377.039062 88.191406 377.148438 87.917969 377.148438 "/><path style=" stroke:none;fill-rule:nonzero;fill:#a5e9ff;fill-opacity:1;" d="M 52.023438 436.054688 L 59.878906 428.433594 C 60.585938 427.742188 60.976562 426.792969 60.949219 425.804688 C 60.3125 404.140625 57.457031 381.066406 50.796875 358.589844 C 50.421875 357.324219 48.824219 356.929688 47.890625 357.863281 L 45.847656 359.910156 C 44.609375 361.152344 42.527344 359.941406 42.984375 358.246094 L 45.738281 348.089844 C 46.199219 346.402344 46.121094 344.605469 45.492188 342.972656 C 44.761719 341.082031 44 339.195312 43.210938 337.320312 C 42.542969 335.742188 40.25 335.910156 39.800781 337.566406 C 28.378906 379.488281 15.558594 410.597656 13.535156 436.191406 C 12.402344 453.445312 19.726562 470.675781 20.371094 472.253906 C 27.746094 490.222656 39.664062 503.777344 52.632812 514.566406 C 55.9375 499.03125 60.210938 473.800781 60.972656 444.558594 C 61.027344 442.34375 59.058594 440.625 56.878906 440.996094 L 54.707031 441.363281 C 51.695312 441.875 49.828125 438.183594 52.023438 436.054688 "/><path style=" stroke:none;fill-rule:nonzero;fill:#2a91b3;fill-opacity:1;" d="M 38.070312 488.785156 C 37.617188 488.785156 37.203125 488.480469 37.085938 488.019531 C 20.023438 421.371094 35.882812 381.304688 36.042969 380.90625 C 36.253906 380.390625 36.847656 380.140625 37.367188 380.351562 C 37.886719 380.566406 38.136719 381.15625 37.925781 381.675781 C 37.765625 382.066406 22.171875 421.574219 39.054688 487.515625 C 39.195312 488.0625 38.867188 488.613281 38.324219 488.753906 C 38.238281 488.773438 38.152344 488.785156 38.070312 488.785156 "/><path style=" stroke:none;fill-rule:nonzero;fill:#2a91b3;fill-opacity:1;" d="M 163.851562 433.609375 L 158.058594 423.933594 C 156.757812 421.761719 153.941406 421.039062 151.777344 422.347656 C 121.074219 440.945312 88.800781 473.191406 73.003906 528.957031 C 82.757812 534.875 92.28125 539.582031 100.324219 543.546875 C 102.234375 544.488281 104.777344 545.601562 106.726562 546.5 C 119.507812 539.320312 140.820312 525.457031 162.417969 505.640625 C 164.957031 503.3125 164.125 499.109375 160.890625 497.925781 L 147.894531 493.179688 C 146.308594 492.601562 146.625 490.265625 148.304688 490.132812 L 178.445312 487.691406 C 179.628906 487.597656 180.734375 487.050781 181.519531 486.152344 C 189.6875 476.828125 197.359375 466.554688 203.9375 455.34375 C 205.578125 452.546875 203.914062 448.972656 200.71875 448.457031 L 196.222656 447.734375 C 194.550781 447.464844 194.429688 445.101562 196.0625 444.65625 L 209.664062 440.976562 C 210.984375 440.617188 212.089844 439.691406 212.648438 438.4375 C 218.304688 425.726562 222.441406 412 224.375 397.277344 C 224.375 397.277344 202.144531 398.78125 174.1875 410.820312 C 172.886719 411.378906 171.925781 412.527344 171.578125 413.910156 L 166.722656 433.1875 C 166.378906 434.542969 164.570312 434.8125 163.851562 433.609375 "/><path style=" stroke:none;fill-rule:nonzero;fill:#a5e9ff;fill-opacity:1;" d="M 87.160156 517.554688 C 86.816406 517.554688 86.480469 517.378906 86.289062 517.0625 C 86 516.585938 86.15625 515.957031 86.636719 515.671875 C 87.011719 515.441406 124.464844 492.652344 159.765625 453.316406 C 160.136719 452.902344 160.78125 452.867188 161.199219 453.242188 C 161.617188 453.617188 161.652344 454.257812 161.277344 454.675781 C 125.765625 494.25 88.0625 517.183594 87.6875 517.410156 C 87.519531 517.507812 87.339844 517.554688 87.160156 517.554688 "/><path style=" stroke:none;fill-rule:nonzero;fill:#a5e9ff;fill-opacity:1;" d="M 157.976562 491.238281 C 157.46875 491.238281 157.03125 490.863281 156.96875 490.347656 C 156.898438 489.792969 157.292969 489.28125 157.851562 489.214844 L 178.320312 486.683594 C 179.296875 486.605469 180.144531 486.179688 180.753906 485.484375 C 189.433594 475.578125 196.9375 465.261719 203.0625 454.832031 C 203.675781 453.785156 203.730469 452.558594 203.214844 451.460938 C 202.707031 450.378906 201.738281 449.648438 200.558594 449.460938 L 196.0625 448.738281 C 194.828125 448.539062 193.953125 447.5625 193.886719 446.316406 C 193.824219 445.0625 194.589844 444 195.796875 443.675781 L 209.398438 439.996094 C 210.589844 439.671875 212.117188 438.757812 212.5 437.902344 C 212.726562 437.390625 213.328125 437.160156 213.839844 437.386719 C 214.351562 437.617188 214.582031 438.214844 214.355469 438.730469 C 213.601562 440.425781 211.296875 441.589844 209.929688 441.960938 L 196.328125 445.640625 C 195.9375 445.746094 195.910156 446.070312 195.917969 446.207031 C 195.925781 446.34375 195.984375 446.664062 196.386719 446.730469 L 200.882812 447.453125 C 202.707031 447.746094 204.265625 448.921875 205.054688 450.597656 C 205.847656 452.28125 205.757812 454.25 204.816406 455.859375 C 198.625 466.402344 191.042969 476.820312 182.28125 486.824219 C 181.324219 487.917969 179.988281 488.585938 178.527344 488.707031 L 158.101562 491.230469 C 158.058594 491.234375 158.015625 491.238281 157.976562 491.238281 "/><path style=" stroke:none;fill-rule:nonzero;fill:#a5e9ff;fill-opacity:1;" d="M 73.679688 528.617188 C 73.589844 528.617188 73.496094 528.605469 73.402344 528.578125 C 72.863281 528.425781 72.550781 527.863281 72.703125 527.324219 C 85.628906 481.691406 112.488281 452.050781 127.34375 438.445312 C 127.757812 438.0625 128.402344 438.089844 128.78125 438.503906 C 129.160156 438.917969 129.132812 439.5625 128.71875 439.941406 C 114.019531 453.402344 87.445312 482.730469 74.65625 527.878906 C 74.53125 528.328125 74.125 528.617188 73.679688 528.617188 "/><path style=" stroke:none;fill-rule:nonzero;fill:#ffffff;fill-opacity:1;" d="M 574.070312 93.371094 C 574.40625 90.765625 572.386719 88.460938 569.769531 88.460938 L 337.402344 88.460938 C 336.070312 88.460938 334.949219 89.453125 334.777344 90.777344 L 316.042969 231.152344 C 315.851562 232.589844 316.964844 233.863281 318.414062 233.863281 L 553.015625 233.863281 C 554.347656 233.863281 555.46875 232.871094 555.636719 231.550781 L 574.070312 93.371094 "/><path style=" stroke:none;fill-rule:nonzero;fill:#010f20;fill-opacity:1;" d="M 570.78125 119.050781 C 570.738281 119.050781 570.691406 119.050781 570.648438 119.042969 C 570.089844 118.96875 569.699219 118.457031 569.773438 117.902344 L 570.796875 110.230469 C 570.871094 109.675781 571.382812 109.285156 571.9375 109.355469 C 572.496094 109.433594 572.886719 109.941406 572.8125 110.496094 L 571.789062 118.167969 C 571.722656 118.679688 571.285156 119.050781 570.78125 119.050781 "/><path style=" stroke:none;fill-rule:nonzero;fill:#010f20;fill-opacity:1;" d="M 562.691406 179.714844 C 562.648438 179.714844 562.601562 179.710938 562.554688 179.703125 C 562 179.632812 561.605469 179.117188 561.679688 178.5625 L 568.390625 128.246094 C 568.46875 127.6875 568.980469 127.300781 569.535156 127.371094 C 570.089844 127.445312 570.480469 127.957031 570.40625 128.511719 L 563.695312 178.828125 C 563.628906 179.34375 563.191406 179.714844 562.691406 179.714844 "/><path style=" stroke:none;fill-rule:nonzero;fill:#a5e9ff;fill-opacity:1;" d="M 569.769531 88.460938 C 572.386719 88.460938 574.40625 90.765625 574.070312 93.371094 L 572.3125 104.972656 L 332.535156 104.933594 L 334.777344 90.777344 C 334.949219 89.453125 336.070312 88.460938 337.402344 88.460938 L 569.769531 88.460938 "/><path style=" stroke:none;fill-rule:nonzero;fill:#a5e9ff;fill-opacity:1;" d="M 434.980469 97.453125 C 435.191406 95.800781 433.90625 94.339844 432.242188 94.339844 L 346.34375 94.339844 C 344.953125 94.339844 343.78125 95.375 343.601562 96.75 C 343.394531 98.402344 344.679688 99.863281 346.34375 99.863281 L 432.242188 99.863281 C 433.628906 99.863281 434.804688 98.832031 434.980469 97.453125 "/><path style=" stroke:none;fill-rule:nonzero;fill:#a5e9ff;fill-opacity:1;" d="M 540.441406 97.453125 C 540.652344 95.800781 539.363281 94.339844 537.699219 94.339844 L 529.855469 94.339844 C 528.46875 94.339844 527.292969 95.375 527.117188 96.75 C 526.90625 98.402344 528.191406 99.863281 529.855469 99.863281 L 537.699219 99.863281 C 539.089844 99.863281 540.265625 98.832031 540.441406 97.453125 "/><path style=" stroke:none;fill-rule:nonzero;fill:#a5e9ff;fill-opacity:1;" d="M 550.945312 120.238281 C 551.09375 119.09375 550.203125 118.078125 549.054688 118.078125 L 433.214844 118.078125 C 432.628906 118.078125 432.132812 118.511719 432.058594 119.09375 L 424.726562 172.125 C 424.640625 172.753906 425.128906 173.316406 425.765625 173.316406 L 542.589844 173.316406 C 543.175781 173.316406 543.671875 172.878906 543.746094 172.296875 L 550.945312 120.238281 "/><path style=" stroke:none;fill-rule:nonzero;fill:#a5e9ff;fill-opacity:1;" d="M 408.894531 183.535156 L 408.898438 183.535156 Z M 335.65625 182.394531 C 335.585938 182.394531 335.519531 182.449219 335.511719 182.527344 L 331.40625 213.339844 L 403.769531 213.382812 C 403.84375 213.382812 403.90625 213.324219 403.917969 213.25 L 407.882812 183.40625 C 407.917969 183.144531 407.839844 182.894531 407.667969 182.699219 C 407.496094 182.503906 407.257812 182.394531 407 182.394531 Z M 403.769531 215.414062 L 331.441406 215.414062 C 330.847656 215.414062 330.28125 215.15625 329.886719 214.707031 C 329.496094 214.257812 329.3125 213.664062 329.394531 213.070312 L 333.496094 182.261719 C 333.632812 181.179688 334.5625 180.359375 335.65625 180.359375 L 407 180.359375 C 407.839844 180.359375 408.636719 180.722656 409.195312 181.355469 C 409.753906 181.988281 410.011719 182.832031 409.898438 183.667969 L 405.929688 213.511719 C 405.792969 214.59375 404.863281 215.414062 403.769531 215.414062 "/><path style=" stroke:none;fill-rule:nonzero;fill:#a5e9ff;fill-opacity:1;" d="M 418.832031 120.238281 L 418.839844 120.238281 Z M 344.371094 119.09375 C 344.296875 119.09375 344.230469 119.152344 344.222656 119.222656 L 336.886719 172.261719 L 410.476562 172.300781 C 410.550781 172.300781 410.609375 172.242188 410.625 172.167969 L 417.824219 120.101562 C 417.855469 119.84375 417.78125 119.589844 417.609375 119.394531 C 417.4375 119.199219 417.199219 119.09375 416.941406 119.09375 Z M 410.476562 174.332031 L 336.925781 174.332031 C 336.328125 174.332031 335.757812 174.074219 335.367188 173.625 C 334.972656 173.175781 334.792969 172.582031 334.871094 171.988281 L 342.207031 118.953125 C 342.34375 117.878906 343.277344 117.0625 344.371094 117.0625 L 416.941406 117.0625 C 417.777344 117.0625 418.578125 117.421875 419.132812 118.050781 C 419.6875 118.6875 419.945312 119.527344 419.839844 120.363281 L 419.839844 120.375 L 412.636719 172.4375 C 412.496094 173.515625 411.566406 174.332031 410.476562 174.332031 "/><path style=" stroke:none;fill-rule:nonzero;fill:#ffffff;fill-opacity:1;" d="M 561.007812 285.886719 L 572.621094 198.839844 C 572.859375 196.992188 571.421875 195.355469 569.5625 195.355469 L 404.484375 195.355469 C 403.539062 195.355469 402.742188 196.058594 402.617188 196.996094 L 390.753906 285.886719 L 561.007812 285.886719 "/><path style=" stroke:none;fill-rule:nonzero;fill:#a5e9ff;fill-opacity:1;" d="M 569.5625 195.355469 C 571.421875 195.355469 572.859375 196.992188 572.621094 198.839844 L 571.371094 207.082031 L 401.023438 207.054688 L 402.617188 196.996094 C 402.742188 196.058594 403.539062 195.355469 404.484375 195.355469 L 569.5625 195.355469 "/><path style=" stroke:none;fill-rule:nonzero;fill:#ffffff;fill-opacity:1;" d="M 390.832031 285.152344 L 389.304688 296.71875 C 389.171875 297.734375 389.964844 298.355469 390.992188 298.355469 L 557.660156 298.355469 C 558.605469 298.355469 559.402344 297.9375 559.523438 296.996094 L 561.085938 285.152344 L 390.832031 285.152344 "/><path style=" stroke:none;fill-rule:nonzero;fill:#010f20;fill-opacity:1;" d="M 397.785156 234.226562 C 397.742188 234.226562 397.695312 234.222656 397.648438 234.214844 C 397.09375 234.140625 396.703125 233.628906 396.777344 233.074219 L 397.71875 226.015625 C 397.796875 225.457031 398.308594 225.066406 398.863281 225.140625 C 399.417969 225.214844 399.808594 225.726562 399.734375 226.28125 L 398.792969 233.339844 C 398.722656 233.851562 398.289062 234.226562 397.785156 234.226562 "/><path style=" stroke:none;fill-rule:nonzero;fill:#010f20;fill-opacity:1;" d="M 399.539062 221.09375 C 399.492188 221.09375 399.449219 221.09375 399.402344 221.085938 C 398.847656 221.011719 398.457031 220.5 398.53125 219.945312 L 401.609375 196.863281 C 401.792969 195.425781 403.03125 194.335938 404.484375 194.335938 L 538.902344 194.335938 C 539.464844 194.335938 539.917969 194.792969 539.917969 195.351562 C 539.917969 195.914062 539.464844 196.371094 538.902344 196.371094 L 404.484375 196.371094 C 404.050781 196.371094 403.679688 196.695312 403.625 197.128906 L 400.542969 220.210938 C 400.476562 220.722656 400.039062 221.09375 399.539062 221.09375 "/><path style=" stroke:none;fill-rule:nonzero;fill:#010f20;fill-opacity:1;" d="M 565.324219 254.574219 C 565.28125 254.574219 565.234375 254.570312 565.1875 254.566406 C 564.632812 254.492188 564.238281 253.984375 564.3125 253.425781 L 569.742188 212.71875 C 569.820312 212.164062 570.328125 211.777344 570.886719 211.847656 C 571.441406 211.921875 571.832031 212.433594 571.757812 212.992188 L 566.328125 253.695312 C 566.261719 254.203125 565.824219 254.574219 565.324219 254.574219 "/><path style=" stroke:none;fill-rule:nonzero;fill:#010f20;fill-opacity:1;" d="M 561.957031 279.816406 C 561.910156 279.816406 561.863281 279.816406 561.820312 279.808594 C 561.265625 279.730469 560.875 279.222656 560.949219 278.667969 L 563.265625 261.3125 C 563.335938 260.757812 563.851562 260.367188 564.40625 260.441406 C 564.960938 260.515625 565.351562 261.027344 565.277344 261.582031 L 562.964844 278.933594 C 562.890625 279.445312 562.457031 279.816406 561.957031 279.816406 "/><path style=" stroke:none;fill-rule:nonzero;fill:#a5e9ff;fill-opacity:1;" d="M 531.597656 226.636719 L 432.511719 226.636719 L 433.179688 221.671875 L 532.261719 221.671875 L 531.597656 226.636719 "/><path style=" stroke:none;fill-rule:nonzero;fill:#2a91b3;fill-opacity:1;" d="M 552.976562 234.828125 L 452.023438 234.828125 L 452.691406 229.863281 L 553.648438 229.863281 L 552.976562 234.828125 "/><path style=" stroke:none;fill-rule:nonzero;fill:#a5e9ff;fill-opacity:1;" d="M 539.703125 243.019531 L 487.523438 243.019531 L 488.191406 238.054688 L 540.371094 238.054688 L 539.703125 243.019531 "/><path style=" stroke:none;fill-rule:nonzero;fill:#2a91b3;fill-opacity:1;" d="M 528.292969 251.210938 L 429.210938 251.210938 L 429.875 246.238281 L 528.960938 246.238281 L 528.292969 251.210938 "/><path style=" stroke:none;fill-rule:nonzero;fill:#2a91b3;fill-opacity:1;" d="M 549.675781 259.402344 L 448.722656 259.402344 L 449.386719 254.429688 L 550.34375 254.429688 L 549.675781 259.402344 "/><path style=" stroke:none;fill-rule:nonzero;fill:#a5e9ff;fill-opacity:1;" d="M 523.128906 275.777344 L 483.121094 275.777344 L 483.785156 270.8125 L 523.792969 270.8125 L 523.128906 275.777344 "/><path style=" stroke:none;fill-rule:nonzero;fill:#2a91b3;fill-opacity:1;" d="M 533.988281 283.964844 L 493.980469 283.964844 L 494.648438 278.996094 L 534.65625 278.996094 L 533.988281 283.964844 "/><path style=" stroke:none;fill-rule:nonzero;fill:#2a91b3;fill-opacity:1;" d="M 548.574219 267.585938 L 484.222656 267.585938 L 484.886719 262.621094 L 549.242188 262.621094 L 548.574219 267.585938 "/><path style=" stroke:none;fill-rule:nonzero;fill:#a5e9ff;fill-opacity:1;" d="M 416.570312 283.871094 L 406.917969 283.871094 L 407.558594 279.101562 L 417.210938 279.101562 L 416.570312 283.871094 "/><path style=" stroke:none;fill-rule:nonzero;fill:#a5e9ff;fill-opacity:1;" d="M 424.625 226.640625 L 414.566406 226.640625 L 415.234375 221.671875 L 425.292969 221.671875 L 424.625 226.640625 "/><path style=" stroke:none;fill-rule:nonzero;fill:#a5e9ff;fill-opacity:1;" d="M 425.636719 219.113281 L 415.578125 219.113281 L 416.246094 214.144531 L 426.304688 214.144531 L 425.636719 219.113281 "/><path style=" stroke:none;fill-rule:nonzero;fill:#a5e9ff;fill-opacity:1;" d="M 423.445312 234.828125 L 413.464844 234.828125 L 414.132812 229.863281 L 424.113281 229.863281 L 423.445312 234.828125 "/><path style=" stroke:none;fill-rule:nonzero;fill:#a5e9ff;fill-opacity:1;" d="M 422.007812 243.019531 L 412.53125 243.019531 L 413.199219 238.054688 L 422.675781 238.054688 L 422.007812 243.019531 "/><path style=" stroke:none;fill-rule:nonzero;fill:#a5e9ff;fill-opacity:1;" d="M 420.957031 251.210938 L 411.3125 251.210938 L 411.980469 246.242188 L 421.625 246.242188 L 420.957031 251.210938 "/><path style=" stroke:none;fill-rule:nonzero;fill:#a5e9ff;fill-opacity:1;" d="M 419.804688 259.402344 L 410.160156 259.402344 L 410.828125 254.433594 L 420.472656 254.433594 L 419.804688 259.402344 "/><path style=" stroke:none;fill-rule:nonzero;fill:#a5e9ff;fill-opacity:1;" d="M 417.886719 275.449219 L 408.125 275.449219 L 408.796875 270.484375 L 418.554688 270.484375 L 417.886719 275.449219 "/><path style=" stroke:none;fill-rule:nonzero;fill:#a5e9ff;fill-opacity:1;" d="M 418.75 267.261719 L 409.1875 267.261719 L 409.855469 262.292969 L 419.414062 262.292969 L 418.75 267.261719 "/><path style=" stroke:none;fill-rule:nonzero;fill:#a5e9ff;fill-opacity:1;" d="M 426.785156 223 C 424.796875 245.71875 404.769531 264.132812 382.050781 264.132812 C 359.332031 264.132812 342.527344 245.71875 344.511719 223 C 346.5 200.277344 366.53125 181.863281 389.25 181.863281 C 411.96875 181.863281 428.773438 200.277344 426.785156 223 "/><path style=" stroke:none;fill-rule:nonzero;fill:#010f20;fill-opacity:1;" d="M 389.25 182.878906 C 367.082031 182.878906 347.46875 200.917969 345.527344 223.085938 C 344.585938 233.816406 347.886719 243.894531 354.816406 251.453125 C 361.710938 258.976562 371.382812 263.117188 382.050781 263.117188 C 404.222656 263.117188 423.835938 245.082031 425.773438 222.910156 C 426.714844 212.179688 423.414062 202.105469 416.480469 194.542969 C 409.59375 187.019531 399.921875 182.878906 389.25 182.878906 Z M 382.050781 265.152344 C 370.804688 265.152344 360.601562 260.773438 353.320312 252.828125 C 346 244.839844 342.511719 234.214844 343.5 222.910156 C 345.53125 199.71875 366.054688 180.84375 389.25 180.84375 C 400.496094 180.84375 410.699219 185.222656 417.980469 193.167969 C 425.300781 201.15625 428.789062 211.78125 427.796875 223.085938 C 425.769531 246.28125 405.25 265.152344 382.050781 265.152344 "/><path style=" stroke:none;fill-rule:nonzero;fill:#ffffff;fill-opacity:1;" d="M 359.390625 222.933594 L 372.933594 228.253906 L 372.429688 234.023438 L 353.328125 225.164062 L 353.726562 220.582031 L 374.378906 211.75 L 373.875 217.519531 L 359.390625 222.933594 "/><path style=" stroke:none;fill-rule:nonzero;fill:#ffffff;fill-opacity:1;" d="M 379.761719 240.886719 L 375.226562 240.886719 L 392.117188 203.339844 L 396.652344 203.339844 L 379.761719 240.886719 "/><path style=" stroke:none;fill-rule:nonzero;fill:#ffffff;fill-opacity:1;" d="M 413.714844 222.8125 L 399.507812 217.425781 L 400.003906 211.75 L 419.75 220.582031 L 419.347656 225.164062 L 398.054688 233.996094 L 398.550781 228.320312 L 413.714844 222.8125 "/><path style=" stroke:none;fill-rule:nonzero;fill:#010f20;fill-opacity:1;" d="M 438.828125 86.445312 C 442.246094 84.800781 445.898438 84.171875 449.980469 85.414062 C 453.457031 87.503906 452.972656 90.660156 450.601562 90.902344 C 446.375 88.949219 442.730469 89.40625 439.488281 91.546875 L 438.828125 86.445312 "/><path style=" stroke:none;fill-rule:nonzero;fill:#010f20;fill-opacity:1;" d="M 443.546875 112.777344 C 446.960938 111.132812 450.613281 110.507812 454.695312 111.746094 C 458.171875 113.835938 457.691406 116.992188 455.316406 117.234375 C 451.09375 115.285156 447.445312 115.738281 444.203125 117.878906 L 443.546875 112.777344 "/><path style=" stroke:none;fill-rule:nonzero;fill:#010f20;fill-opacity:1;" d="M 397.972656 86.382812 C 394.652344 84.550781 391.046875 83.714844 386.898438 84.726562 C 383.308594 86.613281 383.613281 89.796875 385.96875 90.175781 C 390.296875 88.460938 393.910156 89.121094 397.027344 91.441406 L 397.972656 86.382812 "/><path style=" stroke:none;fill-rule:nonzero;fill:#010f20;fill-opacity:1;" d="M 391.78125 112.40625 C 388.460938 110.574219 384.851562 109.742188 380.707031 110.75 C 377.117188 112.640625 377.417969 115.820312 379.777344 116.199219 C 384.105469 114.488281 387.722656 115.148438 390.835938 117.464844 L 391.78125 112.40625 "/><path style=" stroke:none;fill-rule:nonzero;fill:#a5e9ff;fill-opacity:1;" d="M 443.644531 106.238281 C 442.941406 131.238281 430.941406 151.183594 416.839844 150.785156 C 402.742188 150.386719 391.886719 129.796875 392.59375 104.796875 C 393.296875 79.796875 406.269531 68.066406 420.367188 68.464844 C 434.464844 68.859375 444.351562 81.238281 443.644531 106.238281 "/><path style=" stroke:none;fill-rule:nonzero;fill:#010f20;fill-opacity:1;" d="M 443.644531 106.238281 C 442.941406 131.238281 430.941406 151.183594 416.839844 150.785156 C 402.742188 150.386719 391.886719 129.796875 392.59375 104.796875 C 393.296875 79.796875 406.269531 68.066406 420.367188 68.464844 C 434.464844 68.859375 444.351562 81.238281 443.644531 106.238281 "/><path style=" stroke:none;fill-rule:nonzero;fill:#2a91b3;fill-opacity:1;" d="M 397.867188 83.789062 C 405.519531 79.195312 413.742188 77.054688 422.722656 78.148438 C 418.375 103.792969 419.890625 137.28125 406.34375 150.613281 C 405.445312 151.5 403.933594 151.230469 403.453125 150.0625 C 394.414062 128.027344 390.566406 105.953125 397.867188 83.789062 "/><path style=" stroke:none;fill-rule:nonzero;fill:#2a91b3;fill-opacity:1;" d="M 437.527344 83.894531 C 429.941406 79.203125 421.742188 76.949219 412.75 77.921875 C 416.757812 103.617188 414.796875 137.089844 428.160156 150.597656 C 429.050781 151.5 430.566406 151.25 431.058594 150.085938 C 440.394531 128.175781 444.535156 106.15625 437.527344 83.894531 "/><path style=" stroke:none;fill-rule:nonzero;fill:#a5e9ff;fill-opacity:1;" d="M 398.015625 82.128906 C 406.382812 79.027344 414.863281 78.4375 423.484375 81.167969 C 414.480469 105.566406 409.796875 138.769531 394.027344 149.371094 C 392.980469 150.074219 391.546875 149.53125 391.289062 148.296875 C 386.464844 124.972656 386.753906 102.566406 398.015625 82.128906 "/><path style=" stroke:none;fill-rule:nonzero;fill:#a5e9ff;fill-opacity:1;" d="M 439.875 83.21875 C 431.539062 80.027344 423.070312 79.347656 414.417969 81.984375 C 423.164062 106.480469 427.496094 139.726562 443.15625 150.496094 C 444.199219 151.214844 445.636719 150.683594 445.90625 149.449219 C 450.976562 126.179688 450.921875 103.773438 439.875 83.21875 "/><path style=" stroke:none;fill-rule:nonzero;fill:#010f20;fill-opacity:1;" d="M 440.976562 85.207031 C 437.1875 74.25 429.699219 68.726562 420.367188 68.464844 C 410.828125 68.195312 401.808594 73.484375 396.75 84.675781 C 408.625 77.863281 430.945312 80.933594 440.976562 85.207031 "/><path style=" stroke:none;fill-rule:nonzero;fill:#010f20;fill-opacity:1;" d="M 416.210938 70.054688 C 416.128906 70.054688 416.046875 70.046875 415.964844 70.027344 C 415.417969 69.890625 415.089844 69.339844 415.226562 68.792969 C 416.246094 64.742188 416 58.671875 413.144531 54.242188 C 411.523438 51.726562 409.328125 50.207031 406.625 49.71875 C 403.582031 49.167969 400.277344 50.589844 398.945312 53.023438 C 398.292969 54.207031 398.261719 55.800781 398.859375 56.898438 C 399.296875 57.699219 399.996094 58.140625 400.9375 58.203125 C 401.5 58.242188 401.925781 58.726562 401.882812 59.289062 C 401.84375 59.847656 401.359375 60.265625 400.800781 60.230469 C 399.167969 60.117188 397.84375 59.285156 397.078125 57.875 C 396.148438 56.175781 396.179688 53.835938 397.164062 52.046875 C 398.925781 48.828125 403.054688 47.007812 406.988281 47.71875 C 410.222656 48.300781 412.941406 50.179688 414.855469 53.140625 C 418.039062 58.082031 418.328125 64.8125 417.199219 69.289062 C 417.082031 69.75 416.667969 70.054688 416.210938 70.054688 "/><path style=" stroke:none;fill-rule:nonzero;fill:#010f20;fill-opacity:1;" d="M 424.996094 75.191406 C 424.984375 75.191406 424.972656 75.191406 424.964844 75.191406 C 424.402344 75.171875 423.960938 74.707031 423.980469 74.144531 C 424.140625 69.0625 424.796875 64.585938 426.054688 60.054688 C 426.90625 56.984375 429.515625 47.640625 438.027344 48.117188 C 440.871094 48.273438 443.03125 49.628906 444.105469 51.941406 C 445.25 54.398438 444.910156 57.527344 443.261719 59.722656 C 441.777344 61.695312 439.464844 62.59375 436.914062 62.203125 C 436.359375 62.117188 435.976562 61.597656 436.0625 61.042969 C 436.148438 60.488281 436.671875 60.109375 437.222656 60.195312 C 439.035156 60.476562 440.601562 59.875 441.632812 58.503906 C 442.828125 56.914062 443.085938 54.570312 442.261719 52.796875 C 441.734375 51.667969 440.554688 50.292969 437.910156 50.148438 C 433.210938 49.902344 430.0625 53.210938 428.011719 60.597656 C 426.785156 65.03125 426.167969 69.226562 426.011719 74.207031 C 425.996094 74.757812 425.542969 75.191406 424.996094 75.191406 "/><path style=" stroke:none;fill-rule:nonzero;fill:#010f20;fill-opacity:1;" d="M 522.070312 269.59375 C 519.9375 268.144531 518.316406 266.21875 517.648438 263.394531 C 517.683594 260.636719 519.703125 259.835938 520.660156 261.148438 C 520.960938 264.300781 522.476562 266.289062 524.847656 267.460938 L 522.070312 269.59375 "/><path style=" stroke:none;fill-rule:nonzero;fill:#010f20;fill-opacity:1;" d="M 535.929688 257.800781 C 533.792969 256.355469 532.171875 254.425781 531.503906 251.601562 C 531.539062 248.84375 533.558594 248.042969 534.515625 249.355469 C 534.8125 252.507812 536.332031 254.492188 538.703125 255.664062 L 535.929688 257.800781 "/><path style=" stroke:none;fill-rule:nonzero;fill:#010f20;fill-opacity:1;" d="M 536.035156 293.617188 C 536.097656 296.195312 536.84375 298.601562 538.855469 300.691406 C 541.195312 302.152344 542.960938 300.886719 542.375 299.371094 C 539.886719 297.414062 539.035156 295.0625 539.332031 292.4375 L 536.035156 293.617188 "/><path style=" stroke:none;fill-rule:nonzero;fill:#010f20;fill-opacity:1;" d="M 553.449219 288.339844 C 553.507812 290.917969 554.253906 293.320312 556.269531 295.414062 C 558.605469 296.875 560.371094 295.605469 559.785156 294.09375 C 557.296875 292.136719 556.445312 289.789062 556.742188 287.164062 L 553.449219 288.339844 "/><path style=" stroke:none;fill-rule:nonzero;fill:#a5e9ff;fill-opacity:1;" d="M 532.054688 259.984375 C 546.984375 251.828125 562.8125 252.046875 567.40625 260.46875 C 572.007812 268.886719 563.628906 282.320312 548.699219 290.472656 C 533.769531 298.621094 522.429688 295.023438 517.835938 286.601562 C 513.242188 278.179688 517.121094 268.132812 532.054688 259.984375 "/><path style=" stroke:none;fill-rule:nonzero;fill:#010f20;fill-opacity:1;" d="M 532.054688 259.984375 C 546.984375 251.828125 562.8125 252.046875 567.40625 260.46875 C 572.007812 268.886719 563.628906 282.320312 548.699219 290.472656 C 533.769531 298.621094 522.429688 295.023438 517.835938 286.601562 C 513.242188 278.179688 517.121094 268.132812 532.054688 259.984375 "/><path style=" stroke:none;fill-rule:nonzero;fill:#2a91b3;fill-opacity:1;" d="M 534.542969 294.566406 C 529.226562 291.648438 525.152344 287.546875 522.71875 281.898438 C 539.273438 275.667969 558.433594 263.300781 570.902344 266.695312 C 571.730469 266.917969 572.089844 267.902344 571.570312 268.582031 C 561.71875 281.441406 550.070312 291.265625 534.542969 294.566406 "/><path style=" stroke:none;fill-rule:nonzero;fill:#2a91b3;fill-opacity:1;" d="M 521.019531 271.230469 C 520.863281 277.296875 522.347656 282.882812 526 287.832031 C 539.726562 276.675781 560.066406 266.359375 563.417969 253.882812 C 563.644531 253.050781 562.980469 252.246094 562.125 252.355469 C 546.054688 254.375 531.699219 259.488281 521.019531 271.230469 "/><path style=" stroke:none;fill-rule:nonzero;fill:#a5e9ff;fill-opacity:1;" d="M 533.519531 295.050781 C 528.832031 291.195312 525.582031 286.417969 524.230469 280.417969 C 541.648438 277.347656 562.761719 268.722656 574.390625 274.355469 C 575.167969 274.730469 575.335938 275.757812 574.699219 276.332031 C 562.648438 287.15625 549.390625 294.664062 533.519531 295.050781 "/><path style=" stroke:none;fill-rule:nonzero;fill:#a5e9ff;fill-opacity:1;" d="M 519.816406 270.085938 C 520.800781 276.074219 523.300781 281.285156 527.816406 285.464844 C 539.214844 271.929688 557.261719 257.996094 558.222656 245.105469 C 558.289062 244.25 557.484375 243.582031 556.664062 243.847656 C 541.257812 248.839844 528.113281 256.550781 519.816406 270.085938 "/><path style=" stroke:none;fill-rule:nonzero;fill:#010f20;fill-opacity:1;" d="M 520.613281 268.757812 C 515.46875 274.734375 514.792969 281.023438 517.835938 286.601562 C 520.945312 292.296875 527.144531 295.78125 535.449219 294.921875 C 527.382812 290.277344 521.535156 276.113281 520.613281 268.757812 "/><path style=" stroke:none;fill-rule:nonzero;fill:#010f20;fill-opacity:1;" d="M 516.007812 306.183594 C 513.425781 306.183594 510.886719 304.308594 509.921875 301.679688 C 509.128906 299.492188 509.304688 297.160156 510.433594 294.941406 C 512.285156 291.292969 516.230469 288.757812 519.316406 287.867188 C 519.855469 287.707031 520.417969 288.023438 520.574219 288.5625 C 520.730469 289.101562 520.417969 289.660156 519.882812 289.820312 C 517.214844 290.589844 513.824219 292.753906 512.242188 295.863281 C 511.367188 297.59375 511.226562 299.316406 511.835938 300.980469 C 512.511719 302.835938 514.351562 304.1875 516.097656 304.148438 C 516.910156 304.128906 517.746094 303.667969 518.128906 303.03125 C 518.394531 302.59375 518.40625 302.152344 518.171875 301.671875 C 517.925781 301.167969 518.128906 300.5625 518.632812 300.308594 C 519.132812 300.0625 519.742188 300.269531 519.996094 300.773438 C 520.539062 301.871094 520.496094 303.046875 519.875 304.078125 C 519.125 305.316406 517.664062 306.140625 516.148438 306.179688 C 516.101562 306.183594 516.054688 306.183594 516.007812 306.183594 "/><path style=" stroke:none;fill-rule:nonzero;fill:#010f20;fill-opacity:1;" d="M 506.367188 287.167969 C 503.867188 287.167969 501.101562 286.390625 499.542969 283.34375 C 498.617188 281.535156 498.683594 279.636719 499.726562 278.128906 C 500.847656 276.519531 502.925781 275.589844 504.898438 275.820312 C 506.683594 276.03125 508.101562 277.15625 508.789062 278.902344 C 508.996094 279.429688 508.738281 280.019531 508.214844 280.222656 C 507.695312 280.429688 507.105469 280.171875 506.898438 279.648438 C 506.371094 278.308594 505.390625 277.925781 504.660156 277.839844 C 503.429688 277.699219 502.089844 278.292969 501.398438 279.289062 C 500.777344 280.183594 500.761719 281.261719 501.351562 282.417969 C 502.730469 285.109375 505.640625 285.769531 510.507812 284.488281 C 513.511719 283.699219 516.164062 282.632812 519.121094 281.03125 C 519.617188 280.761719 520.230469 280.945312 520.5 281.4375 C 520.765625 281.933594 520.582031 282.550781 520.089844 282.816406 C 517.027344 284.476562 514.148438 285.632812 511.027344 286.453125 C 510.085938 286.703125 508.308594 287.167969 506.367188 287.167969 "/><path style=" stroke:none;fill-rule:nonzero;fill:#a5e9ff;fill-opacity:1;" d="M 144.144531 133.558594 C 137.59375 133.558594 132.28125 128.25 132.28125 121.695312 C 132.28125 115.144531 137.59375 109.835938 144.144531 109.835938 C 150.695312 109.835938 156.007812 115.144531 156.007812 121.695312 C 156.007812 128.25 150.695312 133.558594 144.144531 133.558594 Z M 166.964844 116.671875 C 166.925781 116.394531 166.699219 116.183594 166.421875 116.160156 L 162.382812 115.832031 C 162.148438 115.8125 161.949219 115.652344 161.871094 115.429688 C 161.605469 114.679688 161.300781 113.953125 160.949219 113.25 C 160.84375 113.042969 160.867188 112.792969 161.015625 112.605469 L 163.578125 109.472656 C 163.753906 109.253906 163.757812 108.945312 163.585938 108.722656 L 161.398438 105.929688 C 161.226562 105.707031 160.925781 105.636719 160.671875 105.757812 L 157.007812 107.492188 C 156.792969 107.59375 156.542969 107.558594 156.363281 107.402344 C 155.765625 106.890625 155.136719 106.417969 154.480469 105.984375 C 154.28125 105.855469 154.179688 105.625 154.214844 105.390625 L 154.867188 101.386719 C 154.910156 101.109375 154.757812 100.839844 154.5 100.734375 L 151.210938 99.410156 C 150.949219 99.304688 150.652344 99.394531 150.496094 99.625 L 148.191406 102.957031 C 148.058594 103.148438 147.824219 103.242188 147.59375 103.199219 C 146.824219 103.058594 146.039062 102.960938 145.246094 102.921875 C 145.011719 102.90625 144.800781 102.757812 144.71875 102.535156 L 143.285156 98.742188 C 143.183594 98.484375 142.917969 98.328125 142.640625 98.363281 L 139.128906 98.863281 C 138.851562 98.902344 138.640625 99.128906 138.617188 99.40625 L 138.285156 103.449219 C 138.265625 103.683594 138.109375 103.882812 137.886719 103.960938 C 137.136719 104.222656 136.410156 104.53125 135.710938 104.882812 C 135.5 104.988281 135.246094 104.964844 135.0625 104.816406 L 131.929688 102.253906 C 131.714844 102.078125 131.402344 102.074219 131.183594 102.246094 L 128.390625 104.433594 C 128.171875 104.605469 128.097656 104.90625 128.21875 105.160156 L 129.953125 108.828125 C 130.054688 109.042969 130.015625 109.292969 129.863281 109.46875 C 129.351562 110.070312 128.878906 110.699219 128.445312 111.359375 C 128.316406 111.554688 128.085938 111.660156 127.851562 111.621094 L 123.851562 110.972656 C 123.574219 110.925781 123.304688 111.078125 123.199219 111.339844 L 121.875 114.632812 C 121.769531 114.890625 121.859375 115.1875 122.089844 115.347656 L 125.417969 117.652344 C 125.609375 117.785156 125.703125 118.019531 125.660156 118.253906 C 125.519531 119.019531 125.425781 119.804688 125.378906 120.597656 C 125.367188 120.835938 125.21875 121.042969 125 121.125 L 121.210938 122.566406 C 120.949219 122.664062 120.789062 122.929688 120.828125 123.207031 L 121.324219 126.722656 C 121.363281 126.996094 121.589844 127.210938 121.871094 127.234375 L 125.90625 127.5625 C 126.144531 127.582031 126.34375 127.738281 126.421875 127.960938 C 126.683594 128.714844 126.992188 129.441406 127.339844 130.140625 C 127.445312 130.351562 127.421875 130.605469 127.273438 130.785156 L 124.710938 133.925781 C 124.535156 134.140625 124.53125 134.453125 124.707031 134.667969 L 126.890625 137.464844 C 127.0625 137.683594 127.367188 137.757812 127.617188 137.636719 L 131.28125 135.902344 C 131.496094 135.800781 131.746094 135.839844 131.925781 135.992188 C 132.523438 136.5 133.152344 136.976562 133.8125 137.410156 C 134.007812 137.539062 134.113281 137.769531 134.074219 138.003906 L 133.425781 142.007812 C 133.378906 142.285156 133.53125 142.554688 133.789062 142.65625 L 137.078125 143.984375 C 137.339844 144.089844 137.636719 144 137.796875 143.769531 L 140.097656 140.4375 C 140.230469 140.242188 140.464844 140.152344 140.699219 140.195312 C 141.464844 140.339844 142.25 140.429688 143.042969 140.476562 C 143.28125 140.488281 143.488281 140.636719 143.570312 140.855469 L 145.007812 144.648438 C 145.105469 144.910156 145.375 145.066406 145.648438 145.027344 L 149.160156 144.53125 C 149.4375 144.492188 149.652344 144.265625 149.671875 143.988281 L 150.003906 139.945312 C 150.023438 139.710938 150.179688 139.507812 150.402344 139.433594 C 151.152344 139.167969 151.882812 138.863281 152.582031 138.511719 C 152.789062 138.40625 153.042969 138.429688 153.226562 138.582031 L 156.359375 141.140625 C 156.574219 141.316406 156.886719 141.320312 157.105469 141.148438 L 159.898438 138.960938 C 160.121094 138.785156 160.191406 138.484375 160.070312 138.234375 L 158.335938 134.566406 C 158.234375 134.351562 158.273438 134.101562 158.425781 133.925781 C 158.9375 133.324219 159.410156 132.695312 159.84375 132.035156 C 159.972656 131.839844 160.203125 131.734375 160.4375 131.769531 L 164.4375 132.421875 C 164.714844 132.46875 164.984375 132.3125 165.089844 132.054688 L 166.414062 128.765625 C 166.519531 128.503906 166.429688 128.207031 166.199219 128.046875 L 162.871094 125.742188 C 162.679688 125.609375 162.585938 125.375 162.628906 125.144531 C 162.769531 124.375 162.863281 123.589844 162.910156 122.792969 C 162.921875 122.558594 163.070312 122.351562 163.292969 122.265625 L 167.078125 120.832031 C 167.34375 120.730469 167.5 120.460938 167.460938 120.1875 L 166.964844 116.671875 "/><path style=" stroke:none;fill-rule:nonzero;fill:#a5e9ff;fill-opacity:1;" d="M 204.304688 98.21875 C 195.03125 98.21875 187.515625 90.699219 187.515625 81.429688 C 187.515625 72.15625 195.03125 64.636719 204.304688 64.636719 C 213.574219 64.636719 221.09375 72.15625 221.09375 81.429688 C 221.09375 90.699219 213.574219 98.21875 204.304688 98.21875 Z M 236.597656 74.316406 C 236.539062 73.925781 236.222656 73.621094 235.828125 73.589844 L 230.113281 73.125 C 229.78125 73.097656 229.5 72.875 229.386719 72.558594 C 229.015625 71.496094 228.582031 70.46875 228.082031 69.476562 C 227.9375 69.175781 227.96875 68.824219 228.179688 68.5625 L 231.804688 64.125 C 232.054688 63.816406 232.058594 63.378906 231.8125 63.066406 L 228.722656 59.109375 C 228.476562 58.796875 228.050781 58.699219 227.691406 58.867188 L 222.507812 61.328125 C 222.207031 61.46875 221.847656 61.414062 221.597656 61.199219 C 220.75 60.472656 219.859375 59.804688 218.925781 59.191406 C 218.648438 59.007812 218.5 58.683594 218.554688 58.351562 L 219.476562 52.683594 C 219.539062 52.292969 219.324219 51.910156 218.957031 51.761719 L 214.304688 49.882812 C 213.933594 49.738281 213.511719 49.863281 213.289062 50.191406 L 210.03125 54.902344 C 209.839844 55.179688 209.507812 55.308594 209.179688 55.25 C 208.09375 55.046875 206.984375 54.914062 205.859375 54.851562 C 205.527344 54.832031 205.234375 54.625 205.117188 54.3125 L 203.082031 48.945312 C 202.941406 48.574219 202.566406 48.351562 202.171875 48.40625 L 197.203125 49.113281 C 196.808594 49.167969 196.507812 49.484375 196.476562 49.878906 L 196.011719 55.601562 C 195.984375 55.933594 195.761719 56.214844 195.445312 56.328125 C 194.382812 56.699219 193.355469 57.136719 192.363281 57.628906 C 192.066406 57.78125 191.710938 57.746094 191.453125 57.535156 L 187.019531 53.910156 C 186.710938 53.660156 186.273438 53.652344 185.957031 53.898438 L 182.007812 56.996094 C 181.695312 57.242188 181.59375 57.667969 181.761719 58.027344 L 184.21875 63.214844 C 184.359375 63.515625 184.308594 63.871094 184.09375 64.125 C 183.367188 64.96875 182.695312 65.863281 182.082031 66.796875 C 181.898438 67.074219 181.574219 67.222656 181.246094 67.167969 L 175.582031 66.246094 C 175.191406 66.1875 174.808594 66.398438 174.660156 66.769531 L 172.785156 71.429688 C 172.636719 71.792969 172.761719 72.214844 173.089844 72.441406 L 177.796875 75.703125 C 178.074219 75.886719 178.203125 76.222656 178.144531 76.546875 C 177.941406 77.640625 177.808594 78.75 177.746094 79.871094 C 177.726562 80.207031 177.519531 80.5 177.207031 80.617188 L 171.84375 82.652344 C 171.472656 82.792969 171.25 83.171875 171.304688 83.5625 L 172.007812 88.539062 C 172.0625 88.929688 172.382812 89.230469 172.777344 89.261719 L 178.492188 89.730469 C 178.824219 89.757812 179.105469 89.980469 179.21875 90.296875 C 179.589844 91.359375 180.027344 92.386719 180.523438 93.378906 C 180.671875 93.675781 180.636719 94.03125 180.425781 94.289062 L 176.800781 98.730469 C 176.550781 99.035156 176.546875 99.476562 176.789062 99.789062 L 179.882812 103.742188 C 180.128906 104.054688 180.554688 104.15625 180.914062 103.988281 L 186.097656 101.53125 C 186.402344 101.386719 186.753906 101.4375 187.007812 101.65625 C 187.855469 102.378906 188.746094 103.050781 189.675781 103.664062 C 189.957031 103.847656 190.105469 104.175781 190.050781 104.503906 L 189.128906 110.167969 C 189.066406 110.5625 189.28125 110.945312 189.648438 111.089844 L 194.304688 112.96875 C 194.671875 113.117188 195.09375 112.992188 195.316406 112.664062 L 198.574219 107.949219 C 198.765625 107.675781 199.09375 107.542969 199.425781 107.605469 C 200.511719 107.808594 201.621094 107.9375 202.746094 108.003906 C 203.078125 108.019531 203.371094 108.230469 203.488281 108.542969 L 205.523438 113.910156 C 205.664062 114.277344 206.039062 114.503906 206.433594 114.449219 L 211.402344 113.742188 C 211.792969 113.6875 212.09375 113.367188 212.128906 112.972656 L 212.59375 107.253906 C 212.621094 106.921875 212.84375 106.636719 213.160156 106.527344 C 214.222656 106.152344 215.25 105.71875 216.242188 105.222656 C 216.539062 105.074219 216.894531 105.105469 217.152344 105.320312 L 221.585938 108.945312 C 221.894531 109.191406 222.335938 109.199219 222.648438 108.953125 L 226.597656 105.859375 C 226.910156 105.613281 227.011719 105.1875 226.839844 104.828125 L 224.386719 99.640625 C 224.246094 99.335938 224.296875 98.984375 224.511719 98.730469 C 225.238281 97.882812 225.90625 96.988281 226.523438 96.058594 C 226.707031 95.777344 227.03125 95.632812 227.359375 95.6875 L 233.023438 96.605469 C 233.414062 96.667969 233.796875 96.453125 233.945312 96.085938 L 235.820312 91.425781 C 235.96875 91.0625 235.84375 90.640625 235.515625 90.414062 L 230.808594 87.15625 C 230.53125 86.964844 230.398438 86.632812 230.460938 86.304688 C 230.664062 85.214844 230.792969 84.105469 230.859375 82.980469 C 230.878906 82.644531 231.085938 82.355469 231.398438 82.234375 L 236.761719 80.199219 C 237.132812 80.0625 237.355469 79.683594 237.300781 79.289062 L 236.597656 74.316406 "/><path style=" stroke:none;fill-rule:nonzero;fill:#ffffff;fill-opacity:1;" d="M 281.203125 113.171875 C 277.746094 113.171875 274.933594 115.980469 274.933594 119.4375 C 274.933594 122.894531 277.746094 125.707031 281.203125 125.707031 C 284.660156 125.707031 287.472656 122.894531 287.472656 119.4375 C 287.472656 115.980469 284.660156 113.171875 281.203125 113.171875 Z M 281.203125 127.738281 C 276.628906 127.738281 272.90625 124.015625 272.90625 119.4375 C 272.90625 114.863281 276.628906 111.136719 281.203125 111.136719 C 285.78125 111.136719 289.503906 114.863281 289.503906 119.4375 C 289.503906 124.015625 285.78125 127.738281 281.203125 127.738281 "/><path style=" stroke:none;fill-rule:nonzero;fill:#ffffff;fill-opacity:1;" d="M 298.4375 84.234375 C 293.511719 84.234375 289.503906 88.242188 289.503906 93.171875 C 289.503906 98.097656 293.511719 102.105469 298.4375 102.105469 C 303.363281 102.105469 307.375 98.097656 307.375 93.171875 C 307.375 88.242188 303.363281 84.234375 298.4375 84.234375 Z M 298.4375 104.136719 C 292.390625 104.136719 287.472656 99.21875 287.472656 93.171875 C 287.472656 87.121094 292.390625 82.199219 298.4375 82.199219 C 304.488281 82.199219 309.410156 87.121094 309.410156 93.171875 C 309.410156 99.21875 304.488281 104.136719 298.4375 104.136719 "/><path style=" stroke:none;fill-rule:nonzero;fill:#ffffff;fill-opacity:1;" d="M 283.648438 53.332031 L 282.226562 72.113281 L 299.207031 63.957031 Z M 281.078125 74.808594 C 280.878906 74.808594 280.679688 74.75 280.503906 74.628906 C 280.207031 74.425781 280.039062 74.078125 280.066406 73.714844 L 281.757812 51.421875 C 281.785156 51.058594 282 50.738281 282.328125 50.582031 C 282.65625 50.425781 283.042969 50.453125 283.34375 50.660156 L 301.804688 63.269531 C 302.105469 63.472656 302.269531 63.824219 302.242188 64.1875 C 302.214844 64.546875 301.996094 64.867188 301.671875 65.027344 L 281.519531 74.707031 C 281.378906 74.773438 281.230469 74.808594 281.078125 74.808594 "/><path style=" stroke:none;fill-rule:nonzero;fill:#ffffff;fill-opacity:1;" d="M 484.222656 444.824219 C 483.933594 444.824219 483.648438 444.699219 483.445312 444.46875 C 483.082031 444.039062 483.136719 443.398438 483.5625 443.035156 C 529.953125 403.511719 549.792969 337.433594 549.992188 336.769531 C 550.144531 336.230469 550.710938 335.925781 551.25 336.085938 C 551.789062 336.238281 552.097656 336.804688 551.9375 337.34375 C 551.742188 338.015625 531.742188 404.660156 484.878906 444.582031 C 484.6875 444.746094 484.453125 444.824219 484.222656 444.824219 "/><path style=" stroke:none;fill-rule:nonzero;fill:#ffffff;fill-opacity:1;" d="M 486.261719 424.511719 C 486.007812 424.511719 485.75 424.414062 485.550781 424.222656 C 485.152344 423.832031 485.140625 423.1875 485.535156 422.785156 C 509.460938 398.183594 524.941406 367.769531 533.714844 346.589844 C 533.929688 346.070312 534.527344 345.828125 535.042969 346.039062 C 535.5625 346.257812 535.808594 346.847656 535.59375 347.367188 C 526.753906 368.714844 511.140625 399.367188 486.988281 424.203125 C 486.792969 424.410156 486.523438 424.511719 486.261719 424.511719 "/><path style=" stroke:none;fill-rule:nonzero;fill:#ffffff;fill-opacity:1;" d="M 87.746094 105.144531 C 87.523438 105.144531 87.296875 105.074219 87.113281 104.921875 C 86.671875 104.574219 86.601562 103.929688 86.949219 103.492188 C 87.265625 103.101562 119.007812 63.796875 170.917969 43.003906 C 171.441406 42.796875 172.03125 43.050781 172.242188 43.570312 C 172.449219 44.09375 172.195312 44.679688 171.675781 44.890625 C 120.277344 65.472656 88.851562 104.371094 88.539062 104.761719 C 88.339844 105.011719 88.042969 105.144531 87.746094 105.144531 "/><path style=" stroke:none;fill-rule:nonzero;fill:#ffffff;fill-opacity:1;" d="M 465.597656 54.832031 C 490.664062 79.800781 490.738281 120.363281 465.773438 145.425781 C 440.800781 170.488281 400.242188 170.570312 375.179688 145.597656 C 350.117188 120.632812 350.035156 80.074219 375.007812 55.007812 C 399.972656 29.941406 440.53125 29.863281 465.597656 54.832031 Z M 370.550781 50.570312 C 343.132812 78.097656 343.21875 122.636719 370.746094 150.054688 C 398.265625 177.472656 442.804688 177.386719 470.222656 149.859375 C 497.640625 122.335938 497.554688 77.800781 470.03125 50.382812 C 442.507812 22.960938 397.96875 23.050781 370.550781 50.570312 "/><path style=" stroke:none;fill-rule:nonzero;fill:#010f20;fill-opacity:1;" d="M 420.390625 37.175781 C 420.351562 37.175781 420.308594 37.175781 420.265625 37.175781 C 403.425781 37.207031 387.605469 43.792969 375.722656 55.726562 C 363.839844 67.65625 357.3125 83.5 357.347656 100.335938 C 357.378906 117.179688 363.964844 132.996094 375.894531 144.882812 C 400.523438 169.414062 440.519531 169.335938 465.050781 144.710938 C 489.582031 120.078125 489.507812 80.085938 464.878906 55.554688 C 452.980469 43.699219 437.183594 37.175781 420.390625 37.175781 Z M 420.386719 165.261719 C 403.765625 165.261719 387.140625 158.953125 374.460938 146.320312 C 362.144531 134.050781 355.347656 117.722656 355.3125 100.34375 C 355.28125 82.960938 362.019531 66.605469 374.285156 54.289062 C 399.609375 28.867188 440.890625 28.789062 466.316406 54.113281 C 491.734375 79.4375 491.816406 120.71875 466.488281 146.140625 C 453.800781 158.882812 437.089844 165.261719 420.386719 165.261719 Z M 370.550781 50.570312 L 370.558594 50.570312 Z M 420.390625 30.890625 C 420.34375 30.890625 420.300781 30.890625 420.253906 30.890625 C 401.734375 30.925781 384.339844 38.167969 371.273438 51.289062 C 344.292969 78.375 344.378906 122.351562 371.460938 149.332031 C 398.542969 176.3125 442.527344 176.226562 469.507812 149.140625 C 482.574219 136.023438 489.753906 118.601562 489.714844 100.082031 C 489.675781 81.566406 482.433594 64.171875 469.316406 51.097656 C 456.230469 38.066406 438.859375 30.890625 420.390625 30.890625 Z M 420.386719 171.542969 C 402.15625 171.542969 383.929688 164.625 370.027344 150.769531 C 342.148438 123.003906 342.0625 77.730469 369.832031 49.855469 C 383.285156 36.351562 401.191406 28.894531 420.25 28.859375 C 420.296875 28.855469 420.34375 28.855469 420.390625 28.855469 C 439.398438 28.855469 457.277344 36.242188 470.75 49.660156 C 484.253906 63.113281 491.710938 81.015625 491.75 100.078125 C 491.78125 119.140625 484.394531 137.074219 470.945312 150.578125 C 457.023438 164.550781 438.703125 171.542969 420.386719 171.542969 "/><path style=" stroke:none;fill-rule:nonzero;fill:#ffffff;fill-opacity:1;" d="M 545.238281 224.707031 C 548.125 221.8125 548.117188 217.121094 545.21875 214.234375 L 478.035156 147.308594 L 467.585938 157.804688 L 534.769531 224.726562 C 537.664062 227.613281 542.351562 227.605469 545.238281 224.707031 "/><path style=" stroke:none;fill-rule:nonzero;fill:#010f20;fill-opacity:1;" d="M 545.238281 224.707031 L 545.246094 224.707031 Z M 469.019531 157.800781 L 535.484375 224.007812 C 537.980469 226.496094 542.03125 226.484375 544.519531 223.988281 C 545.722656 222.78125 546.386719 221.175781 546.382812 219.46875 C 546.378906 217.761719 545.710938 216.160156 544.503906 214.953125 L 478.039062 148.75 Z M 539.992188 227.902344 C 537.75 227.902344 535.640625 227.03125 534.050781 225.445312 L 466.867188 158.523438 C 466.679688 158.332031 466.570312 158.074219 466.570312 157.804688 C 466.570312 157.535156 466.675781 157.277344 466.863281 157.085938 L 477.320312 146.59375 C 477.714844 146.195312 478.355469 146.195312 478.753906 146.59375 L 545.9375 213.515625 C 547.53125 215.101562 548.410156 217.214844 548.414062 219.464844 C 548.417969 221.714844 547.546875 223.828125 545.960938 225.421875 C 544.371094 227.019531 542.257812 227.898438 540.011719 227.902344 C 540.003906 227.902344 540 227.902344 539.992188 227.902344 "/><path style=" stroke:none;fill-rule:nonzero;fill:#ffffff;fill-opacity:1;" d="M 512.847656 187.050781 L 507.183594 181.410156 L 512.847656 187.050781 "/><path style=" stroke:none;fill-rule:nonzero;fill:#010f20;fill-opacity:1;" d="M 512.847656 188.066406 C 512.589844 188.066406 512.328125 187.96875 512.128906 187.773438 L 506.464844 182.128906 C 506.070312 181.730469 506.070312 181.089844 506.464844 180.691406 C 506.859375 180.292969 507.503906 180.292969 507.902344 180.691406 L 513.566406 186.332031 C 513.964844 186.726562 513.964844 187.371094 513.570312 187.769531 C 513.367188 187.96875 513.109375 188.066406 512.847656 188.066406 "/><path style=" stroke:none;fill-rule:nonzero;fill:#ffffff;fill-opacity:1;" d="M 530.933594 215.847656 L 537.300781 222.183594 C 538.789062 223.671875 541.214844 223.664062 542.699219 222.175781 C 544.183594 220.683594 544.179688 218.261719 542.6875 216.777344 L 520.332031 194.503906 L 530.933594 215.847656 "/><path style=" stroke:none;fill-rule:nonzero;fill:#010f20;fill-opacity:1;" d="M 539.992188 224.3125 C 538.703125 224.3125 537.492188 223.8125 536.582031 222.90625 L 530.214844 216.566406 C 529.820312 216.167969 529.816406 215.527344 530.214844 215.128906 C 530.613281 214.730469 531.257812 214.730469 531.652344 215.125 L 538.015625 221.46875 C 538.542969 221.992188 539.246094 222.277344 539.992188 222.277344 C 539.996094 222.277344 539.996094 222.277344 540 222.277344 C 540.746094 222.277344 541.449219 221.988281 541.976562 221.457031 C 542.503906 220.929688 542.792969 220.222656 542.792969 219.476562 C 542.789062 218.726562 542.5 218.023438 541.972656 217.496094 L 519.617188 195.226562 C 519.214844 194.832031 519.214844 194.1875 519.613281 193.789062 C 520.007812 193.390625 520.652344 193.390625 521.046875 193.789062 L 543.402344 216.054688 C 544.316406 216.964844 544.824219 218.179688 544.824219 219.472656 C 544.828125 220.765625 544.328125 221.976562 543.417969 222.894531 C 542.507812 223.808594 541.292969 224.308594 540 224.3125 C 540 224.3125 539.996094 224.3125 539.992188 224.3125 "/><path style=" stroke:none;fill-rule:nonzero;fill:#ffffff;fill-opacity:1;" d="M 482.699219 170.84375 L 491.136719 162.371094 C 493.132812 160.367188 493.125 157.121094 491.121094 155.125 L 489.441406 153.449219 C 487.4375 151.453125 484.191406 151.457031 482.191406 153.464844 L 473.753906 161.933594 C 471.757812 163.941406 471.761719 167.1875 473.769531 169.183594 L 475.449219 170.859375 C 477.453125 172.855469 480.699219 172.847656 482.699219 170.84375 "/><path style=" stroke:none;fill-rule:nonzero;fill:#010f20;fill-opacity:1;" d="M 482.699219 170.84375 L 482.707031 170.84375 Z M 485.824219 152.972656 C 484.765625 152.972656 483.710938 153.375 482.910156 154.183594 L 474.476562 162.652344 C 472.875 164.257812 472.878906 166.863281 474.484375 168.464844 L 476.164062 170.136719 C 477.773438 171.734375 480.378906 171.730469 481.980469 170.125 L 490.414062 161.660156 C 492.011719 160.050781 492.007812 157.441406 490.402344 155.84375 L 488.722656 154.171875 C 487.921875 153.371094 486.871094 152.972656 485.824219 152.972656 Z M 479.066406 173.363281 C 477.496094 173.363281 475.925781 172.769531 474.730469 171.574219 L 473.050781 169.902344 C 470.652344 167.515625 470.644531 163.613281 473.035156 161.214844 L 481.472656 152.746094 C 483.863281 150.347656 487.757812 150.339844 490.15625 152.730469 L 491.839844 154.402344 C 494.238281 156.792969 494.246094 160.691406 491.855469 163.089844 L 483.417969 171.558594 C 482.222656 172.761719 480.644531 173.363281 479.066406 173.363281 "/><path style=" stroke:none;fill-rule:nonzero;fill:#ffffff;fill-opacity:1;" d="M 493.832031 181.933594 L 502.269531 173.464844 C 504.269531 171.460938 504.261719 168.214844 502.253906 166.214844 L 500.574219 164.542969 C 498.566406 162.542969 495.324219 162.550781 493.324219 164.558594 L 484.890625 173.023438 C 482.890625 175.03125 482.894531 178.273438 484.902344 180.273438 L 486.582031 181.945312 C 488.589844 183.945312 491.835938 183.941406 493.832031 181.933594 "/><path style=" stroke:none;fill-rule:nonzero;fill:#010f20;fill-opacity:1;" d="M 493.832031 181.933594 L 493.839844 181.933594 Z M 496.957031 164.066406 C 495.902344 164.066406 494.847656 164.46875 494.046875 165.273438 L 485.605469 173.742188 C 484.835938 174.519531 484.40625 175.554688 484.410156 176.652344 C 484.410156 177.746094 484.84375 178.78125 485.621094 179.554688 L 487.300781 181.230469 C 488.90625 182.828125 491.511719 182.820312 493.113281 181.214844 L 501.550781 172.746094 C 503.148438 171.144531 503.140625 168.535156 501.535156 166.933594 L 499.859375 165.261719 C 499.054688 164.464844 498.007812 164.066406 496.957031 164.066406 Z M 490.199219 184.457031 C 488.632812 184.457031 487.0625 183.859375 485.863281 182.667969 L 484.183594 180.996094 C 481.785156 178.601562 481.777344 174.707031 484.167969 172.308594 L 492.605469 163.839844 C 494.996094 161.441406 498.894531 161.429688 501.292969 163.820312 L 502.972656 165.496094 C 505.371094 167.882812 505.378906 171.78125 502.988281 174.183594 L 494.550781 182.652344 C 493.351562 183.855469 491.777344 184.457031 490.199219 184.457031 "/><g clip-rule="nonzero" clip-path="url(#5257d36e83)"><g clip-rule="nonzero" clip-path="url(#4c640d0a9b)"><g clip-rule="nonzero" clip-path="url(#372b6297cb)"><path style=" stroke:none;fill-rule:evenodd;fill:#000000;fill-opacity:1;" d="M 392.140625 179.332031 C 416.058594 182.296875 433.199219 204.289062 430.238281 228.203125 C 427.273438 252.121094 405.28125 269.261719 381.367188 266.300781 C 357.449219 263.335938 340.304688 241.34375 343.269531 217.429688 C 346.230469 193.511719 368.222656 176.367188 392.140625 179.332031 Z M 391.984375 180.597656 C 415.203125 183.476562 431.847656 204.828125 428.96875 228.046875 C 426.09375 251.265625 404.742188 267.910156 381.523438 265.035156 C 358.304688 262.15625 341.660156 240.804688 344.535156 217.585938 C 347.414062 194.367188 368.765625 177.722656 391.984375 180.597656 Z M 391.984375 180.597656 "/></g></g></g><g clip-rule="nonzero" clip-path="url(#433bbcede8)"><g clip-rule="nonzero" clip-path="url(#4233e4d98b)"><g clip-rule="nonzero" clip-path="url(#11d4e682fd)"><path style=" stroke:none;fill-rule:evenodd;fill:#a5e9ff;fill-opacity:1;" d="M 391.738281 182.566406 C 393.058594 182.730469 394.363281 182.957031 395.660156 183.25 C 396.957031 183.542969 398.234375 183.898438 399.496094 184.3125 C 400.757812 184.730469 401.992188 185.210938 403.207031 185.75 C 404.421875 186.289062 405.605469 186.882812 406.761719 187.539062 C 407.917969 188.195312 409.039062 188.90625 410.125 189.671875 C 411.207031 190.4375 412.253906 191.253906 413.257812 192.121094 C 414.265625 192.988281 415.226562 193.90625 416.140625 194.867188 C 417.054688 195.828125 417.921875 196.835938 418.738281 197.882812 C 419.554688 198.929688 420.316406 200.015625 421.027344 201.136719 C 421.738281 202.261719 422.390625 203.414062 422.988281 204.601562 C 423.585938 205.789062 424.121094 207 424.597656 208.242188 C 425.078125 209.480469 425.492188 210.742188 425.84375 212.019531 C 426.199219 213.300781 426.488281 214.59375 426.714844 215.902344 C 426.941406 217.214844 427.101562 218.53125 427.199219 219.855469 C 427.296875 221.179688 427.328125 222.503906 427.296875 223.832031 C 427.261719 225.160156 427.164062 226.484375 427 227.800781 C 426.835938 229.121094 426.609375 230.425781 426.316406 231.722656 C 426.027344 233.019531 425.671875 234.296875 425.253906 235.558594 C 424.835938 236.820312 424.359375 238.058594 423.820312 239.269531 C 423.28125 240.484375 422.683594 241.667969 422.027344 242.824219 C 421.375 243.980469 420.664062 245.101562 419.898438 246.1875 C 419.132812 247.273438 418.316406 248.316406 417.449219 249.324219 C 416.578125 250.328125 415.664062 251.289062 414.703125 252.203125 C 413.738281 253.117188 412.734375 253.984375 411.6875 254.800781 C 410.640625 255.617188 409.554688 256.382812 408.429688 257.089844 C 407.308594 257.800781 406.152344 258.453125 404.96875 259.050781 C 403.78125 259.648438 402.566406 260.183594 401.328125 260.660156 C 400.089844 261.140625 398.828125 261.554688 397.546875 261.90625 C 396.269531 262.261719 394.972656 262.550781 393.664062 262.777344 C 392.355469 263.003906 391.039062 263.167969 389.714844 263.261719 C 388.390625 263.359375 387.0625 263.390625 385.734375 263.359375 C 384.40625 263.324219 383.085938 263.226562 381.765625 263.0625 C 380.449219 262.898438 379.140625 262.671875 377.84375 262.382812 C 376.550781 262.089844 375.269531 261.734375 374.011719 261.316406 C 372.75 260.898438 371.511719 260.421875 370.296875 259.882812 C 369.082031 259.34375 367.898438 258.746094 366.742188 258.089844 C 365.589844 257.4375 364.46875 256.726562 363.382812 255.960938 C 362.296875 255.195312 361.25 254.378906 360.246094 253.511719 C 359.242188 252.640625 358.28125 251.726562 357.367188 250.765625 C 356.449219 249.800781 355.585938 248.796875 354.765625 247.75 C 353.949219 246.703125 353.1875 245.617188 352.476562 244.496094 C 351.769531 243.371094 351.113281 242.21875 350.519531 241.03125 C 349.921875 239.84375 349.382812 238.628906 348.90625 237.390625 C 348.429688 236.152344 348.015625 234.890625 347.660156 233.609375 C 347.308594 232.332031 347.015625 231.035156 346.789062 229.726562 C 346.5625 228.417969 346.402344 227.101562 346.304688 225.777344 C 346.207031 224.453125 346.175781 223.125 346.210938 221.796875 C 346.242188 220.46875 346.34375 219.148438 346.503906 217.828125 C 346.667969 216.511719 346.894531 215.203125 347.1875 213.910156 C 347.480469 212.613281 347.832031 211.335938 348.25 210.074219 C 348.667969 208.8125 349.148438 207.574219 349.6875 206.359375 C 350.226562 205.148438 350.820312 203.960938 351.476562 202.808594 C 352.132812 201.652344 352.84375 200.53125 353.609375 199.445312 C 354.375 198.359375 355.191406 197.316406 356.058594 196.308594 C 356.925781 195.304688 357.84375 194.34375 358.804688 193.429688 C 359.765625 192.511719 360.773438 191.648438 361.820312 190.832031 C 362.867188 190.015625 363.953125 189.25 365.074219 188.539062 C 366.195312 187.832031 367.351562 187.175781 368.539062 186.582031 C 369.726562 185.984375 370.9375 185.449219 372.179688 184.96875 C 373.417969 184.492188 374.675781 184.078125 375.957031 183.722656 C 377.238281 183.371094 378.53125 183.078125 379.839844 182.855469 C 381.148438 182.628906 382.46875 182.464844 383.792969 182.367188 C 385.117188 182.273438 386.441406 182.238281 387.769531 182.273438 C 389.097656 182.304688 390.421875 182.40625 391.738281 182.566406 Z M 391.738281 182.566406 "/></g></g></g><g style="fill:#ffffff;fill-opacity:1;"><g transform="translate(361.125307, 230.1002)"><path style="stroke:none" d="M 4.34375 -11.359375 L 4.34375 -8.25 L 10.421875 -8.25 L 10.421875 -5.796875 L 4.34375 -5.796875 L 4.34375 0 L 1.453125 0 L 1.453125 -13.796875 L 11.28125 -13.796875 L 11.28125 -11.359375 Z M 4.34375 -11.359375 "/></g></g><g style="fill:#ffffff;fill-opacity:1;"><g transform="translate(375.359422, 230.1002)"><path style="stroke:none" d="M 1.234375 0 L 1.234375 -13.796875 L 4.109375 -13.796875 L 4.109375 0 Z M 1.234375 0 "/></g></g><g style="fill:#ffffff;fill-opacity:1;"><g transform="translate(383.197572, 230.1002)"><path style="stroke:none" d="M 12.046875 -9.390625 C 12.046875 -8.585938 11.875 -7.847656 11.53125 -7.171875 C 11.1875 -6.503906 10.691406 -5.972656 10.046875 -5.578125 C 9.398438 -5.179688 8.640625 -4.984375 7.765625 -4.984375 L 4.34375 -4.984375 L 4.34375 0 L 1.453125 0 L 1.453125 -13.796875 L 7.765625 -13.796875 C 9.097656 -13.796875 10.144531 -13.398438 10.90625 -12.609375 C 11.664062 -11.816406 12.046875 -10.742188 12.046875 -9.390625 Z M 9.171875 -9.515625 C 9.171875 -10.191406 8.972656 -10.675781 8.578125 -10.96875 C 8.191406 -11.269531 7.570312 -11.421875 6.71875 -11.421875 L 4.34375 -11.421875 L 4.34375 -7.359375 L 7.09375 -7.359375 C 8.476562 -7.359375 9.171875 -8.078125 9.171875 -9.515625 Z M 9.171875 -9.515625 "/></g></g><g style="fill:#ffffff;fill-opacity:1;"><g transform="translate(398.507283, 230.1002)"><path style="stroke:none" d="M 6.796875 -2.078125 C 8.648438 -2.078125 9.578125 -2.945312 9.578125 -4.6875 L 9.578125 -13.796875 L 12.515625 -13.796875 L 12.515625 -4.734375 C 12.515625 -3.085938 12.03125 -1.828125 11.0625 -0.953125 C 10.101562 -0.078125 8.695312 0.359375 6.84375 0.359375 C 5.132812 0.359375 3.796875 -0.0664062 2.828125 -0.921875 C 1.867188 -1.773438 1.390625 -3.035156 1.390625 -4.703125 L 1.390625 -13.796875 L 4.328125 -13.796875 L 4.328125 -4.765625 C 4.328125 -3.941406 4.546875 -3.285156 4.984375 -2.796875 C 5.429688 -2.316406 6.035156 -2.078125 6.796875 -2.078125 Z M 6.796875 -2.078125 "/></g></g></g></svg>