<svg xmlns="http://www.w3.org/2000/svg" viewBox="0 0 351.19 173.96"><defs><style>.cls-1{fill:#ed2861;}.cls-2{fill:#ce094a;}.cls-3{fill:#f69;}.cls-4{fill:#ffb999;}.cls-5{fill:#ffddcf;}.cls-12,.cls-14,.cls-36,.cls-45,.cls-6{fill:#f7946d;}.cls-6{opacity:0.81;}.cls-7{fill:#038cc6;}.cls-8{fill:#016eac;}.cls-9{fill:#ef7f11;}.cls-10,.cls-17{fill:#e27352;}.cls-11,.cls-27{fill:#c14c30;}.cls-12{opacity:0.55;}.cls-13{fill:#392f2f;}.cls-15,.cls-31{fill:#fff;}.cls-15{opacity:0.47;}.cls-16{fill:#081b21;}.cls-17{opacity:0.48;}.cls-18{fill:#ffbb7d;}.cls-19,.cls-20{fill:#cc5c00;}.cls-20{opacity:0.5;}.cls-21{fill:#006a87;}.cls-22{fill:#133543;}.cls-23{fill:#35798e;}.cls-24{fill:#ea9c7d;}.cls-25{fill:#772828;}.cls-26{fill:#913734;}.cls-27{opacity:0.51;}.cls-28{fill:#81ba45;}.cls-29{fill:#93cc5c;}.cls-30{fill:#7eb246;}.cls-32{fill:#bb5047;}.cls-33{fill:#dd7873;}.cls-34{fill:#ef9673;}.cls-35{fill:#b5ea7d;}.cls-36,.cls-48{opacity:0.83;}.cls-37,.cls-41{fill:#9b3934;}.cls-37{opacity:0.65;}.cls-38{fill:#ffd9ca;}.cls-39{fill:#cc7171;}.cls-40{fill:#ffd7d7;}.cls-42{fill:#a84848;}.cls-43,.cls-47{fill:#4853bc;}.cls-44{fill:#7178dd;}.cls-45{opacity:0.82;}.cls-46{fill:#e5805c;}.cls-47{opacity:0.52;}.cls-49{fill:#e5dfe1;}</style></defs><g id="Layer_2" data-name="Layer 2"><g id="Sketch"><circle class="cls-1" cx="302.74" cy="99.85" r="12.39"/><polygon class="cls-1" points="311.31 45.42 311.31 99.53 293.27 99.53 293.64 49.38 293.67 45.49 293.67 45.42 311.31 45.42"/><circle class="cls-1" cx="338.8" cy="99.85" r="12.39"/><rect class="cls-1" x="337" y="60.85" width="12.73" height="38.46"/><path class="cls-2" d="M297.89,84.17l3,3,3.62,3.66L311,97.39A12.82,12.82,0,0,0,314.6,100c0-.35,0-.69,0-1a11,11,0,0,0-.12-1.73A13,13,0,0,1,311,94.66l-6.47-6.54-1.05-1.06-5.56-5.62a12.5,12.5,0,0,1-3.58-7.5A12.59,12.59,0,0,0,297.89,84.17Z"/><path class="cls-2" d="M343.69,84.17l-3,3-3.62,3.66-6.48,6.54A12.78,12.78,0,0,1,327,100c0-.35-.05-.69-.05-1a11,11,0,0,1,.13-1.73,12.83,12.83,0,0,0,3.54-2.52l6.48-6.54,1-1.06,5.57-5.62a12.5,12.5,0,0,0,3.58-7.5A12.59,12.59,0,0,1,343.69,84.17Z"/><path class="cls-3" d="M301,87.38a1,1,0,0,1-1-1v-5.1a1,1,0,1,1,2,0v5.1A1,1,0,0,1,301,87.38Z"/><path class="cls-3" d="M303.15,105.38a1,1,0,0,1-1-1V99.29a1,1,0,0,1,2,0v5.09A1,1,0,0,1,303.15,105.38Z"/><path class="cls-3" d="M297.75,96.38a1,1,0,0,1-1-1V90.29a1,1,0,0,1,2,0v5.09A1,1,0,0,1,297.75,96.38Z"/><path class="cls-3" d="M340.36,87.38a1,1,0,0,1-1-1v-5.1a1,1,0,1,1,2,0v5.1A1,1,0,0,1,340.36,87.38Z"/><path class="cls-3" d="M342.54,105.38a1,1,0,0,1-1-1V99.29a1,1,0,0,1,2,0v5.09A1,1,0,0,1,342.54,105.38Z"/><path class="cls-3" d="M337.14,96.38a1,1,0,0,1-1-1V90.29a1,1,0,0,1,2,0v5.09A1,1,0,0,1,337.14,96.38Z"/><path class="cls-4" d="M28.44,118.61h0a.79.79,0,0,1,.79.79v37.39a.79.79,0,0,1-.79.79H26.53a8.5,8.5,0,0,1-8.5-8.5V129A10.41,10.41,0,0,1,28.44,118.61Z"/><rect class="cls-5" x="20.78" y="129.87" width="3.01" height="16.7" rx="1.51"/><path class="cls-4" d="M65.68,125.36c0,1.87-.69,3.39-1.57,3.39l-16.49.08c-.88,0-1.6-1.51-1.6-3.38v-2l0-8.37v-1.58l0-3.27V110c.07-1.72.72-3.07,1.54-3.11h0L64,106.78h.06c.85.06,1.54,1.54,1.55,3.37l0,3.27V115l0,7.18Z"/><rect class="cls-6" x="45.94" y="106.83" width="19.67" height="6.65" transform="translate(-0.51 0.26) rotate(-0.27)"/><path class="cls-4" d="M90.11,118.61H92a.79.79,0,0,1,.79.79v37.39a.79.79,0,0,1-.79.79h0A10.41,10.41,0,0,1,81.6,147.16v-20A8.5,8.5,0,0,1,90.11,118.61Z" transform="translate(174.4 276.19) rotate(-180)"/><rect class="cls-7" x="32.78" y="131.68" width="18.09" height="37.47" transform="translate(-0.7 0.2) rotate(-0.27)"/><rect class="cls-7" x="60.59" y="131.55" width="18.09" height="37.47" transform="translate(-0.7 0.33) rotate(-0.27)"/><rect class="cls-8" x="32.73" y="131.68" width="18.09" height="19.28" transform="translate(-0.66 0.2) rotate(-0.27)"/><rect class="cls-8" x="60.55" y="131.55" width="18.09" height="19.28" transform="translate(-0.66 0.33) rotate(-0.27)"/><path class="cls-9" d="M87.21,142.81a5.08,5.08,0,0,1-5,5.1l-52.53.24a5.06,5.06,0,0,1-5.1-5.05l-.11-22.82a5.08,5.08,0,0,1,5-5.1l10.4-.05,6.1,0L65.63,115l4.09,0L82,114.93A5.08,5.08,0,0,1,87.1,120Z"/><circle class="cls-10" cx="11.23" cy="80" r="11.23"/><circle class="cls-11" cx="11.23" cy="80" r="6.08"/><circle class="cls-10" cx="100.13" cy="80" r="11.23"/><circle class="cls-11" cx="100.13" cy="80" r="6.08"/><rect class="cls-4" x="11.22" y="47.88" width="88.84" height="63.83" rx="15.96" transform="translate(-0.37 0.26) rotate(-0.27)"/><path class="cls-12" d="M11.29,79.89a16,16,0,0,0,16,15.89l56.91-.27A16,16,0,0,0,100.06,81l.07,14.5a16,16,0,0,1-15.89,16l-56.91.27a16,16,0,0,1-16-15.89"/><circle class="cls-13" cx="71.71" cy="77.22" r="3.72"/><path class="cls-14" d="M71.71,87.83A14.75,14.75,0,0,1,57,73.09v-1h2v1a12.74,12.74,0,0,0,25.48,0v-1h2v1A14.75,14.75,0,0,1,71.71,87.83Z"/><rect class="cls-14" x="57.97" y="69.59" width="41.96" height="3"/><rect class="cls-13" x="68.95" y="68.1" width="33.98" height="2.5"/><circle class="cls-13" cx="38.56" cy="77.22" r="3.72"/><path class="cls-14" d="M38.56,87.83A14.75,14.75,0,0,1,23.82,73.09v-1h2v1a12.74,12.74,0,1,0,25.48,0v-1h2v1A14.75,14.75,0,0,1,38.56,87.83Z"/><rect class="cls-14" x="11.34" y="69.59" width="40.96" height="3"/><polygon class="cls-15" points="34.25 69.35 27.77 79.86 31.01 82.84 39.8 69.35 34.25 69.35"/><polygon class="cls-15" points="41.32 69.35 32.73 83.28 34.84 84.59 44.22 69.35 41.32 69.35"/><polygon class="cls-15" points="69.1 69.35 62.62 79.86 65.86 82.84 74.65 69.35 69.1 69.35"/><polygon class="cls-15" points="76.17 69.35 67.59 83.28 69.69 84.59 79.08 69.35 76.17 69.35"/><path class="cls-13" d="M38.56,86.35a15,15,0,0,1-15-15,3.26,3.26,0,0,1,3.26-3.26H50.29a3.26,3.26,0,0,1,3.26,3.26A15,15,0,0,1,38.56,86.35ZM26.83,70.6a.76.76,0,0,0-.76.76,12.49,12.49,0,0,0,25,0,.76.76,0,0,0-.76-.76Z"/><path class="cls-13" d="M71.71,86.35a15,15,0,0,1-15-15A3.26,3.26,0,0,1,60,68.1H83.44a3.26,3.26,0,0,1,3.26,3.26A15,15,0,0,1,71.71,86.35ZM60,70.6a.76.76,0,0,0-.76.76,12.49,12.49,0,1,0,25,0,.76.76,0,0,0-.76-.76Z"/><rect class="cls-13" x="51.62" y="74.39" width="7.19" height="2.5"/><path class="cls-16" d="M6.93,53.77H24.28a0,0,0,0,1,0,0V57.6a8.74,8.74,0,0,1-8.74,8.74H-1.82a0,0,0,0,1,0,0V62.52A8.74,8.74,0,0,1,6.93,53.77Z" transform="translate(71.29 48.83) rotate(90)"/><path class="cls-16" d="M32.88,28.34H47.95a0,0,0,0,1,0,0v7.27A10.09,10.09,0,0,1,37.86,45.7H22.79a0,0,0,0,1,0,0V38.43A10.09,10.09,0,0,1,32.88,28.34Z" transform="matrix(-0.62, 0.79, -0.79, -0.62, 86.33, 32.07)"/><path class="cls-16" d="M23.14,31.35H38.21a0,0,0,0,1,0,0v7.27A10.09,10.09,0,0,1,28.12,48.71H13.05a0,0,0,0,1,0,0V41.44A10.09,10.09,0,0,1,23.14,31.35Z" transform="translate(68.53 19.57) rotate(97.13)"/><rect class="cls-13" x="8.34" y="68.1" width="32.98" height="2.5"/><path class="cls-14" d="M39.11,61.06H17.51v-3h21.6a18.56,18.56,0,0,0,5.43-.75,13,13,0,0,0,6-3.77l.44-.46h14.5v3H52.24a15.66,15.66,0,0,1-6.82,4.1A21.48,21.48,0,0,1,39.11,61.06Z"/><rect class="cls-4" x="38.19" y="89.18" width="35.39" height="13.37" rx="6.68"/><path class="cls-10" d="M62.46,97.79H48a.5.5,0,1,1,0-1h14.5a.5.5,0,0,1,0,1Z"/><path class="cls-17" d="M32,101.4a.5.5,0,0,1-.5-.5V93.17c-4.65-3-5.43-6.67-5.46-6.83a.49.49,0,0,1,.39-.58.5.5,0,0,1,.59.39s.77,3.51,5.25,6.32a.49.49,0,0,1,.23.43v8A.5.5,0,0,1,32,101.4Z"/><path class="cls-17" d="M78.5,101.4a.5.5,0,0,1-.5-.5v-8a.5.5,0,0,1,.24-.43c4.48-2.81,5.24-6.29,5.25-6.32a.5.5,0,0,1,1,.19c0,.16-.81,3.8-5.47,6.83v7.73A.5.5,0,0,1,78.5,101.4Z"/><path class="cls-4" d="M69.72,115a10.15,10.15,0,0,1-4,7.2,17.31,17.31,0,0,1-10.9,3.67A17,17,0,0,1,46,123.47c-3.39-2-5.71-5.11-6.14-8.34l6.1,0v-.94l19.67.34V115Z"/><rect class="cls-18" x="29.12" y="122.37" width="3.57" height="9.36" rx="1.72"/><path class="cls-17" d="M55,122.62c-.78,0-1.27-.22-1.47-.67-.3-.69.26-1.77,1-2.78a3.25,3.25,0,0,0-1.33-.31.24.24,0,0,1-.25-.24.24.24,0,0,1,.24-.26,3.78,3.78,0,0,1,1.64.41,22.38,22.38,0,0,1,1.74-2,.25.25,0,0,1,.36,0,.25.25,0,0,1,0,.35A19.55,19.55,0,0,0,55.28,119c1.06.62,1.94,1.57,2,2.34,0,.44-.23,1.19-2,1.27ZM55,119.4c-.69,1-1.17,1.88-1,2.35s.73.39,1.18.37,1.57-.16,1.55-.76S55.93,120,55,119.4Z"/><path class="cls-17" d="M50,121.81c-.56,0-.92-.17-1.06-.49-.22-.5.18-1.28.7-2a2.34,2.34,0,0,0-1-.22c-.11,0-.19-.08-.19-.18a.19.19,0,0,1,.18-.19,2.86,2.86,0,0,1,1.18.3c.55-.7,1.14-1.3,1.26-1.43a.18.18,0,1,1,.26.26,14.82,14.82,0,0,0-1.19,1.34c.76.45,1.41,1.14,1.42,1.69,0,.32-.16.87-1.46.92Zm0-2.33c-.5.69-.84,1.35-.69,1.7s.53.28.85.26,1.14-.11,1.12-.54S50.61,119.87,49.92,119.48Z"/><path class="cls-17" d="M59.45,121.81c-.57,0-.93-.17-1.07-.49-.22-.5.19-1.28.7-2a2.3,2.3,0,0,0-1-.22c-.11,0-.18-.08-.18-.18a.18.18,0,0,1,.17-.19,2.94,2.94,0,0,1,1.19.3,16.19,16.19,0,0,1,1.26-1.43.19.19,0,0,1,.26,0,.18.18,0,0,1,0,.26,16.52,16.52,0,0,0-1.19,1.34c.77.45,1.41,1.14,1.43,1.69,0,.32-.17.87-1.47.92Zm0-2.33c-.5.69-.85,1.35-.7,1.7s.53.28.86.26,1.13-.11,1.12-.54S60.1,119.87,59.41,119.48Z"/><path class="cls-17" d="M92.14,150.12c-.32,0-.84-.2-.89-1.46q0-1,.48-1.2c.5-.22,1.28.18,2,.7a2.36,2.36,0,0,0,.23-1,.17.17,0,0,1,.17-.19c.09,0,.18.08.19.18a2.71,2.71,0,0,1-.3,1.18,16.34,16.34,0,0,1,1.43,1.26.18.18,0,0,1-.26.26,13.57,13.57,0,0,0-1.34-1.19c-.45.76-1.14,1.4-1.69,1.42Zm-.08-2.37a.34.34,0,0,0-.18,0c-.25.1-.29.52-.27.85s.12,1.15.55,1.12,1-.59,1.41-1.28A3.24,3.24,0,0,0,92.06,147.75Z"/><path class="cls-17" d="M91.91,144.91c-.22,0-.57-.14-.61-1,0-.43.1-.7.33-.8s.86.12,1.35.47a1.46,1.46,0,0,0,.15-.65.12.12,0,0,1,.24,0,1.74,1.74,0,0,1-.2.79,11,11,0,0,1,1,.85.12.12,0,0,1,0,.17.11.11,0,0,1-.17,0,9.23,9.23,0,0,0-.9-.8c-.3.51-.76,1-1.14,1Zm-.06-1.59a.23.23,0,0,0-.12,0c-.17.07-.19.35-.18.57s.07.76.36.76h0c.28,0,.68-.4,1-.86A2.11,2.11,0,0,0,91.85,143.32Z"/><path class="cls-17" d="M92.14,141c-.32,0-.84-.2-.89-1.47q0-1,.48-1.2c.5-.22,1.28.18,2,.7a2.36,2.36,0,0,0,.23-1,.18.18,0,0,1,.17-.19.2.2,0,0,1,.19.18,2.71,2.71,0,0,1-.3,1.18,15.82,15.82,0,0,1,1.43,1.27.18.18,0,0,1,0,.25.19.19,0,0,1-.26,0,13.57,13.57,0,0,0-1.34-1.19c-.45.76-1.14,1.41-1.69,1.43Zm-.08-2.38a.48.48,0,0,0-.18,0c-.25.11-.29.52-.27.85s.12,1.14.55,1.12,1-.59,1.41-1.27A3.27,3.27,0,0,0,92.06,138.65Z"/><path class="cls-17" d="M18.55,150.12h0c-.56,0-1.24-.66-1.69-1.42a13.57,13.57,0,0,0-1.34,1.19.18.18,0,1,1-.26-.26,16.34,16.34,0,0,1,1.43-1.26,2.71,2.71,0,0,1-.3-1.18.18.18,0,1,1,.36,0,2.36,2.36,0,0,0,.23,1c.72-.52,1.51-.92,2-.7q.52.22.48,1.2C19.39,149.92,18.87,150.12,18.55,150.12Zm-1.43-1.64c.39.69,1,1.27,1.41,1.28h0c.42,0,.51-.7.53-1.12s0-.75-.27-.85S17.8,148,17.12,148.48Z"/><path class="cls-17" d="M18.78,144.91h0c-.37,0-.83-.45-1.13-1a9.23,9.23,0,0,0-.9.8.13.13,0,0,1-.18,0,.14.14,0,0,1,0-.17,12,12,0,0,1,1-.85,2,2,0,0,1-.2-.79.13.13,0,0,1,.13-.12.12.12,0,0,1,.12.12,1.46,1.46,0,0,0,.15.65c.49-.35,1-.62,1.35-.47s.34.37.32.8C19.35,144.77,19,144.91,18.78,144.91Zm-1-1.1c.26.46.67.85.95.86h0c.29,0,.35-.47.36-.76s0-.5-.18-.57S18.28,143.47,17.82,143.81Z"/><path class="cls-17" d="M18.55,141h0c-.56,0-1.24-.67-1.69-1.43a13.57,13.57,0,0,0-1.34,1.19.19.19,0,0,1-.26,0,.18.18,0,0,1,0-.25,15.82,15.82,0,0,1,1.43-1.27,2.71,2.71,0,0,1-.3-1.18.18.18,0,1,1,.36,0,2.36,2.36,0,0,0,.23,1c.72-.52,1.51-.92,2-.7q.52.22.48,1.2C19.39,140.83,18.87,141,18.55,141Zm-1.43-1.64c.39.68,1,1.26,1.41,1.27h0c.42,0,.51-.7.53-1.12s0-.74-.27-.85S17.8,138.89,17.12,139.39Z"/><polygon class="cls-19" points="77.34 136.84 76.54 136.84 76.54 136.24 76.74 136.24 76.74 136.04 77.34 136.04 77.34 136.84"/><path class="cls-19" d="M75.6,136.84h-.93v-.6h.93Zm-1.87,0H72.8v-.6h.93Zm-1.87,0h-.93v-.6h.93Z"/><polygon class="cls-19" points="69.99 136.84 69.19 136.84 69.19 136.04 69.79 136.04 69.79 136.24 69.99 136.24 69.99 136.84"/><path class="cls-19" d="M69.79,135h-.6v-1h.6Zm0-2.07h-.6v-1h.6Zm0-2.06h-.6v-1h.6Zm0-2.07h-.6v-1h.6Z"/><polygon class="cls-19" points="69.79 126.74 69.19 126.74 69.19 125.94 69.99 125.94 69.99 126.55 69.79 126.55 69.79 126.74"/><path class="cls-19" d="M75.6,126.55h-.93v-.61h.93Zm-1.87,0H72.8v-.61h.93Zm-1.87,0h-.93v-.61h.93Z"/><polygon class="cls-19" points="77.34 126.74 76.74 126.74 76.74 126.55 76.54 126.55 76.54 125.94 77.34 125.94 77.34 126.74"/><path class="cls-19" d="M77.34,135h-.6v-1h.6Zm0-2.07h-.6v-1h.6Zm0-2.06h-.6v-1h.6Zm0-2.07h-.6v-1h.6Z"/><rect class="cls-19" x="68.09" y="129.28" width="0.5" height="0.61"/><path class="cls-19" d="M77.67,129.89h-.91v-.61h.91Zm-1.82,0h-.91v-.61h.91Zm-1.81,0h-.91v-.61H74Zm-1.82,0h-.91v-.61h.91Zm-1.82,0h-.91v-.61h.91Z"/><rect class="cls-19" x="78.58" y="129.28" width="0.5" height="0.61"/><circle class="cls-4" cx="58.25" cy="125.56" r="1.25"/><circle class="cls-4" cx="61.75" cy="126.41" r="0.55"/><circle class="cls-4" cx="60.18" cy="128.53" r="0.69"/><circle class="cls-4" cx="54.19" cy="125.81" r="1"/><circle class="cls-4" cx="61.97" cy="124.39" r="0.78"/><circle class="cls-20" cx="79.01" cy="143.14" r="1.18"/><path class="cls-21" d="M35,168a.25.25,0,0,1-.25-.25v-1a.25.25,0,0,1,.25-.25.25.25,0,0,1,.25.25v1A.25.25,0,0,1,35,168Zm0-3a.25.25,0,0,1-.25-.25v-1a.25.25,0,0,1,.25-.25.25.25,0,0,1,.25.25v1A.25.25,0,0,1,35,165Zm0-3a.25.25,0,0,1-.25-.25v-1a.25.25,0,0,1,.25-.25.25.25,0,0,1,.25.25v1A.25.25,0,0,1,35,162Zm0-3a.25.25,0,0,1-.25-.25v-1a.25.25,0,0,1,.25-.25.25.25,0,0,1,.25.25v1A.25.25,0,0,1,35,159Zm0-3a.25.25,0,0,1-.25-.25v-1a.25.25,0,0,1,.25-.25.25.25,0,0,1,.25.25v1A.25.25,0,0,1,35,156Zm0-3a.25.25,0,0,1-.25-.25v-1a.25.25,0,0,1,.25-.25.25.25,0,0,1,.25.25v1A.25.25,0,0,1,35,153Zm0-3a.25.25,0,0,1-.25-.25v-1a.25.25,0,0,1,.25-.25.25.25,0,0,1,.25.25v1A.25.25,0,0,1,35,150Z"/><path class="cls-21" d="M48.77,168a.25.25,0,0,1-.25-.25v-1a.25.25,0,0,1,.5,0v1A.25.25,0,0,1,48.77,168Zm0-3a.25.25,0,0,1-.25-.25v-1a.25.25,0,0,1,.5,0v1A.25.25,0,0,1,48.77,165Zm0-3a.25.25,0,0,1-.25-.25v-1a.25.25,0,0,1,.5,0v1A.25.25,0,0,1,48.77,162Zm0-3a.25.25,0,0,1-.25-.25v-1a.25.25,0,0,1,.5,0v1A.25.25,0,0,1,48.77,159Zm0-3a.25.25,0,0,1-.25-.25v-1a.25.25,0,0,1,.5,0v1A.25.25,0,0,1,48.77,156Zm0-3a.25.25,0,0,1-.25-.25v-1a.25.25,0,0,1,.5,0v1A.25.25,0,0,1,48.77,153Zm0-3a.25.25,0,0,1-.25-.25v-1a.25.25,0,0,1,.5,0v1A.25.25,0,0,1,48.77,150Z"/><path class="cls-21" d="M62.83,168a.25.25,0,0,1-.25-.25v-1a.25.25,0,0,1,.5,0v1A.25.25,0,0,1,62.83,168Zm0-3a.25.25,0,0,1-.25-.25v-1a.25.25,0,0,1,.5,0v1A.25.25,0,0,1,62.83,165Zm0-3a.25.25,0,0,1-.25-.25v-1a.25.25,0,0,1,.5,0v1A.25.25,0,0,1,62.83,162Zm0-3a.25.25,0,0,1-.25-.25v-1a.25.25,0,0,1,.5,0v1A.25.25,0,0,1,62.83,159Zm0-3a.25.25,0,0,1-.25-.25v-1a.25.25,0,0,1,.5,0v1A.25.25,0,0,1,62.83,156Zm0-3a.25.25,0,0,1-.25-.25v-1a.25.25,0,0,1,.5,0v1A.25.25,0,0,1,62.83,153Zm0-3a.25.25,0,0,1-.25-.25v-1a.25.25,0,0,1,.5,0v1A.25.25,0,0,1,62.83,150Z"/><path class="cls-21" d="M76.62,168a.25.25,0,0,1-.25-.25v-1a.25.25,0,0,1,.25-.25.25.25,0,0,1,.25.25v1A.25.25,0,0,1,76.62,168Zm0-3a.25.25,0,0,1-.25-.25v-1a.25.25,0,0,1,.25-.25.25.25,0,0,1,.25.25v1A.25.25,0,0,1,76.62,165Zm0-3a.25.25,0,0,1-.25-.25v-1a.25.25,0,0,1,.25-.25.25.25,0,0,1,.25.25v1A.25.25,0,0,1,76.62,162Zm0-3a.25.25,0,0,1-.25-.25v-1a.25.25,0,0,1,.25-.25.25.25,0,0,1,.25.25v1A.25.25,0,0,1,76.62,159Zm0-3a.25.25,0,0,1-.25-.25v-1a.25.25,0,0,1,.25-.25.25.25,0,0,1,.25.25v1A.25.25,0,0,1,76.62,156Zm0-3a.25.25,0,0,1-.25-.25v-1a.25.25,0,0,1,.25-.25.25.25,0,0,1,.25.25v1A.25.25,0,0,1,76.62,153Zm0-3a.25.25,0,0,1-.25-.25v-1a.25.25,0,0,1,.25-.25.25.25,0,0,1,.25.25v1A.25.25,0,0,1,76.62,150Z"/><path class="cls-19" d="M63.84,145.88h-1a.25.25,0,0,1,0-.5h1a.25.25,0,0,1,0,.5Zm-3,0h-1a.25.25,0,0,1,0-.5h1a.25.25,0,0,1,0,.5Zm-3,0h-1a.25.25,0,0,1,0-.5h1a.25.25,0,0,1,0,.5Zm-3,0h-1a.25.25,0,0,1,0-.5h1a.25.25,0,0,1,0,.5Zm-3,0h-1a.25.25,0,0,1,0-.5h1a.25.25,0,0,1,0,.5Zm-3,0h-1a.25.25,0,0,1,0-.5h1a.25.25,0,0,1,0,.5Zm-3,0h-1a.25.25,0,0,1,0-.5h1a.25.25,0,0,1,0,.5Z"/><rect class="cls-13" x="58.45" y="165.68" width="22.57" height="8.28" rx="4.14"/><rect class="cls-13" x="30.63" y="165.68" width="22.57" height="8.28" rx="4.14"/><path class="cls-22" d="M53.49,36.6H93.63a0,0,0,0,1,0,0v2a14.5,14.5,0,0,1-14.5,14.5H39a0,0,0,0,1,0,0v-2A14.5,14.5,0,0,1,53.49,36.6Z"/><path class="cls-16" d="M95,43.93h15.07a0,0,0,0,1,0,0V51.2A10.09,10.09,0,0,1,100,61.29H84.91a0,0,0,0,1,0,0V54A10.09,10.09,0,0,1,95,43.93Z" transform="translate(150.11 -44.88) rotate(90)"/><path class="cls-22" d="M31.31,29.78H55.89a0,0,0,0,1,0,0V41.63A16.46,16.46,0,0,1,39.43,58.09H14.85a0,0,0,0,1,0,0V46.24A16.46,16.46,0,0,1,31.31,29.78Z"/><path class="cls-23" d="M20.15,44a1.41,1.41,0,0,1-.4,0,1.5,1.5,0,0,1-1.05-1.84A14.82,14.82,0,0,1,24.86,34a1.5,1.5,0,0,1,1.54,2.57,12,12,0,0,0-4.81,6.34A1.48,1.48,0,0,1,20.15,44Z"/><circle class="cls-23" cx="30.98" cy="33.74" r="1.75"/><path class="cls-23" d="M46.73,41.53H37.25a1.5,1.5,0,0,1,0-3h9.48a1.5,1.5,0,0,1,0,3Z"/><path class="cls-23" d="M56.89,47.46H50a1.5,1.5,0,0,1,0-3h6.93a1.5,1.5,0,0,1,0,3Z"/><path class="cls-23" d="M72.41,44H65.48a1.5,1.5,0,0,1,0-3h6.93a1.5,1.5,0,0,1,0,3Z"/><circle class="cls-10" cx="55.89" cy="89.18" r="4.4"/><circle class="cls-24" cx="152.19" cy="64.87" r="8.49"/><circle class="cls-25" cx="231.4" cy="35.14" r="8.85"/><circle class="cls-25" cx="159.61" cy="35.14" r="8.85"/><circle class="cls-25" cx="195.19" cy="14.01" r="8.85"/><circle class="cls-26" cx="210.38" cy="18.73" r="4.33"/><circle class="cls-26" cx="213.34" cy="33.96" r="10.58"/><circle class="cls-26" cx="185.52" cy="48.95" r="5.07"/><circle class="cls-26" cx="201.35" cy="15.69" r="8.47"/><circle class="cls-26" cx="209.02" cy="29.19" r="13.74"/><circle class="cls-26" cx="189.78" cy="50.79" r="23.15"/><circle class="cls-26" cx="185.54" cy="43.02" r="10.54"/><circle class="cls-26" cx="182.56" cy="28.79" r="7.91"/><circle class="cls-26" cx="182.97" cy="20.65" r="14.49"/><circle class="cls-26" cx="174.66" cy="29.42" r="16.19"/><circle class="cls-26" cx="186.19" cy="49.43" r="6.21"/><circle class="cls-26" cx="215.21" cy="49.3" r="7.34"/><circle class="cls-26" cx="209.24" cy="10.71" r="7.91"/><circle class="cls-26" cx="216.26" cy="8.85" r="8.85"/><circle class="cls-26" cx="227.9" cy="37.29" r="8.47"/><circle class="cls-26" cx="219.59" cy="27.01" r="17.88"/><circle class="cls-27" cx="152.19" cy="64.87" r="4.6"/><circle class="cls-24" cx="241.23" cy="64.87" r="8.49"/><circle class="cls-27" cx="241.23" cy="64.87" r="4.6"/><rect class="cls-4" x="152.22" y="30.19" width="88.84" height="63.83" rx="15.96" transform="translate(-0.29 0.92) rotate(-0.27)"/><path class="cls-17" d="M200,44.37h-6.73a.46.46,0,1,1,0-.92H200a.46.46,0,0,1,0,.92Z"/><path class="cls-17" d="M200.85,47.12h-8.41a.46.46,0,1,1,0-.91h8.41a.46.46,0,1,1,0,.91Z"/><path class="cls-17" d="M202.54,49.88H190.75a.46.46,0,0,1-.45-.46.45.45,0,0,1,.45-.46h11.79a.45.45,0,0,1,.45.46A.46.46,0,0,1,202.54,49.88Z"/><path class="cls-4" d="M206.52,107.68c0,1.87-.69,3.39-1.57,3.39l-16.49.08c-.88,0-1.6-1.51-1.6-3.38v-2l0-8.37V95.84l0-3.27v-.28c.07-1.72.72-3.07,1.54-3.11h0l16.48-.08h.06c.85.06,1.54,1.54,1.55,3.37l0,3.27v1.58l0,7.18Z"/><rect class="cls-6" x="186.78" y="89.14" width="19.67" height="6.65" transform="translate(-0.43 0.92) rotate(-0.27)"/><path class="cls-4" d="M169.66,100.92h0a.79.79,0,0,1,.79.79V151.1a.79.79,0,0,1-.79.79h-1.91a8.5,8.5,0,0,1-8.5-8.5v-32a10.41,10.41,0,0,1,10.41-10.41Z"/><path class="cls-28" d="M165.63,102.6l.07,27.46h-6.45V111.34a10.43,10.43,0,0,1,6.46-9.64A5.29,5.29,0,0,0,165.63,102.6Z"/><path class="cls-4" d="M231.32,100.92h1.91a.79.79,0,0,1,.79.79V151.1a.79.79,0,0,1-.79.79h0a10.41,10.41,0,0,1-10.41-10.41v-32a8.5,8.5,0,0,1,8.5-8.5Z" transform="translate(456.83 252.81) rotate(-180)"/><path class="cls-28" d="M227.66,102.6l-.07,27.46H234V111.34a10.43,10.43,0,0,0-6.46-9.64A5.29,5.29,0,0,1,227.66,102.6Z"/><path class="cls-4" d="M211.56,97.31a10.15,10.15,0,0,1-4.05,7.2,17.31,17.31,0,0,1-10.9,3.67,17,17,0,0,1-8.76-2.39c-3.39-2-5.71-5.11-6.14-8.34l6.1,0v-.94l19.67.34v.51Z"/><path class="cls-17" d="M196.57,104.94c-.78,0-1.27-.23-1.47-.68-.3-.68.26-1.77,1-2.77a2.91,2.91,0,0,0-1.33-.32.22.22,0,0,1-.25-.24.25.25,0,0,1,.24-.26,3.74,3.74,0,0,1,1.64.41,20.33,20.33,0,0,1,1.75-2,.25.25,0,1,1,.35.35,21,21,0,0,0-1.65,1.86c1.06.62,2,1.57,2,2.34,0,.44-.23,1.2-2,1.27Zm0-3.22c-.69,1-1.16,1.87-1,2.34s.73.4,1.18.37,1.57-.15,1.55-.75S197.48,102.26,196.52,101.72Z"/><path class="cls-17" d="M196.59,104.12c-.56,0-.92-.16-1.06-.49-.22-.49.18-1.28.7-2a2.51,2.51,0,0,0-1-.22.19.19,0,0,1-.19-.18.18.18,0,0,1,.18-.18,2.69,2.69,0,0,1,1.18.29,15.16,15.16,0,0,1,1.27-1.42.18.18,0,0,1,.25.25,13.75,13.75,0,0,0-1.19,1.35c.76.44,1.41,1.13,1.43,1.69,0,.32-.17.86-1.47.92Zm0-2.33c-.5.69-.85,1.36-.7,1.7s.53.28.85.27,1.14-.12,1.12-.55S197.24,102.18,196.56,101.79Z"/><path class="cls-17" d="M196.59,104.12c-.56,0-.92-.16-1.06-.49-.22-.49.18-1.28.7-2a2.51,2.51,0,0,0-1-.22.19.19,0,0,1-.19-.18.18.18,0,0,1,.18-.18,2.69,2.69,0,0,1,1.18.29,15.16,15.16,0,0,1,1.27-1.42.18.18,0,0,1,.25.25,13.75,13.75,0,0,0-1.19,1.35c.76.44,1.41,1.13,1.43,1.69,0,.32-.17.86-1.47.92Zm0-2.33c-.5.69-.85,1.36-.7,1.7s.53.28.85.27,1.14-.12,1.12-.55S197.24,102.18,196.56,101.79Z"/><polygon class="cls-7" points="191.77 167.43 173.68 167.51 173.53 114.04 191.62 113.95 191.77 167.43"/><polygon class="cls-7" points="219.59 167.29 201.5 167.38 201.34 113.91 219.43 113.83 219.59 167.29"/><polygon class="cls-8" points="191.69 145.24 173.6 145.32 173.53 114.04 191.62 113.95 191.69 145.24"/><polygon class="cls-8" points="219.5 145.11 201.41 145.19 201.34 113.91 219.43 113.83 219.5 145.11"/><path class="cls-29" d="M228,137.13a5.08,5.08,0,0,1-5.05,5.1l-52.53.24a5.06,5.06,0,0,1-5.1-5.05l-.11-34.82a5.08,5.08,0,0,1,5-5.1l10.4,0,6.1,0,19.66-.09,4.09,0,12.28-.06a5.08,5.08,0,0,1,5.1,5.06Z"/><path class="cls-21" d="M175.8,166.27a.25.25,0,0,1-.25-.25v-1a.25.25,0,0,1,.25-.25.25.25,0,0,1,.25.25v1A.25.25,0,0,1,175.8,166.27Zm0-3a.25.25,0,0,1-.25-.25v-1a.25.25,0,0,1,.25-.25.25.25,0,0,1,.25.25v1A.25.25,0,0,1,175.8,163.27Zm0-3a.25.25,0,0,1-.25-.25v-1a.25.25,0,0,1,.25-.25.25.25,0,0,1,.25.25v1A.25.25,0,0,1,175.8,160.27Zm0-3a.25.25,0,0,1-.25-.25v-1a.25.25,0,0,1,.25-.25.25.25,0,0,1,.25.25v1A.25.25,0,0,1,175.8,157.27Zm0-3a.25.25,0,0,1-.25-.25v-1a.25.25,0,0,1,.25-.25.25.25,0,0,1,.25.25v1A.25.25,0,0,1,175.8,154.27Zm0-3a.25.25,0,0,1-.25-.25v-1a.25.25,0,0,1,.25-.25.25.25,0,0,1,.25.25v1A.25.25,0,0,1,175.8,151.27Zm0-3a.25.25,0,0,1-.25-.25v-1a.25.25,0,0,1,.25-.25.25.25,0,0,1,.25.25v1A.25.25,0,0,1,175.8,148.27Zm0-3a.25.25,0,0,1-.25-.25v-1a.25.25,0,0,1,.25-.25.25.25,0,0,1,.25.25v1A.25.25,0,0,1,175.8,145.27Zm0-3a.25.25,0,0,1-.25-.25v-.52a.25.25,0,0,1,.25-.25.25.25,0,0,1,.25.25V142A.25.25,0,0,1,175.8,142.27Z"/><path class="cls-21" d="M189.6,166.27a.25.25,0,0,1-.25-.25v-1a.25.25,0,0,1,.25-.25.25.25,0,0,1,.25.25v1A.25.25,0,0,1,189.6,166.27Zm0-3a.25.25,0,0,1-.25-.25v-1a.25.25,0,0,1,.25-.25.25.25,0,0,1,.25.25v1A.25.25,0,0,1,189.6,163.27Zm0-3a.25.25,0,0,1-.25-.25v-1a.25.25,0,0,1,.25-.25.25.25,0,0,1,.25.25v1A.25.25,0,0,1,189.6,160.27Zm0-3a.25.25,0,0,1-.25-.25v-1a.25.25,0,0,1,.25-.25.25.25,0,0,1,.25.25v1A.25.25,0,0,1,189.6,157.27Zm0-3a.25.25,0,0,1-.25-.25v-1a.25.25,0,0,1,.25-.25.25.25,0,0,1,.25.25v1A.25.25,0,0,1,189.6,154.27Zm0-3a.25.25,0,0,1-.25-.25v-1a.25.25,0,0,1,.25-.25.25.25,0,0,1,.25.25v1A.25.25,0,0,1,189.6,151.27Zm0-3a.25.25,0,0,1-.25-.25v-1a.25.25,0,0,1,.25-.25.25.25,0,0,1,.25.25v1A.25.25,0,0,1,189.6,148.27Zm0-3a.25.25,0,0,1-.25-.25v-1a.25.25,0,0,1,.25-.25.25.25,0,0,1,.25.25v1A.25.25,0,0,1,189.6,145.27Zm0-3a.25.25,0,0,1-.25-.25v-.52a.25.25,0,0,1,.25-.25.25.25,0,0,1,.25.25V142A.25.25,0,0,1,189.6,142.27Z"/><path class="cls-21" d="M203.66,166.27a.25.25,0,0,1-.25-.25v-1a.25.25,0,0,1,.5,0v1A.25.25,0,0,1,203.66,166.27Zm0-3a.25.25,0,0,1-.25-.25v-1a.25.25,0,0,1,.5,0v1A.25.25,0,0,1,203.66,163.27Zm0-3a.25.25,0,0,1-.25-.25v-1a.25.25,0,0,1,.5,0v1A.25.25,0,0,1,203.66,160.27Zm0-3a.25.25,0,0,1-.25-.25v-1a.25.25,0,0,1,.5,0v1A.25.25,0,0,1,203.66,157.27Zm0-3a.25.25,0,0,1-.25-.25v-1a.25.25,0,0,1,.5,0v1A.25.25,0,0,1,203.66,154.27Zm0-3a.25.25,0,0,1-.25-.25v-1a.25.25,0,0,1,.5,0v1A.25.25,0,0,1,203.66,151.27Zm0-3a.25.25,0,0,1-.25-.25v-1a.25.25,0,0,1,.5,0v1A.25.25,0,0,1,203.66,148.27Zm0-3a.25.25,0,0,1-.25-.25v-1a.25.25,0,0,1,.5,0v1A.25.25,0,0,1,203.66,145.27Zm0-3a.25.25,0,0,1-.25-.25v-.52a.25.25,0,0,1,.5,0V142A.25.25,0,0,1,203.66,142.27Z"/><path class="cls-21" d="M217.45,166.27a.25.25,0,0,1-.25-.25v-1a.25.25,0,0,1,.5,0v1A.25.25,0,0,1,217.45,166.27Zm0-3a.25.25,0,0,1-.25-.25v-1a.25.25,0,0,1,.5,0v1A.25.25,0,0,1,217.45,163.27Zm0-3a.25.25,0,0,1-.25-.25v-1a.25.25,0,0,1,.5,0v1A.25.25,0,0,1,217.45,160.27Zm0-3a.25.25,0,0,1-.25-.25v-1a.25.25,0,0,1,.5,0v1A.25.25,0,0,1,217.45,157.27Zm0-3a.25.25,0,0,1-.25-.25v-1a.25.25,0,0,1,.5,0v1A.25.25,0,0,1,217.45,154.27Zm0-3a.25.25,0,0,1-.25-.25v-1a.25.25,0,0,1,.5,0v1A.25.25,0,0,1,217.45,151.27Zm0-3a.25.25,0,0,1-.25-.25v-1a.25.25,0,0,1,.5,0v1A.25.25,0,0,1,217.45,148.27Zm0-3a.25.25,0,0,1-.25-.25v-1a.25.25,0,0,1,.5,0v1A.25.25,0,0,1,217.45,145.27Zm0-3a.25.25,0,0,1-.25-.25v-.52a.25.25,0,0,1,.5,0V142A.25.25,0,0,1,217.45,142.27Z"/><rect class="cls-30" x="163.7" y="133.73" width="65.88" height="9.04" rx="4.52"/><path class="cls-30" d="M215.23,119h8.14a0,0,0,0,1,0,0V125a4.07,4.07,0,0,1-4.07,4.07h0a4.07,4.07,0,0,1-4.07-4.07V119A0,0,0,0,1,215.23,119Z"/><rect class="cls-31" x="214.57" y="118.11" width="9.47" height="2.86" rx="1.43"/><circle class="cls-31" cx="180.34" cy="60.62" r="7.34"/><circle class="cls-31" cx="213.38" cy="60.62" r="7.34"/><circle class="cls-13" cx="213.59" cy="60.54" r="3.72"/><circle class="cls-13" cx="180.44" cy="60.54" r="3.72"/><path class="cls-4" d="M172.91,55.67a7.44,7.44,0,0,1,14.87,0Z"/><path class="cls-4" d="M207,55.67a7.44,7.44,0,0,1,14.87,0Z"/><rect class="cls-12" x="206.79" y="49.83" width="13.55" height="4.52" rx="2.26"/><rect class="cls-12" x="173.19" y="49.83" width="13.55" height="4.52" rx="2.26"/><rect class="cls-32" x="206.79" y="48.7" width="13.55" height="4.52" rx="2.26"/><rect class="cls-32" x="173.29" y="48.7" width="13.55" height="4.52" rx="2.26"/><path class="cls-33" d="M179.87,51.67h-4.16a1,1,0,0,1,0-2h4.16a1,1,0,0,1,0,2Z"/><circle class="cls-33" cx="182.79" cy="50.77" r="0.75"/><circle class="cls-34" cx="164.44" cy="150.25" r="7.2"/><circle class="cls-34" cx="228.67" cy="150.25" r="7.2"/><rect class="cls-35" x="160.98" y="115.45" width="1.84" height="10.02" rx="0.92"/><path class="cls-17" d="M160,141h0c-.4,0-.9-.48-1.23-1a10.94,10.94,0,0,0-1,.87.14.14,0,0,1-.19,0,.13.13,0,0,1,0-.18,9.75,9.75,0,0,1,1-.92,2.09,2.09,0,0,1-.21-.87.13.13,0,0,1,.13-.13h0a.13.13,0,0,1,.13.14,1.71,1.71,0,0,0,.17.7c.53-.38,1.1-.67,1.46-.51s.38.4.36.87C160.66,140.82,160.28,141,160,141Zm-1-1.19c.28.5.73.92,1,.93h0c.31,0,.38-.51.39-.82s0-.54-.19-.62S159.5,139.4,159,139.77Z"/><path class="cls-17" d="M160.22,137.16h0c-.27,0-.61-.33-.83-.7a8,8,0,0,0-.66.58.08.08,0,0,1-.12-.12,5.39,5.39,0,0,1,.7-.62,1.47,1.47,0,0,1-.15-.58.09.09,0,0,1,.09-.09h0a.09.09,0,0,1,.09.09,1.19,1.19,0,0,0,.11.47c.36-.25.74-.45,1-.34s.25.27.23.59C160.63,137.06,160.37,137.16,160.22,137.16Zm-.71-.81c.2.34.49.62.7.63h0c.21,0,.26-.34.27-.55s0-.37-.14-.42S159.85,136.11,159.51,136.35Z"/><path class="cls-17" d="M160,134.32h0c-.4,0-.9-.48-1.23-1a10.94,10.94,0,0,0-1,.87.14.14,0,0,1-.19,0,.13.13,0,0,1,0-.18,10.65,10.65,0,0,1,1-.93,2,2,0,0,1-.21-.86.13.13,0,0,1,.13-.13h0a.13.13,0,0,1,.13.14,1.75,1.75,0,0,0,.17.7c.53-.38,1.1-.67,1.46-.51s.38.4.36.87C160.66,134.18,160.28,134.32,160,134.32Zm-1-1.19c.28.5.73.92,1,.93h0c.31,0,.38-.51.39-.82s0-.54-.19-.62S159.5,132.76,159,133.13Z"/><path class="cls-17" d="M233.2,141c-.23,0-.61-.14-.65-1.07,0-.47.1-.76.35-.87s.94.13,1.47.51a1.54,1.54,0,0,0,.16-.7.14.14,0,0,1,.27,0,2,2,0,0,1-.22.87,8.78,8.78,0,0,1,1,.92.11.11,0,0,1,0,.18.13.13,0,0,1-.18,0,10.94,10.94,0,0,0-1-.87c-.33.56-.83,1-1.24,1Zm0-1.73a.29.29,0,0,0-.14,0c-.18.08-.21.38-.2.62s.09.82.39.82h0c.31,0,.75-.43,1-.93A2.42,2.42,0,0,0,233.15,139.23Z"/><path class="cls-17" d="M233,137.16c-.16,0-.41-.1-.44-.72,0-.32.07-.52.24-.59s.63.09,1,.34a1.06,1.06,0,0,0,.12-.47.08.08,0,0,1,.08-.09h0a.09.09,0,0,1,.09.09,1.3,1.3,0,0,1-.14.58,6.24,6.24,0,0,1,.7.62.09.09,0,0,1,0,.12.09.09,0,0,1-.13,0,8,8,0,0,0-.66-.58c-.22.37-.55.69-.83.7Zm0-1.17-.09,0c-.12.05-.14.26-.13.42s0,.55.26.55h0c.2,0,.5-.29.69-.63A1.64,1.64,0,0,0,233,136Z"/><path class="cls-17" d="M233.2,134.32c-.23,0-.61-.14-.65-1.07,0-.47.1-.76.35-.87s.94.13,1.47.51a1.57,1.57,0,0,0,.16-.7.13.13,0,0,1,.13-.14h0a.13.13,0,0,1,.13.13,1.93,1.93,0,0,1-.22.86,9.51,9.51,0,0,1,1,.93.11.11,0,0,1,0,.18.13.13,0,0,1-.18,0,10.94,10.94,0,0,0-1-.87c-.33.56-.83,1-1.24,1Zm0-1.73a.29.29,0,0,0-.14,0c-.18.08-.21.38-.2.62s.09.82.39.82h0c.31,0,.75-.43,1-.93A2.42,2.42,0,0,0,233.15,132.59Z"/><circle class="cls-26" cx="222.07" cy="28.98" r="4.94"/><rect class="cls-13" x="171.28" y="165.39" width="22.57" height="8.28" rx="4.14"/><path class="cls-13" d="M173.19,167.79a9.41,9.41,0,1,1,18.82,0Z"/><rect class="cls-13" x="199.5" y="165.39" width="22.57" height="8.28" rx="4.14"/><path class="cls-13" d="M201.41,167.79a9.41,9.41,0,1,1,18.82,0Z"/><path class="cls-36" d="M226.1,37.19a5.64,5.64,0,0,1-11,1.72,10,10,0,0,1-15.2-.49,10,10,0,0,1-17.41-2.62,4.88,4.88,0,0,1-3.73,1.74,4.93,4.93,0,0,1-4.12-2.22,4.94,4.94,0,0,1-8.35-4.78A5,5,0,0,0,171,34a4.89,4.89,0,0,0,3.62-1.6,5,5,0,0,0,4.12,2.22,4.88,4.88,0,0,0,3.73-1.74,10,10,0,0,0,17.41,2.62,10,10,0,0,0,15.2.48,5.64,5.64,0,0,0,10.83-.27A5.82,5.82,0,0,1,226.1,37.19Z"/><circle class="cls-26" cx="228.03" cy="28.21" r="5.65"/><path class="cls-32" d="M187.18,69.93H206.1a8.47,8.47,0,0,1,8.47,8.47v0a0,0,0,0,1,0,0H178.71a0,0,0,0,1,0,0v0A8.47,8.47,0,0,1,187.18,69.93Z"/><path class="cls-32" d="M241.12,78c0,.26,0,.52,0,.77v0c0,.21,0,.42,0,.63a27.84,27.84,0,0,1-19.49,25.26,17,17,0,0,1-9.5,7.68,10.37,10.37,0,0,1-9,5.25l-12.4.06a10.35,10.35,0,0,1-8.29-4.08,10.79,10.79,0,0,1-.7-1.06.21.21,0,0,1,0-.06,17,17,0,0,1-7.14-4.45,17.88,17.88,0,0,1-1.42-1.71c-.3-.42-.59-.85-.86-1.29l0-.06a27.78,27.78,0,0,1-12.12-7.34c-.25-.26-.5-.52-.74-.8s-.35-.39-.52-.59l-.57-.69s0,0,0,0q-.33-.42-.63-.84c-.21-.29-.42-.58-.62-.88a20.22,20.22,0,0,1-1.12-1.82,27.41,27.41,0,0,1-3.59-12.72c0-.27,0-.55,0-.83h0Z"/><path class="cls-37" d="M241.09,79.39a27.84,27.84,0,0,1-19.49,25.26,17,17,0,0,1-9.5,7.68,10.37,10.37,0,0,1-9,5.25l-12.4.06a10.35,10.35,0,0,1-8.29-4.08,10.79,10.79,0,0,1-.7-1.06,16.81,16.81,0,0,1-7.18-4.51,17.88,17.88,0,0,1-1.42-1.71q-.45-.63-.84-1.29h0a27.77,27.77,0,0,1-12.15-7.4c-.25-.26-.5-.52-.74-.8s-.35-.39-.52-.59l-.57-.69s0,0,0,0q-.33-.42-.63-.84c-.21-.29-.42-.58-.62-.88-.39-.59-.77-1.2-1.12-1.82a27.69,27.69,0,0,1-3.5-11.77c0-.28,0-.56,0-.84A51.7,51.7,0,0,0,172,94.14a62.37,62.37,0,0,0,50-.23,51.71,51.71,0,0,0,19-14.48Z"/><path class="cls-30" d="M228,106.44a27.34,27.34,0,0,1-6.33,2.9,17,17,0,0,1-9.5,7.68,10.37,10.37,0,0,1-9,5.25l-12.4.06a10.35,10.35,0,0,1-8.29-4.08,10.79,10.79,0,0,1-.7-1.06,16.81,16.81,0,0,1-7.18-4.51,17.88,17.88,0,0,1-1.42-1.71q-.45-.63-.84-1.29h0a27.82,27.82,0,0,1-7-3.2v-4a5.16,5.16,0,0,1,.06-.79,27.43,27.43,0,0,0,7,3.18h0q.39.66.84,1.29a17.88,17.88,0,0,0,1.42,1.71,16.81,16.81,0,0,0,7.18,4.51,10.79,10.79,0,0,0,.7,1.06,10.35,10.35,0,0,0,8.29,4.08l12.4-.06a10.37,10.37,0,0,0,9-5.25,17,17,0,0,0,9.5-7.68,27.15,27.15,0,0,0,6.29-2.87,4.71,4.71,0,0,1,0,.53Z"/><path class="cls-31" d="M183.63,75.2h26A1.37,1.37,0,0,1,211,76.57v0a8.23,8.23,0,0,1-8.23,8.23H190.48a8.23,8.23,0,0,1-8.23-8.23v0a1.37,1.37,0,0,1,1.37-1.37Z"/><circle class="cls-10" cx="196.64" cy="67.82" r="4.4"/><path class="cls-32" d="M152.24,67.51h0l.07,10.87h7.19V74.76A7.25,7.25,0,0,0,152.24,67.51Z"/><path class="cls-32" d="M241.19,67.51h0l-.06,10.87h-7.19V74.76A7.25,7.25,0,0,1,241.19,67.51Z"/><circle class="cls-38" cx="158.73" cy="60.27" r="1.94"/><path class="cls-39" d="M158.69,27.51h-.12a.75.75,0,0,1-.62-.86,17,17,0,0,1,19.49-13.93.75.75,0,1,1-.25,1.48,15.45,15.45,0,0,0-17.76,12.7A.75.75,0,0,1,158.69,27.51Z"/><path class="cls-40" d="M161.49,20.75a.82.82,0,0,1-.44-.14.76.76,0,0,1-.17-1.05,17,17,0,0,1,6.39-5.38.75.75,0,0,1,1,.35.74.74,0,0,1-.35,1,15.6,15.6,0,0,0-5.82,4.9A.75.75,0,0,1,161.49,20.75Z"/><circle class="cls-26" cx="216.59" cy="15.53" r="1.88"/><circle class="cls-26" cx="217.87" cy="22.13" r="4.59"/><circle class="cls-26" cx="205.81" cy="28.63" r="2.19"/><circle class="cls-26" cx="212.67" cy="14.22" r="3.67"/><circle class="cls-26" cx="216" cy="20.06" r="5.95"/><circle class="cls-26" cx="207.66" cy="29.42" r="10.03"/><circle class="cls-26" cx="205.82" cy="26.06" r="4.57"/><circle class="cls-26" cx="204.53" cy="19.89" r="3.43"/><circle class="cls-26" cx="204.71" cy="16.36" r="6.28"/><circle class="cls-26" cx="195.52" cy="22.36" r="7.01"/><circle class="cls-26" cx="206.1" cy="28.83" r="2.69"/><circle class="cls-26" cx="218.68" cy="28.78" r="3.18"/><circle class="cls-26" cx="223.39" cy="14.93" r="3.1"/><circle class="cls-26" cx="216.09" cy="12.06" r="3.43"/><circle class="cls-26" cx="218.49" cy="12.04" r="3.83"/><circle class="cls-26" cx="224.18" cy="23.57" r="3.67"/><circle class="cls-26" cx="221.79" cy="19.04" r="7.75"/><circle class="cls-26" cx="200.79" cy="15.75" r="1.88"/><circle class="cls-26" cx="202.07" cy="22.35" r="4.59"/><circle class="cls-26" cx="190.02" cy="28.84" r="2.19"/><circle class="cls-26" cx="196.87" cy="14.43" r="3.67"/><circle class="cls-26" cx="200.2" cy="20.28" r="5.95"/><circle class="cls-26" cx="191.86" cy="29.64" r="10.03"/><circle class="cls-26" cx="190.02" cy="26.27" r="4.57"/><circle class="cls-26" cx="188.74" cy="20.11" r="3.43"/><circle class="cls-26" cx="188.91" cy="16.58" r="6.28"/><circle class="cls-26" cx="179.72" cy="22.57" r="7.01"/><circle class="cls-26" cx="190.3" cy="29.05" r="2.69"/><circle class="cls-26" cx="202.88" cy="29" r="3.18"/><circle class="cls-26" cx="207.59" cy="15.14" r="3.1"/><circle class="cls-26" cx="200.29" cy="12.27" r="3.43"/><circle class="cls-26" cx="202.69" cy="12.26" r="3.83"/><circle class="cls-26" cx="208.38" cy="23.79" r="3.67"/><circle class="cls-26" cx="205.99" cy="19.26" r="7.75"/><circle class="cls-26" cx="170.97" cy="29.26" r="4.94"/><circle class="cls-26" cx="178.71" cy="29.88" r="4.94"/><circle class="cls-26" cx="220.43" cy="34.47" r="5.65"/><circle class="cls-37" cx="207.03" cy="95.66" r="2.14"/><circle class="cls-41" cx="210.41" cy="94.43" r="0.91"/><circle class="cls-41" cx="216.02" cy="93.97" r="0.45"/><circle class="cls-41" cx="200.78" cy="96.86" r="0.38"/><circle class="cls-41" cx="203.24" cy="99.49" r="1.01"/><circle class="cls-41" cx="199.58" cy="93.59" r="0.39"/><circle class="cls-41" cx="196.95" cy="94.31" r="0.72"/><circle class="cls-41" cx="197.48" cy="97.34" r="0.87"/><circle class="cls-41" cx="202.6" cy="92.83" r="0.37"/><circle class="cls-42" cx="173.66" cy="22.74" r="4.41"/><circle class="cls-42" cx="182.45" cy="26.86" r="1.94"/><polygon class="cls-7" points="318.15 170.12 308.38 170.17 308.23 127.58 318 127.53 318.15 170.12"/><polygon class="cls-7" points="333.17 170.05 323.4 170.1 323.25 127.5 333.02 127.46 333.17 170.05"/><path class="cls-21" d="M310.07,170.28a.18.18,0,0,1-.17-.17v-.68a.17.17,0,0,1,.34,0v.68A.18.18,0,0,1,310.07,170.28Zm0-2a.18.18,0,0,1-.17-.17v-.67a.17.17,0,1,1,.34,0v.67A.18.18,0,0,1,310.07,168.26Zm0-2a.17.17,0,0,1-.17-.17v-.67a.17.17,0,1,1,.34,0v.67A.17.17,0,0,1,310.07,166.24Zm0-2a.18.18,0,0,1-.17-.17v-.67a.17.17,0,0,1,.34,0v.67A.18.18,0,0,1,310.07,164.23Zm0-2a.18.18,0,0,1-.17-.17v-.67a.17.17,0,1,1,.34,0V162A.18.18,0,0,1,310.07,162.21Zm0-2a.17.17,0,0,1-.17-.17v-.67a.17.17,0,1,1,.34,0V160A.17.17,0,0,1,310.07,160.19Zm0-2a.18.18,0,0,1-.17-.17v-.67a.17.17,0,1,1,.34,0V158A.18.18,0,0,1,310.07,158.18Zm0-2a.18.18,0,0,1-.17-.17v-.67a.17.17,0,0,1,.34,0V156A.18.18,0,0,1,310.07,156.16Zm0-2a.17.17,0,0,1-.17-.17v-.67a.17.17,0,0,1,.34,0V154A.17.17,0,0,1,310.07,154.14Zm0-2a.18.18,0,0,1-.17-.17v-.67a.17.17,0,1,1,.34,0V152A.18.18,0,0,1,310.07,152.13Zm0-2a.18.18,0,0,1-.17-.17v-.67a.17.17,0,1,1,.34,0v.67A.18.18,0,0,1,310.07,150.11Zm0-2a.17.17,0,0,1-.17-.17v-.67a.17.17,0,0,1,.34,0v.67A.17.17,0,0,1,310.07,148.09Zm0-2a.18.18,0,0,1-.17-.17v-.32a.17.17,0,1,1,.34,0v.32A.18.18,0,0,1,310.07,146.08Z"/><path class="cls-21" d="M316.3,170.28a.18.18,0,0,1-.17-.17v-.68a.17.17,0,0,1,.34,0v.68A.18.18,0,0,1,316.3,170.28Zm0-2a.18.18,0,0,1-.17-.17v-.67a.17.17,0,0,1,.34,0v.67A.18.18,0,0,1,316.3,168.26Zm0-2a.17.17,0,0,1-.17-.17v-.67a.17.17,0,1,1,.34,0v.67A.17.17,0,0,1,316.3,166.24Zm0-2a.18.18,0,0,1-.17-.17v-.67a.17.17,0,0,1,.34,0v.67A.18.18,0,0,1,316.3,164.23Zm0-2a.18.18,0,0,1-.17-.17v-.67a.17.17,0,1,1,.34,0V162A.18.18,0,0,1,316.3,162.21Zm0-2a.17.17,0,0,1-.17-.17v-.67a.17.17,0,0,1,.34,0V160A.17.17,0,0,1,316.3,160.19Zm0-2a.18.18,0,0,1-.17-.17v-.67a.17.17,0,1,1,.34,0V158A.18.18,0,0,1,316.3,158.18Zm0-2a.18.18,0,0,1-.17-.17v-.67a.17.17,0,0,1,.34,0V156A.18.18,0,0,1,316.3,156.16Zm0-2a.17.17,0,0,1-.17-.17v-.67a.17.17,0,0,1,.34,0V154A.17.17,0,0,1,316.3,154.14Zm0-2a.18.18,0,0,1-.17-.17v-.67a.17.17,0,0,1,.34,0V152A.18.18,0,0,1,316.3,152.13Zm0-2a.18.18,0,0,1-.17-.17v-.67a.17.17,0,1,1,.34,0v.67A.18.18,0,0,1,316.3,150.11Zm0-2a.17.17,0,0,1-.17-.17v-.67a.17.17,0,0,1,.34,0v.67A.17.17,0,0,1,316.3,148.09Zm0-2a.18.18,0,0,1-.17-.17v-.32a.17.17,0,1,1,.34,0v.32A.18.18,0,0,1,316.3,146.08Z"/><path class="cls-21" d="M325.12,170.28a.18.18,0,0,1-.17-.17v-.68a.17.17,0,0,1,.34,0v.68A.18.18,0,0,1,325.12,170.28Zm0-2a.18.18,0,0,1-.17-.17v-.67a.17.17,0,0,1,.34,0v.67A.18.18,0,0,1,325.12,168.26Zm0-2a.17.17,0,0,1-.17-.17v-.67a.17.17,0,0,1,.34,0v.67A.17.17,0,0,1,325.12,166.24Zm0-2a.18.18,0,0,1-.17-.17v-.67a.17.17,0,0,1,.34,0v.67A.18.18,0,0,1,325.12,164.23Zm0-2A.18.18,0,0,1,325,162v-.67a.17.17,0,0,1,.34,0V162A.18.18,0,0,1,325.12,162.21Zm0-2A.17.17,0,0,1,325,160v-.67a.17.17,0,0,1,.34,0V160A.17.17,0,0,1,325.12,160.19Zm0-2A.18.18,0,0,1,325,158v-.67a.17.17,0,0,1,.34,0V158A.18.18,0,0,1,325.12,158.18Zm0-2A.18.18,0,0,1,325,156v-.67a.17.17,0,0,1,.34,0V156A.18.18,0,0,1,325.12,156.16Zm0-2A.17.17,0,0,1,325,154v-.67a.17.17,0,0,1,.34,0V154A.17.17,0,0,1,325.12,154.14Zm0-2A.18.18,0,0,1,325,152v-.67a.17.17,0,0,1,.34,0V152A.18.18,0,0,1,325.12,152.13Zm0-2a.18.18,0,0,1-.17-.17v-.67a.17.17,0,0,1,.34,0v.67A.18.18,0,0,1,325.12,150.11Zm0-2a.17.17,0,0,1-.17-.17v-.67a.17.17,0,0,1,.34,0v.67A.17.17,0,0,1,325.12,148.09Zm0-2a.18.18,0,0,1-.17-.17v-.32a.17.17,0,0,1,.34,0v.32A.18.18,0,0,1,325.12,146.08Z"/><path class="cls-21" d="M331.35,170.28a.18.18,0,0,1-.17-.17v-.68a.17.17,0,0,1,.17-.16.16.16,0,0,1,.17.16v.68A.17.17,0,0,1,331.35,170.28Zm0-2a.18.18,0,0,1-.17-.17v-.67a.18.18,0,0,1,.17-.17.17.17,0,0,1,.17.17v.67A.17.17,0,0,1,331.35,168.26Zm0-2a.17.17,0,0,1-.17-.17v-.67a.18.18,0,0,1,.17-.17.17.17,0,0,1,.17.17v.67A.16.16,0,0,1,331.35,166.24Zm0-2a.18.18,0,0,1-.17-.17v-.67a.17.17,0,0,1,.17-.17.16.16,0,0,1,.17.17v.67A.17.17,0,0,1,331.35,164.23Zm0-2a.18.18,0,0,1-.17-.17v-.67a.18.18,0,0,1,.17-.17.17.17,0,0,1,.17.17V162A.17.17,0,0,1,331.35,162.21Zm0-2a.17.17,0,0,1-.17-.17v-.67a.18.18,0,0,1,.17-.17.17.17,0,0,1,.17.17V160A.16.16,0,0,1,331.35,160.19Zm0-2a.18.18,0,0,1-.17-.17v-.67a.17.17,0,0,1,.17-.17.16.16,0,0,1,.17.17V158A.17.17,0,0,1,331.35,158.18Zm0-2a.18.18,0,0,1-.17-.17v-.67a.18.18,0,0,1,.17-.17.17.17,0,0,1,.17.17V156A.17.17,0,0,1,331.35,156.16Zm0-2a.17.17,0,0,1-.17-.17v-.67a.18.18,0,0,1,.17-.17.17.17,0,0,1,.17.17V154A.16.16,0,0,1,331.35,154.14Zm0-2a.18.18,0,0,1-.17-.17v-.67a.17.17,0,0,1,.17-.17.16.16,0,0,1,.17.17V152A.17.17,0,0,1,331.35,152.13Zm0-2a.18.18,0,0,1-.17-.17v-.67a.18.18,0,0,1,.17-.17.17.17,0,0,1,.17.17v.67A.17.17,0,0,1,331.35,150.11Zm0-2a.17.17,0,0,1-.17-.17v-.67a.18.18,0,0,1,.17-.17.17.17,0,0,1,.17.17v.67A.16.16,0,0,1,331.35,148.09Zm0-2a.18.18,0,0,1-.17-.17v-.32a.18.18,0,0,1,.17-.17.17.17,0,0,1,.17.17v.32A.17.17,0,0,1,331.35,146.08Z"/><circle class="cls-4" cx="301.37" cy="139.45" r="4.56"/><circle class="cls-4" cx="341.7" cy="139.45" r="4.56"/><path class="cls-43" d="M304.52,108.57l.07,27.46h-6.45V117.31a10.43,10.43,0,0,1,6.46-9.64A5.29,5.29,0,0,0,304.52,108.57Z"/><path class="cls-43" d="M337.88,108.57,337.81,136h6.45V117.31a10.43,10.43,0,0,0-6.46-9.64A5.29,5.29,0,0,1,337.88,108.57Z"/><polygon class="cls-8" points="318.06 151.29 308.29 151.34 308.23 127.58 318 127.53 318.06 151.29"/><polygon class="cls-8" points="333.08 151.22 323.31 151.27 323.25 127.5 333.02 127.46 333.08 151.22"/><rect class="cls-44" x="303.94" y="104.36" width="34.85" height="43.87" rx="5.93"/><rect class="cls-44" x="300.45" y="117.56" width="1.84" height="10.02" rx="0.92"/><rect class="cls-13" x="304.73" y="168.07" width="14.79" height="5.43" rx="2.71"/><path class="cls-13" d="M306,169.64a6.17,6.17,0,0,1,12.34,0Z"/><rect class="cls-13" x="320.82" y="168.07" width="14.79" height="5.43" rx="2.71"/><path class="cls-13" d="M322.07,169.64a6.17,6.17,0,0,1,12.33,0Z"/><rect class="cls-4" x="314.24" y="94.42" width="13.17" height="10.03"/><path class="cls-45" d="M314.24,85.78h13.17a0,0,0,0,1,0,0v10.7a6.58,6.58,0,0,1-6.58,6.58h0a6.58,6.58,0,0,1-6.58-6.58V85.78A0,0,0,0,1,314.24,85.78Z"/><path class="cls-1" d="M322.35,26H331a18.71,18.71,0,0,1,18.71,18.71V74.79a0,0,0,0,1,0,0H322.35a0,0,0,0,1,0,0V26A0,0,0,0,1,322.35,26Z"/><circle class="cls-4" cx="296.79" cy="59.28" r="4.96"/><circle class="cls-46" cx="296.79" cy="59.28" r="2.58"/><circle class="cls-4" cx="343.7" cy="59.28" r="4.96"/><circle class="cls-46" cx="343.7" cy="59.28" r="2.58"/><rect class="cls-4" x="297.96" y="49.56" width="45.73" height="45.73" rx="13.16" transform="translate(143.88 -204.82) rotate(44.73)"/><rect class="cls-4" x="297.96" y="31.47" width="45.73" height="45.73" rx="13.16" transform="translate(-0.25 1.5) rotate(-0.27)"/><path class="cls-12" d="M347.7,73a13.11,13.11,0,0,1-3.81,8.58L330.23,95.41a13.17,13.17,0,0,1-18.61.09L297.83,81.83A13,13,0,0,1,294,73a32,32,0,0,0,53.75,0Z"/><circle class="cls-10" cx="320.9" cy="69.39" r="1.59"/><rect class="cls-44" x="310.11" y="101.4" width="22.5" height="4.43" rx="2.22"/><path class="cls-47" d="M332.61,105.11a2.2,2.2,0,0,1-.65,1.56,2.22,2.22,0,0,1-1.57.65H312.33a2.22,2.22,0,0,1-2.22-2.21,2.33,2.33,0,0,1,.13-.76,2.24,2.24,0,0,0,2.09,1.45h18.06a2.22,2.22,0,0,0,1.57-.65,2.4,2.4,0,0,0,.52-.8A2.33,2.33,0,0,1,332.61,105.11Z"/><rect class="cls-43" x="312.12" y="102.06" width="1.32" height="3.27" rx="0.66"/><rect class="cls-43" x="314.98" y="102.06" width="1.32" height="3.27" rx="0.66"/><rect class="cls-43" x="317.84" y="102.06" width="1.32" height="3.27" rx="0.66"/><rect class="cls-43" x="320.7" y="102.06" width="1.32" height="3.27" rx="0.66"/><rect class="cls-43" x="323.56" y="102.06" width="1.32" height="3.27" rx="0.66"/><rect class="cls-43" x="329.28" y="102.06" width="1.32" height="3.27" rx="0.66"/><rect class="cls-43" x="326.42" y="102.06" width="1.32" height="3.27" rx="0.66"/><g class="cls-48"><rect class="cls-14" x="307.19" y="52.43" width="9.11" height="3.95" rx="1.98"/><rect class="cls-14" x="325.38" y="52.25" width="9.11" height="3.95" rx="1.98"/></g><path class="cls-38" d="M302.49,61.35a1.5,1.5,0,0,1-1.5-1.5V52.92a1.5,1.5,0,0,1,3,0v6.93A1.5,1.5,0,0,1,302.49,61.35Z"/><path class="cls-38" d="M158.73,54.92a1.5,1.5,0,0,1-1.5-1.5V46.48a1.5,1.5,0,1,1,3,0v6.94A1.5,1.5,0,0,1,158.73,54.92Z"/><circle class="cls-49" cx="346.28" cy="64.23" r="1.87"/><circle class="cls-31" cx="346.28" cy="64.23" r="0.93"/><circle class="cls-49" cx="297.07" cy="64.23" r="1.87"/><circle class="cls-31" cx="297.07" cy="64.23" r="0.93"/><path class="cls-1" d="M316,22.92h31.63a0,0,0,0,1,0,0v.39a22.32,22.32,0,0,1-22.32,22.32H293.66a0,0,0,0,1,0,0v-.39A22.32,22.32,0,0,1,316,22.92Z"/><path class="cls-3" d="M315,32h-5.09a1,1,0,0,1,0-2H315a1,1,0,0,1,0,2Z"/><path class="cls-3" d="M333,29.86h-5.1a1,1,0,0,1,0-2H333a1,1,0,0,1,0,2Z"/><path class="cls-3" d="M324,35.26h-5.09a1,1,0,0,1,0-2H324a1,1,0,0,1,0,2Z"/><path class="cls-36" d="M342.7,39.67A22.24,22.24,0,0,1,325.29,48H297.93l0-2.41h27.38A22.25,22.25,0,0,0,342,38.14,13.49,13.49,0,0,1,342.7,39.67Z"/><path class="cls-10" d="M318.65,76.11a3.87,3.87,0,0,1-2.21-.47,1.05,1.05,0,0,1-.43-.85.39.39,0,0,1,.77,0,.28.28,0,0,0,.13.24c.95.75,5.34,0,7.88-.61a.38.38,0,0,1,.18.74A31.25,31.25,0,0,1,318.65,76.11Z"/><rect class="cls-13" x="328.12" y="57.65" width="3.87" height="8.42" rx="1.93"/><path class="cls-13" d="M330.93,58.11,333.28,57h0A4.89,4.89,0,0,1,332,59.25L330.9,60.4Z"/><path class="cls-13" d="M331.18,59.43l2.6-.18h0a5,5,0,0,1-2,1.64l-1.46.66Z"/><circle class="cls-31" cx="329.4" cy="63.3" r="0.65"/><rect class="cls-13" x="310.11" y="57.65" width="3.87" height="8.42" rx="1.93" transform="translate(624.1 123.72) rotate(-180)"/><path class="cls-13" d="M311.17,58.11,308.82,57h0a4.89,4.89,0,0,0,1.26,2.25l1.12,1.15Z"/><path class="cls-13" d="M310.92,59.43l-2.6-.18h0a5,5,0,0,0,2,1.64l1.46.66Z"/><circle class="cls-31" cx="312.7" cy="63.3" r="0.65"/><rect class="cls-1" x="307.19" y="51.09" width="9.11" height="3.95" rx="1.98"/><rect class="cls-1" x="325.38" y="50.91" width="9.11" height="3.95" rx="1.98"/></g></g></svg>