<?xml version="1.0" encoding="UTF-8"?>
<svg id="Layer_2" data-name="Layer 2" xmlns="http://www.w3.org/2000/svg" viewBox="0 0 122.63 335.26">
  <defs>
    <style>
      .cls-1, .cls-2, .cls-3, .cls-4 {
        fill: #fff;
      }

      .cls-5 {
        fill: #fcd051;
      }

      .cls-6 {
        fill: #fcc5a1;
      }

      .cls-7 {
        fill: #e79076;
      }

      .cls-8 {
        fill: #fdebb1;
      }

      .cls-9 {
        fill: #6b64ff;
      }

      .cls-10 {
        fill: #8e8ffc;
      }

      .cls-11 {
        fill: #191818;
      }

      .cls-12 {
        fill: #3f2e44;
      }

      .cls-13 {
        fill: #6f6372;
      }

      .cls-14 {
        fill: #9589fd;
      }

      .cls-15 {
        fill: #88431b;
      }

      .cls-16 {
        fill: #4f3c54;
      }

      .cls-17 {
        fill: #7c2f08;
      }

      .cls-2, .cls-18 {
        opacity: .21;
      }

      .cls-19 {
        opacity: .22;
      }

      .cls-20, .cls-3 {
        opacity: .87;
      }

      .cls-21 {
        opacity: .62;
      }

      .cls-21, .cls-22, .cls-23, .cls-24 {
        fill: #ee7756;
      }

      .cls-25 {
        fill: #63456b;
        opacity: .54;
      }

      .cls-22 {
        opacity: .52;
      }

      .cls-23 {
        opacity: .5;
      }

      .cls-4 {
        opacity: .24;
      }

      .cls-24 {
        opacity: .37;
      }
    </style>
  </defs>
  <g id="Layer_1-2" data-name="Layer 1">
    <g>
      <path class="cls-13" d="M32.84,308.23c-.73,.48-1.57,.77-2.42,.99-3.82,1.03-7.93,.83-11.72-.34-.39-.12-.82-.29-1-.65-.13-.27-.1-.59-.06-.89,.24-1.85,.56-3.69,.8-5.54,.19-1.44,.37-2.87,.56-4.31,.23-1.74,.45-3.48,.68-5.22l.77-5.95c.28-2.17,.56-4.33,.84-6.5,.3-2.29,.59-4.58,.89-6.87,.31-2.36,.61-4.71,.92-7.07,.31-2.36,.61-4.72,.92-7.08,.3-2.31,.6-4.61,.9-6.92,.28-2.19,.57-4.38,.85-6.58l.79-6.05,.7-5.35c.19-1.49,.39-2.98,.58-4.48,.15-1.14,.3-2.28,.44-3.42l.28-2.18,.1-.77-1.68-.85-.37-1.26c-.15,1.13,.72,2.13,1.86,2.13l25.8,5.85,23.87-5.85c1.12,0,1.99-.98,1.86-2.1l-2.86,2.38,14.03,32.61c.63,1.28,.91,2.7,.81,4.14l-.09,1.18c-.07,.94-.14,1.88-.21,2.81-.1,1.37-.2,2.75-.3,4.12-.12,1.7-.25,3.4-.37,5.09-.14,1.91-.28,3.82-.42,5.74-.15,2.02-.3,4.03-.44,6.05s-.29,4.02-.44,6.03c-.14,1.89-.28,3.78-.42,5.68-.12,1.66-.24,3.33-.37,4.99-.1,1.33-.19,2.65-.29,3.98-.06,.88-.13,1.76-.19,2.63-.02,.32-.05,.64-.07,.96-.36-.03-.67,.12-1.01,.23-.41,.13-.82,.25-1.23,.37-.83,.22-1.67,.4-2.52,.46-1.62,.12-3.23-.15-4.82-.42-.7-.12-1.48-.16-2.15-.4-.51-.19-1.17-.19-1.46-.73-.16-.3-.14-.65-.13-.99,.03-1.04-.05-2.08-.12-3.11-.06-.95-.03-1.9-.07-2.84-.09-2.19-.19-4.39-.28-6.58l-.33-7.57c-.11-2.61-.23-5.22-.34-7.83-.11-2.45-.21-4.9-.32-7.36-.09-2.05-.18-4.1-.27-6.16-.06-1.41-.12-2.82-.18-4.23-.02-.52-.05-1.05-.07-1.57l-19.39-23.8,3.18-7.01c-10.54,19.43-20.89,56.31-23.77,78.22"/>
      <path class="cls-25" d="M18.7,308.74c4.34,1.43,9.1,1.46,13.45,.09,1.84-.58,1.05-3.47-.8-2.89-3.88,1.22-7.99,1.19-11.86-.09-.77-.25-1.64,.29-1.85,1.05-.22,.82,.28,1.59,1.05,1.85h0Z"/>
      <path class="cls-25" d="M29.44,226.2c4,1.08,8.03,2.03,12.08,2.91s7.95,1.88,11.95,2.41c1.96,.26,3.78-.18,5.67-.67s3.85-.92,5.78-1.35c4.02-.88,8.04-1.75,11.93-3.09,1.82-.62,1.04-3.52-.8-2.89-3.67,1.26-7.45,2.11-11.24,2.93-1.93,.42-3.87,.84-5.79,1.32s-3.64,1.04-5.59,.72c-7.78-1.29-15.59-3.13-23.21-5.19-1.87-.51-2.66,2.39-.8,2.89h0Z"/>
      <path class="cls-14" d="M74.65,171.03l22.77-22.92-2.18-56.61c-2.54,.46-6.41,.4-8.97,.06-1.14-.15-2.29-.39-3.28-.98l.26,49.21-14.99,9.14-4.97-.35c.47,.18,.98,.4,1.18,.85,.21,.47,0,1.05-.37,1.4s-.88,.53-1.38,.65c-2.95,.74-6.21,.12-8.68-1.65-.46-.33-.94-.83-.78-1.37,.17-.58,.91-.72,1.51-.75l-1.81,.79c-2.24,.77-4.4,.33-5.94-.8l-2.09-2.29-7.35-10.75,.27-44.29c-2.54,.46-5.42,.44-7.98,.09-1.14-.15-2.29-.39-3.28-.98l-4.2,49.63,12.87,26.79-8.6,55.1c-.15,1.13,.72,2.13,1.86,2.13l25.8,5.85,23.87-5.85c1.12,0,1.99-.98,1.86-2.1l-6.37-57.24"/>
      <path class="cls-9" d="M29.75,220.96c2.5-17.68,5.71-35.25,8.22-52.93,.11-.81-.2-1.6-1.05-1.85-.7-.2-1.73,.25-1.85,1.05-2.5,17.68-5.71,35.25-8.22,52.93-.11,.81,.2,1.6,1.05,1.85,.7,.2,1.73-.25,1.85-1.05h0Z"/>
      <path class="cls-9" d="M78.11,167.44c3.36-3.22,6.75-6.42,10.05-9.7,1.62-1.61,3.22-3.25,4.76-4.94,.75-.83,1.49-1.66,2.22-2.52,.67-.79,1.68-1.72,2.08-2.67,.26-.62,.09-1.47,.06-2.12l-.18-4.37-1.18-28.04c-.11-2.57-.22-5.14-.33-7.71-.08-1.92-3.08-1.93-3,0,.51,12.18,1.03,24.36,1.54,36.54,.07,1.71,.14,3.42,.22,5.12l.44-1.06c-5.53,7.09-12.33,13.14-18.8,19.35-1.4,1.34,.73,3.46,2.12,2.12h0Z"/>
      <path class="cls-6" d="M41.03,80.04l-15.48-.41s-.07,.04-.1,.05l-6.25-.24c-.28,.87,.24,1.81,.92,2.43,.91,.83,2.06,1.26,3.28,1.49h-.16c.06,0,.14,0,.2,0,1.1,.2,2.27,.25,3.39,.27,.91,.02,1.82,.03,2.73,.05-.28,1.47-1.15,4.97-1.43,6.43l3.49,.39,4.23,.02c.9-1.97,2.7-4.47,4.14-6.11,.47-.53,.97-1.07,1.27-1.71,.3-.65,.14-2.06-.23-2.67Z"/>
      <path class="cls-6" d="M80.5,80.63l15.37,.56s.33-.02,.37,0l6.1,.29c.2,.89-.47,2.45-1.2,3-.99,.74-2.17,1.05-3.41,1.16h.16c-.06,0-.14,0-.2,0-1.12,.09-2.28,.03-3.4-.06-.91-.07-1.82-.14-2.72-.21,.13,1.49,.66,5.06,.79,6.53l-3.52,.05-4.21-.39c-.7-2.04-2.25-4.71-3.53-6.48-.42-.58-.86-1.15-1.09-1.83-.24-.67,.06-2.06,.49-2.63Z"/>
      <path class="cls-7" d="M26.54,81.91c3.87,.11,7.74,.22,11.6,.33l1.67,.05c1.89,.05,1.89-2.89,0-2.94-3.87-.11-7.74-.22-11.6-.33l-1.67-.05c-1.89-.05-1.89,2.89,0,2.94h0Z"/>
      <path class="cls-7" d="M81.97,83.24c3.59,.13,7.18,.26,10.77,.38l1.55,.06c1.89,.07,1.89-2.87,0-2.94-3.59-.13-7.18-.26-10.77-.38l-1.55-.06c-1.89-.07-1.89,2.87,0,2.94h0Z"/>
      <path class="cls-1" d="M100.1,3.99l-2.14,12.29-2.14,12.28c-.43,2.47-3.37,3.55-5.3,1.95l-5.03-4.2-20.27,22.05c-1.96,2.05-5.1,2.39-7.45,.82l-5.35-3.57-9.19,10.99c-1.19,1.42-2.9,2.13-4.62,2.08-1.27-.04-2.53-.48-3.58-1.35-2.47-2.06-2.8-5.74-.73-8.21l12.55-15c1.91-2.29,5.23-2.76,7.7-1.11l5.63,3.76,16.35-17.95-5.14-4.29c-1.92-1.6-1.39-4.69,.97-5.56l11.71-4.28L95.77,.37c2.35-.86,4.77,1.15,4.33,3.62Z"/>
      <g class="cls-19">
        <path class="cls-10" d="M99.9,4.15l-2.14,12.29-2.13,12.28c-.43,2.47-3.38,3.55-5.3,1.94l-5.04-4.2-20.26,22.05c-1.96,2.04-5.11,2.39-7.45,.82l-5.35-3.58-9.2,10.99c-1.19,1.42-2.9,2.14-4.62,2.09-1.26-.04-2.53-.48-3.57-1.36-1.61-1.34-2.31-3.36-2.03-5.29,.15,.17,.32,.33,.5,.48,1.05,.87,2.31,1.31,3.58,1.35,1.72,.05,3.43-.66,4.62-2.08l9.19-11,5.35,3.58c2.35,1.57,5.49,1.22,7.45-.82l20.27-22.05,5.03,4.21c1.93,1.6,4.88,.52,5.3-1.95l2.14-12.28,1.9-10.93c1.22,.6,2.03,1.94,1.76,3.46Z"/>
      </g>
      <path class="cls-8" d="M63.17,80.4l-54.58-1.16c-4.59-.12-8.21-3.94-8.09-8.53h0c.12-4.59,3.94-8.21,8.53-8.09l23.11,.32,3.82,.1,78.44,1.95c4.59,.12,8.21,3.94,8.09,8.53h0c-.12,4.59-3.94,8.21-8.53,8.09l-46.52-1.11"/>
      <path class="cls-5" d="M122.19,73.17c-.12,4.51-3.82,8.08-8.31,8.08h-.22l-46.52-1.1-4.26-.12-54.59-1.16c-3.86-.1-7.04-2.82-7.87-6.42,1.47,1.6,3.55,2.62,5.89,2.68l54.59,1.16,4.26,.12,46.52,1.1h.22c4.49,0,8.19-3.57,8.31-8.08,.02-.73-.06-1.43-.22-2.11,1.42,1.53,2.26,3.6,2.2,5.85Z"/>
      <path class="cls-13" d="M91.02,316.9c.14,.08,.29,.16,.43,.25,.65,.4,1.26,.87,1.87,1.34,.47,.37,1.01,.5,1.48,.84,1.16,.85,2.22,1.87,3.15,2.97,1.65,1.96,3.66,4.94,3.82,7.55-9.27,1.51-21.8,1.44-31.04-.2-.18-1.78,.06-3.6,.66-5.29,.28-.77,.61-1.68,1.13-2.32,.64-.79,1.29-1.57,1.93-2.35l1.82-2.21c.07-.09,.16-.18,.27-.21,.17-.03,.32,.1,.46,.2,.22,.15,.49,.23,.74,.31,1.03,.3,2.06,.6,3.12,.74,.95,.13,2.01,.3,2.96,.09,.82-.19,1.6-.27,2.08-1.08,.11-.19,.2-.41,.31-.6,.25-.41,.66-.72,1.12-.86,.36-.1,.74-.1,1.11-.06,.91,.11,1.77,.44,2.58,.89Z"/>
      <path class="cls-13" d="M19.01,316.48c-1.11,.5-2.1,1.22-2.98,2.06-2.48,2.37-4.13,5.66-4.2,9.13l.03,.15c8.39,6.9,20.53,8.92,30.71,5.11l.06-1.33c.16-2.61-1.48-5.81-2.88-7.96-.93-1.43-2.06-2.73-3.34-3.85-.63-.55-1.29-1.04-2-1.48-.79-.5-1.5-1.12-2.3-1.62-.4-.25-.8-.48-1.22-.68"/>
      <path class="cls-12" d="M20.1,314.55c.5-.05,.06,.06-.06-.21,.32,.72,1.27,.64,1.77,.23,.24-.2,.33-.49,.42-.78l-.29,.5,.05-.06-.5,.29c-.17,0-.18,.01-.05,.02,.09,0,.18,0,.27,.01,.18,0,.36,.01,.54,.01,.33,0,.67,0,1,0,.7,0,1.39-.03,2.09-.05,1.39-.03,2.78-.04,4.16,.13l-.57-2.1c-.09,.06-.19,.15-.3,.16-.6,.07-1.12,.47-1.12,1.12,0,.55,.52,1.19,1.12,1.12,.53-.06,.99-.17,1.44-.47,.42-.27,.65-.77,.52-1.27s-.59-.77-1.08-.83c-1.68-.2-3.38-.15-5.07-.11-.85,.02-1.69,.04-2.54,.01-.44-.01-.87-.07-1.27,.16-.38,.22-.49,.6-.64,.98l.29-.5-.06,.05,1.77,.23c-.32-.73-1.15-.98-1.89-.91-.6,.06-1.12,.48-1.12,1.12,0,.56,.52,1.18,1.12,1.12h0Z"/>
      <path class="cls-12" d="M77.38,315.14c.5-.05,.06,.06-.06-.21,.32,.72,1.27,.64,1.77,.23,.24-.2,.33-.49,.42-.78l-.29,.5,.05-.06-.5,.29c-.17,0-.18,.01-.05,.02,.09,0,.18,0,.27,.01,.18,0,.36,.01,.54,.01,.33,0,.67,0,1,0,.7,0,1.39-.03,2.09-.05,1.39-.03,2.78-.04,4.16,.13l-.57-2.1c-.09,.06-.19,.15-.3,.16-.6,.07-1.12,.47-1.12,1.12,0,.55,.52,1.19,1.12,1.12,.53-.06,.99-.17,1.44-.47,.42-.27,.65-.77,.52-1.27s-.59-.77-1.08-.83c-1.68-.2-3.38-.15-5.07-.11-.85,.02-1.69,.04-2.54,.01-.44-.01-.87-.07-1.27,.16-.38,.22-.49,.6-.64,.98l.29-.5-.06,.05,1.77,.23c-.32-.73-1.15-.98-1.89-.91-.6,.06-1.12,.48-1.12,1.12,0,.56,.52,1.18,1.12,1.12h0Z"/>
      <path class="cls-13" d="M19.19,316.25c1.64,1.22,3.85,1.67,5.86,1.7s4.16-.52,5.62-1.95c1.04-1.01-.55-2.6-1.59-1.59s-2.73,1.32-4.17,1.28c-1.61-.05-3.27-.41-4.58-1.39-.49-.36-1.26-.08-1.54,.4-.33,.57-.09,1.18,.4,1.54h0Z"/>
      <path class="cls-13" d="M86.11,314.88c-1.05,1.03-2.68,1.31-4.1,1.28-1.63-.03-3.3-.42-4.63-1.4l.56,.97v-.11c0-1.45-2.25-1.45-2.25,0,0,1.21,1.69,1.81,2.64,2.15,1.08,.39,2.24,.57,3.38,.62,2.11,.1,4.44-.42,5.99-1.93,1.04-1.01-.55-2.6-1.59-1.59h0Z"/>
      <rect class="cls-6" x="22.09" y="309.71" width="5.91" height="5.43"/>
      <path class="cls-22" d="M28.01,311.68h-.02c-1.91,.67-3.99,.67-5.89,0h0v-1.97h5.91v1.97Z"/>
      <path class="cls-6" d="M83.9,315.96l-1.76,.04-1.84-.04c-.73,0-1.32-.59-1.32-1.32v-4.11h6.16v4.18c0,.69-.56,1.24-1.24,1.24Z"/>
      <path class="cls-22" d="M83.9,312.7h-1.76s-1.84,0-1.84,0c-.73,0-1.32-.23-1.32-.52v-1.64h6.16v1.67c0,.27-.56,.49-1.24,.49Z"/>
      <path class="cls-15" d="M76.1,105.84c.5,.55,1.01,1.11,1.39,1.76,.69,1.2,.88,2.64,.68,4.01-.2,1.37-.77,2.66-1.5,3.83-1.29-1.02-2.45-2.2-3.46-3.49-.09-.12-.19-.24-.22-.39-.04-.15-.01-.32,.01-.47,.18-1.05,.35-2.1,.53-3.14"/>
      <path class="cls-15" d="M61.39,95.24c1.28-.38,2.74-.18,3.8,.62s1.66,2.23,1.36,3.53c-.14,.63-.51,1.24-1.09,1.52l.79-4.08c1.93-1.44,4.6-1.86,6.85-.99s3.97,3.02,4.22,5.42c.25,2.39-1.04,4.9-3.17,6.02l-.84-1.53c1.36,1.63,.5,4.39-1.36,5.39s-4.27,.51-5.99-.73c-.02,1.15-.84,2.17-1.85,2.71s-2.2,.65-3.35,.65l-2.75-.24c-2-.34-3.94-1.03-5.69-2.03-.28,2.4-.56,4.81-.84,7.21-.1,.86-.21,1.75-.61,2.52s-1.16,1.42-2.03,1.42l-3.8-2.33c-1.52-2.31-1.8-5.32-1.03-7.98,.77-2.66,2.5-4.97,4.65-6.73l1.1,.39c-.69-.37-1.15-1.09-1.32-1.85s-.07-1.56,.16-2.31c1.04-3.34,4.48-4.92,7.77-4.92,.53,0,1.05,.04,1.57,.12,.19,.03,.53,.17,.71,.1,.15-.06,.3-.33,.41-.45,.64-.67,1.44-1.19,2.32-1.45Z"/>
      <path class="cls-6" d="M72.07,111.1c-1.87,1.01-4.27,.51-5.99-.73-.02,1.15-.84,2.17-1.85,2.71s-2.2,.65-3.35,.65l-2.75-.24c-2-.34-3.94-1.03-5.69-2.03-.28,2.4-.56,4.81-.84,7.21-.1,.86-.21,1.75-.61,2.52s-1.16,1.42-2.03,1.42l.44,1.09c-.72-1.15-1.55-2.11-2.77-2.71s-2.8-.61-3.85,.25c-.74,.6-1.13,1.56-1.2,2.51-.15,1.94,1.05,3.92,2.84,4.68s4.04,.27,5.35-1.18l-4.05,2c-.83,8.31,5.23,15.72,13.54,16.55h0c8.31,.83,15.72-5.23,16.55-13.54l.5-5.04,.19-1.91,.35-3.53c.44-4.39-.9-8.38-3.63-11.43"/>
      <ellipse class="cls-1" cx="61.06" cy="123.54" rx="4.69" ry="3.31" transform="translate(-67.93 172.03) rotate(-84.3)"/>
      <ellipse class="cls-1" cx="69.81" cy="124.41" rx="4.69" ry="3.31" transform="translate(-60.92 181.52) rotate(-84.3)"/>
      <path class="cls-6" d="M55.48,144.93c-.37,1.56-.86,3.09-1.48,4.57,.98,.98,2.29,1.56,3.64,1.86s2.74,.32,4.12,.3c.15,0,.3,0,.43-.08,.34-.2,1.01-.32,.9-.7-.39-1.4-.4-3.64-.29-5.08"/>
      <path class="cls-11" d="M88.73,309.38c.33-4.48,.66-8.96,.98-13.44,.59-8.12,1.19-16.24,1.78-24.36l.64-8.79c.15-2.07,.44-4.1-.29-6.11-.62-1.71-1.45-3.38-2.17-5.06l-4.43-10.3-4.79-11.13c-.95-2.21-1.81-4.49-2.87-6.66-.05-.11-.1-.23-.15-.35-.18-.42-.8-.06-.62,.36,2.16,5.02,4.32,10.03,6.48,15.05,2.48,5.76,4.96,11.53,7.44,17.29,.83,1.93,.92,3.71,.77,5.72l-.56,7.7-1.75,23.87-.76,10.41c-.13,1.8-.48,3.73-.41,5.54,0,.08-.01,.17-.02,.25-.03,.46,.68,.46,.72,0h0Z"/>
      <path class="cls-11" d="M17.56,308.69c4.78,2.13,10.92,2.44,15.64-.05,.41-.21,.05-.83-.36-.62-4.47,2.36-10.38,2.07-14.92,.05-.42-.19-.78,.43-.36,.62h0Z"/>
      <path class="cls-11" d="M75.16,309.8c2.25,.71,4.6,1.1,6.96,1.16,2.16,.05,4.48-.06,6.41-1.12,.4-.22,.04-.84-.36-.62-1.89,1.04-4.19,1.09-6.3,1.02-2.22-.07-4.41-.47-6.52-1.13-.44-.14-.63,.55-.19,.69h0Z"/>
      <g>
        <path class="cls-11" d="M30.87,232.85c1.56-.05,3.08-.68,4.19-1.78s1.76-2.61,1.83-4.17c.02-.46-.69-.46-.72,0-.13,2.84-2.46,5.15-5.31,5.24-.46,.01-.46,.73,0,.72h0Z"/>
        <path class="cls-11" d="M33.41,230.49c.46,0,.46-.72,0-.72s-.46,.72,0,.72h0Z"/>
      </g>
      <g>
        <path class="cls-11" d="M76.96,231.1c-2.95-.16-5.69-2.16-6.73-4.92-.16-.43-.85-.24-.69,.19,1.16,3.08,4.14,5.27,7.42,5.45,.46,.03,.46-.69,0-.72h0Z"/>
        <path class="cls-11" d="M73.48,228.77c.46,0,.46-.72,0-.72s-.46,.72,0,.72h0Z"/>
      </g>
      <path class="cls-11" d="M18.17,306.85c3.67,1.19,7.57,1.43,11.36,.71,.45-.09,.26-.78-.19-.69-3.66,.7-7.44,.44-10.98-.71-.44-.14-.63,.55-.19,.69h0Z"/>
      <path class="cls-11" d="M77.13,307.71c3.56,.95,7.28,1.12,10.92,.51,.45-.08,.26-.77-.19-.69-3.51,.59-7.1,.41-10.54-.51-.45-.12-.63,.57-.19,.69h0Z"/>
      <g>
        <path class="cls-11" d="M75.64,313.29c.04,1.01,.93,1.67,1.78,2.06,1.4,.65,2.99,.86,4.52,.86s3.12-.22,4.52-.86c.85-.39,1.74-1.05,1.78-2.06h-.72v2.55c0,1.17-1.26,1.69-2.23,1.99-1.91,.59-4.08,.62-6.02,.18-.98-.22-2.83-.72-2.91-1.97-.06-.91,0-1.84,0-2.75,0-.46-.72-.46-.72,0,0,.92-.04,1.85,0,2.77,.06,1.4,1.6,2.09,2.76,2.45,2.03,.63,4.33,.65,6.4,.18,1.22-.28,3.13-.9,3.41-2.34,.09-.46,.03-.97,.03-1.44v-1.62c0-.46-.7-.46-.72,0-.03,.84-1.1,1.33-1.77,1.59-1.21,.46-2.53,.62-3.81,.62s-2.55-.16-3.74-.59c-.69-.25-1.81-.75-1.84-1.61-.02-.46-.73-.46-.72,0Z"/>
        <path class="cls-11" d="M78.53,310.41v4.59c0,.46,.72,.46,.72,0v-4.59c0-.46-.72-.46-.72,0h0Z"/>
        <path class="cls-11" d="M84.97,310.67c0,1.26,0,2.53,.01,3.79v.55c0,.46,.72,.46,.72,0,0-1.26,0-2.53-.01-3.79v-.55c0-.46-.72-.46-.72,0h0Z"/>
        <path class="cls-11" d="M76.11,313.64c.82-.29,1.68-.49,2.55-.57,.19-.02,.36-.15,.36-.36,0-.18-.16-.38-.36-.36-.93,.08-1.85,.28-2.74,.59-.18,.06-.3,.24-.25,.44,.05,.18,.26,.31,.44,.25h0Z"/>
        <path class="cls-11" d="M85.33,313.08c.79,.05,1.58,.32,2.35,.53,.44,.12,.63-.57,.19-.69-.83-.23-1.67-.5-2.54-.56-.19-.01-.36,.17-.36,.36,0,.2,.16,.34,.36,.36h0Z"/>
      </g>
      <g>
        <path class="cls-11" d="M18.6,312.85c.04,1.01,.93,1.67,1.78,2.06,1.4,.65,2.99,.86,4.52,.86s3.12-.22,4.52-.86c.85-.39,1.74-1.05,1.78-2.06h-.72v2.55c0,1.17-1.26,1.69-2.23,1.99-1.91,.59-4.08,.62-6.02,.18-.98-.22-2.83-.72-2.91-1.97-.06-.91,0-1.84,0-2.75,0-.46-.72-.46-.72,0,0,.92-.04,1.85,0,2.77,.06,1.4,1.6,2.09,2.76,2.45,2.03,.63,4.33,.65,6.4,.18,1.22-.28,3.13-.9,3.41-2.34,.09-.46,.03-.97,.03-1.44v-1.62c0-.46-.7-.46-.72,0-.03,.84-1.1,1.33-1.77,1.59-1.21,.46-2.53,.62-3.81,.62s-2.55-.16-3.74-.59c-.69-.25-1.81-.75-1.84-1.61-.02-.46-.73-.46-.72,0Z"/>
        <path class="cls-11" d="M21.49,309.97v4.59c0,.46,.72,.46,.72,0v-4.59c0-.46-.72-.46-.72,0h0Z"/>
        <path class="cls-11" d="M27.93,310.23c0,1.26,0,2.53,.01,3.79v.55c0,.46,.72,.46,.72,0,0-1.26,0-2.53-.01-3.79v-.55c0-.46-.72-.46-.72,0h0Z"/>
        <path class="cls-11" d="M19.07,313.2c.82-.29,1.68-.49,2.55-.57,.19-.02,.36-.15,.36-.36,0-.18-.16-.38-.36-.36-.93,.08-1.85,.28-2.74,.59-.18,.06-.3,.24-.25,.44,.05,.18,.26,.31,.44,.25h0Z"/>
        <path class="cls-11" d="M28.29,312.64c.79,.05,1.58,.32,2.35,.53,.44,.12,.63-.57,.19-.69-.83-.23-1.67-.5-2.54-.56-.19-.01-.36,.17-.36,.36,0,.2,.16,.34,.36,.36h0Z"/>
      </g>
      <g>
        <path class="cls-11" d="M18.75,79.34c-.63,2.41,2.3,3.9,4.2,4.31,1.18,.25,2.39,.31,3.58,.33,1.53,.03,3.06,.06,4.6,.09,.46,0,.46-.71,0-.72-2.31-.04-4.67,.05-6.97-.22-1.04-.12-2.09-.36-3-.88s-2.03-1.52-1.72-2.72c.12-.45-.57-.64-.69-.19h0Z"/>
        <path class="cls-11" d="M29.05,83.71c-.32,1.69-.71,3.36-1.02,5.05-.08,.45,.6,.64,.69,.19,.32-1.69,.71-3.36,1.02-5.05,.08-.45-.6-.64-.69-.19h0Z"/>
        <path class="cls-11" d="M40.86,80.83c.54,.97-.09,2.02-.73,2.77s-1.28,1.47-1.87,2.24-1.14,1.56-1.61,2.4c-.34,.6-.62,1.22-.95,1.83-.22,.4,.4,.76,.62,.36,.38-.7,.71-1.42,1.12-2.11,.56-.95,1.21-1.84,1.91-2.7,1.13-1.39,3.24-3.16,2.14-5.15-.22-.4-.84-.04-.62,.36h0Z"/>
        <path class="cls-11" d="M23.39,83.09c-1.01-.81-.82-2.22-.61-3.34,.04-.19-.05-.39-.25-.44-.17-.05-.4,.06-.44,.25-.25,1.36-.42,3.06,.8,4.04,.15,.12,.36,.15,.51,0,.12-.12,.15-.38,0-.51h0Z"/>
        <path class="cls-11" d="M25.98,83.26c-.25-.05-.48-.27-.64-.47-.2-.25-.26-.61-.29-.94-.04-.41-.02-.83,.08-1.23,.06-.24,.16-.57,.42-.65,.44-.13,.25-.82-.19-.69-.99,.3-1.11,1.71-1.03,2.57,.05,.49,.14,.99,.45,1.38,.25,.31,.6,.63,1,.71,.45,.09,.64-.6,.19-.69h0Z"/>
      </g>
      <path class="cls-11" d="M102.05,82.03c.19,1.23-1.11,2.13-2.1,2.53s-1.97,.5-2.98,.52c-2.33,.03-4.68-.3-7-.5-.46-.04-.46,.68,0,.72,1.53,.13,3.06,.27,4.59,.39,1.26,.1,2.53,.18,3.79,.01,1.92-.25,4.74-1.47,4.38-3.85-.07-.45-.76-.26-.69,.19h0Z"/>
      <path class="cls-11" d="M91.34,85.21l.36,4.52c.04,.46,.75,.46,.72,0l-.36-4.52c-.04-.46-.75-.46-.72,0h0Z"/>
      <path class="cls-11" d="M84.59,90.31c-.57-1.67-1.39-3.24-2.36-4.71-.79-1.21-2.67-3.05-1.6-4.58,.26-.38-.35-.74-.62-.36-1.11,1.58,.22,3.29,1.12,4.59,1.13,1.63,2.12,3.37,2.77,5.25,.15,.43,.84,.25,.69-.19h0Z"/>
      <path class="cls-11" d="M98.35,85.51c.7-.44,1.23-1.11,1.38-1.93,.15-.9-.11-1.8-.72-2.48-.31-.35-.81,.16-.51,.51,.43,.49,.65,1.19,.52,1.84s-.51,1.11-1.04,1.45c-.39,.25-.03,.86,.36,.62h0Z"/>
      <path class="cls-11" d="M95.2,85.47c.7-.44,1.23-1.11,1.38-1.93,.15-.9-.11-1.8-.72-2.48-.31-.35-.81,.16-.51,.51,.43,.49,.65,1.19,.52,1.84s-.51,1.11-1.04,1.45c-.39,.25-.03,.86,.36,.62h0Z"/>
      <path class="cls-11" d="M44.72,63.54c6.77,.17,13.54,.34,20.31,.51,11.83,.29,23.66,.59,35.49,.88l11.49,.29c.71,.02,1.43,.02,2.14,.05,3.95,.17,7.35,3.12,7.75,7.13,.48,4.79-3.39,8.8-8.13,8.77-.78,0-1.56-.04-2.34-.06l-14.04-.33-29.56-.7h-.58c-.46-.02-.46,.69,0,.7,8.91,.21,17.83,.42,26.74,.64l16.01,.38c1.2,.03,2.4,.06,3.6,.09,2.91,.05,5.66-1.18,7.4-3.55,2.34-3.19,2.16-7.7-.39-10.71-1.67-1.97-4.06-2.99-6.62-3.07-2.74-.09-5.48-.14-8.22-.2-11.73-.29-23.45-.58-35.18-.88-8.47-.21-16.96-.55-25.44-.63-.14,0-.28,0-.42-.01-.46-.01-.46,.7,0,.72h0Z"/>
      <path class="cls-11" d="M35.77,63.31c1.78,.04,3.55,.09,5.33,.13l.77,.02c.46,.01,.46-.7,0-.72-1.78-.04-3.55-.09-5.33-.13l-.77-.02c-.46-.01-.46,.7,0,.72h0Z"/>
      <path class="cls-11" d="M62.98,79.95c-4.33-.09-8.66-.18-12.98-.28l-25.14-.53c-5.37-.11-10.74-.2-16.1-.34C3.91,78.67,0,74.58,.76,69.63c.51-3.32,3.14-6.02,6.45-6.62,1.04-.19,2.13-.11,3.18-.1l20.99,.29h.57c.46,.01,.46-.7,0-.71-6.78-.09-13.57-.19-20.35-.28-.91-.01-1.82-.03-2.73-.04-2.54,0-4.96,.95-6.68,2.85-3.82,4.24-2.46,11.22,2.73,13.65,1.91,.89,3.89,.83,5.93,.87l8.94,.19c8.68,.18,17.36,.37,26.04,.55l11.09,.24c1.9,.04,3.9,.27,5.8,.12,.09,0,.18,0,.27,0,.46,0,.46-.71,0-.72h0Z"/>
      <path class="cls-11" d="M41.5,40.92c1.05-1.26,2.1-2.51,3.15-3.77,1.12-1.34,2.28-3.15,3.84-4.01,2.59-1.42,4.86-.29,7.03,1.16,1.43,.95,2.86,1.91,4.29,2.86,.13,.08,.33,.06,.43-.06l4.72-5.18c.31-.34-.19-.85-.51-.51l-4.72,5.18,.43-.06c-1.13-.75-2.26-1.51-3.39-2.26-1.2-.8-2.44-1.82-3.83-2.25-2.37-.74-4.93,.07-6.54,1.92-.85,.97-1.65,1.97-2.47,2.96-.98,1.17-1.95,2.33-2.93,3.5-.29,.35,.21,.86,.51,.51h0Z"/>
      <path class="cls-11" d="M69.26,27.21c2.44-2.68,4.89-5.37,7.33-8.05,.12-.13,.15-.38,0-.51-1.77-1.48-3.76-2.85-5.37-4.5s-.72-4.05,1.25-4.83c1-.4,2.02-.74,3.03-1.11,4.5-1.65,9-3.29,13.5-4.94,2.29-.84,4.63-1.98,7-2.55s3.82,1.65,3.47,3.77c-.21,1.24-.43,2.48-.65,3.72-.82,4.74-1.65,9.48-2.48,14.22l-.87,5.02c-.26,1.48-.59,2.99-2.29,3.46-1.82,.5-3.12-.98-4.38-2.03-1.09-.91-2.17-1.82-3.26-2.72-.14-.12-.37-.15-.51,0-3.55,3.86-7.09,7.72-10.64,11.57l-6.95,7.56c-1.26,1.37-2.61,3.31-4.34,4.1-2.52,1.16-4.67,.02-6.74-1.36-1.32-.88-2.64-1.77-3.96-2.65-.12-.08-.34-.06-.43,.06-2.5,2.99-5.01,5.99-7.51,8.98-1.28,1.53-2.46,3.28-4.51,3.82-4.92,1.28-8.73-4.47-5.78-8.52,1.18-1.62,2.57-3.1,3.85-4.64,.29-.35-.21-.86-.51-.51-1.3,1.55-2.69,3.05-3.89,4.67-2.23,2.99-1.28,7.38,2.02,9.16,2.84,1.53,5.97,.51,7.95-1.83,1.57-1.86,3.12-3.73,4.68-5.6,1.4-1.67,2.8-3.34,4.2-5.02l-.43,.06c1.23,.82,2.45,1.64,3.68,2.46,1.37,.91,2.64,1.89,4.33,2.09,3.04,.37,4.88-1.49,6.72-3.49l14.39-15.65c1.46-1.59,2.92-3.17,4.38-4.76h-.51c1.06,.88,2.11,1.77,3.17,2.65,.98,.82,2.05,1.99,3.33,2.31,1.76,.45,3.66-.56,4.28-2.27,.33-.92,.4-1.98,.57-2.94,.94-5.4,1.88-10.8,2.82-16.2l.85-4.9c.2-1.14,.44-2.24-.1-3.35-1.68-3.44-5.38-1.5-7.94-.57-5.2,1.91-10.4,3.81-15.61,5.72-2.61,.96-7.27,1.77-6.7,5.54,.25,1.65,1.61,2.53,2.79,3.52s2.39,1.99,3.58,2.99v-.51c-2.44,2.68-4.89,5.37-7.33,8.05-.31,.34,.19,.85,.51,.51h0Z"/>
      <path class="cls-11" d="M54.72,147.32c-.64,.04-1.44,.17-1.77,.8-.36,.69,.12,1.39,.65,1.82,1.4,1.14,3.27,1.81,5.04,2.05,.92,.13,1.85,.14,2.77,.03,.83-.1,1.75-.24,2.48-.67,.6-.36,1.07-1.03,.95-1.77-.13-.78-.84-1.13-1.51-1.4-.43-.17-.61,.52-.19,.69,.6,.23,1.26,.62,.88,1.36-.3,.58-1.05,.76-1.63,.9-1.19,.28-2.45,.32-3.66,.15s-2.41-.55-3.49-1.13c-.53-.29-1.23-.64-1.57-1.15-.5-.75,.53-.94,1.04-.98,.46-.03,.46-.75,0-.72h0Z"/>
      <path class="cls-11" d="M46.79,147.97c1.8,1.31,4.13,1.54,6.22,.84,.43-.15,.25-.84-.19-.69-1.92,.65-4.01,.44-5.67-.77-.37-.27-.73,.35-.36,.62h0Z"/>
      <path class="cls-11" d="M53.94,148.8l.1-.3s.02-.1,0-.14c0-.05-.02-.09-.04-.13-.02-.04-.05-.08-.09-.1-.03-.03-.08-.05-.12-.06h-.1c-.06-.01-.12,0-.18,.04l-.07,.06s-.07,.1-.09,.16l-.1,.3s-.02,.1,0,.14c0,.05,.02,.09,.04,.13,.02,.04,.05,.08,.09,.1,.03,.03,.08,.05,.12,.06h.1c.06,.01,.12,0,.18-.04l.07-.06s.07-.1,.09-.16h0Z"/>
      <path class="cls-11" d="M54.02,148.51c.46,0,.46-.72,0-.72s-.46,.72,0,.72h0Z"/>
      <path class="cls-11" d="M63.17,148.95c-.02,.27-.02,.53,0,.8s.07,.55,.16,.81c.04,.12,.12,.21,.25,.25,.11,.03,.27,0,.35-.09,.33-.4,.52-.91,.48-1.43-.01-.19-.15-.37-.36-.36-.18,0-.37,.16-.36,.36,0,.1,0,.2,0,.3,0,.09,.02-.08,0,0,0,.02,0,.05-.01,.07-.01,.05-.02,.1-.04,.14-.01,.04-.03,.1-.05,.14l.02-.04s-.01,.03-.02,.04c-.01,.02-.02,.04-.03,.07-.02,.04-.04,.08-.07,.12-.01,.02-.03,.04-.04,.06-.05,.07,.03-.04-.01,.02l.6,.16c-.04-.11-.07-.23-.1-.35-.01-.06-.02-.12-.03-.18,0-.03,0-.02,0,.02,0-.02,0-.04,0-.06,0-.03,0-.06,0-.09-.02-.25-.03-.51,0-.77,.01-.19-.17-.37-.36-.36-.21,0-.34,.16-.36,.36h0Z"/>
      <path class="cls-11" d="M63.55,151.15c.46,0,.46-.72,0-.72s-.46,.72,0,.72h0Z"/>
      <path class="cls-11" d="M48.56,105.41c-4.36,3.61-6.98,9.94-3.67,15.14,.25,.39,.87,.03,.62-.36-1.48-2.32-1.75-5.2-.96-7.82s2.47-4.75,4.52-6.45c.35-.29-.15-.8-.51-.51h0Z"/>
      <path class="cls-11" d="M50.1,105.74c-1.87-1.09-1.28-3.7-.31-5.2s2.48-2.5,4.2-2.82c.45-.08,.26-.77-.19-.69-2.02,.38-3.82,1.69-4.82,3.48s-1.33,4.64,.76,5.86c.4,.23,.76-.39,.36-.62h0Z"/>
      <path class="cls-11" d="M58.78,97.89c1.15-1.8,3.35-2.97,5.46-2.18,.98,.36,1.75,1.16,2.05,2.16s.13,2.26-.86,2.78c-.41,.22-.05,.83,.36,.62,1.15-.61,1.5-2.04,1.27-3.24s-1.08-2.3-2.2-2.83c-2.51-1.2-5.29,.11-6.71,2.32-.25,.39,.37,.75,.62,.36h0Z"/>
      <path class="cls-11" d="M48.85,105.25c-1.08-.76-2.59-.66-3.6,.15-.15,.12-.13,.38,0,.51,.15,.15,.35,.12,.51,0,.78-.62,1.94-.6,2.73-.04,.16,.11,.4,.03,.49-.13,.1-.18,.03-.38-.13-.49h0Z"/>
      <path class="cls-11" d="M48.67,105.06c-.31-.59-.64-1.18-1.11-1.67s-1.04-.8-1.7-.88c-.19-.02-.36,.18-.36,.36,0,.21,.16,.34,.36,.36-.04,0,.03,0,.04,0,.03,0,.06,.01,.1,.02,.06,.02,.13,.03,.19,.05,.12,.04,.2,.08,.33,.16,.23,.14,.4,.28,.59,.49,.39,.42,.67,.95,.94,1.46,.09,.17,.33,.22,.49,.13,.17-.1,.22-.32,.13-.49h0Z"/>
      <path class="cls-11" d="M52.02,99.7c-1.07,.46-2.02,1.36-2.3,2.52-.26,1.08,.1,2.27,1.02,2.92,.22,.16,.42-.2,.21-.36-.8-.57-1.06-1.68-.79-2.59,.3-1,1.14-1.73,2.08-2.14,.24-.11,.03-.46-.21-.36h0Z"/>
      <path class="cls-11" d="M69.05,97.03c1.67-.42,3.58-.17,4.94,.96,1.23,1.04,1.87,2.76,1.43,4.33-.07,.26,.33,.37,.4,.11,.48-1.71-.2-3.6-1.54-4.74-1.46-1.24-3.52-1.53-5.34-1.07-.26,.07-.15,.47,.11,.4h0Z"/>
      <path class="cls-11" d="M57.42,123.21c-.16,1.79,.34,4,2,4.98,1.5,.89,3.18,.12,4.14-1.17,1.2-1.61,1.51-3.94,.86-5.83-.53-1.54-1.86-2.95-3.62-2.64-2.12,.37-3.17,2.76-3.38,4.67-.05,.46,.66,.45,.72,0,.16-1.47,.88-3.23,2.35-3.83,1.38-.56,2.59,.44,3.12,1.66,.67,1.54,.54,3.49-.25,4.96-.62,1.16-1.89,2.28-3.28,1.72-1.69-.68-2.08-2.92-1.94-4.51,.04-.46-.67-.46-.72,0Z"/>
      <ellipse class="cls-11" cx="62.75" cy="122.03" rx="1.44" ry="2.05" transform="translate(-9.27 5.23) rotate(-4.45)"/>
      <ellipse class="cls-1" cx="61.55" cy="121.5" rx=".68" ry=".96" transform="translate(-9.23 5.14) rotate(-4.45)"/>
      <ellipse class="cls-11" cx="71.6" cy="122.92" rx="1.44" ry="2.05" transform="translate(-9.31 5.92) rotate(-4.45)"/>
      <path class="cls-11" d="M66.17,124.08c-.16,1.79,.34,4,2,4.98,1.5,.89,3.18,.12,4.14-1.17,1.2-1.61,1.51-3.94,.86-5.83-.53-1.54-1.86-2.95-3.62-2.64-2.12,.37-3.17,2.76-3.38,4.67-.05,.46,.66,.45,.72,0,.16-1.47,.88-3.23,2.35-3.83,1.38-.56,2.59,.44,3.12,1.66,.67,1.54,.54,3.49-.25,4.96-.62,1.16-1.89,2.28-3.28,1.72-1.69-.68-2.08-2.92-1.94-4.51,.04-.46-.67-.46-.72,0Z"/>
      <path class="cls-11" d="M57.8,118.87c.83-1.46,2.64-2.28,4.29-1.91,.45,.1,.64-.59,.19-.69-1.96-.44-4.1,.49-5.1,2.24-.23,.4,.39,.76,.62,.36h0Z"/>
      <path class="cls-11" d="M68.92,117.64c1.49-.22,3.04,.41,4,1.56,.3,.35,.8-.15,.51-.51-1.14-1.36-2.96-2-4.69-1.74-.19,.03-.3,.27-.25,.44,.06,.2,.25,.28,.44,.25h0Z"/>
      <g>
        <path class="cls-11" d="M65.73,129.84c.19,.3,.34,.57,.43,.9,0,.04,.02,.08,.03,.11,0,.03,0,.05,.01,.08,0-.03,0-.03,0,0,0,.08,0,.16,0,.24,0-.06-.01,.04-.01,.05,0,.02-.01,.05-.02,.07-.01,.04-.02,.05,0,.03,0-.02,0-.01-.01,.03-.01,.02-.03,.05-.04,.07-.03,.06,.02-.01-.03,.04-.17,.19-.4,.27-.66,.26-.1,0-.3-.06-.39-.1-.15-.07-.3-.17-.4-.25-.15-.12-.36-.14-.51,0-.13,.13-.15,.38,0,.51,.37,.31,.8,.54,1.3,.56,.41,.02,.86-.14,1.15-.44,.7-.73,.25-1.77-.2-2.5-.1-.16-.32-.23-.49-.13s-.23,.32-.13,.49h0Z"/>
        <path class="cls-11" d="M60.39,134.86c.96,.89,2.18,1.42,3.48,1.57s2.77-.11,3.74-.99c.34-.31-.16-.81-.51-.51-.83,.74-2.17,.89-3.23,.78s-2.16-.6-2.97-1.36c-.34-.31-.84,.19-.51,.51h0Z"/>
      </g>
      <ellipse class="cls-1" cx="70.6" cy="122.4" rx=".68" ry=".96" transform="translate(-9.28 5.84) rotate(-4.45)"/>
      <path class="cls-11" d="M33.29,318.04c2.52,1.43,4.66,3.45,6.25,5.87,1.48,2.26,2.95,5,2.83,7.78-.02,.46,.7,.46,.72,0,.13-2.9-1.38-5.78-2.93-8.14-1.66-2.52-3.89-4.63-6.51-6.13-.4-.23-.76,.39-.36,.62h0Z"/>
      <path class="cls-11" d="M90.86,317.42c2.58,1.1,4.87,2.72,6.72,4.83s3.71,4.75,3.97,7.61l.26-.34c-10.09,1.62-20.79,1.56-30.85-.2l.26,.34c-.26-3.14,.64-6.19,2.61-8.66,.28-.36-.22-.87-.51-.51-2.09,2.61-3.1,5.83-2.82,9.16,.01,.15,.1,.32,.26,.34,10.2,1.79,21.01,1.84,31.23,.2,.14-.02,.28-.2,.26-.34-.26-2.84-1.93-5.38-3.69-7.53-1.98-2.41-4.49-4.3-7.36-5.52-.42-.18-.78,.44-.36,.62h0Z"/>
      <path class="cls-11" d="M70.99,327.42c9.11,1.88,18.48,2.06,27.66,.54,.45-.08,.26-.76-.19-.69-9.05,1.5-18.3,1.31-27.28-.54-.45-.09-.64,.6-.19,.69h0Z"/>
      <path class="cls-11" d="M83.42,113.13c-.04-6.6-.07-13.19-.11-19.79,0-.94-.01-1.88-.02-2.81l-.54,.31c1.81,.98,3.92,1.16,5.95,1.23s4.23-.03,6.32-.39l-.45-.34c.18,4.2,.36,8.41,.54,12.61,.36,8.36,.72,16.72,1.08,25.08,.26,5.97,.51,11.94,.77,17.92,.02,.36,.08,.75,.05,1.11,.03-.34,.14-.21-.13-.01-.28,.21-.52,.52-.77,.77l-6.92,6.96c-4.85,4.89-9.77,9.72-14.56,14.66-.1,.1-.2,.2-.29,.29-.32,.33,.18,.83,.51,.51,4.26-4.29,8.53-8.58,12.79-12.87l7.86-7.92c.67-.67,2.14-1.62,2.21-2.62,.12-1.7-.15-3.53-.23-5.23l-.44-10.2c-.36-8.46-.73-16.92-1.09-25.37l-.44-10.2c-.07-1.72,0-3.53-.23-5.23-.01-.08,0-.16-.01-.24-.01-.25-.22-.38-.45-.34-1.88,.32-3.81,.42-5.72,.38-2.02-.05-4.19-.16-6-1.14-.24-.13-.54,.03-.54,.31,.04,6.6,.07,13.19,.11,19.79,0,.94,.01,1.88,.02,2.81,0,.46,.72,.46,.72,0h0Z"/>
      <path class="cls-11" d="M76.39,144.31c2.04-1.25,4.08-2.49,6.12-3.74,.44-.27,.92-.42,1.04-.92s0-1.17,0-1.66l-.09-17.2-.03-5.27c0-.46-.72-.46-.72,0,.02,4.29,.05,8.57,.07,12.86l.04,8.38v2.44c.01,.16,0,.33,.02,.49,.03,.2,.26-.29,.14-.24s-.22,.15-.34,.21c-1.3,.59-2.53,1.54-3.75,2.29l-2.87,1.75c-.39,.24-.03,.86,.36,.62h0Z"/>
      <path class="cls-11" d="M68.39,149.19c1.77-1.08,3.54-2.16,5.31-3.24l.76-.47c.39-.24,.03-.86-.36-.62-1.77,1.08-3.54,2.16-5.31,3.24l-.76,.47c-.39,.24-.03,.86,.36,.62h0Z"/>
      <path class="cls-11" d="M29.86,219.76l4.06-2.23c.4-.22,.04-.84-.36-.62l-4.06,2.23c-.4,.22-.04,.84,.36,.62h0Z"/>
      <path class="cls-11" d="M31.6,220.71c.97-.53,1.95-1.05,2.92-1.58,.4-.22,.04-.84-.36-.62-.97,.53-1.95,1.05-2.92,1.58-.4,.22-.04,.84,.36,.62h0Z"/>
      <path class="cls-1" d="M29.61,94.72c1.45,0,1.45-2.25,0-2.25s-1.45,2.25,0,2.25h0Z"/>
      <path class="cls-1" d="M28.1,97.88c-.13,1.43-.25,2.86-.38,4.28-.05,.59,.55,1.15,1.12,1.12,.65-.03,1.07-.5,1.12-1.12,.13-1.43,.25-2.86,.38-4.28,.05-.59-.55-1.15-1.12-1.12-.65,.03-1.07,.5-1.12,1.12h0Z"/>
      <path class="cls-1" d="M78.02,317.35c1.06,.34,2.17,.51,3.28,.52,.39,0,.77-.35,.75-.75s-.33-.75-.75-.75c-.25,0-.5-.01-.75-.03-.14-.01-.27-.03-.4-.04-.2-.02,.17,.03-.03,0-.07-.01-.13-.02-.2-.03-.51-.08-1-.2-1.49-.36-.37-.12-.84,.14-.92,.52-.09,.41,.12,.8,.52,.92h0Z"/>
      <path class="cls-16" d="M12.21,327.12c2.25,1.81,4.66,3.31,7.37,4.34s5.83,1.8,8.77,2.09c.81,.08,1.5-.75,1.5-1.5,0-.88-.69-1.42-1.5-1.5-1.38-.13-2.74-.47-4.08-.83-1.23-.32-2.47-.63-3.66-1.07-2.28-.83-4.39-2.13-6.27-3.65-.63-.51-1.51-.62-2.12,0-.53,.53-.63,1.61,0,2.12h0Z"/>
      <path class="cls-11" d="M39.09,329.94c-9.11,1.89-18.82-.35-26.17-6.06-.36-.28-.87,.22-.51,.51,7.57,5.87,17.49,8.18,26.87,6.24,.45-.09,.26-.78-.19-.69h0Z"/>
      <path class="cls-11" d="M12.3,327.75c.08-3.12,1.41-6.11,3.66-8.27,.33-.32-.17-.82-.51-.51-2.38,2.29-3.78,5.47-3.87,8.77-.01,.46,.7,.46,.72,0h0Z"/>
      <path class="cls-11" d="M11.72,328.16c8.6,6.97,20.65,9.01,31.05,5.2,.43-.16,.24-.85-.19-.69-10.15,3.72-21.95,1.8-30.36-5.02-.35-.29-.86,.22-.51,.51h0Z"/>
      <path class="cls-7" d="M61.96,145.65c-.13,.03-.26,.06-.39,.08-.07,.01-.15,.03-.22,.04-.05,0-.13,.02-.04,0-.27,.03-.55,.05-.83,.06s-.56,0-.83,0c-.15,0-.3-.02-.45-.03-.06,0-.12-.01-.18-.02-.02,0-.24-.03-.15-.02,.08,.01-.09-.01-.1-.01-.07-.01-.14-.02-.21-.03-.12-.02-.24-.04-.37-.07-.22-.05-.45-.1-.67-.17-.1-.03-.2-.06-.29-.1-.04-.01-.08-.03-.12-.05-.19-.07,.11,.06,.01,0-.14-.08-.28-.14-.42-.24-.38-.28-.97-.06-1.19,.31-.26,.44-.07,.91,.31,1.19,.78,.57,1.88,.74,2.81,.87,1.25,.17,2.54,.16,3.78-.14,.46-.11,.73-.63,.61-1.07s-.61-.72-1.07-.61h0Z"/>
      <path class="cls-11" d="M62.5,146.12c.07,1.63,.14,3.27,.21,4.9,.02,.46,.73,.46,.72,0-.07-1.63-.14-3.27-.21-4.9-.02-.46-.73-.46-.72,0h0Z"/>
      <path class="cls-11" d="M54.23,149.37c.78-1.28,1.42-2.69,1.76-4.16,.1-.45-.59-.64-.69-.19-.32,1.41-.94,2.76-1.69,3.99-.24,.39,.38,.75,.62,.36h0Z"/>
      <path class="cls-24" d="M45.6,130.43c-.43,3.53,.99,7.12,3.19,9.83,1.09,1.33,2.43,2.46,3.89,3.37,.7,.43,1.44,.81,2.2,1.14,.87,.38,1.79,.8,2.75,.85,1.45,.08,1.44-2.17,0-2.25-.66-.03-1.45-.46-2.05-.73-.68-.31-1.34-.67-1.96-1.07-1.22-.78-2.32-1.76-3.24-2.89-1.85-2.28-2.89-5.3-2.53-8.24,.07-.6-.57-1.12-1.12-1.12-.67,0-1.05,.52-1.12,1.12h0Z"/>
      <path class="cls-11" d="M75.98,127.3c-.18,1.78-.32,3.57-.54,5.35-.46,3.71-2.33,7.15-5.2,9.54-5.9,4.91-14.85,4.4-20.14-1.16-2.99-3.13-4.38-7.4-4-11.69,.04-.46-.67-.46-.72,0-.7,7.89,4.73,15.3,12.6,16.72s15.26-3.2,17.58-10.58c.82-2.61,.87-5.48,1.14-8.18,.05-.46-.67-.45-.72,0h0Z"/>
      <path class="cls-23" d="M59.84,113.64c-.25,0-.51-.03-.76-.06-.29-.03,.25,.04-.04,0-.06,0-.12-.02-.17-.03-.15-.02-.3-.05-.44-.08-.64-.12-1.27-.27-1.89-.45-.56-.16-1.11-.34-1.65-.55-.06-.02-.12-.05-.17-.07-.19-.08,.16,.08,.04,.02-.09-.05-.19-.09-.29-.13-.08-.04-.16-.08-.24-.13-.09-.06-.34-.25,0,.02-.79-.64-1.82-.21-1.92,.8-.18,1.84-.37,3.68-.55,5.53-.05,.59,.56,1.15,1.12,1.12,.66-.03,1.07-.5,1.12-1.12,.17-1.84,.36-3.68,.55-5.53l-1.92,.8c.9,.73,2.11,1.08,3.21,1.39,1.29,.37,2.65,.69,3.99,.72,.59,.01,1.15-.53,1.12-1.12s-.49-1.11-1.12-1.12h0Z"/>
      <path class="cls-21" d="M72.64,110.8c-1.3,.99-3.13,1.36-4.67,.64-.44-.21-.79-.48-1.31-.41-.56,.08-.84,.46-1.13,.89-.23,.33-.57,.65-.92,.85-.4,.24-.8,.25-1.23,.37-1.4,.37-.8,2.54,.6,2.17,.35-.09,.71-.11,1.05-.25,.4-.16,.77-.36,1.11-.62,.31-.23,.59-.48,.85-.76,.14-.15,.27-.32,.39-.48,.02-.03,.33-.4,.15-.22l-.5,.29c-.49-.12-.61-.12-.37,.02l.1,.06c.16,.09,.34,.16,.51,.23,.32,.13,.64,.23,.98,.3,.67,.15,1.37,.21,2.06,.16,1.27-.1,2.46-.5,3.48-1.28,.48-.37,.74-.97,.4-1.54-.28-.47-1.05-.77-1.54-.4h0Z"/>
      <path class="cls-24" d="M42.29,125.79c.09,.72,.37,1.34,.94,1.82,.51,.42,1.1,.72,1.73,.89,1.25,.35,2.63,.23,3.77-.42,.51-.29,.73-1.03,.4-1.54s-.99-.72-1.54-.4c-.09,.05-.18,.1-.27,.14-.22,.11,.16-.05,.02-.01-.05,.01-.1,.03-.14,.05-.1,.03-.2,.06-.29,.08-.06,.01-.12,.03-.19,.04-.16,.03,.02-.02,.07,0-.09-.02-.22,.02-.31,.02-.12,0-.23,0-.35,0-.05,0-.1-.01-.15-.01-.15,0,.22,.04,.07,.01-.11-.02-.23-.04-.34-.07-.1-.02-.2-.05-.3-.08-.09-.03-.2-.09-.29-.1,.09,0,.2,.09,.04,.01-.04-.02-.08-.04-.13-.06-.08-.04-.16-.09-.24-.15-.09-.06-.11-.14,.03,.03-.03-.03-.07-.06-.11-.09-.07-.06-.12-.14-.19-.2,.04,.04,.12,.19,.06,.06-.02-.04-.1-.22-.04-.04s0,.01,0-.02c-.02-.08-.04-.25,0,.07-.04-.31-.1-.57-.33-.8-.2-.2-.52-.34-.8-.33-.55,.02-1.2,.5-1.12,1.12h0Z"/>
      <path class="cls-11" d="M49.74,123.61c-.88-1.38-2.05-2.67-3.68-3.14s-3.31,0-4.2,1.42c-1.75,2.8,.37,6.74,3.5,7.26,1.71,.29,3.51-.28,4.69-1.56,.31-.34-.19-.84-.51-.51-1.85,2-5.2,1.87-6.77-.4-.76-1.1-1.05-2.51-.6-3.79,.49-1.42,1.89-2.1,3.34-1.82,1.62,.31,2.77,1.57,3.62,2.9,.25,.39,.87,.03,.62-.36h0Z"/>
      <path class="cls-3" d="M43.73,123.68c.03-.07,.02-.05-.03,.07,.01-.02,.02-.05,.03-.07,.02-.04,.04-.08,.06-.13,.05-.09,.1-.17,.16-.25,.08-.12-.12,.14-.02,.03,.04-.04,.07-.08,.11-.12,.07-.07,.14-.13,.21-.19,.11-.09-.15,.11,0,0,.04-.03,.08-.05,.12-.08,.08-.05,.2-.08,.27-.14-.11,.05-.13,.05-.06,.03,.03-.01,.05-.02,.08-.03,.04-.01,.08-.03,.12-.04,.11-.03,.23-.05,.34-.07l-.2,.03c.22-.03,.43-.03,.65,0,.18,.02,.41-.1,.53-.22,.13-.13,.23-.34,.22-.53s-.07-.4-.22-.53c-.16-.14-.32-.19-.53-.22-.68-.09-1.42,.09-1.99,.46-.61,.39-1.03,.95-1.29,1.62-.07,.17-.01,.43,.08,.58s.27,.3,.45,.34c.19,.04,.41,.03,.58-.08s.27-.26,.34-.45h0Z"/>
      <g>
        <path class="cls-11" d="M45.86,122.58c-.37-.15-.78,.05-1.09,.25-.28,.19-.52,.42-.72,.69-.38,.51-.57,1.18-.52,1.81,.02,.19,.15,.36,.36,.36,.18,0,.37-.16,.36-.36-.01-.13-.01-.26,0-.38,0-.03,0-.07,.01-.1,0,.07,0-.04,0-.04,.01-.06,.02-.11,.04-.17,.02-.07,.04-.13,.06-.2,0-.03,.02-.05,.03-.08,.01-.03-.01,.03,.01-.03,.06-.12,.12-.24,.2-.35,.02-.02,.03-.05,.05-.07,.06-.09-.04,.05,.03-.04,.04-.05,.08-.1,.13-.14s.09-.09,.14-.13c.03-.02,.05-.05,.08-.07-.04,.03,0,0,.02-.02,.1-.08,.21-.14,.33-.2,.05-.02,.09-.04,.16-.05-.04,0,.05,0,.06,0-.05,0,.05,.02,.06,.02,.18,.07,.39-.08,.44-.25,.06-.2-.07-.37-.25-.44h0Z"/>
        <path class="cls-11" d="M44.45,124.2c.05,.03,.1,.06,.15,.09s0,0-.02-.02c.01,0,.02,.02,.04,.03,.02,.02,.04,.04,.06,.06,.05,.04,.09,.09,.13,.13,0,0,.02,.02,.02,.03,0,0,.05,.06,0,0s0,0,0,0c0,.01,.02,.03,.03,.04,.03,.05,.06,.1,.09,.15,.01,.02,.03,.05,.04,.07,0,.01,.01,.03,.02,.04,0-.02-.03-.08-.01-.03,.04,.11,.07,.23,.09,.35v-.1s0,.04,0,.06c.01,.1,.03,.18,.1,.25,.06,.06,.16,.11,.25,.1,.18,0,.38-.16,.36-.36-.03-.32-.13-.63-.31-.9s-.41-.49-.68-.65c-.16-.09-.4-.04-.49,.13s-.05,.39,.13,.49h0Z"/>
      </g>
      <path class="cls-2" d="M53.9,102.59s-.08-.05-.12-.07l.3,.23c-.07-.06-.14-.12-.19-.19l.23,.3c-.05-.08-.1-.15-.14-.24l.15,.36c-.04-.1-.07-.2-.08-.3l.05,.4c-.02-.12-.02-.23,0-.35l-.05,.4c.02-.12,.05-.24,.1-.36l-.15,.36c.06-.13,.13-.25,.22-.36l-.23,.3c.11-.13,.23-.25,.36-.35l-.3,.23c.13-.1,.27-.19,.42-.25l-.36,.15c.07-.03,.14-.05,.21-.06,.2-.05,.37-.14,.51-.27,.16-.11,.29-.25,.39-.42,.19-.32,.27-.8,.15-1.16s-.34-.71-.69-.9l-.36-.15c-.27-.07-.53-.07-.8,0-.29,.04-.57,.18-.81,.34s-.46,.32-.66,.51c-.39,.38-.69,.87-.84,1.39-.04,.13-.05,.26-.07,.4s-.04,.27-.04,.41c0,.26,.04,.53,.13,.78,.22,.61,.59,1.15,1.16,1.47,.34,.19,.77,.26,1.16,.15,.35-.1,.73-.36,.9-.69,.18-.35,.28-.77,.15-1.16s-.34-.7-.69-.9h0Z"/>
      <g class="cls-18">
        <path class="cls-1" d="M53.92,102.84c1.93,0,1.93-3,0-3s-1.93,3,0,3h0Z"/>
      </g>
      <path class="cls-4" d="M61.64,99.86c.15-.17,.31-.32,.49-.46l-.3,.23c.22-.17,.46-.32,.72-.43l-.36,.15c.21-.08,.42-.14,.64-.17l-.4,.05c.18-.02,.36-.02,.54,0l-.4-.05c.16,.02,.31,.06,.46,.12l-.36-.15c.09,.04,.18,.09,.26,.14l-.3-.23c.06,.05,.12,.1,.17,.16l-.23-.3c.05,.06,.09,.13,.12,.2l-.15-.36c.02,.05,.03,.1,.04,.16l-.05-.4c0,.06,0,.11,0,.17l.05-.4c-.01,.07-.03,.13-.06,.2l.15-.36s-.04,.07-.06,.1l.23-.3s-.07,.08-.11,.11l.3-.23s-.07,.04-.1,.06l.36-.15s-.06,.02-.09,.02l.4-.05c-.1,.01-.21,0-.31,0-.22,0-.44,.03-.65,.07-.35,.07-.72,.38-.9,.69-.19,.32-.27,.8-.15,1.16s.34,.71,.69,.9c.37,.2,.74,.24,1.16,.15h.05c-.13,0-.27,.02-.4,.04,.15-.02,.3,0,.45,0,.37-.02,.65-.1,.98-.27,.47-.25,.83-.78,.94-1.29,.12-.55,.06-1.16-.24-1.64s-.7-.79-1.2-1c-1.59-.67-3.38,.04-4.5,1.26-.27,.29-.44,.66-.44,1.06,0,.37,.16,.81,.44,1.06s.66,.46,1.06,.44,.79-.15,1.06-.44h0Z"/>
      <g>
        <path class="cls-17" d="M71.38,101.52c1.93,0,1.93-3,0-3s-1.93,3,0,3h0Z"/>
        <path class="cls-17" d="M73.38,103.88c1.45,0,1.45-2.25,0-2.25s-1.45,2.25,0,2.25h0Z"/>
      </g>
      <path class="cls-17" d="M72.4,111.16c.55-.35,1.02-.81,1.35-1.36,.16-.27,.29-.57,.37-.87s.13-.65,.1-.98c-.02-.3-.11-.58-.33-.8-.2-.2-.52-.34-.8-.33s-.59,.11-.8,.33-.35,.5-.33,.8c.01,.14,0,.29-.01,.43l.04-.3c-.03,.19-.08,.37-.15,.54l.11-.27c-.09,.21-.2,.4-.34,.58l.18-.23c-.16,.2-.33,.37-.53,.53l.23-.18c-.07,.05-.15,.11-.22,.15-.24,.15-.44,.39-.52,.67s-.04,.63,.11,.87,.39,.45,.67,.52,.61,.05,.87-.11h0Z"/>
      <path class="cls-17" d="M53.3,111.88c1.4,.86,3.02,1.24,4.62,1.54,1.71,.32,3.44,.47,5.15,.05,1.41-.34,.81-2.51-.6-2.17s-2.76,.18-4.11-.08-2.73-.56-3.92-1.28-2.37,1.19-1.14,1.94h0Z"/>
      <path class="cls-11" d="M48.99,123.06c2.1-.11,2.75-2.28,2.96-4.02,.3-2.5,.58-4.99,.87-7.49l-.54,.31c1.8,1.02,3.75,1.71,5.78,2.07,.45,.08,.64-.61,.19-.69-1.98-.34-3.86-1.01-5.61-2-.26-.14-.51,.05-.54,.31-.24,2.08-.48,4.15-.72,6.23-.18,1.54-.25,4.46-2.39,4.57-.46,.02-.46,.74,0,.72h0Z"/>
      <path class="cls-11" d="M70.95,108.66c-1.04,1.77-4.05,.36-5.18-.59-.12-.1-.29-.06-.35,.09-.77,2.27-3.12,3.25-5.37,3.19-1.11-.03-2.2-.29-3.25-.63-1.12-.36-2.29-.75-3.24-1.47-.21-.16-.42,.2-.21,.36,1.1,.82,2.51,1.27,3.81,1.65,1.23,.36,2.52,.59,3.81,.48,2.15-.19,4.14-1.36,4.86-3.47l-.35,.09c1.33,1.11,4.62,2.55,5.83,.5,.14-.23-.22-.44-.36-.21h0Z"/>
      <path class="cls-17" d="M75.1,110.56c.43-.62,.65-1.41,.6-2.16,0-.04,0-.07,0-.11v-.05c0-.07-.01-.07-.02,0-.03,.06-.03,.13-.08,.19-.03,.04-.17,.14-.07,.07,.13-.08,.26-.16,.38-.25,.35-.26,.63-.56,.86-.92,.21-.33,.08-.84-.27-1.03-.37-.2-.8-.08-1.03,.27-.02,.04-.05,.07-.07,.11-.01,.02-.08,.12-.02,.03,.06-.09-.02,.03-.04,.04-.02,.03-.05,.05-.07,.08-.06,.06-.13,.12-.19,.18-.07,.07,0,.01,.03-.02-.02,.03-.08,.05-.11,.08-.16,.11-.33,.2-.47,.33-.22,.2-.35,.5-.34,.8,0,.16,.03,.32,.02,.49,0,.04,0,.07,0,.11,0,.01-.02,.18,0,.06s0,.05-.01,.06c0,.04-.01,.07-.02,.11-.02,.09-.04,.17-.07,.26-.01,.03-.02,.07-.04,.1-.05,.13,.04-.09,0,0-.08,.15-.16,.3-.25,.44-.22,.32-.07,.85,.27,1.03,.38,.2,.79,.08,1.03-.27h0Z"/>
      <path class="cls-11" d="M66.58,97.2c2.96-2.14,7.23-1.78,9.42,1.28,2.01,2.81,1.21,6.88-1.88,8.55-.4,.22-.04,.84,.36,.62,2.55-1.38,3.9-4.49,3.17-7.31s-3.37-5-6.33-5.22c-1.81-.13-3.64,.41-5.11,1.47-.37,.27-.01,.89,.36,.62h0Z"/>
      <path class="cls-11" d="M76.63,116.1c2.33-3.05,2.4-7.32,.19-10.45-.26-.37-.88-.02-.62,.36,2.08,2.95,2.01,6.86-.19,9.73-.28,.37,.34,.72,.62,.36h0Z"/>
      <path class="cls-11" d="M60.91,114.17c2.38,0,5.41-.87,5.56-3.71l-.54,.31c1.97,1.39,4.94,1.97,6.95,.33,1.62-1.32,2.17-3.85,.83-5.55-.28-.36-.79,.15-.51,.51,1.14,1.45,.42,3.7-1.02,4.67-1.81,1.22-4.24,.6-5.9-.57-.24-.17-.52,.06-.54,.31-.13,2.42-2.9,3-4.84,3-.46,0-.46,.72,0,.72h0Z"/>
      <path class="cls-11" d="M73,110.68c2.33,2.65,3.6,6.02,3.61,9.55,0,1.72-.26,3.45-.43,5.15-.05,.46,.67,.45,.72,0,.19-1.95,.51-3.93,.42-5.89-.16-3.47-1.51-6.72-3.8-9.32-.3-.35-.81,.16-.51,.51h0Z"/>
      <path class="cls-3" d="M46.63,118.36c-.75-2.21-.64-4.67,.37-6.78,.18-.36,.1-.81-.27-1.03-.33-.19-.85-.1-1.03,.27-1.19,2.47-1.4,5.33-.52,7.94,.13,.38,.52,.64,.92,.52,.37-.1,.65-.54,.52-.92h0Z"/>
      <g class="cls-20">
        <path class="cls-1" d="M47.85,109.92c.97,0,.97-1.5,0-1.5s-.97,1.5,0,1.5h0Z"/>
      </g>
      <path class="cls-9" d="M60.14,227.55c6.18-1.6,12.37-3.2,18.55-4.8,.58-.15,1.17-.81,1.1-1.45-.56-5.29-1.11-10.58-1.67-15.86-.88-8.39-1.76-16.78-2.65-25.17-.21-1.95-.41-3.9-.62-5.85s-3.2-1.92-3,0c.56,5.29,1.11,10.58,1.67,15.86,.88,8.39,1.76,16.78,2.65,25.17,.21,1.95,.41,3.9,.62,5.85l1.1-1.45c-6.18,1.6-12.37,3.2-18.55,4.8-1.87,.48-1.08,3.38,.8,2.89h0Z"/>
      <path class="cls-11" d="M27.83,210.85c-.34,2.19-.68,4.39-1.03,6.58-.26,1.67-1.33,4.63,.56,5.72,.99,.57,2.71,.67,3.81,.92l7.57,1.71,14.62,3.31c.77,.17,1.12,.16,1.88-.03l6.34-1.55,15.29-3.75c1.61-.39,3.57-.61,3.49-2.78-.02-.59-.13-1.19-.2-1.78-1.08-9.69-2.16-19.38-3.24-29.07-.96-8.65-1.91-17.29-2.89-25.94-.02-.15-.03-.3-.05-.45-.05-.45-.77-.46-.72,0,.77,6.92,1.54,13.85,2.31,20.77,1.16,10.44,2.33,20.88,3.49,31.32l.45,4.01c.15,1.36,.33,2.45-1.48,2.89-3.81,.93-7.63,1.87-11.44,2.8l-7.94,1.94c-1.44,.35-2.9,.84-4.37,1.07-.28,.04,.18,.03,.03,.02-.14-.01-.3-.06-.44-.1-.66-.17-1.33-.3-1.99-.45l-7.16-1.62-14.69-3.33c-.46-.1-.93-.21-1.39-.31-.56-.13-1.13-.21-1.46-.75s-.22-.96-.14-1.49l1.17-7.48c.1-.67,.21-1.33,.31-2,.07-.45-.62-.64-.69-.19h0Z"/>
      <path class="cls-11" d="M29.74,198.61c-.47,2.98-.93,5.97-1.4,8.95-.07,.42-.13,.85-.2,1.27-.07,.45,.62,.64,.69,.19,.47-2.98,.93-5.97,1.4-8.95,.07-.42,.13-.85,.2-1.27,.07-.45-.62-.64-.69-.19h0Z"/>
      <path class="cls-11" d="M28.06,151.89c1.34,2.76,2.67,5.53,4.01,8.29l2.34,4.84c.16,.32,.34,.64,.47,.98-.11-.29,0-.23-.08,.11-.66,2.72-.88,5.64-1.31,8.4-.66,4.21-1.31,8.42-1.97,12.64-.4,2.54-.79,5.09-1.19,7.63-.07,.45,.62,.64,.69,.19,.99-6.33,1.98-12.66,2.96-19l1.46-9.36c.08-.49,.13-.74-.05-1.2-.56-1.36-1.29-2.67-1.93-3.99-1.6-3.3-3.19-6.6-4.79-9.9-.2-.41-.82-.05-.62,.36h0Z"/>
      <path class="cls-11" d="M26.67,149c.21,.43,.42,.87,.63,1.3l.09,.19c.08,.17,.34,.23,.49,.13,.17-.11,.22-.31,.13-.49-.21-.43-.42-.87-.63-1.3l-.09-.19c-.08-.17-.34-.23-.49-.13-.17,.11-.22,.31-.13,.49h0Z"/>
      <path class="cls-11" d="M45.19,145.18c-2.31-3.38-4.62-6.76-6.92-10.13-.12-.18-.29-.36-.38-.56s.04,.25,0,.05c-.05-.27,0-.59,0-.86v-43.44c0-.25-.23-.38-.45-.34-3.32,.57-7.65,.89-10.71-.76-.25-.14-.52,.04-.54,.31-.61,7.28-1.22,14.56-1.83,21.83-.75,9.02-1.51,18.04-2.26,27.06-.08,.98,.02,1.27,.48,2.21,1.04,2.15,2.08,4.3,3.12,6.46,.2,.41,.82,.05,.62-.36-.91-1.89-1.82-3.77-2.74-5.66l-.62-1.29c-.08-.16-.25-.76-.22-.38-.02-.17,.03-.37,.05-.54l.8-9.55,2.65-31.66c.23-2.71,.45-5.41,.68-8.12l-.54,.31c3.26,1.76,7.74,1.44,11.26,.84l-.45-.34v42.87c0,.53-.12,1.22,.07,1.72,.26,.66,.92,1.34,1.31,1.92l2.48,3.62c1.18,1.72,2.36,3.45,3.53,5.17,.26,.38,.88,.02,.62-.36h0Z"/>
      <path class="cls-11" d="M59.15,225.66s.04-.01,0,0c.02,0,.04-.01,.05-.02,.03-.01,.05-.02,.08-.03,.06-.02,.12-.05,.19-.07,.12-.04,.24-.08,.37-.12,.25-.08,.51-.14,.77-.18,.18-.03,.31-.27,.25-.44-.06-.2-.24-.29-.44-.25-.56,.1-1.1,.27-1.62,.5-.08,.03-.14,.14-.16,.21-.02,.09-.01,.2,.04,.28s.12,.14,.21,.16c.1,.02,.18,0,.28-.04h0Z"/>
      <path class="cls-11" d="M61.96,224.82c5.9-1.61,11.87-2.96,17.89-4.03,.45-.08,.26-.77-.19-.69-6.02,1.08-11.99,2.42-17.89,4.03-.44,.12-.26,.81,.19,.69h0Z"/>
      <path class="cls-1" d="M36.34,139.49l2.46,4.54c.28,.52,1.04,.73,1.54,.4,.53-.34,.7-.99,.4-1.54l-2.46-4.54c-.28-.52-1.04-.73-1.54-.4-.53,.34-.7,.99-.4,1.54h0Z"/>
      <path class="cls-1" d="M42.18,147.68c1.45,0,1.45-2.25,0-2.25s-1.45,2.25,0,2.25h0Z"/>
      <path class="cls-25" d="M21.52,302.58c1.57-17.66,4.04-35.21,6.62-52.74,.73-4.97,1.47-9.94,2.2-14.91,.28-1.89-2.61-2.7-2.89-.8-2.59,17.72-5.32,35.42-7.36,53.22-.58,5.07-1.11,10.15-1.56,15.23-.17,1.92,2.83,1.91,3,0h0Z"/>
      <path class="cls-11" d="M28.27,223.23c-1.23,9.49-2.46,18.99-3.69,28.48-1.96,15.13-3.92,30.26-5.89,45.38-.45,3.47-.9,6.94-1.35,10.41-.06,.45,.66,.45,.72,0,1.23-9.49,2.46-18.99,3.69-28.48,1.96-15.13,3.92-30.26,5.89-45.38,.45-3.47,.9-6.94,1.35-10.41,.06-.45-.66-.45-.72,0h0Z"/>
      <path class="cls-25" d="M53.96,237.22c5.94,7.68,11.71,15.51,18.37,22.59,1.32,1.41,3.44-.71,2.12-2.12-6.66-7.08-12.43-14.92-18.37-22.59-.5-.65-1.59-.52-2.12,0-.64,.63-.49,1.48,0,2.12h0Z"/>
      <path class="cls-11" d="M75.54,309.38c-.5-11.48-.99-22.96-1.49-34.44l-.4-9.32c-.07-1.56,.03-3.23-.21-4.77-.14-.91-1.18-1.76-1.74-2.46l-6.03-7.41c-3.91-4.8-7.82-9.6-11.73-14.39-.29-.36-.79,.15-.51,.51,3.26,4,6.52,8,9.77,12l6.73,8.27,2.13,2.61c.18,.23,.35,.48,.56,.69s.16,.38,.09,0c.19,1.16,.11,2.45,.16,3.63l.36,8.41,.97,22.39c.21,4.76,.41,9.52,.62,14.29,.02,.46,.73,.46,.72,0h0Z"/>
      <path class="cls-11" d="M33.45,308.06c1.37-10.33,3.7-20.54,6.37-30.6,2.92-10.99,6.33-21.88,10.51-32.45,2.02-5.11,4.23-10.15,6.84-14.99,.22-.4-.4-.77-.62-.36-4.94,9.14-8.59,18.98-11.84,28.82-3.63,10.98-6.69,22.17-9.12,33.48-1.14,5.33-2.14,10.69-2.86,16.1-.06,.45,.66,.45,.72,0h0Z"/>
      <circle class="cls-9" cx="37.03" cy="182.89" r="2.43"/>
      <circle class="cls-9" cx="37.03" cy="187.35" r="1.1"/>
      <circle class="cls-9" cx="37.45" cy="174.03" r="1.63"/>
      <circle class="cls-9" cx="38.87" cy="178.8" r=".91"/>
      <g>
        <circle class="cls-1" cx="19.76" cy="322.76" r="2.3"/>
        <path class="cls-11" d="M21.85,322.76c-.01,.8-.5,1.55-1.27,1.82s-1.66,.04-2.18-.6-.56-1.53-.15-2.21,1.23-1.06,2.01-.91c.92,.18,1.58,.97,1.59,1.91,0,.46,.72,.46,.72,0-.02-1.11-.7-2.09-1.74-2.49s-2.26-.06-2.96,.79-.82,2.09-.24,3.06,1.69,1.44,2.79,1.25c1.25-.22,2.13-1.36,2.15-2.61,0-.46-.71-.46-.72,0Z"/>
      </g>
      <g>
        <circle class="cls-1" cx="77.31" cy="322.76" r="2.3"/>
        <path class="cls-11" d="M79.4,322.76c-.01,.8-.5,1.55-1.27,1.82s-1.66,.04-2.18-.6-.56-1.53-.15-2.21,1.23-1.06,2.01-.91c.92,.18,1.58,.97,1.59,1.91,0,.46,.72,.46,.72,0-.02-1.11-.7-2.09-1.74-2.49s-2.26-.06-2.96,.79-.82,2.09-.24,3.06,1.69,1.44,2.79,1.25c1.25-.22,2.13-1.36,2.15-2.61,0-.46-.71-.46-.72,0Z"/>
      </g>
      <path class="cls-1" d="M49.29,70.49s-.03,0-.04,0l-38.91-.81c-1.1-.02-1.98-.94-1.96-2.04s.94-1.99,2.04-1.96l38.91,.81c1.1,.02,1.98,.94,1.96,2.04-.02,1.09-.91,1.96-2,1.96Z"/>
    </g>
  </g>
</svg>