<svg xmlns="http://www.w3.org/2000/svg" xmlns:xlink="http://www.w3.org/1999/xlink" width="800" zoomAndPan="magnify" viewBox="0 0 600 599.999999" height="800" preserveAspectRatio="xMidYMid meet" version="1.2"><defs><clipPath id="92de7138f4"><path d="M 289 95 L 349 95 L 349 155 L 289 155 Z M 289 95 "/></clipPath><clipPath id="23e9472c75"><path d="M 293.472656 92.246094 L 352.382812 99.546875 L 345.085938 158.453125 L 286.175781 151.15625 Z M 293.472656 92.246094 "/></clipPath><clipPath id="6d98ebc59d"><path d="M 293.472656 92.246094 L 352.382812 99.546875 L 345.085938 158.453125 L 286.175781 151.15625 Z M 293.472656 92.246094 "/></clipPath><clipPath id="171d1af42b"><path d="M 291 97 L 347 97 L 347 153 L 291 153 Z M 291 97 "/></clipPath><clipPath id="87fe4f1226"><path d="M 293.472656 92.246094 L 352.382812 99.546875 L 345.085938 158.453125 L 286.175781 151.15625 Z M 293.472656 92.246094 "/></clipPath><clipPath id="df70b31e77"><path d="M 293.472656 92.246094 L 352.382812 99.546875 L 345.085938 158.453125 L 286.175781 151.15625 Z M 293.472656 92.246094 "/></clipPath></defs><g id="62cef97d6f"><path style=" stroke:none;fill-rule:nonzero;fill:#a5e9ff;fill-opacity:1;" d="M 53.925781 180.542969 C 42.171875 205.808594 24.773438 254.167969 31.765625 314.320312 C 40.738281 391.5 85.152344 452.347656 128.355469 486.539062 C 271.71875 599.996094 534.164062 526.699219 568.917969 419.824219 C 575.222656 400.433594 573.449219 381.734375 571.265625 358.722656 C 564.328125 285.539062 527.785156 263.785156 503.207031 186.074219 C 480.84375 115.359375 502.894531 107.398438 481.980469 75.960938 C 436.609375 7.761719 305.648438 4.324219 215.535156 37.019531 C 180.921875 49.582031 96.933594 88.105469 53.925781 180.542969 "/><path style=" stroke:none;fill-rule:nonzero;fill:#50d2fe;fill-opacity:1;" d="M 193.503906 126.074219 C 193.503906 56.445312 249.945312 0.00390625 319.574219 0.00390625 C 389.199219 0.00390625 445.644531 56.445312 445.644531 126.074219 C 445.644531 195.699219 389.199219 252.140625 319.574219 252.140625 C 249.945312 252.140625 193.503906 195.699219 193.503906 126.074219 "/><path style=" stroke:none;fill-rule:nonzero;fill:#ffffff;fill-opacity:1;" d="M 218.316406 126.070312 C 218.316406 70.144531 263.648438 24.8125 319.574219 24.8125 C 375.5 24.8125 420.832031 70.144531 420.832031 126.070312 C 420.832031 181.992188 375.5 227.332031 319.574219 227.332031 C 263.648438 227.332031 218.316406 181.992188 218.316406 126.070312 "/><path style=" stroke:none;fill-rule:nonzero;fill:#50d2fe;fill-opacity:1;" d="M 241.679688 126.074219 C 241.679688 83.054688 276.554688 48.179688 319.574219 48.179688 C 362.59375 48.179688 397.46875 83.054688 397.46875 126.074219 C 397.46875 169.089844 362.59375 203.964844 319.574219 203.964844 C 276.554688 203.964844 241.679688 169.089844 241.679688 126.074219 "/><path style=" stroke:none;fill-rule:nonzero;fill:#ffffff;fill-opacity:1;" d="M 269.28125 126.074219 C 269.28125 98.296875 291.796875 75.777344 319.570312 75.777344 C 347.351562 75.777344 369.867188 98.296875 369.867188 126.074219 C 369.867188 153.851562 347.351562 176.367188 319.570312 176.367188 C 291.796875 176.367188 269.28125 153.851562 269.28125 126.074219 "/><path style=" stroke:none;fill-rule:nonzero;fill:#2a91b3;fill-opacity:1;" d="M 292.105469 126.074219 C 292.105469 110.902344 304.402344 98.609375 319.574219 98.609375 C 334.742188 98.609375 347.035156 110.902344 347.035156 126.074219 C 347.035156 141.242188 334.742188 153.539062 319.574219 153.539062 C 304.402344 153.539062 292.105469 141.242188 292.105469 126.074219 "/><path style=" stroke:none;fill-rule:nonzero;fill:#2a91b3;fill-opacity:1;" d="M 204.539062 75.398438 C 204.402344 75.398438 204.269531 75.367188 204.136719 75.308594 C 203.640625 75.085938 203.421875 74.507812 203.644531 74.011719 C 216.578125 45.253906 239.597656 22.417969 268.453125 9.722656 C 268.953125 9.507812 269.53125 9.730469 269.75 10.226562 C 269.964844 10.71875 269.738281 11.300781 269.246094 11.519531 C 240.832031 24.023438 218.167969 46.503906 205.433594 74.816406 C 205.269531 75.179688 204.914062 75.398438 204.539062 75.398438 "/><path style=" stroke:none;fill-rule:nonzero;fill:#2a91b3;fill-opacity:1;" d="M 245.183594 150.214844 C 244.765625 150.214844 244.378906 149.945312 244.246094 149.523438 C 241.894531 141.960938 240.699219 134.070312 240.699219 126.070312 C 240.699219 125.53125 241.140625 125.089844 241.679688 125.089844 C 242.226562 125.089844 242.664062 125.53125 242.664062 126.070312 C 242.664062 133.875 243.828125 141.566406 246.125 148.941406 C 246.285156 149.460938 245.992188 150.007812 245.472656 150.171875 C 245.378906 150.199219 245.28125 150.214844 245.183594 150.214844 "/><path style=" stroke:none;fill-rule:nonzero;fill:#2a91b3;fill-opacity:1;" d="M 395.882812 111.355469 C 395.421875 111.355469 395.015625 111.039062 394.917969 110.574219 C 391.417969 93.472656 382.03125 77.902344 368.492188 66.726562 C 368.074219 66.382812 368.015625 65.765625 368.359375 65.34375 C 368.707031 64.925781 369.320312 64.867188 369.742188 65.210938 C 383.628906 76.671875 393.253906 92.644531 396.84375 110.179688 C 396.949219 110.710938 396.609375 111.226562 396.078125 111.339844 C 396.011719 111.351562 395.945312 111.355469 395.882812 111.355469 "/><path style=" stroke:none;fill-rule:nonzero;fill:#2a91b3;fill-opacity:1;" d="M 241.679688 127.054688 C 241.136719 127.054688 240.699219 126.617188 240.699219 126.074219 C 240.699219 82.582031 276.082031 47.199219 319.574219 47.199219 C 327.785156 47.199219 335.875 48.457031 343.632812 50.9375 C 344.144531 51.101562 344.433594 51.65625 344.261719 52.171875 C 344.101562 52.6875 343.550781 52.976562 343.027344 52.808594 C 335.472656 50.386719 327.582031 49.164062 319.574219 49.164062 C 277.164062 49.164062 242.660156 83.667969 242.660156 126.074219 C 242.660156 126.617188 242.226562 127.054688 241.679688 127.054688 "/><path style=" stroke:none;fill-rule:nonzero;fill:#ffffff;fill-opacity:1;" d="M 346.847656 224.398438 L 365.117188 224.398438 C 370.378906 224.398438 373.617188 218.492188 370.882812 213.878906 L 325.632812 137.484375 C 323.035156 133.101562 316.691406 133.101562 314.09375 137.484375 L 268.839844 213.878906 C 266.105469 218.492188 269.34375 224.398438 274.605469 224.398438 L 289.902344 224.398438 C 294.054688 224.398438 297.230469 228.203125 296.574219 232.410156 C 288.75 282.496094 243.425781 445.476562 67.46875 433.949219 C 75.808594 452.949219 92.398438 470.609375 111.878906 489.285156 C 130.042969 506.707031 154.359375 515.882812 178.679688 522.359375 C 188.707031 525.03125 198.644531 527.714844 200.535156 528.363281 C 323.695312 448.585938 339.195312 278.242188 340.097656 231.179688 C 340.171875 227.410156 343.171875 224.398438 346.847656 224.398438 "/><path style=" stroke:none;fill-rule:nonzero;fill:#2a91b3;fill-opacity:1;" d="M 347.359375 175.148438 C 347.023438 175.148438 346.695312 174.976562 346.511719 174.667969 L 324.785156 137.988281 C 323.742188 136.230469 321.902344 135.179688 319.859375 135.179688 C 317.816406 135.179688 315.976562 136.230469 314.9375 137.988281 L 300.441406 162.457031 C 300.164062 162.921875 299.558594 163.074219 299.09375 162.800781 C 298.628906 162.523438 298.476562 161.921875 298.753906 161.453125 L 313.246094 136.988281 C 314.644531 134.625 317.117188 133.214844 319.859375 133.214844 C 322.601562 133.214844 325.074219 134.625 326.472656 136.988281 L 348.199219 173.664062 C 348.476562 174.132812 348.320312 174.734375 347.859375 175.007812 C 347.699219 175.105469 347.527344 175.148438 347.359375 175.148438 "/><path style=" stroke:none;fill-rule:nonzero;fill:#2a91b3;fill-opacity:1;" d="M 325.253906 337.308594 C 325.175781 337.308594 325.09375 337.300781 325.015625 337.28125 C 324.488281 337.144531 324.171875 336.613281 324.304688 336.085938 C 336.804688 286.828125 338.828125 246.296875 339.113281 231.160156 C 339.199219 226.886719 342.664062 223.417969 346.847656 223.417969 L 365.113281 223.417969 C 367.179688 223.417969 369.039062 222.324219 370.085938 220.488281 C 371.183594 218.566406 371.164062 216.28125 370.039062 214.378906 C 369.761719 213.914062 369.914062 213.3125 370.382812 213.035156 C 370.851562 212.757812 371.449219 212.914062 371.726562 213.375 C 373.21875 215.894531 373.242188 218.917969 371.792969 221.460938 C 370.390625 223.914062 367.894531 225.378906 365.113281 225.378906 L 346.847656 225.378906 C 343.726562 225.378906 341.140625 227.992188 341.078125 231.195312 C 340.789062 246.40625 338.757812 287.113281 326.207031 336.570312 C 326.09375 337.015625 325.695312 337.308594 325.253906 337.308594 "/><path style=" stroke:none;fill-rule:nonzero;fill:#2a91b3;fill-opacity:1;" d="M 126.730469 431.78125 C 126.265625 431.78125 125.855469 431.453125 125.765625 430.980469 C 125.667969 430.449219 126.019531 429.9375 126.550781 429.835938 C 150.363281 425.386719 172.40625 416.84375 192.066406 404.441406 C 192.527344 404.152344 193.132812 404.289062 193.421875 404.746094 C 193.710938 405.207031 193.574219 405.8125 193.117188 406.101562 C 173.246094 418.636719 150.96875 427.273438 126.910156 431.765625 C 126.851562 431.777344 126.789062 431.78125 126.730469 431.78125 "/><path style=" stroke:none;fill-rule:nonzero;fill:#2a91b3;fill-opacity:1;" d="M 257.566406 338.929688 C 257.390625 338.929688 257.210938 338.878906 257.050781 338.777344 C 256.589844 338.496094 256.449219 337.890625 256.730469 337.429688 C 284.625 292.203125 293.539062 245.496094 295.605469 232.257812 C 295.878906 230.5 295.378906 228.730469 294.238281 227.394531 C 293.144531 226.117188 291.5625 225.378906 289.90625 225.378906 L 276.273438 225.378906 C 275.730469 225.378906 275.292969 224.941406 275.292969 224.398438 C 275.292969 223.859375 275.730469 223.417969 276.273438 223.417969 L 289.90625 223.417969 C 292.136719 223.417969 294.261719 224.402344 295.726562 226.117188 C 297.246094 227.890625 297.90625 230.234375 297.546875 232.558594 C 295.460938 245.886719 286.488281 292.921875 258.402344 338.460938 C 258.21875 338.761719 257.898438 338.929688 257.566406 338.929688 "/><path style=" stroke:none;fill-rule:nonzero;fill:#2a91b3;fill-opacity:1;" d="M 280.046875 451.3125 L 237.75 493.609375 C 237.71875 493.640625 237.671875 493.660156 237.625 493.660156 L 132.890625 493.261719 C 132.734375 493.261719 132.652344 493.066406 132.765625 492.957031 L 174.746094 450.976562 C 174.78125 450.941406 174.824219 450.921875 174.871094 450.921875 L 279.917969 451.007812 C 280.078125 451.007812 280.15625 451.203125 280.046875 451.3125 "/><path style=" stroke:none;fill-rule:nonzero;fill:#010f20;fill-opacity:1;" d="M 134.824219 492.285156 L 237.296875 492.675781 L 277.980469 451.988281 L 175.203125 451.902344 Z M 133.464844 493.644531 L 133.460938 493.648438 C 133.460938 493.648438 133.464844 493.644531 133.464844 493.644531 Z M 237.625 494.640625 L 132.886719 494.242188 C 132.417969 494.238281 131.996094 493.957031 131.820312 493.523438 C 131.640625 493.085938 131.742188 492.589844 132.074219 492.257812 L 174.050781 450.28125 C 174.277344 450.058594 174.566406 449.941406 174.871094 449.941406 L 279.921875 450.027344 C 280.390625 450.027344 280.8125 450.308594 280.988281 450.746094 C 281.171875 451.175781 281.074219 451.675781 280.738281 452.007812 L 238.445312 494.300781 C 238.230469 494.515625 237.933594 494.640625 237.625 494.640625 "/><path style=" stroke:none;fill-rule:nonzero;fill:#50d2fe;fill-opacity:1;" d="M 280.140625 451.046875 L 280.140625 501.402344 L 238.132812 543.4375 C 237.972656 543.597656 237.699219 543.484375 237.699219 543.257812 L 237.699219 493.660156 C 237.699219 493.660156 279.535156 451.078125 280.140625 451.046875 "/><path style=" stroke:none;fill-rule:nonzero;fill:#010f20;fill-opacity:1;" d="M 238.683594 494.058594 L 238.683594 541.5 L 279.160156 500.996094 L 279.160156 453.265625 C 273.402344 458.832031 252.910156 479.582031 238.683594 494.058594 Z M 237.4375 542.738281 C 237.4375 542.742188 237.4375 542.742188 237.4375 542.742188 Z M 237.957031 544.492188 C 237.796875 544.492188 237.632812 544.460938 237.484375 544.398438 C 237.019531 544.207031 236.71875 543.757812 236.71875 543.257812 L 236.71875 493.660156 C 236.71875 493.402344 236.820312 493.15625 236.996094 492.972656 C 237.105469 492.863281 247.582031 482.203125 257.996094 471.671875 C 279.335938 450.105469 279.539062 450.097656 280.09375 450.066406 C 280.363281 450.054688 280.625 450.152344 280.820312 450.335938 C 281.011719 450.519531 281.125 450.777344 281.125 451.046875 L 281.125 501.402344 C 281.125 501.664062 281.019531 501.914062 280.835938 502.097656 L 238.828125 544.128906 C 238.59375 544.367188 238.277344 544.492188 237.957031 544.492188 "/><path style=" stroke:none;fill-rule:nonzero;fill:#ffffff;fill-opacity:1;" d="M 237.699219 543.511719 L 132.640625 543.113281 L 132.730469 493.347656 L 237.699219 493.660156 C 237.699219 493.660156 237.699219 543.65625 237.699219 543.511719 "/><path style=" stroke:none;fill-rule:nonzero;fill:#010f20;fill-opacity:1;" d="M 133.625 542.136719 L 236.71875 542.527344 L 236.71875 494.636719 L 133.710938 494.332031 Z M 237.699219 544.492188 C 237.699219 544.492188 237.699219 544.492188 237.695312 544.492188 L 132.636719 544.097656 C 132.097656 544.09375 131.660156 543.652344 131.660156 543.109375 L 131.75 493.347656 C 131.75 493.085938 131.855469 492.835938 132.039062 492.652344 C 132.222656 492.472656 132.472656 492.367188 132.730469 492.367188 C 132.734375 492.367188 132.734375 492.367188 132.734375 492.367188 L 237.703125 492.675781 C 238.246094 492.679688 238.683594 493.117188 238.683594 493.660156 L 238.683594 543.511719 C 238.683594 543.773438 238.578125 544.023438 238.394531 544.203125 C 238.207031 544.386719 237.957031 544.492188 237.699219 544.492188 "/><path style=" stroke:none;fill-rule:nonzero;fill:#2a91b3;fill-opacity:1;" d="M 423.542969 342.195312 L 381.289062 384.453125 L 264.253906 384.054688 C 264.132812 384.054688 264.074219 383.90625 264.160156 383.816406 L 306.261719 341.714844 L 423.378906 341.804688 C 423.589844 341.804688 423.6875 342.050781 423.542969 342.195312 "/><path style=" stroke:none;fill-rule:nonzero;fill:#010f20;fill-opacity:1;" d="M 423.542969 342.199219 L 423.546875 342.199219 Z M 266.285156 383.078125 L 380.882812 383.46875 L 421.566406 342.785156 L 306.664062 342.699219 Z M 381.285156 385.433594 L 264.25 385.035156 C 263.796875 385.03125 263.394531 384.757812 263.222656 384.34375 C 263.050781 383.921875 263.144531 383.445312 263.464844 383.125 L 305.566406 341.023438 C 305.75 340.839844 306 340.734375 306.261719 340.734375 L 423.378906 340.820312 C 423.871094 340.820312 424.308594 341.113281 424.496094 341.566406 C 424.6875 342.023438 424.585938 342.542969 424.238281 342.890625 C 424.238281 342.890625 424.238281 342.890625 424.234375 342.890625 L 381.980469 385.144531 C 381.796875 385.328125 381.546875 385.433594 381.285156 385.433594 "/><path style=" stroke:none;fill-rule:nonzero;fill:#50d2fe;fill-opacity:1;" d="M 423.730469 341.839844 L 423.730469 501.09375 L 381.609375 543.238281 C 381.492188 543.355469 381.289062 543.273438 381.289062 543.101562 L 381.289062 384.453125 C 381.289062 384.453125 423.128906 341.871094 423.730469 341.839844 "/><path style=" stroke:none;fill-rule:nonzero;fill:#010f20;fill-opacity:1;" d="M 382.269531 384.855469 L 382.269531 541.191406 L 422.75 500.6875 L 422.75 344.058594 C 416.984375 349.628906 396.496094 370.375 382.269531 384.855469 Z M 381.480469 544.277344 C 381.328125 544.277344 381.175781 544.246094 381.03125 544.1875 C 380.589844 544.003906 380.304688 543.578125 380.304688 543.101562 L 380.304688 384.453125 C 380.304688 384.195312 380.40625 383.949219 380.589844 383.765625 C 380.691406 383.65625 391.167969 372.996094 401.582031 362.464844 C 422.921875 340.898438 423.128906 340.890625 423.679688 340.859375 C 423.945312 340.851562 424.210938 340.941406 424.40625 341.132812 C 424.601562 341.316406 424.710938 341.570312 424.710938 341.839844 L 424.710938 501.09375 C 424.710938 501.351562 424.609375 501.601562 424.425781 501.785156 L 382.300781 543.929688 C 382.078125 544.15625 381.78125 544.277344 381.480469 544.277344 "/><path style=" stroke:none;fill-rule:nonzero;fill:#ffffff;fill-opacity:1;" d="M 381.289062 543.511719 L 264.101562 543.113281 C 264.355469 543.367188 264.191406 384.140625 264.191406 384.140625 L 381.289062 384.453125 C 381.289062 384.453125 381.289062 543.65625 381.289062 543.511719 "/><path style=" stroke:none;fill-rule:nonzero;fill:#010f20;fill-opacity:1;" d="M 265.117188 542.136719 L 380.308594 542.527344 L 380.308594 385.429688 L 265.179688 385.125 C 265.183594 391.476562 265.214844 427.527344 265.226562 463.589844 C 265.230469 483.457031 265.226562 503.324219 265.207031 518.234375 C 265.195312 525.691406 265.183594 531.90625 265.164062 536.261719 C 265.152344 538.4375 265.140625 540.152344 265.128906 541.324219 C 265.125 541.632812 265.125 541.902344 265.117188 542.136719 Z M 381.289062 544.492188 L 381.285156 544.492188 L 264.101562 544.097656 C 263.628906 544.097656 263.222656 543.753906 263.140625 543.285156 C 263.117188 543.175781 263.117188 543.066406 263.136719 542.957031 C 263.320312 539.777344 263.265625 437.84375 263.210938 384.144531 C 263.210938 383.882812 263.316406 383.632812 263.5 383.449219 C 263.683594 383.265625 263.933594 383.160156 264.191406 383.160156 C 264.195312 383.160156 264.195312 383.160156 264.195312 383.160156 L 381.292969 383.46875 C 381.832031 383.472656 382.269531 383.910156 382.269531 384.453125 L 382.269531 543.511719 C 382.269531 543.773438 382.167969 544.023438 381.980469 544.207031 C 381.796875 544.390625 381.546875 544.492188 381.289062 544.492188 "/><path style=" stroke:none;fill-rule:nonzero;fill:#a5e9ff;fill-opacity:1;" d="M 344.890625 417.597656 C 344.636719 417.597656 344.386719 417.503906 344.195312 417.308594 C 343.808594 416.925781 343.808594 416.308594 344.195312 415.921875 L 354.863281 405.253906 C 355.246094 404.875 355.867188 404.875 356.25 405.253906 C 356.632812 405.640625 356.632812 406.261719 356.25 406.644531 L 345.582031 417.308594 C 345.390625 417.503906 345.140625 417.597656 344.890625 417.597656 "/><path style=" stroke:none;fill-rule:nonzero;fill:#2a91b3;fill-opacity:1;" d="M 571.894531 205.886719 L 529.246094 248.539062 L 413.765625 248.140625 C 413.589844 248.140625 413.507812 247.929688 413.625 247.8125 L 455.640625 205.800781 L 571.894531 205.886719 "/><path style=" stroke:none;fill-rule:nonzero;fill:#010f20;fill-opacity:1;" d="M 415.664062 247.167969 L 528.839844 247.558594 L 569.523438 206.867188 L 456.042969 206.785156 Z M 529.246094 249.523438 C 529.242188 249.523438 529.242188 249.523438 529.242188 249.523438 L 413.757812 249.125 C 413.28125 249.117188 412.859375 248.835938 412.679688 248.394531 C 412.496094 247.957031 412.59375 247.453125 412.929688 247.117188 L 454.941406 205.113281 C 455.125 204.925781 455.375 204.820312 455.636719 204.820312 L 571.894531 204.90625 C 572.289062 204.90625 572.648438 205.148438 572.804688 205.515625 C 572.953125 205.882812 572.867188 206.304688 572.585938 206.585938 L 529.933594 249.234375 C 529.753906 249.414062 529.5 249.523438 529.246094 249.523438 "/><path style=" stroke:none;fill-rule:nonzero;fill:#50d2fe;fill-opacity:1;" d="M 571.894531 205.925781 L 571.894531 501.570312 L 529.890625 543.597656 C 529.730469 543.757812 529.449219 543.648438 529.449219 543.417969 L 529.449219 248.539062 C 529.449219 248.539062 571.289062 205.957031 571.894531 205.925781 "/><path style=" stroke:none;fill-rule:nonzero;fill:#010f20;fill-opacity:1;" d="M 530.429688 248.941406 L 530.429688 541.667969 L 570.910156 501.164062 L 570.910156 208.144531 C 565.152344 213.71875 544.664062 234.464844 530.429688 248.941406 Z M 529.710938 544.660156 C 529.550781 544.660156 529.386719 544.625 529.230469 544.5625 C 528.769531 544.371094 528.472656 543.921875 528.472656 543.417969 L 528.472656 248.539062 C 528.472656 248.28125 528.574219 248.035156 528.75 247.851562 C 528.851562 247.746094 539.332031 237.082031 549.75 226.554688 C 571.085938 204.984375 571.289062 204.976562 571.839844 204.949219 C 572.105469 204.9375 572.375 205.03125 572.566406 205.214844 C 572.765625 205.402344 572.875 205.65625 572.875 205.925781 L 572.875 501.574219 C 572.875 501.835938 572.773438 502.085938 572.585938 502.265625 L 530.582031 544.292969 C 530.34375 544.53125 530.03125 544.660156 529.710938 544.660156 "/><path style=" stroke:none;fill-rule:nonzero;fill:#ffffff;fill-opacity:1;" d="M 529.449219 543.679688 L 413.476562 543.285156 C 413.730469 543.535156 413.570312 248.230469 413.570312 248.230469 L 529.449219 248.539062 C 529.449219 248.539062 529.449219 543.824219 529.449219 543.679688 "/><path style=" stroke:none;fill-rule:nonzero;fill:#010f20;fill-opacity:1;" d="M 414.484375 542.304688 L 528.472656 542.691406 L 528.472656 249.515625 L 414.554688 249.210938 C 414.558594 258.179688 414.59375 326.941406 414.601562 395.71875 C 414.609375 432.59375 414.605469 469.46875 414.582031 497.136719 C 414.574219 510.972656 414.558594 522.5 414.539062 530.578125 C 414.53125 534.613281 414.519531 537.792969 414.507812 539.957031 C 414.503906 540.980469 414.496094 541.738281 414.484375 542.304688 Z M 529.453125 544.65625 C 529.453125 544.65625 529.453125 544.65625 529.449219 544.65625 L 413.480469 544.265625 C 413.003906 544.261719 412.601562 543.921875 412.515625 543.457031 C 412.496094 543.351562 412.496094 543.25 412.507812 543.148438 C 412.746094 538.253906 412.589844 251.136719 412.585938 248.230469 C 412.585938 247.96875 412.691406 247.714844 412.878906 247.53125 C 413.0625 247.351562 413.3125 247.246094 413.570312 247.246094 C 413.574219 247.246094 413.574219 247.246094 413.574219 247.246094 L 529.453125 247.554688 C 529.996094 247.554688 530.433594 247.996094 530.433594 248.539062 L 530.433594 543.679688 C 530.433594 543.9375 530.332031 544.1875 530.148438 544.375 C 529.964844 544.558594 529.714844 544.65625 529.453125 544.65625 "/><path style=" stroke:none;fill-rule:nonzero;fill:#a5e9ff;fill-opacity:1;" d="M 462.820312 315.304688 C 462.570312 315.304688 462.316406 315.207031 462.125 315.015625 C 461.742188 314.632812 461.742188 314.011719 462.125 313.628906 L 495.710938 280.046875 C 496.089844 279.664062 496.710938 279.664062 497.097656 280.046875 C 497.480469 280.429688 497.480469 281.050781 497.097656 281.433594 L 463.515625 315.015625 C 463.324219 315.207031 463.070312 315.304688 462.820312 315.304688 "/><path style=" stroke:none;fill-rule:nonzero;fill:#a5e9ff;fill-opacity:1;" d="M 461.640625 290.015625 C 461.386719 290.015625 461.136719 289.917969 460.945312 289.730469 C 460.5625 289.34375 460.5625 288.722656 460.945312 288.339844 L 471.613281 277.671875 C 471.996094 277.289062 472.617188 277.289062 473 277.671875 C 473.382812 278.054688 473.382812 278.679688 473 279.0625 L 462.332031 289.730469 C 462.140625 289.917969 461.890625 290.015625 461.640625 290.015625 "/><path style=" stroke:none;fill-rule:nonzero;fill:#ffffff;fill-opacity:1;" d="M 68.796875 497.964844 L 65.492188 527.285156 L 77.960938 532.480469 L 82.554688 500.511719 L 68.796875 497.964844 "/><path style=" stroke:none;fill-rule:nonzero;fill:#010f20;fill-opacity:1;" d="M 66.546875 526.664062 L 77.167969 531.085938 L 81.445312 501.304688 L 69.652344 499.121094 Z M 77.960938 533.457031 C 77.832031 533.457031 77.703125 533.433594 77.582031 533.382812 L 65.113281 528.191406 C 64.710938 528.027344 64.464844 527.609375 64.515625 527.175781 L 67.820312 497.855469 C 67.851562 497.585938 67.992188 497.339844 68.210938 497.175781 C 68.429688 497.015625 68.707031 496.953125 68.976562 497.003906 L 82.730469 499.546875 C 83.25 499.644531 83.601562 500.132812 83.523438 500.652344 L 78.933594 532.617188 C 78.890625 532.917969 78.707031 533.179688 78.445312 533.328125 C 78.296875 533.414062 78.128906 533.457031 77.960938 533.457031 "/><path style=" stroke:none;fill-rule:nonzero;fill:#50d2fe;fill-opacity:1;" d="M 62.589844 524.515625 C 62.195312 527.296875 61.5625 532.453125 61.507812 537.074219 C 61.476562 539.980469 63.65625 542.429688 66.535156 542.796875 C 74.675781 543.839844 93.144531 544.984375 108.871094 543.558594 C 109.949219 543.460938 111.855469 542.675781 112.382812 539.984375 C 114.164062 530.960938 98.457031 528.746094 81.238281 522.195312 C 80.5625 521.9375 79.800781 522.089844 79.28125 522.59375 L 77.425781 524.390625 C 75.566406 526.191406 72.8125 526.703125 70.429688 525.6875 L 64.78125 523.277344 C 63.820312 522.867188 62.734375 523.484375 62.589844 524.515625 "/><path style=" stroke:none;fill-rule:nonzero;fill:#010f20;fill-opacity:1;" d="M 62.589844 524.515625 L 62.59375 524.515625 Z M 64.160156 524.128906 C 64.03125 524.128906 63.925781 524.171875 63.863281 524.207031 C 63.765625 524.265625 63.597656 524.398438 63.5625 524.65625 C 63.183594 527.320312 62.542969 532.484375 62.492188 537.085938 C 62.460938 539.480469 64.253906 541.515625 66.660156 541.824219 C 75.0625 542.902344 93.210938 543.992188 108.785156 542.578125 C 109.140625 542.546875 110.933594 542.265625 111.421875 539.792969 C 112.617188 533.734375 104.210938 530.976562 92.578125 527.160156 C 88.824219 525.929688 84.945312 524.65625 80.890625 523.113281 C 80.566406 522.992188 80.207031 523.0625 79.964844 523.296875 L 78.109375 525.09375 C 75.960938 527.175781 72.792969 527.761719 70.046875 526.589844 L 64.398438 524.179688 C 64.3125 524.144531 64.230469 524.128906 64.160156 524.128906 Z M 92.484375 545.210938 C 81.890625 545.210938 72.007812 544.488281 66.410156 543.769531 C 63.015625 543.335938 60.488281 540.453125 60.527344 537.0625 C 60.582031 532.351562 61.234375 527.09375 61.617188 524.378906 C 61.730469 523.582031 62.195312 522.894531 62.898438 522.496094 C 63.601562 522.105469 64.425781 522.058594 65.167969 522.375 L 70.816406 524.78125 C 72.835938 525.644531 75.164062 525.214844 76.742188 523.683594 L 78.597656 521.886719 C 79.386719 521.125 80.554688 520.886719 81.585938 521.277344 C 85.597656 522.804688 89.457031 524.070312 93.191406 525.296875 C 105.308594 529.269531 114.878906 532.410156 113.347656 540.175781 C 112.761719 543.152344 110.617188 544.386719 108.960938 544.535156 C 103.609375 545.019531 97.949219 545.210938 92.484375 545.210938 "/><path style=" stroke:none;fill-rule:nonzero;fill:#ffffff;fill-opacity:1;" d="M 61.519531 536.378906 C 61.519531 536.378906 61.511719 536.851562 61.507812 537.074219 C 61.476562 539.980469 63.65625 542.429688 66.535156 542.796875 C 74.675781 543.839844 93.144531 544.984375 108.871094 543.558594 C 109.949219 543.460938 111.855469 542.675781 112.382812 539.984375 C 112.546875 539.160156 112.445312 537.675781 112.445312 537.675781 L 111.332031 537.730469 C 95.4375 538.515625 79.503906 538.136719 63.667969 536.589844 L 61.519531 536.378906 "/><path style=" stroke:none;fill-rule:nonzero;fill:#010f20;fill-opacity:1;" d="M 62.5 537.460938 C 62.652344 539.691406 64.382812 541.53125 66.660156 541.824219 C 75.0625 542.902344 93.210938 543.992188 108.785156 542.578125 C 109.140625 542.546875 110.933594 542.265625 111.421875 539.792969 C 111.476562 539.511719 111.496094 539.097656 111.496094 538.707031 L 111.378906 538.710938 C 95.484375 539.496094 79.402344 539.109375 63.570312 537.566406 Z M 92.484375 545.210938 C 81.890625 545.210938 72.007812 544.488281 66.410156 543.769531 C 63.015625 543.335938 60.488281 540.453125 60.527344 537.0625 L 60.539062 536.363281 C 60.546875 536.085938 60.664062 535.828125 60.871094 535.648438 C 61.074219 535.464844 61.339844 535.375 61.617188 535.402344 L 63.761719 535.613281 C 79.496094 537.148438 95.484375 537.527344 111.28125 536.75 L 112.398438 536.695312 C 112.949219 536.675781 113.390625 537.074219 113.425781 537.609375 C 113.4375 537.773438 113.527344 539.25 113.347656 540.175781 C 112.761719 543.152344 110.617188 544.386719 108.960938 544.535156 C 103.609375 545.019531 97.949219 545.210938 92.484375 545.210938 "/><path style=" stroke:none;fill-rule:nonzero;fill:#010f20;fill-opacity:1;" d="M 85.1875 532.925781 C 84.933594 532.925781 84.683594 532.828125 84.492188 532.640625 C 84.109375 532.257812 84.109375 531.632812 84.492188 531.25 L 90.535156 525.207031 C 90.917969 524.824219 91.539062 524.824219 91.921875 525.207031 C 92.308594 525.589844 92.308594 526.210938 91.921875 526.59375 L 85.882812 532.640625 C 85.691406 532.828125 85.4375 532.925781 85.1875 532.925781 "/><path style=" stroke:none;fill-rule:nonzero;fill:#010f20;fill-opacity:1;" d="M 91.121094 533.554688 C 90.878906 533.554688 90.632812 533.464844 90.441406 533.28125 C 90.050781 532.90625 90.039062 532.28125 90.414062 531.894531 L 95.242188 526.878906 C 95.621094 526.488281 96.242188 526.476562 96.632812 526.851562 C 97.019531 527.226562 97.03125 527.847656 96.65625 528.234375 L 91.828125 533.253906 C 91.636719 533.453125 91.378906 533.554688 91.121094 533.554688 "/><path style=" stroke:none;fill-rule:nonzero;fill:#010f20;fill-opacity:1;" d="M 114.082031 304.742188 C 114.082031 304.742188 106.492188 309.148438 103.53125 334.980469 C 100.566406 360.8125 101.554688 391.265625 80.925781 421.464844 C 64.449219 445.582031 65.898438 486.285156 63.5 512.964844 C 63.386719 514.253906 64.375 515.371094 65.667969 515.414062 L 81.464844 515.957031 C 82.472656 515.992188 83.378906 515.359375 83.6875 514.398438 C 86.507812 505.660156 100.550781 463.480469 116.320312 439.027344 C 132.988281 413.175781 153.253906 346.089844 153.253906 346.089844 C 153.253906 346.089844 149.492188 329.132812 148.972656 312.882812 C 148.449219 296.625 114.082031 304.742188 114.082031 304.742188 "/><path style=" stroke:none;fill-rule:nonzero;fill:#ffffff;fill-opacity:1;" d="M 200.789062 424.601562 L 194.128906 453.347656 L 205.914062 459.941406 L 214.160156 428.71875 L 200.789062 424.601562 "/><path style=" stroke:none;fill-rule:nonzero;fill:#010f20;fill-opacity:1;" d="M 195.25 452.851562 L 205.289062 458.464844 L 212.972656 429.378906 L 201.507812 425.851562 Z M 205.914062 460.921875 C 205.75 460.921875 205.585938 460.878906 205.4375 460.796875 L 193.648438 454.203125 C 193.265625 453.992188 193.074219 453.550781 193.171875 453.125 L 199.832031 424.382812 C 199.894531 424.117188 200.0625 423.886719 200.296875 423.753906 C 200.535156 423.617188 200.816406 423.585938 201.078125 423.664062 L 214.449219 427.78125 C 214.953125 427.933594 215.246094 428.460938 215.109375 428.96875 L 206.867188 460.191406 C 206.789062 460.484375 206.578125 460.722656 206.300781 460.84375 C 206.175781 460.898438 206.046875 460.921875 205.914062 460.921875 "/><path style=" stroke:none;fill-rule:nonzero;fill:#50d2fe;fill-opacity:1;" d="M 192.710938 451.648438 C 192.316406 454.429688 189.820312 459.699219 189.765625 464.320312 C 189.734375 467.222656 191.914062 469.671875 194.792969 470.042969 C 202.933594 471.085938 223.265625 472.117188 238.996094 470.6875 C 240.070312 470.589844 241.980469 469.808594 242.507812 467.117188 C 244.285156 458.089844 228.582031 455.878906 211.359375 449.328125 C 210.683594 449.070312 209.921875 449.222656 209.40625 449.726562 L 207.546875 451.523438 C 205.6875 453.324219 202.933594 453.832031 200.554688 452.816406 L 194.90625 450.410156 C 193.945312 450 192.855469 450.617188 192.710938 451.648438 "/><path style=" stroke:none;fill-rule:nonzero;fill:#010f20;fill-opacity:1;" d="M 193.683594 451.789062 C 193.527344 452.898438 193.085938 454.289062 192.574219 455.898438 C 191.777344 458.421875 190.78125 461.566406 190.75 464.332031 C 190.722656 466.722656 192.515625 468.761719 194.917969 469.070312 C 202.296875 470.015625 222.773438 471.175781 238.910156 469.710938 C 239.261719 469.679688 241.058594 469.394531 241.542969 466.929688 C 242.738281 460.867188 234.335938 458.109375 222.703125 454.292969 C 218.949219 453.0625 215.066406 451.789062 211.011719 450.246094 C 210.691406 450.125 210.328125 450.195312 210.085938 450.429688 L 208.230469 452.226562 C 206.082031 454.308594 202.921875 454.894531 200.167969 453.722656 L 194.523438 451.3125 C 194.285156 451.210938 194.082031 451.289062 193.984375 451.339844 C 193.890625 451.394531 193.71875 451.527344 193.683594 451.789062 Z M 221.359375 472.363281 C 210.714844 472.363281 200.371094 471.746094 194.667969 471.015625 C 191.277344 470.578125 188.746094 467.695312 188.785156 464.308594 C 188.820312 461.253906 189.867188 457.957031 190.707031 455.304688 C 191.1875 453.777344 191.605469 452.460938 191.738281 451.511719 C 191.851562 450.714844 192.320312 450.027344 193.019531 449.632812 C 193.722656 449.234375 194.550781 449.191406 195.292969 449.507812 L 200.941406 451.914062 C 202.960938 452.777344 205.285156 452.347656 206.863281 450.820312 L 208.722656 449.019531 C 209.507812 448.257812 210.679688 448.019531 211.707031 448.410156 C 215.722656 449.933594 219.582031 451.203125 223.3125 452.429688 C 235.429688 456.402344 245 459.542969 243.472656 467.308594 C 242.882812 470.285156 240.742188 471.519531 239.082031 471.667969 C 233.617188 472.164062 227.441406 472.363281 221.359375 472.363281 "/><path style=" stroke:none;fill-rule:nonzero;fill:#ffffff;fill-opacity:1;" d="M 190.210938 463.433594 C 190.210938 463.433594 190.199219 463.902344 190.199219 464.128906 C 190.164062 467.03125 192.34375 469.480469 195.222656 469.847656 C 203.367188 470.894531 223.265625 472.117188 238.996094 470.6875 C 240.070312 470.589844 241.980469 469.808594 242.507812 467.117188 C 242.667969 466.292969 242.570312 464.808594 242.570312 464.808594 L 241.453125 464.863281 C 225.558594 465.648438 209.628906 465.265625 193.789062 463.71875 L 190.210938 463.433594 "/><path style=" stroke:none;fill-rule:nonzero;fill:#010f20;fill-opacity:1;" d="M 191.191406 464.496094 C 191.335938 466.730469 193.066406 468.582031 195.347656 468.875 C 202.480469 469.789062 222.511719 471.203125 238.910156 469.710938 C 239.261719 469.679688 241.058594 469.394531 241.542969 466.929688 C 241.601562 466.644531 241.617188 466.230469 241.617188 465.835938 L 241.503906 465.84375 C 225.609375 466.625 209.523438 466.242188 193.691406 464.699219 Z M 222.871094 472.320312 C 211.078125 472.320312 200.03125 471.457031 195.097656 470.820312 C 191.707031 470.386719 189.179688 467.503906 189.214844 464.117188 L 189.230469 463.414062 C 189.234375 463.140625 189.351562 462.886719 189.550781 462.703125 C 189.753906 462.523438 190.015625 462.433594 190.289062 462.453125 L 193.867188 462.746094 C 209.621094 464.28125 225.609375 464.660156 241.40625 463.882812 L 242.523438 463.828125 C 243.066406 463.808594 243.515625 464.207031 243.546875 464.742188 C 243.5625 464.90625 243.652344 466.382812 243.472656 467.308594 C 242.882812 470.285156 240.742188 471.519531 239.082031 471.667969 C 233.871094 472.140625 228.292969 472.320312 222.871094 472.320312 "/><path style=" stroke:none;fill-rule:nonzero;fill:#010f20;fill-opacity:1;" d="M 215.308594 460.058594 C 215.058594 460.058594 214.808594 459.964844 214.617188 459.769531 C 214.230469 459.390625 214.230469 458.765625 214.617188 458.382812 L 220.660156 452.339844 C 221.042969 451.957031 221.664062 451.957031 222.046875 452.339844 C 222.429688 452.722656 222.429688 453.34375 222.046875 453.726562 L 216.003906 459.769531 C 215.8125 459.964844 215.558594 460.058594 215.308594 460.058594 "/><path style=" stroke:none;fill-rule:nonzero;fill:#010f20;fill-opacity:1;" d="M 221.246094 460.6875 C 221 460.6875 220.753906 460.59375 220.566406 460.414062 C 220.175781 460.035156 220.164062 459.414062 220.539062 459.023438 L 225.367188 454.007812 C 225.742188 453.617188 226.363281 453.609375 226.753906 453.980469 C 227.144531 454.359375 227.15625 454.980469 226.78125 455.371094 L 221.953125 460.386719 C 221.761719 460.585938 221.503906 460.6875 221.246094 460.6875 "/><path style=" stroke:none;fill-rule:nonzero;fill:#010f20;fill-opacity:1;" d="M 140.597656 347.964844 C 140.597656 347.964844 177.839844 359.046875 217.449219 337.777344 C 218.617188 337.148438 219.863281 338.488281 219.152344 339.613281 C 217.15625 342.765625 211.457031 350.511719 208.484375 358.582031 C 204.824219 368.523438 197.089844 419.941406 194.542969 435.941406 C 194.3125 437.386719 195.402344 438.703125 196.867188 438.75 L 212.09375 439.246094 C 213.058594 439.277344 213.949219 438.742188 214.363281 437.875 C 219.859375 426.421875 258.972656 336.609375 257.601562 319.824219 C 256.121094 301.683594 232.175781 302.609375 223.539062 302.054688 C 214.601562 301.480469 143.332031 303.140625 143.332031 303.140625 L 140.597656 347.964844 "/><path style=" stroke:none;fill-rule:nonzero;fill:#ffffff;fill-opacity:1;" d="M 36.5625 324.152344 C 37.789062 322.6875 39.378906 320.972656 40.742188 319.621094 C 42.507812 317.878906 48.398438 306.414062 48.398438 306.414062 L 58.695312 309.332031 C 58.695312 309.332031 53.882812 317.753906 55.039062 321.953125 C 56.117188 325.859375 56.964844 334.109375 51.246094 340.113281 C 50.589844 340.800781 49.152344 340.988281 48.652344 340.867188 C 47.160156 340.519531 47.128906 338.445312 47.863281 337.097656 L 49.925781 333.296875 C 50.109375 332.960938 49.835938 332.5625 49.457031 332.617188 C 47.914062 332.832031 44.511719 333.828125 40.957031 338.210938 C 38.222656 341.589844 32.796875 349.121094 30.972656 347.875 C 27.714844 345.644531 29.84375 332.152344 36.5625 324.152344 "/><path style=" stroke:none;fill-rule:nonzero;fill:#010f20;fill-opacity:1;" d="M 36.5625 324.152344 L 36.566406 324.152344 Z M 48.902344 307.578125 C 47.503906 310.269531 43.054688 318.71875 41.433594 320.324219 C 40.070312 321.667969 38.492188 323.378906 37.3125 324.78125 C 32.433594 330.59375 29.882812 339.789062 30.558594 344.734375 C 30.714844 345.863281 31.046875 346.691406 31.480469 347.027344 C 32.816406 346.972656 37.15625 341.449219 38.796875 339.351562 C 39.3125 338.703125 39.78125 338.101562 40.195312 337.59375 C 43.910156 333.011719 47.507812 331.898438 49.320312 331.644531 C 49.863281 331.566406 50.394531 331.800781 50.707031 332.25 C 51.019531 332.703125 51.050781 333.28125 50.789062 333.761719 L 48.722656 337.566406 C 48.371094 338.21875 48.269531 339.085938 48.492188 339.582031 C 48.601562 339.820312 48.746094 339.882812 48.878906 339.914062 C 49.160156 339.964844 50.179688 339.808594 50.535156 339.4375 C 56.664062 333 54.574219 323.960938 54.09375 322.210938 C 53.082031 318.546875 55.921875 312.488281 57.25 309.941406 Z M 31.527344 347.0625 L 31.535156 347.0625 Z M 31.441406 349.003906 C 31.074219 349.003906 30.738281 348.898438 30.417969 348.683594 C 29.464844 348.03125 28.859375 346.789062 28.613281 345 C 27.882812 339.664062 30.425781 329.933594 35.808594 323.519531 C 37.042969 322.046875 38.628906 320.332031 40.054688 318.925781 C 41.265625 317.726562 45.183594 310.519531 47.523438 305.96875 C 47.738281 305.550781 48.214844 305.347656 48.664062 305.472656 L 58.964844 308.390625 C 59.253906 308.472656 59.492188 308.683594 59.605469 308.960938 C 59.71875 309.242188 59.699219 309.558594 59.550781 309.820312 C 58.265625 312.066406 55.125 318.574219 55.984375 321.691406 C 57.523438 327.265625 57.269531 335.210938 51.957031 340.789062 C 50.992188 341.804688 49.171875 342 48.429688 341.824219 C 47.652344 341.640625 47.039062 341.132812 46.703125 340.386719 C 46.230469 339.335938 46.351562 337.828125 47 336.632812 L 48.523438 333.828125 C 46.945312 334.296875 44.386719 335.535156 41.71875 338.832031 C 41.3125 339.332031 40.847656 339.925781 40.339844 340.566406 C 36.421875 345.558594 33.539062 349.003906 31.441406 349.003906 "/><path style=" stroke:none;fill-rule:nonzero;fill:#2a91b3;fill-opacity:1;" d="M 283.457031 194.683594 L 276.800781 183.460938 C 275.707031 181.613281 272.261719 181.054688 270.542969 182.339844 C 232.929688 210.375 192.917969 198.9375 186.734375 197.464844 C 171.398438 193.816406 163.667969 193.257812 151.5625 192.523438 C 133.847656 191.441406 108.359375 201.6875 91.207031 218.839844 C 77.566406 232.480469 54.292969 276.734375 43.742188 307.476562 C 43.300781 308.769531 43.871094 310.1875 45.082031 310.816406 L 55.667969 316.3125 C 57.011719 317.007812 58.664062 316.5 59.371094 315.164062 C 64.761719 305.007812 88.101562 262.910156 112.535156 249.007812 C 114.328125 247.988281 117.03125 249.066406 116.929688 251.132812 C 116.601562 257.601562 112.585938 281.589844 111.363281 303.8125 C 111.203125 306.746094 113.226562 309.351562 116.113281 309.882812 L 126.800781 311.863281 C 145.441406 316.207031 162.921875 311.371094 170.621094 308.621094 C 172.976562 307.78125 174.121094 305.507812 174.476562 303.027344 C 175.070312 298.921875 183.34375 265.96875 198.433594 244.175781 C 200.332031 241.429688 203.210938 239.53125 206.542969 239.335938 C 219.996094 238.550781 258.289062 233.171875 283.296875 198.136719 C 284.023438 197.113281 284.097656 195.761719 283.457031 194.683594 "/><path style=" stroke:none;fill-rule:nonzero;fill:#ffffff;fill-opacity:1;" d="M 274.296875 186.835938 C 274.152344 185.996094 274.449219 185.152344 275.09375 184.601562 C 275.949219 183.875 277.382812 182.644531 279.472656 180.816406 C 283.148438 177.597656 287.753906 171.171875 291.765625 169.246094 C 295.777344 167.316406 310.328125 161.636719 312.65625 162.839844 C 314.984375 164.046875 313.832031 166.78125 310.527344 168.363281 C 307.222656 169.953125 302.921875 171.582031 302.921875 171.582031 C 302.921875 171.582031 305.324219 171.445312 307.101562 174.222656 C 308.875 177 306.417969 178.121094 307.457031 179.496094 C 308.785156 181.257812 308.390625 183.304688 307.335938 184.203125 C 304.933594 186.246094 302.027344 182.203125 299.855469 186.386719 C 298.34375 189.292969 294.78125 191.1875 287.550781 192.570312 C 285.609375 192.941406 283.761719 193.683594 282.085938 194.730469 C 281.394531 195.164062 280.515625 195.199219 279.804688 194.796875 C 278.078125 193.824219 275.082031 191.5 274.296875 186.835938 "/><path style=" stroke:none;fill-rule:nonzero;fill:#010f20;fill-opacity:1;" d="M 311.609375 163.625 C 308.484375 163.625 296.980469 167.832031 292.1875 170.132812 C 289.808594 171.277344 287.105469 174.226562 284.492188 177.074219 C 282.953125 178.761719 281.492188 180.351562 280.117188 181.558594 C 278.023438 183.386719 276.585938 184.625 275.730469 185.355469 C 275.351562 185.675781 275.175781 186.167969 275.261719 186.671875 C 275.980469 190.9375 278.71875 193.058594 280.285156 193.941406 C 280.679688 194.164062 281.167969 194.148438 281.566406 193.898438 C 283.378906 192.765625 285.332031 191.992188 287.363281 191.605469 C 294.113281 190.316406 297.585938 188.625 298.980469 185.9375 C 300.570312 182.875 302.808594 183.339844 304.289062 183.648438 C 305.410156 183.882812 306.074219 183.988281 306.699219 183.457031 C 307.339844 182.910156 307.6875 181.4375 306.671875 180.089844 C 305.90625 179.078125 306.257812 178.109375 306.511719 177.398438 C 306.792969 176.617188 307.035156 175.941406 306.273438 174.75 C 304.847656 172.523438 303 172.5625 302.976562 172.5625 C 302.519531 172.597656 302.0625 172.265625 301.960938 171.789062 C 301.859375 171.316406 302.121094 170.839844 302.574219 170.667969 C 302.617188 170.652344 306.871094 169.03125 310.101562 167.484375 C 312.003906 166.566406 312.886719 165.355469 312.898438 164.621094 C 312.898438 164.484375 312.90625 164.078125 312.203125 163.710938 C 312.070312 163.648438 311.867188 163.625 311.609375 163.625 Z M 280.882812 196.0625 C 280.34375 196.0625 279.808594 195.925781 279.324219 195.65625 C 277.449219 194.597656 274.179688 192.066406 273.328125 186.996094 C 273.128906 185.820312 273.5625 184.617188 274.457031 183.859375 C 275.308594 183.132812 276.742188 181.902344 278.824219 180.078125 C 280.121094 178.945312 281.542969 177.394531 283.046875 175.75 C 285.785156 172.761719 288.613281 169.671875 291.339844 168.359375 C 293.144531 167.496094 309.925781 160.324219 313.109375 161.972656 C 314.25 162.5625 314.875 163.515625 314.859375 164.652344 C 314.832031 166.34375 313.332031 168.105469 310.949219 169.25 C 309.246094 170.070312 307.300781 170.890625 305.796875 171.503906 C 306.511719 171.960938 307.261719 172.65625 307.925781 173.695312 C 309.207031 175.691406 308.695312 177.121094 308.359375 178.058594 C 308.121094 178.714844 308.136719 178.773438 308.238281 178.90625 C 309.894531 181.09375 309.386719 183.75 307.972656 184.953125 C 306.585938 186.132812 305.089844 185.820312 303.890625 185.570312 C 302.433594 185.265625 301.625 185.097656 300.722656 186.84375 C 299.023438 190.117188 295.140625 192.121094 287.734375 193.535156 C 285.941406 193.875 284.214844 194.5625 282.609375 195.566406 C 282.078125 195.894531 281.480469 196.0625 280.882812 196.0625 "/><path style=" stroke:none;fill-rule:nonzero;fill:#ffffff;fill-opacity:1;" d="M 177.058594 162.105469 L 157.160156 195.089844 C 156.890625 195.464844 153.96875 195.363281 150.671875 195.695312 C 149.136719 195.851562 147.527344 196.085938 146.195312 196.304688 C 145.097656 196.476562 144.789062 197.90625 145.714844 198.523438 L 149.277344 200.882812 C 156.742188 205.828125 165.609375 208.382812 174.546875 207.777344 C 177.03125 207.609375 179.410156 207.210938 181.527344 206.550781 L 189.148438 204.152344 C 190.292969 203.792969 190.285156 202.167969 189.136719 201.820312 L 179.429688 198.882812 L 187.625 181.492188 L 177.058594 162.105469 "/><path style=" stroke:none;fill-rule:nonzero;fill:#010f20;fill-opacity:1;" d="M 177.015625 164.078125 L 158 195.59375 C 157.988281 195.617188 157.972656 195.640625 157.957031 195.664062 C 157.519531 196.265625 156.730469 196.304688 154.398438 196.425781 C 153.367188 196.476562 152.085938 196.539062 150.769531 196.671875 C 149.484375 196.800781 147.996094 197.003906 146.351562 197.269531 C 146.246094 197.289062 146.179688 197.351562 146.15625 197.457031 C 146.132812 197.5625 146.167969 197.644531 146.257812 197.699219 L 149.820312 200.058594 C 157.246094 204.980469 166.003906 207.375 174.480469 206.800781 C 176.980469 206.628906 179.253906 206.230469 181.234375 205.613281 L 188.855469 203.214844 C 188.894531 203.203125 189.019531 203.164062 189.019531 202.988281 C 189.019531 202.8125 188.894531 202.773438 188.851562 202.761719 L 179.148438 199.824219 C 178.875 199.738281 178.652344 199.542969 178.535156 199.28125 C 178.417969 199.019531 178.421875 198.722656 178.542969 198.464844 L 186.523438 181.523438 Z M 171.992188 208.84375 C 163.925781 208.84375 155.757812 206.347656 148.734375 201.699219 L 145.171875 199.339844 C 144.414062 198.835938 144.046875 197.9375 144.234375 197.042969 C 144.429688 196.152344 145.136719 195.480469 146.035156 195.332031 C 147.71875 195.058594 149.246094 194.855469 150.574219 194.71875 C 151.9375 194.582031 153.246094 194.515625 154.296875 194.460938 C 155.132812 194.421875 156.0625 194.375 156.484375 194.304688 L 176.21875 161.601562 C 176.394531 161.304688 176.714844 161.125 177.058594 161.125 C 177.066406 161.125 177.074219 161.125 177.082031 161.125 C 177.433594 161.132812 177.753906 161.328125 177.921875 161.636719 L 188.488281 181.019531 C 188.636719 181.292969 188.644531 181.625 188.511719 181.910156 L 180.804688 198.273438 L 189.421875 200.882812 C 190.347656 201.164062 190.976562 202.007812 190.984375 202.976562 C 190.988281 203.949219 190.371094 204.796875 189.441406 205.089844 L 181.820312 207.484375 C 179.691406 208.148438 177.265625 208.574219 174.613281 208.757812 C 173.742188 208.816406 172.867188 208.84375 171.992188 208.84375 "/><path style=" stroke:none;fill-rule:nonzero;fill:#ffffff;fill-opacity:1;" d="M 185.941406 182.171875 C 186.988281 182.304688 188.0625 182.347656 189.167969 182.292969 L 191.132812 182.1875 C 191.132812 182.1875 202.398438 180.691406 204.207031 177.898438 C 206.011719 175.105469 202.191406 164.960938 202.191406 164.960938 C 203.9375 163.605469 204.324219 161.894531 203.953125 161.320312 C 203.582031 160.746094 201.066406 159.863281 200.046875 159.117188 C 199.21875 158.503906 197.355469 153.648438 196.558594 151.566406 C 196.558594 151.566406 195.082031 143.332031 181.878906 144.402344 C 151.621094 146.851562 173.375 174.855469 173.375 174.855469 C 173.84375 175.398438 174.328125 175.917969 174.824219 176.414062 L 185.941406 182.171875 "/><path style=" stroke:none;fill-rule:nonzero;fill:#010f20;fill-opacity:1;" d="M 203.09375 161.78125 Z M 188.214844 183.296875 C 186.519531 183.296875 184.855469 183.070312 183.246094 182.621094 C 182.726562 182.476562 182.421875 181.933594 182.566406 181.414062 C 182.710938 180.886719 183.25 180.582031 183.777344 180.730469 C 185.492188 181.210938 187.289062 181.40625 189.117188 181.3125 L 191.039062 181.210938 C 195.53125 180.609375 202.308594 179.027344 203.378906 177.367188 C 204.441406 175.722656 202.789062 169.324219 201.273438 165.304688 C 201.121094 164.902344 201.25 164.449219 201.589844 164.1875 C 202.828125 163.226562 203.109375 162.1875 203.101562 161.851562 C 202.824219 161.652344 202.078125 161.292969 201.570312 161.050781 C 200.796875 160.679688 200 160.300781 199.464844 159.90625 C 198.6875 159.332031 197.652344 157.167969 195.644531 151.917969 C 195.621094 151.859375 195.601562 151.800781 195.59375 151.738281 C 195.535156 151.445312 194.046875 144.40625 181.957031 145.382812 C 174.5625 145.980469 169.851562 148.09375 167.957031 151.660156 C 164.75 157.707031 169.898438 166.820312 172.976562 172.261719 L 173.25 172.75 C 173.515625 173.222656 173.351562 173.824219 172.878906 174.089844 C 172.40625 174.355469 171.808594 174.1875 171.542969 173.714844 L 171.269531 173.230469 C 167.992188 167.4375 162.511719 157.738281 166.222656 150.738281 C 168.453125 146.542969 173.691406 144.082031 181.796875 143.421875 C 194.867188 142.367188 197.238281 150.214844 197.5 151.277344 C 199.527344 156.566406 200.332031 158.042969 200.652344 158.34375 C 201.011719 158.609375 201.757812 158.964844 202.417969 159.28125 C 203.695312 159.890625 204.4375 160.261719 204.777344 160.789062 C 205.417969 161.777344 204.964844 163.710938 203.347656 165.257812 C 204.316406 167.957031 206.828125 175.652344 205.03125 178.433594 C 203.074219 181.453125 193.214844 182.902344 191.257812 183.160156 C 191.234375 183.164062 191.207031 183.167969 191.179688 183.167969 L 189.214844 183.273438 C 188.882812 183.289062 188.546875 183.296875 188.214844 183.296875 "/><path style=" stroke:none;fill-rule:nonzero;fill:#010f20;fill-opacity:1;" d="M 175.699219 140.824219 C 179 140.175781 182.757812 140.683594 184.367188 140.136719 C 186.957031 139.253906 186.898438 136.273438 190.554688 135.980469 C 193.765625 135.71875 196.753906 136.316406 198.378906 138.777344 C 198.648438 139.1875 198.882812 139.648438 199.070312 140.167969 C 201.605469 147.125 198.105469 150.480469 196.558594 151.570312 C 196.558594 151.570312 186.757812 156.273438 185.066406 157.625 C 183.484375 158.894531 181.621094 161.90625 182.640625 166.261719 C 182.769531 166.824219 182.5 167.40625 181.996094 167.6875 C 181.40625 168.019531 180.65625 167.851562 180.273438 167.296875 C 179.054688 165.539062 176.390625 162.144531 174.414062 162.929688 C 172.109375 163.84375 171.324219 169.636719 175.5625 171.070312 C 176.867188 171.511719 177.296875 173.214844 176.355469 174.222656 C 175.578125 175.058594 174.386719 175.644531 172.585938 175.1875 C 172.585938 175.1875 162.046875 167.671875 160.800781 157.769531 C 159.550781 147.863281 171.308594 141.6875 175.699219 140.824219 "/><path style=" stroke:none;fill-rule:nonzero;fill:#010f20;fill-opacity:1;" d="M 517.492188 139.773438 L 535.808594 186.867188 C 543.210938 206.199219 517.285156 234.097656 477.902344 249.171875 C 438.523438 264.253906 400.601562 260.804688 393.199219 241.472656 L 374.882812 194.378906 L 517.492188 139.773438 "/><path style=" stroke:none;fill-rule:nonzero;fill:#010f20;fill-opacity:1;" d="M 376.15625 194.941406 L 394.113281 241.117188 C 397.554688 250.105469 408.042969 255.828125 423.652344 257.25 C 439.5 258.691406 458.648438 255.496094 477.554688 248.253906 C 496.460938 241.015625 512.84375 230.605469 523.683594 218.945312 C 534.347656 207.46875 538.332031 196.199219 534.894531 187.21875 L 516.933594 141.039062 Z M 431.335938 259.550781 C 428.636719 259.550781 426.015625 259.4375 423.472656 259.207031 C 407.078125 257.714844 396.003906 251.542969 392.28125 241.828125 L 373.964844 194.734375 C 373.871094 194.488281 373.878906 194.21875 373.980469 193.980469 C 374.089844 193.742188 374.285156 193.554688 374.53125 193.464844 L 517.140625 138.859375 C 517.644531 138.664062 518.210938 138.914062 518.410156 139.414062 L 536.726562 186.511719 C 540.449219 196.238281 536.324219 208.230469 525.121094 220.28125 C 514.085938 232.160156 497.441406 242.742188 478.253906 250.089844 C 462.097656 256.277344 445.738281 259.550781 431.335938 259.550781 "/><path style=" stroke:none;fill-rule:nonzero;fill:#2a91b3;fill-opacity:1;" d="M 365.417969 181.566406 L 426.601562 122.300781 C 427.789062 121.277344 429.292969 120.699219 430.863281 120.667969 L 515.980469 123.917969 L 545.097656 112.765625 L 550.515625 126.917969 C 550.859375 127.808594 550.703125 128.886719 549.847656 129.621094 L 462.949219 204.472656 C 461.765625 205.496094 460.257812 206.074219 458.6875 206.105469 L 344.023438 208.433594 C 342.894531 208.449219 342.058594 207.757812 341.71875 206.871094 L 336.300781 192.714844 L 365.417969 181.566406 "/><path style=" stroke:none;fill-rule:nonzero;fill:#010f20;fill-opacity:1;" d="M 365.417969 181.566406 L 365.425781 181.566406 Z M 337.566406 193.28125 L 342.632812 206.519531 C 342.8125 206.980469 343.261719 207.492188 344.003906 207.449219 L 458.667969 205.125 C 460.003906 205.097656 461.296875 204.601562 462.304688 203.730469 L 549.203125 128.878906 C 549.910156 128.269531 549.683594 127.496094 549.601562 127.273438 L 544.53125 114.035156 L 516.328125 124.832031 C 516.210938 124.882812 516.074219 124.902344 515.9375 124.898438 L 430.824219 121.648438 C 429.546875 121.679688 428.25 122.171875 427.238281 123.046875 L 366.097656 182.273438 C 366.003906 182.363281 365.894531 182.4375 365.769531 182.484375 Z M 343.96875 209.417969 C 342.550781 209.417969 341.3125 208.5625 340.800781 207.222656 L 335.382812 193.066406 C 335.289062 192.824219 335.292969 192.554688 335.402344 192.316406 C 335.511719 192.078125 335.707031 191.894531 335.949219 191.800781 L 364.878906 180.722656 L 425.914062 121.59375 C 427.316406 120.390625 429.046875 119.722656 430.839844 119.6875 L 515.816406 122.925781 L 544.746094 111.851562 C 545.25 111.65625 545.816406 111.910156 546.015625 112.414062 L 551.433594 126.574219 C 551.953125 127.929688 551.585938 129.417969 550.484375 130.367188 L 463.589844 205.21875 C 462.234375 206.386719 460.496094 207.050781 458.707031 207.082031 L 344.042969 209.417969 C 344.019531 209.417969 343.992188 209.417969 343.96875 209.417969 "/><path style=" stroke:none;fill-rule:nonzero;fill:#010f20;fill-opacity:1;" d="M 336.96875 190.015625 L 423.867188 115.164062 C 425.050781 114.140625 426.558594 113.566406 428.128906 113.535156 L 542.792969 111.207031 C 545.050781 111.160156 546.136719 113.992188 544.425781 115.46875 L 457.53125 190.316406 C 456.34375 191.34375 454.835938 191.917969 453.269531 191.949219 L 338.601562 194.277344 C 336.34375 194.320312 335.257812 191.488281 336.96875 190.015625 "/><path style=" stroke:none;fill-rule:nonzero;fill:#010f20;fill-opacity:1;" d="M 337.613281 190.761719 C 337.050781 191.242188 337.039062 191.90625 337.214844 192.367188 C 337.390625 192.828125 337.859375 193.320312 338.582031 193.296875 L 453.246094 190.96875 C 454.582031 190.941406 455.875 190.445312 456.886719 189.578125 L 543.78125 114.722656 C 544.34375 114.242188 544.355469 113.578125 544.179688 113.121094 C 544.007812 112.664062 543.5625 112.1875 542.84375 112.1875 C 542.832031 112.1875 542.824219 112.1875 542.808594 112.1875 L 428.144531 114.515625 C 426.808594 114.542969 425.519531 115.039062 424.507812 115.90625 Z M 338.546875 195.261719 C 337.132812 195.261719 335.894531 194.40625 335.378906 193.070312 C 334.859375 191.707031 335.234375 190.21875 336.332031 189.273438 L 423.226562 114.421875 C 424.582031 113.253906 426.316406 112.589844 428.105469 112.554688 L 542.773438 110.226562 C 542.796875 110.226562 542.820312 110.226562 542.84375 110.226562 C 544.257812 110.226562 545.5 111.082031 546.011719 112.414062 C 546.535156 113.777344 546.164062 115.269531 545.066406 116.210938 L 458.167969 191.0625 C 456.808594 192.234375 455.078125 192.894531 453.285156 192.933594 L 338.617188 195.261719 C 338.597656 195.261719 338.574219 195.261719 338.546875 195.261719 "/><path style=" stroke:none;fill-rule:nonzero;fill:#ffffff;fill-opacity:1;" d="M 391.417969 234.078125 C 393.554688 234.023438 395.371094 235.648438 395.570312 237.796875 L 401.285156 298.332031 L 384.890625 298.757812 L 387.464844 238.007812 C 387.554688 235.851562 389.285156 234.136719 391.417969 234.078125 "/><path style=" stroke:none;fill-rule:nonzero;fill:#ffffff;fill-opacity:1;" d="M 391.320312 235.882812 C 390.785156 235.882812 390.34375 235.449219 390.335938 234.917969 L 389.730469 193.507812 C 389.726562 193.21875 389.847656 192.949219 390.0625 192.757812 L 439.046875 149.382812 C 439.453125 149.027344 440.070312 149.0625 440.429688 149.46875 C 440.789062 149.875 440.753906 150.496094 440.347656 150.855469 L 391.695312 193.929688 L 392.300781 234.886719 C 392.308594 235.429688 391.875 235.875 391.332031 235.882812 C 391.328125 235.882812 391.320312 235.882812 391.320312 235.882812 "/><path style=" stroke:none;fill-rule:nonzero;fill:#010f20;fill-opacity:1;" d="M 126.050781 23.960938 C 125.789062 23.960938 125.527344 23.859375 125.335938 23.65625 L 122.277344 20.394531 C 121.90625 20 121.925781 19.378906 122.320312 19.007812 C 122.714844 18.636719 123.335938 18.65625 123.707031 19.054688 L 126.765625 22.308594 C 127.136719 22.703125 127.117188 23.324219 126.722656 23.695312 C 126.535156 23.875 126.292969 23.960938 126.050781 23.960938 "/><path style=" stroke:none;fill-rule:nonzero;fill:#010f20;fill-opacity:1;" d="M 136.761719 35.359375 C 136.5 35.359375 136.238281 35.253906 136.042969 35.050781 L 132.984375 31.792969 C 132.613281 31.398438 132.632812 30.773438 133.027344 30.40625 C 133.421875 30.035156 134.042969 30.054688 134.414062 30.449219 L 137.476562 33.707031 C 137.847656 34.101562 137.828125 34.722656 137.429688 35.089844 C 137.242188 35.269531 137 35.359375 136.761719 35.359375 "/><path style=" stroke:none;fill-rule:nonzero;fill:#010f20;fill-opacity:1;" d="M 122.554688 34.703125 C 122.289062 34.703125 122.027344 34.597656 121.832031 34.382812 C 121.464844 33.980469 121.496094 33.363281 121.894531 33 L 125.148438 30.03125 C 125.550781 29.664062 126.167969 29.695312 126.535156 30.097656 C 126.902344 30.496094 126.871094 31.117188 126.472656 31.484375 L 123.21875 34.445312 C 123.03125 34.621094 122.792969 34.703125 122.554688 34.703125 "/><path style=" stroke:none;fill-rule:nonzero;fill:#010f20;fill-opacity:1;" d="M 133.941406 24.328125 C 133.675781 24.328125 133.410156 24.21875 133.214844 24.007812 C 132.851562 23.605469 132.878906 22.984375 133.28125 22.621094 L 136.535156 19.652344 C 136.933594 19.289062 137.554688 19.3125 137.921875 19.71875 C 138.285156 20.117188 138.257812 20.738281 137.855469 21.101562 L 134.601562 24.070312 C 134.414062 24.242188 134.179688 24.328125 133.941406 24.328125 "/><path style=" stroke:none;fill-rule:nonzero;fill:#010f20;fill-opacity:1;" d="M 79.992188 64.414062 C 82.261719 64.535156 84.21875 62.78125 84.339844 60.503906 C 84.398438 59.402344 84.027344 58.339844 83.289062 57.519531 C 82.550781 56.699219 81.535156 56.214844 80.433594 56.15625 C 79.324219 56.101562 78.269531 56.46875 77.449219 57.207031 C 76.628906 57.945312 76.144531 58.960938 76.085938 60.0625 C 75.960938 62.339844 77.714844 64.292969 79.992188 64.414062 Z M 80.214844 66.382812 C 80.105469 66.382812 79.996094 66.378906 79.886719 66.371094 C 76.53125 66.195312 73.945312 63.316406 74.125 59.960938 C 74.210938 58.332031 74.925781 56.835938 76.136719 55.75 C 77.347656 54.660156 78.914062 54.113281 80.539062 54.195312 C 82.164062 54.28125 83.660156 54.996094 84.75 56.210938 C 85.835938 57.417969 86.390625 58.984375 86.300781 60.609375 C 86.128906 63.855469 83.429688 66.382812 80.214844 66.382812 "/><path style=" stroke:none;fill-rule:nonzero;fill:#50d2fe;fill-opacity:1;" d="M 56.34375 112.878906 C 53.957031 112.753906 52.125 110.710938 52.253906 108.328125 C 52.378906 105.9375 54.417969 104.105469 56.804688 104.230469 C 59.195312 104.363281 61.023438 106.398438 60.898438 108.789062 C 60.769531 111.175781 58.730469 113.003906 56.34375 112.878906 "/><path style=" stroke:none;fill-rule:nonzero;fill:#50d2fe;fill-opacity:1;" d="M 519.929688 57.824219 C 517.542969 57.695312 515.710938 55.660156 515.839844 53.273438 C 515.964844 50.882812 518.003906 49.054688 520.390625 49.179688 C 522.78125 49.308594 524.605469 51.347656 524.484375 53.734375 C 524.355469 56.121094 522.316406 57.949219 519.929688 57.824219 "/><path style=" stroke:none;fill-rule:nonzero;fill:#010f20;fill-opacity:1;" d="M 538.929688 74.328125 C 538.796875 74.328125 538.65625 74.324219 538.523438 74.316406 C 536.554688 74.210938 534.742188 73.34375 533.417969 71.878906 C 532.097656 70.410156 531.425781 68.511719 531.535156 66.539062 C 531.5625 66 532.019531 65.597656 532.570312 65.613281 C 533.109375 65.640625 533.527344 66.105469 533.496094 66.644531 C 533.417969 68.09375 533.910156 69.484375 534.882812 70.566406 C 535.847656 71.644531 537.175781 72.277344 538.625 72.359375 C 541.617188 72.511719 544.183594 70.21875 544.339844 67.226562 C 544.417969 65.777344 543.929688 64.382812 542.960938 63.304688 C 541.988281 62.226562 540.65625 61.589844 539.207031 61.511719 C 538.667969 61.480469 538.25 61.019531 538.277344 60.480469 C 538.308594 59.9375 538.765625 59.53125 539.3125 59.550781 C 541.285156 59.660156 543.097656 60.523438 544.417969 61.992188 C 545.738281 63.460938 546.410156 65.355469 546.300781 67.332031 C 546.195312 69.300781 545.328125 71.113281 543.863281 72.433594 C 542.492188 73.664062 540.753906 74.328125 538.929688 74.328125 "/><g clip-rule="nonzero" clip-path="url(#92de7138f4)"><g clip-rule="nonzero" clip-path="url(#23e9472c75)"><g clip-rule="nonzero" clip-path="url(#6d98ebc59d)"><path style=" stroke:none;fill-rule:evenodd;fill:#2a91b3;fill-opacity:1;" d="M 322.890625 95.890625 C 339.066406 97.894531 350.664062 112.773438 348.660156 128.949219 C 346.65625 145.128906 331.777344 156.726562 315.601562 154.722656 C 299.421875 152.714844 287.824219 137.839844 289.828125 121.660156 C 291.832031 105.484375 306.710938 93.886719 322.890625 95.890625 Z M 322.78125 96.746094 C 338.488281 98.695312 349.75 113.136719 347.800781 128.84375 C 345.855469 144.550781 331.414062 155.808594 315.707031 153.863281 C 300 151.917969 288.738281 137.476562 290.6875 121.769531 C 292.632812 106.0625 307.074219 94.800781 322.78125 96.746094 Z M 322.78125 96.746094 "/></g></g></g><g clip-rule="nonzero" clip-path="url(#171d1af42b)"><g clip-rule="nonzero" clip-path="url(#87fe4f1226)"><g clip-rule="nonzero" clip-path="url(#df70b31e77)"><path style=" stroke:none;fill-rule:evenodd;fill:#a5e9ff;fill-opacity:1;" d="M 322.617188 98.078125 C 323.507812 98.191406 324.394531 98.34375 325.269531 98.542969 C 326.144531 98.738281 327.011719 98.980469 327.863281 99.261719 C 328.71875 99.542969 329.554688 99.867188 330.375 100.230469 C 331.195312 100.597656 332 101 332.78125 101.441406 C 333.5625 101.886719 334.320312 102.367188 335.054688 102.886719 C 335.789062 103.402344 336.496094 103.957031 337.175781 104.542969 C 337.855469 105.128906 338.503906 105.75 339.125 106.398438 C 339.742188 107.050781 340.328125 107.730469 340.882812 108.441406 C 341.433594 109.148438 341.949219 109.882812 342.429688 110.640625 C 342.910156 111.402344 343.351562 112.183594 343.757812 112.984375 C 344.160156 113.789062 344.523438 114.609375 344.84375 115.445312 C 345.167969 116.285156 345.449219 117.136719 345.6875 118.003906 C 345.929688 118.871094 346.125 119.746094 346.277344 120.628906 C 346.429688 121.515625 346.539062 122.40625 346.605469 123.304688 C 346.671875 124.199219 346.691406 125.097656 346.667969 125.996094 C 346.648438 126.890625 346.582031 127.789062 346.46875 128.679688 C 346.359375 129.570312 346.207031 130.453125 346.007812 131.332031 C 345.8125 132.207031 345.570312 133.074219 345.289062 133.925781 C 345.007812 134.777344 344.683594 135.617188 344.320312 136.4375 C 343.953125 137.257812 343.550781 138.058594 343.105469 138.839844 C 342.664062 139.621094 342.183594 140.378906 341.664062 141.113281 C 341.148438 141.847656 340.59375 142.554688 340.007812 143.238281 C 339.421875 143.917969 338.800781 144.566406 338.152344 145.183594 C 337.5 145.804688 336.820312 146.390625 336.109375 146.941406 C 335.402344 147.496094 334.667969 148.011719 333.910156 148.492188 C 333.148438 148.972656 332.367188 149.414062 331.566406 149.816406 C 330.761719 150.222656 329.941406 150.585938 329.105469 150.90625 C 328.265625 151.230469 327.414062 151.511719 326.546875 151.75 C 325.679688 151.988281 324.804688 152.1875 323.917969 152.339844 C 323.035156 152.492188 322.144531 152.601562 321.246094 152.667969 C 320.351562 152.734375 319.453125 152.753906 318.554688 152.730469 C 317.65625 152.707031 316.761719 152.640625 315.871094 152.53125 C 314.980469 152.421875 314.09375 152.265625 313.21875 152.070312 C 312.34375 151.871094 311.476562 151.632812 310.625 151.351562 C 309.773438 151.070312 308.933594 150.746094 308.113281 150.378906 C 307.292969 150.015625 306.492188 149.613281 305.710938 149.167969 C 304.925781 148.726562 304.167969 148.246094 303.433594 147.726562 C 302.699219 147.210938 301.992188 146.65625 301.3125 146.070312 C 300.632812 145.480469 299.984375 144.863281 299.363281 144.210938 C 298.746094 143.5625 298.160156 142.882812 297.609375 142.171875 C 297.054688 141.464844 296.539062 140.730469 296.058594 139.96875 C 295.578125 139.210938 295.136719 138.429688 294.734375 137.628906 C 294.328125 136.824219 293.964844 136.003906 293.644531 135.164062 C 293.320312 134.328125 293.039062 133.476562 292.800781 132.609375 C 292.5625 131.742188 292.363281 130.867188 292.210938 129.980469 C 292.058594 129.097656 291.949219 128.207031 291.882812 127.308594 C 291.816406 126.414062 291.796875 125.515625 291.820312 124.617188 C 291.839844 123.71875 291.90625 122.824219 292.019531 121.933594 C 292.128906 121.042969 292.28125 120.15625 292.480469 119.28125 C 292.675781 118.402344 292.917969 117.539062 293.199219 116.6875 C 293.480469 115.832031 293.804688 114.996094 294.171875 114.175781 C 294.535156 113.355469 294.9375 112.550781 295.382812 111.769531 C 295.824219 110.988281 296.304688 110.230469 296.824219 109.496094 C 297.339844 108.761719 297.894531 108.054688 298.480469 107.375 C 299.066406 106.695312 299.6875 106.046875 300.339844 105.425781 C 300.988281 104.808594 301.667969 104.222656 302.378906 103.667969 C 303.085938 103.117188 303.820312 102.601562 304.578125 102.121094 C 305.339844 101.640625 306.121094 101.199219 306.921875 100.792969 C 307.726562 100.390625 308.546875 100.027344 309.386719 99.703125 C 310.222656 99.382812 311.074219 99.101562 311.941406 98.863281 C 312.808594 98.621094 313.683594 98.425781 314.570312 98.273438 C 315.453125 98.121094 316.34375 98.011719 317.242188 97.945312 C 318.136719 97.878906 319.035156 97.859375 319.933594 97.878906 C 320.832031 97.902344 321.726562 97.96875 322.617188 98.078125 Z M 322.617188 98.078125 "/></g></g></g><g style="fill:#ffffff;fill-opacity:1;"><g transform="translate(301.908423, 130.233555)"><path style="stroke:none" d="M 2.9375 -7.6875 L 2.9375 -5.578125 L 7.046875 -5.578125 L 7.046875 -3.921875 L 2.9375 -3.921875 L 2.9375 0 L 0.984375 0 L 0.984375 -9.328125 L 7.625 -9.328125 L 7.625 -7.6875 Z M 2.9375 -7.6875 "/></g></g><g style="fill:#ffffff;fill-opacity:1;"><g transform="translate(311.537207, 130.233555)"><path style="stroke:none" d="M 0.828125 0 L 0.828125 -9.328125 L 2.78125 -9.328125 L 2.78125 0 Z M 0.828125 0 "/></g></g><g style="fill:#ffffff;fill-opacity:1;"><g transform="translate(316.839388, 130.233555)"><path style="stroke:none" d="M 8.15625 -6.359375 C 8.15625 -5.804688 8.035156 -5.300781 7.796875 -4.84375 C 7.566406 -4.394531 7.234375 -4.035156 6.796875 -3.765625 C 6.359375 -3.492188 5.84375 -3.359375 5.25 -3.359375 L 2.9375 -3.359375 L 2.9375 0 L 0.984375 0 L 0.984375 -9.328125 L 5.25 -9.328125 C 6.15625 -9.328125 6.863281 -9.054688 7.375 -8.515625 C 7.894531 -7.984375 8.15625 -7.265625 8.15625 -6.359375 Z M 6.203125 -6.4375 C 6.203125 -6.894531 6.066406 -7.222656 5.796875 -7.421875 C 5.535156 -7.617188 5.117188 -7.71875 4.546875 -7.71875 L 2.9375 -7.71875 L 2.9375 -4.984375 L 4.796875 -4.984375 C 5.734375 -4.984375 6.203125 -5.46875 6.203125 -6.4375 Z M 6.203125 -6.4375 "/></g></g><g style="fill:#ffffff;fill-opacity:1;"><g transform="translate(327.195767, 130.233555)"><path style="stroke:none" d="M 4.609375 -1.40625 C 5.847656 -1.40625 6.46875 -1.992188 6.46875 -3.171875 L 6.46875 -9.328125 L 8.46875 -9.328125 L 8.46875 -3.203125 C 8.46875 -2.085938 8.140625 -1.234375 7.484375 -0.640625 C 6.835938 -0.046875 5.882812 0.25 4.625 0.25 C 3.476562 0.25 2.578125 -0.0390625 1.921875 -0.625 C 1.265625 -1.207031 0.9375 -2.0625 0.9375 -3.1875 L 0.9375 -9.328125 L 2.921875 -9.328125 L 2.921875 -3.21875 C 2.921875 -2.664062 3.070312 -2.222656 3.375 -1.890625 C 3.675781 -1.566406 4.085938 -1.40625 4.609375 -1.40625 Z M 4.609375 -1.40625 "/></g></g></g></svg>