
<svg xmlns="http://www.w3.org/2000/svg" viewBox="0 0 309.81 199.84"><defs><style>.cls-1,.cls-10,.cls-12,.cls-18,.cls-21,.cls-22,.cls-25,.cls-26,.cls-27,.cls-28,.cls-29,.cls-3,.cls-30,.cls-31,.cls-32,.cls-33,.cls-36,.cls-37,.cls-38,.cls-39,.cls-43,.cls-44,.cls-45,.cls-46,.cls-48,.cls-5,.cls-50,.cls-51,.cls-52,.cls-53,.cls-57,.cls-58,.cls-60,.cls-61,.cls-62,.cls-63,.cls-70,.cls-71,.cls-72,.cls-73,.cls-74,.cls-75,.cls-78,.cls-79,.cls-86,.cls-87,.cls-88,.cls-92,.cls-93,.cls-94{fill:none;}.cls-1,.cls-21,.cls-22,.cls-25,.cls-26,.cls-5{stroke:#000201;}.cls-1,.cls-10,.cls-12,.cls-18,.cls-21,.cls-22,.cls-25,.cls-26,.cls-27,.cls-28,.cls-29,.cls-3,.cls-30,.cls-31,.cls-32,.cls-33,.cls-36,.cls-37,.cls-38,.cls-39,.cls-43,.cls-44,.cls-45,.cls-46,.cls-48,.cls-5,.cls-50,.cls-51,.cls-52,.cls-53,.cls-57,.cls-58,.cls-60,.cls-61,.cls-62,.cls-63,.cls-70,.cls-71,.cls-72,.cls-73,.cls-74,.cls-75,.cls-78,.cls-79,.cls-87,.cls-88,.cls-92,.cls-93,.cls-94{stroke-linecap:round;stroke-linejoin:round;}.cls-1{stroke-width:0.77px;}.cls-2{fill:#2a3e44;}.cls-10,.cls-12,.cls-29,.cls-3,.cls-30,.cls-31,.cls-32,.cls-33,.cls-39,.cls-43,.cls-46,.cls-48,.cls-60,.cls-61,.cls-63,.cls-72,.cls-79,.cls-87,.cls-92{stroke:#232144;}.cls-3,.cls-45{stroke-width:0.75px;}.cls-4{fill:#536b77;}.cls-5{stroke-width:0.58px;}.cls-59,.cls-6{fill:#232144;}.cls-7{fill:#708993;}.cls-16,.cls-17,.cls-41,.cls-8,.cls-80{fill:#fff;}.cls-9{fill:#9cb5bc;}.cls-10{stroke-width:0.5px;}.cls-11{fill:#abbcd3;}.cls-12{stroke-width:0.76px;}.cls-13{fill:#d7def4;}.cls-14{fill:#dcf0ff;}.cls-15{fill:#8bd2fc;}.cls-16{opacity:0.6;}.cls-16,.cls-17{isolation:isolate;}.cls-17{opacity:0.8;}.cls-18,.cls-27,.cls-36,.cls-38,.cls-45,.cls-50,.cls-51,.cls-57,.cls-58,.cls-71{stroke:#fff;}.cls-18,.cls-50,.cls-51,.cls-52,.cls-53,.cls-57,.cls-58,.cls-70,.cls-73,.cls-74,.cls-78{stroke-width:2px;}.cls-18{opacity:0.7;}.cls-19,.cls-42{fill:#429dc1;}.cls-20{fill:#e0f3fc;}.cls-21{stroke-width:1.02px;}.cls-22{stroke-width:1.01px;}.cls-23{fill:#cfabf4;}.cls-24{fill:#000201;}.cls-25{stroke-width:0.65px;}.cls-26{stroke-width:1.1px;}.cls-27{stroke-width:1.12px;}.cls-28{stroke:#429dc1;stroke-width:0.66px;}.cls-29{stroke-width:0.83px;}.cls-31{stroke-width:0.58px;}.cls-32{stroke-width:0.38px;}.cls-33{stroke-width:0.55px;}.cls-34{fill:#14b8c4;}.cls-35{fill:#00abaf;}.cls-36,.cls-37{stroke-width:0.6px;}.cls-37{stroke:#00abaf;}.cls-38{stroke-width:1.07px;}.cls-39{stroke-width:0.55px;}.cls-40{fill:#37f44d;}.cls-41{opacity:0.63;}.cls-42{opacity:0.5;}.cls-43{stroke-width:0.31px;}.cls-44,.cls-62,.cls-88{stroke:#8bd2fc;}.cls-46{stroke-width:0.41px;}.cls-47{fill:#2facdd;}.cls-48{stroke-width:0.97px;}.cls-49{fill:#5dc5f9;}.cls-50{opacity:0.38;}.cls-52{stroke:#029dc1;}.cls-52,.cls-57{opacity:0.26;}.cls-53{stroke:#0084a3;}.cls-53,.cls-58{opacity:0.46;}.cls-54{fill:#d35500;}.cls-55{fill:#f9832b;}.cls-56{fill:#ffcda4;}.cls-59{font-size:6.1px;font-family:Jost-Bold, Jost;font-weight:700;}.cls-60{stroke-width:0.97px;}.cls-61{stroke-width:0.44px;}.cls-62{stroke-width:1.16px;opacity:0.44;}.cls-63{stroke-width:0.67px;}.cls-64{fill:#3e3e5b;}.cls-65{fill:#3b345b;}.cls-66{fill:#47b2ce;}.cls-67{fill:#ffe299;}.cls-68{fill:#f93e4c;}.cls-69{fill:#26f7ab;}.cls-70,.cls-75{stroke:#31e3e8;}.cls-71{stroke-width:1.5px;}.cls-72{stroke-width:1.01px;}.cls-73{stroke:#f96e90;}.cls-74{stroke:#ffe299;}.cls-75{stroke-width:0.95px;}.cls-76{fill:#0692b2;}.cls-77{fill:#78e3f4;}.cls-78{stroke:#0692b2;}.cls-79{stroke-width:0.39px;}.cls-80{font-size:12px;font-family:Jost-ExtraBold, Jost;font-weight:800;}.cls-81{fill:#9399bc;}.cls-82{fill:#c8ccdb;}.cls-83{fill:#f4ad5e;}.cls-84{fill:#ffc68d;}.cls-85{fill:#e28c37;}.cls-86{stroke:#ffdcc0;stroke-miterlimit:10;stroke-width:0.67px;}.cls-87{stroke-width:0.75px;}.cls-88{stroke-width:4px;}.cls-89{fill:#f8d76e;}.cls-90{fill:#ef940f;}.cls-91{fill:#28445e;}.cls-92{stroke-width:0.62px;}.cls-93{stroke:#18364c;}.cls-94{stroke:#32767f;}</style></defs><g id="Layer_2" data-name="Layer 2"><g id="Layer_2-2" data-name="Layer 2"><path class="cls-1" d="M180.86,191.29a7.79,7.79,0,0,1-.36,1.79A6.13,6.13,0,0,1,180.86,191.29Z"/><path class="cls-1" d="M180.5,193.08a6.13,6.13,0,0,1,.36-1.79A7.79,7.79,0,0,1,180.5,193.08Z"/><path class="cls-1" d="M181.85,189.25a12.5,12.5,0,0,0-1,2,5.24,5.24,0,0,0,0-1,6.54,6.54,0,0,0-.14-1.24A4,4,0,0,1,181.85,189.25Z"/><path class="cls-1" d="M180.86,191.29a7.79,7.79,0,0,1-.36,1.79A6.13,6.13,0,0,1,180.86,191.29Z"/><rect class="cls-2" x="174.81" y="167.19" width="33.59" height="7.92" rx="0.47"/><path class="cls-3" d="M208.37,171.61v3a.46.46,0,0,1-.44.46H175.25a.47.47,0,0,1-.44-.46v-7"/><rect class="cls-4" x="170.81" y="167.19" width="31.74" height="7.92" rx="0.47"/><rect class="cls-2" x="174.81" y="176.66" width="33.59" height="7.92" rx="0.47"/><path class="cls-3" d="M208.37,182.84v1.27a.44.44,0,0,1-.41.47H175.25a.44.44,0,0,1-.44-.44v-7a.45.45,0,0,1,.42-.47h32.7a.44.44,0,0,1,.44.44v3.53"/><path class="cls-3" d="M208.37,192.21v1.27a.44.44,0,0,1-.41.47H175.25a.44.44,0,0,1-.44-.44v-7a.45.45,0,0,1,.42-.47h32.7a.44.44,0,0,1,.44.44V190"/><rect class="cls-4" x="170.81" y="176.66" width="31.74" height="7.92" rx="0.47"/><rect class="cls-2" x="174.81" y="186.13" width="33.59" height="7.92" rx="0.47"/><line class="cls-5" x1="174.81" y1="193.61" x2="174.81" y2="186.6"/><rect class="cls-4" x="170.81" y="186.13" width="31.74" height="7.92" rx="0.47"/><rect class="cls-6" x="172.85" y="175.11" width="33.92" height="1.55"/><rect class="cls-6" x="172.85" y="184.58" width="33.92" height="1.55"/><path class="cls-7" d="M192.59,167.17l-3,7.83H171.28a.47.47,0,0,1-.47-.47h0v-7a.46.46,0,0,1,.47-.35Z"/><path class="cls-7" d="M189.05,176.55l-3,7.92H171.28a.47.47,0,0,1-.47-.44v-7a.47.47,0,0,1,.47-.47h17.77Z"/><path class="cls-7" d="M185.6,186l-3.06,7.92H171.28a.47.47,0,0,1-.47-.47h0v-7a.5.5,0,0,1,.47-.47Z"/><circle class="cls-6" cx="175.78" cy="167.19" r="0.55"/><polygon class="cls-8" points="179.34 176.55 180 176.55 177.02 184.5 176.36 184.5 179.34 176.55"/><polygon class="cls-8" points="175.81 186.04 176.44 186.04 173.49 193.94 172.83 193.94 175.81 186.04"/><polygon class="cls-8" points="183.56 167.08 180.58 175 179.92 175 182.9 167.08 183.56 167.08"/><polygon class="cls-9" points="180.86 176.55 182.13 176.55 179.15 184.5 177.88 184.5 180.86 176.55"/><polygon class="cls-9" points="177.3 186.04 178.59 186.04 175.61 193.94 174.34 193.94 177.3 186.04"/><polygon class="cls-9" points="185.69 167.08 182.71 175 181.41 175 184.39 167.08 185.69 167.08"/><path class="cls-3" d="M202.55,171.28v3.37a.46.46,0,0,1-.44.46H171.28a.5.5,0,0,1-.47-.46v-7a.47.47,0,0,1,.47-.47h2.54"/><path class="cls-3" d="M202.55,182.21v1.9a.44.44,0,0,1-.41.47H171.28a.47.47,0,0,1-.47-.47h0v-7a.47.47,0,0,1,.47-.47h30.88a.45.45,0,0,1,.45.44v2.49"/><path class="cls-3" d="M202.55,190.1v3.51a.44.44,0,0,1-.44.44H171.28a.48.48,0,0,1-.47-.44v-7.12a.5.5,0,0,1,.47-.47h30.88a.47.47,0,0,1,.45.47v1.24"/><path class="cls-3" d="M177.68,167.17h24.48a.44.44,0,0,1,.45.44v1.49"/><line class="cls-10" x1="178.74" y1="169.76" x2="178.74" y2="171.89"/><line class="cls-10" x1="177.57" y1="169.76" x2="177.57" y2="171.89"/><line class="cls-10" x1="176.4" y1="169.76" x2="176.4" y2="171.89"/><line class="cls-10" x1="174.05" y1="169.76" x2="174.05" y2="171.89"/><line class="cls-10" x1="175.22" y1="169.76" x2="175.22" y2="171.89"/><line class="cls-10" x1="178.74" y1="179.45" x2="178.74" y2="181.58"/><line class="cls-10" x1="177.57" y1="179.45" x2="177.57" y2="181.58"/><line class="cls-10" x1="176.4" y1="179.45" x2="176.4" y2="181.58"/><line class="cls-10" x1="174.05" y1="179.45" x2="174.05" y2="181.58"/><line class="cls-10" x1="175.22" y1="179.45" x2="175.22" y2="181.58"/><line class="cls-10" x1="178.74" y1="188.91" x2="178.74" y2="191.04"/><line class="cls-10" x1="177.57" y1="188.91" x2="177.57" y2="191.04"/><line class="cls-10" x1="176.4" y1="188.91" x2="176.4" y2="191.04"/><line class="cls-10" x1="174.05" y1="188.91" x2="174.05" y2="191.04"/><line class="cls-10" x1="175.22" y1="188.91" x2="175.22" y2="191.04"/><polyline class="cls-3" points="204.24 167.17 208.4 167.17 208.4 169.76"/><rect class="cls-8" x="266.59" y="138.47" width="28.88" height="37.56" transform="translate(562.07 314.5) rotate(-180)"/><rect class="cls-11" x="264.59" y="155.93" width="37.16" height="2.24" transform="translate(126.12 440.23) rotate(-90)"/><line class="cls-12" x1="292" y1="141.94" x2="277.59" y2="141.94"/><line class="cls-12" x1="292" y1="143.78" x2="282.77" y2="143.78"/><line class="cls-12" x1="292" y1="145.7" x2="286.44" y2="145.7"/><line class="cls-12" x1="281.3" y1="145.7" x2="279.32" y2="145.7"/><line class="cls-12" x1="292" y1="147.49" x2="284.79" y2="147.49"/><line class="cls-12" x1="292" y1="150.26" x2="277.59" y2="150.26"/><line class="cls-12" x1="292" y1="152.09" x2="282.77" y2="152.09"/><line class="cls-12" x1="292" y1="154.02" x2="286.44" y2="154.02"/><line class="cls-12" x1="281.3" y1="154.02" x2="279.32" y2="154.02"/><line class="cls-12" x1="292" y1="155.81" x2="277.59" y2="155.81"/><line class="cls-12" x1="292" y1="158.48" x2="277.59" y2="158.48"/><line class="cls-12" x1="292" y1="160.32" x2="282.77" y2="160.32"/><rect class="cls-12" x="266.59" y="138.47" width="28.88" height="37.56" transform="translate(562.07 314.5) rotate(-180)"/><path class="cls-13" d="M189.23,123.44H279.8a2.44,2.44,0,0,1,2.41,2.46V186a2.43,2.43,0,0,1-2.41,2.45h-93V125.9A2.44,2.44,0,0,1,189.23,123.44Z"/><rect class="cls-14" x="191.94" y="129.41" width="86.1" height="55.22"/><rect class="cls-15" x="192" y="129.41" width="86.1" height="1.66"/><polygon class="cls-16" points="242.43 184.01 240.32 184.01 253.78 128.88 255.9 128.88 242.43 184.01"/><polygon class="cls-17" points="251.78 184.01 245.17 184.01 258.64 128.88 265.24 128.88 251.78 184.01"/><polygon class="cls-16" points="239.15 184.01 237.03 184.01 250.5 128.88 252.61 128.88 239.15 184.01"/><line class="cls-18" x1="216.66" y1="124.63" x2="249.22" y2="124.63"/><path class="cls-6" d="M261,147.47a7.83,7.83,0,0,0-1.25-3.4c-.64-1-1.41-1.88-2-2.92-1.08-2.05-1-4.51-.91-6.75a1.13,1.13,0,0,0-2.25,0,17.13,17.13,0,0,0,.81,7,15.32,15.32,0,0,0,1.85,3.05,6.62,6.62,0,0,1,1.46,3,1.16,1.16,0,0,0,1.13,1.12,1.13,1.13,0,0,0,1.12-1.12Z"/><path class="cls-6" d="M257.08,142.44a5.12,5.12,0,0,0,3.55-1.75,19.09,19.09,0,0,0,2.2-3.34,1.12,1.12,0,1,0-1.94-1.13c-.31.5-.59,1-.89,1.53-.15.24-.29.48-.45.71a2.13,2.13,0,0,1-.25.34c.2-.19,0,0,0,0l-.13.15a5.39,5.39,0,0,1-.53.54s-.1.11-.15.12l.08-.06-.09.07-.32.2-.33.17c-.22.11.16-.05,0,0l-.18.06-.39.1c-.14,0,.28,0,0,0h-.22a1.13,1.13,0,1,0,0,2.25Z"/><rect class="cls-19" x="72.54" y="179.63" width="6.97" height="14.49"/><path class="cls-20" d="M33.42,25.17H124a2.44,2.44,0,0,1,2.42,2.46V87.69A2.43,2.43,0,0,1,124,90.14H31V27.63A2.44,2.44,0,0,1,33.42,25.17Z"/><rect class="cls-15" x="31.13" y="86.98" width="95.15" height="2.12"/><path class="cls-21" d="M55,25.31h69.16a2.44,2.44,0,0,1,2.41,2.46V90.28H31.21V78.44"/><path class="cls-22" d="M31.21,64.18V28.73a2.41,2.41,0,0,1,2.41-2.41H41"/><line class="cls-22" x1="31.21" y1="73.95" x2="31.21" y2="68.37"/><rect class="cls-14" x="36.18" y="31.14" width="86.1" height="55.22"/><rect class="cls-15" x="36.18" y="31.14" width="86.1" height="1.66"/><rect class="cls-23" x="36.52" y="85.59" width="85.59" height="0.35"/><line class="cls-22" x1="36.13" y1="58.29" x2="36.13" y2="48.85"/><line class="cls-22" x1="44.24" y1="26.26" x2="51.61" y2="26.26"/><path class="cls-24" d="M32.89,32.12a.2.2,0,0,1-.11,0,.27.27,0,0,1-.22-.32h0v0L33.37,28a.27.27,0,0,1,.33-.21.28.28,0,0,1,.21.33h0L33.1,31.9A.27.27,0,0,1,32.89,32.12Z"/><path class="cls-24" d="M34.54,30h-.11a.27.27,0,0,1-.22-.32h0l.43-2a.28.28,0,0,1,.33-.22.28.28,0,0,1,.22.33l-.43,2A.28.28,0,0,1,34.54,30Z"/><line class="cls-25" x1="52.67" y1="28.33" x2="55.37" y2="28.33"/><line class="cls-25" x1="45.99" y1="28.33" x2="51.23" y2="28.33"/><line class="cls-25" x1="114.61" y1="28.91" x2="117.31" y2="28.91"/><line class="cls-25" x1="107.93" y1="28.91" x2="113.17" y2="28.91"/><path class="cls-20" d="M21.07,89.65h114A6.33,6.33,0,0,1,128.77,96H27.4a6.34,6.34,0,0,1-6.33-6.34Z"/><path class="cls-15" d="M133.78,92.82A4.48,4.48,0,0,1,129,96H27.62a5.38,5.38,0,0,1-5.57-3.07Z"/><path class="cls-26" d="M20.89,89.4h114a6.33,6.33,0,0,1-6.33,6.33H27.22a6.33,6.33,0,0,1-6.33-6.33Z"/><line class="cls-25" x1="71.37" y1="92.82" x2="81.83" y2="92.82"/><polygon class="cls-16" points="86.62 85.74 84.5 85.74 97.97 30.61 100.08 30.61 86.62 85.74"/><polygon class="cls-17" points="95.96 85.74 89.36 85.74 102.82 30.61 109.43 30.61 95.96 85.74"/><polygon class="cls-16" points="83.33 85.74 81.22 85.74 94.68 30.61 96.8 30.61 83.33 85.74"/><polyline class="cls-22" points="36.13 45.6 36.13 30.69 122.23 30.69 122.23 85.91 36.13 85.91 36.13 61.16"/><circle class="cls-8" cx="40.56" cy="38.11" r="1.74"/><circle class="cls-8" cx="43.54" cy="41.1" r="1.17"/><circle class="cls-8" cx="40.42" cy="41.18" r="0.71"/><line class="cls-27" x1="29.44" y1="92.66" x2="33.64" y2="92.66"/><circle class="cls-8" cx="27.19" cy="92.66" r="0.75"/><circle class="cls-25" cx="78.9" cy="28.49" r="0.73"/><line class="cls-28" x1="59.5" y1="134.15" x2="46.23" y2="134.15"/><rect class="cls-29" x="67.68" y="182.01" width="11.83" height="12.12"/><rect class="cls-20" x="63.59" y="182.01" width="11.83" height="12.12"/><rect class="cls-15" x="63.59" y="182.27" width="11.83" height="5.31"/><rect class="cls-29" x="63.59" y="182.01" width="11.83" height="12.12"/><path class="cls-19" d="M50.74,120.46H119.9a2.41,2.41,0,0,1,2.42,2.41v59.76a1.8,1.8,0,0,1-1.8,1.79H28.72a1.79,1.79,0,0,1-1.8-1.79v-9.87"/><path class="cls-30" d="M50.74,120.46H119.9a2.41,2.41,0,0,1,2.42,2.41v59.76a1.8,1.8,0,0,1-1.8,1.79H28.72a1.79,1.79,0,0,1-1.8-1.79v-9.87"/><path class="cls-20" d="M25.79,120.32h90.57a2.42,2.42,0,0,1,2.42,2.42v59.13a2.41,2.41,0,0,1-2.42,2.41h-93V122.74A2.41,2.41,0,0,1,25.79,120.32Z"/><path class="cls-15" d="M23.77,182.27l95,.16h0a1.68,1.68,0,0,1-1.7,1.69L25.46,184a1.69,1.69,0,0,1-1.69-1.69Z"/><path class="cls-30" d="M47.41,120.46h69.16a2.41,2.41,0,0,1,2.41,2.41v59.76a1.79,1.79,0,0,1-1.79,1.79H25.38a1.8,1.8,0,0,1-1.8-1.79v-9.87"/><path class="cls-30" d="M23.58,158.32V122.87A2.41,2.41,0,0,1,26,120.46h7.39"/><rect class="cls-15" x="28.56" y="125.29" width="86.1" height="1.66"/><line class="cls-30" x1="33.62" y1="120.4" x2="40.98" y2="120.4"/><line class="cls-10" x1="45.05" y1="122.47" x2="47.75" y2="122.47"/><line class="cls-10" x1="38.37" y1="122.47" x2="43.61" y2="122.47"/><polygon class="cls-16" points="78.99 179.89 76.88 179.89 90.34 124.76 92.46 124.76 78.99 179.89"/><polygon class="cls-17" points="88.34 179.89 81.74 179.89 95.2 124.76 101.8 124.76 88.34 179.89"/><polygon class="cls-16" points="75.71 179.89 73.6 179.89 87.06 124.76 89.17 124.76 75.71 179.89"/><polyline class="cls-30" points="28.51 139.74 28.51 124.83 114.61 124.83 114.61 180.05 28.51 180.05 28.51 155.3"/><circle class="cls-8" cx="32.94" cy="132.26" r="1.74"/><circle class="cls-8" cx="35.92" cy="135.24" r="1.17"/><circle class="cls-8" cx="32.8" cy="135.32" r="0.71"/><line class="cls-30" x1="28.52" y1="142.64" x2="28.52" y2="152.01"/><rect class="cls-15" x="36.07" y="132.05" width="23.22" height="17.58"/><rect class="cls-8" x="33.96" y="132.05" width="23.22" height="17.58"/><rect class="cls-3" x="33.94" y="131.77" width="23.38" height="17.79" rx="1.28"/><path class="cls-3" d="M56.18,131.77H58a1.36,1.36,0,0,1,1.37,1.36V148.2A1.36,1.36,0,0,1,58,149.56H56.18"/><rect class="cls-3" x="36.85" y="134.88" width="4.09" height="4.09" rx="2.05"/><line class="cls-10" x1="37.06" y1="141.79" x2="52.66" y2="141.79"/><line class="cls-10" x1="37.06" y1="143.55" x2="45.67" y2="143.55"/><rect class="cls-15" x="110.55" y="160.67" width="18.06" height="13.67"/><rect class="cls-8" x="108.9" y="160.67" width="18.06" height="13.67"/><rect class="cls-31" x="108.89" y="160.45" width="18.18" height="13.83" rx="0.99"/><path class="cls-31" d="M126.18,160.45h1.42a1.06,1.06,0,0,1,1.06,1.06v11.72a1.06,1.06,0,0,1-1.06,1.06h-1.42"/><rect class="cls-31" x="111.15" y="162.87" width="3.18" height="3.18" rx="1.59"/><line class="cls-32" x1="111.32" y1="168.25" x2="123.45" y2="168.25"/><line class="cls-32" x1="111.32" y1="169.61" x2="118.01" y2="169.61"/><rect class="cls-15" x="110.55" y="128.29" width="18.06" height="13.67"/><rect class="cls-8" x="108.9" y="128.29" width="18.06" height="13.67"/><rect class="cls-31" x="108.89" y="128.07" width="18.18" height="13.83" rx="0.99"/><path class="cls-31" d="M126.18,128.07h1.42a1.06,1.06,0,0,1,1.06,1.06v11.72a1.06,1.06,0,0,1-1.06,1.06h-1.42"/><rect class="cls-31" x="111.15" y="130.49" width="3.18" height="3.18" rx="1.59"/><line class="cls-32" x1="111.32" y1="135.87" x2="123.45" y2="135.87"/><line class="cls-32" x1="111.32" y1="137.23" x2="118.01" y2="137.23"/><rect class="cls-15" x="110.46" y="144.84" width="17.1" height="12.94"/><rect class="cls-8" x="108.9" y="144.84" width="17.1" height="12.94"/><rect class="cls-33" x="108.89" y="144.63" width="17.21" height="13.1" rx="0.94"/><path class="cls-33" d="M125.26,144.63h1.34a1,1,0,0,1,1,1v11.09a1,1,0,0,1-1,1h-1.34"/><rect class="cls-33" x="111.03" y="146.92" width="3.01" height="3.01" rx="1.51"/><line class="cls-32" x1="111.19" y1="152.01" x2="122.67" y2="152.01"/><line class="cls-32" x1="111.19" y1="153.3" x2="117.53" y2="153.3"/><path class="cls-34" d="M73.86,125.36a26.21,26.21,0,1,0,26.2,26.2h0A26.24,26.24,0,0,0,73.86,125.36Zm0,2.38a23.67,23.67,0,0,1,16.34,6.55,5.78,5.78,0,0,0-2.57-.64c-1.55,0-4.12.67-4.12,5.12a11.62,11.62,0,0,0,2.26,5.17c1.57,2.55,3.36,5.43,2.91,7.69-1,3-2.46,7.2-3.84,11.13L78.17,142h.45a1.17,1.17,0,0,0,1.19-1.16v0a1.19,1.19,0,0,0-1.19-1.19H67.9a1.21,1.21,0,0,0-1.19,1.19A1.19,1.19,0,0,0,67.9,142h.89l3.78,10.77c-1,2.88-2.21,6.48-3.43,10L62.45,142h.69a1.17,1.17,0,0,0,1.19-1.16v0a1.19,1.19,0,0,0-1.19-1.19H53.25A23.89,23.89,0,0,1,73.86,127.74ZM50,151.56A23.71,23.71,0,0,1,52,142h1.05l11,31.23A23.84,23.84,0,0,1,50,151.56Zm23.82,23.82a23.19,23.19,0,0,1-6.36-.88c1-2.93,4.07-11.43,6.36-18.05l6.36,18.05A22.82,22.82,0,0,1,73.86,175.38Zm9.79-2.12c1.6-4.43,5.1-14.31,7.12-20.36a.82.82,0,0,0,.1-.26,2.37,2.37,0,0,0,.09-.36c.31-.88.55-1.67.77-2.31,1.26-4,2.45-9.2,1.47-12.25a23.73,23.73,0,0,1-5.38,33.14,23.36,23.36,0,0,1-4.17,2.4Z"/><path class="cls-35" d="M100.17,150.74v.59a26.2,26.2,0,1,1-52.4,0v-.59a26.21,26.21,0,0,0,52.4,0Z"/><path class="cls-8" d="M47.77,152.2v-.59a26.2,26.2,0,1,1,52.4,0v.59a26.21,26.21,0,0,0-52.4,0Z"/><line class="cls-36" x1="57.94" y1="151.68" x2="61.08" y2="160.74"/><line class="cls-36" x1="55.28" y1="144.01" x2="57.38" y2="150.07"/><line class="cls-37" x1="86.45" y1="163.99" x2="83.36" y2="172.55"/><line class="cls-37" x1="70.75" y1="163.76" x2="67.67" y2="172.33"/><line class="cls-37" x1="81.22" y1="153.38" x2="78.5" y2="144.7"/><line class="cls-38" x1="54.5" y1="140.08" x2="61.67" y2="140.08"/><line class="cls-38" x1="69.35" y1="140.08" x2="76.53" y2="140.08"/><line class="cls-38" x1="69.74" y1="143.8" x2="72.31" y2="151.11"/><path class="cls-39" d="M73.86,125.36a26.21,26.21,0,1,0,26.2,26.2h0A26.24,26.24,0,0,0,73.86,125.36Zm0,2.38a23.67,23.67,0,0,1,16.34,6.55,5.78,5.78,0,0,0-2.57-.64c-1.55,0-4.12.67-4.12,5.12a11.62,11.62,0,0,0,2.26,5.17c1.57,2.55,3.36,5.43,2.91,7.69-1,3-2.46,7.2-3.84,11.13L78.17,142h.45a1.17,1.17,0,0,0,1.19-1.16v0a1.19,1.19,0,0,0-1.19-1.19H67.9a1.21,1.21,0,0,0-1.19,1.19A1.19,1.19,0,0,0,67.9,142h.89l3.78,10.77c-1,2.88-2.21,6.48-3.43,10L62.45,142h.69a1.17,1.17,0,0,0,1.19-1.16v0a1.19,1.19,0,0,0-1.19-1.19H53.25A23.89,23.89,0,0,1,73.86,127.74ZM58.22,156.62l5.85,16.64A23.77,23.77,0,0,1,52,142h1.05l2,5.8m.54,1.52,2,5.58m19.54,10.88,3.06,8.69a23.3,23.3,0,0,1-12.72,0c1-2.93,4.07-11.43,6.36-18.05l2.37,6.72m20.42-4.67a23.92,23.92,0,0,1-13,14.76c1.6-4.43,5.1-14.31,7.12-20.36a.82.82,0,0,0,.1-.26,2.37,2.37,0,0,0,.09-.36c.31-.88.55-1.67.77-2.31,1.26-4,2.45-9.2,1.47-12.25A23.68,23.68,0,0,1,97.26,156"/><circle class="cls-8" cx="71.38" cy="146.11" r="0.5"/><circle class="cls-8" cx="72" cy="147.02" r="0.1"/><circle class="cls-8" cx="70.93" cy="143.57" r="0.24"/><circle class="cls-8" cx="71.54" cy="144.57" r="0.11"/><circle class="cls-8" cx="72.55" cy="145.21" r="0.25"/><circle class="cls-8" cx="72.22" cy="148.78" r="0.43"/><circle class="cls-8" cx="72.63" cy="147.48" r="0.22"/><circle class="cls-8" cx="73.72" cy="150.14" r="0.22"/><circle class="cls-8" cx="72.9" cy="151.03" r="0.24"/><circle class="cls-8" cx="69.8" cy="142.24" r="0.17"/><circle class="cls-8" cx="71.38" cy="140.8" r="0.46"/><circle class="cls-8" cx="73.51" cy="141.81" r="0.18"/><circle class="cls-8" cx="74.62" cy="140.95" r="0.36"/><circle class="cls-35" cx="84.99" cy="166.54" r="0.56"/><circle class="cls-35" cx="83.09" cy="169.42" r="0.4"/><circle class="cls-35" cx="83.64" cy="167.95" r="0.15"/><circle class="cls-35" cx="83.55" cy="164.21" r="0.36"/><circle class="cls-35" cx="82.71" cy="172.19" r="0.06"/><circle class="cls-35" cx="82.75" cy="171.27" r="0.15"/><path class="cls-40" d="M71.62,125.36a26.21,26.21,0,1,0,26.2,26.2h0A26.24,26.24,0,0,0,71.62,125.36Zm0,2.38A23.68,23.68,0,0,1,88,134.29a5.78,5.78,0,0,0-2.57-.64c-1.55,0-4.13.67-4.13,5.12a11.64,11.64,0,0,0,2.27,5.17c1.57,2.55,3.36,5.43,2.9,7.69-1,3-2.45,7.2-3.83,11.13L75.93,142h.45a1.17,1.17,0,0,0,1.19-1.16v0a1.19,1.19,0,0,0-1.19-1.19H65.66a1.21,1.21,0,0,0-1.19,1.19A1.19,1.19,0,0,0,65.66,142h.88l3.79,10.77c-1,2.88-2.21,6.48-3.43,10L60.21,142h.69a1.17,1.17,0,0,0,1.19-1.16v0a1.2,1.2,0,0,0-1.19-1.19H51A23.89,23.89,0,0,1,71.62,127.74ZM47.8,151.56a23.54,23.54,0,0,1,2-9.53h1.05l11,31.23A23.81,23.81,0,0,1,47.8,151.56Zm23.82,23.82a23.19,23.19,0,0,1-6.36-.88c1-2.93,4.07-11.43,6.36-18.05L78,174.5A22.82,22.82,0,0,1,71.62,175.38Zm9.79-2.12c1.59-4.43,5.1-14.31,7.12-20.36a.82.82,0,0,0,.1-.26,2.37,2.37,0,0,0,.09-.36c.31-.88.55-1.67.76-2.31,1.27-4,2.46-9.2,1.48-12.25a23.72,23.72,0,0,1-9.55,35.54Z"/><path class="cls-35" d="M97.93,150.74v.59a26.21,26.21,0,1,1-52.41,0v-.59a26.21,26.21,0,0,0,52.41,0Z"/><path class="cls-8" d="M45.52,152.2v-.59a26.21,26.21,0,1,1,52.41,0v.59a26.21,26.21,0,0,0-52.41,0Z"/><line class="cls-36" x1="55.7" y1="151.68" x2="58.84" y2="160.74"/><line class="cls-36" x1="53.04" y1="144.01" x2="55.14" y2="150.07"/><line class="cls-37" x1="84.2" y1="163.99" x2="81.12" y2="172.55"/><line class="cls-37" x1="68.51" y1="163.76" x2="65.43" y2="172.33"/><line class="cls-37" x1="78.98" y1="153.38" x2="76.25" y2="144.7"/><line class="cls-38" x1="52.26" y1="140.08" x2="59.43" y2="140.08"/><line class="cls-38" x1="67.11" y1="140.08" x2="74.28" y2="140.08"/><line class="cls-38" x1="67.5" y1="143.8" x2="70.07" y2="151.11"/><path class="cls-39" d="M71.62,125.36a26.21,26.21,0,1,0,26.2,26.2h0A26.24,26.24,0,0,0,71.62,125.36Zm0,2.38A23.68,23.68,0,0,1,88,134.29a5.78,5.78,0,0,0-2.57-.64c-1.55,0-4.13.67-4.13,5.12a11.64,11.64,0,0,0,2.27,5.17c1.57,2.55,3.36,5.43,2.9,7.69-1,3-2.45,7.2-3.83,11.13L75.93,142h.45a1.17,1.17,0,0,0,1.19-1.16v0a1.19,1.19,0,0,0-1.19-1.19H65.66a1.21,1.21,0,0,0-1.19,1.19A1.19,1.19,0,0,0,65.66,142h.88l3.79,10.77c-1,2.88-2.21,6.48-3.43,10L60.21,142h.69a1.17,1.17,0,0,0,1.19-1.16v0a1.2,1.2,0,0,0-1.19-1.19H51A23.89,23.89,0,0,1,71.62,127.74ZM56,156.62l5.86,16.64A23.77,23.77,0,0,1,49.8,142h1.05l2,5.8m.54,1.52,2,5.58m19.53,10.88L78,174.5a23.3,23.3,0,0,1-12.72,0c1-2.93,4.07-11.43,6.36-18.05L74,163.17m20.43-4.67a23.92,23.92,0,0,1-13,14.76c1.59-4.43,5.1-14.31,7.12-20.36a.82.82,0,0,0,.1-.26,2.37,2.37,0,0,0,.09-.36c.31-.88.55-1.67.76-2.31,1.27-4,2.46-9.2,1.48-12.25A23.68,23.68,0,0,1,95,156"/><circle class="cls-8" cx="69.14" cy="146.11" r="0.5"/><circle class="cls-8" cx="69.76" cy="147.02" r="0.1"/><circle class="cls-8" cx="68.69" cy="143.57" r="0.24"/><circle class="cls-8" cx="69.3" cy="144.57" r="0.11"/><circle class="cls-8" cx="70.3" cy="145.21" r="0.25"/><circle class="cls-8" cx="69.98" cy="148.78" r="0.43"/><circle class="cls-8" cx="70.39" cy="147.48" r="0.22"/><circle class="cls-8" cx="71.48" cy="150.14" r="0.22"/><circle class="cls-8" cx="70.65" cy="151.03" r="0.24"/><circle class="cls-8" cx="67.56" cy="142.24" r="0.17"/><circle class="cls-8" cx="69.14" cy="140.8" r="0.46"/><circle class="cls-8" cx="71.27" cy="141.81" r="0.18"/><circle class="cls-8" cx="72.38" cy="140.95" r="0.36"/><circle class="cls-35" cx="82.75" cy="166.54" r="0.56"/><circle class="cls-35" cx="80.85" cy="169.42" r="0.4"/><circle class="cls-35" cx="81.39" cy="167.95" r="0.15"/><circle class="cls-35" cx="81.31" cy="164.21" r="0.36"/><circle class="cls-35" cx="80.47" cy="172.19" r="0.06"/><circle class="cls-35" cx="80.51" cy="171.27" r="0.15"/><polygon class="cls-41" points="35.07 190.77 31.69 190.77 33.69 164.41 37.07 164.41 35.07 190.77"/><polygon class="cls-41" points="37.9 190.77 36.2 190.77 38.2 164.41 39.9 164.41 37.9 190.77"/><rect class="cls-42" x="19.27" y="164.42" width="42.06" height="0.87" transform="translate(80.61 329.7) rotate(-180)"/><path class="cls-20" d="M19.27,161.11H61.33a0,0,0,0,1,0,0v1.7a1.6,1.6,0,0,1-1.6,1.6H20.88a1.6,1.6,0,0,1-1.6-1.6v-1.7a0,0,0,0,1,0,0Z" transform="translate(80.61 325.53) rotate(-180)"/><circle class="cls-19" cx="26.45" cy="162.73" r="0.46"/><circle class="cls-19" cx="24.83" cy="162.73" r="0.46"/><circle class="cls-19" cx="23.21" cy="162.73" r="0.46"/><circle class="cls-43" cx="26.45" cy="162.73" r="0.46"/><circle class="cls-43" cx="24.83" cy="162.73" r="0.46"/><circle class="cls-43" cx="23.21" cy="162.73" r="0.46"/><line class="cls-44" x1="30.42" y1="161.72" x2="40.3" y2="161.72"/><line class="cls-44" x1="46.45" y1="164.14" x2="56.33" y2="164.14"/><line class="cls-45" x1="38.9" y1="163.2" x2="43.84" y2="163.2"/><line class="cls-45" x1="52.67" y1="162.73" x2="57.61" y2="162.73"/><rect class="cls-3" x="19.27" y="161.2" width="42.06" height="29.57" rx="1.62" transform="translate(80.61 351.97) rotate(-180)"/><line class="cls-46" x1="61.33" y1="164.42" x2="19.27" y2="164.42"/><polyline class="cls-47" points="48.52 13.32 54.72 13.26 51.97 48.19 38.03 52.2 24.02 48.47 23.5 43.21"/><polyline class="cls-48" points="52.56 13.28 54.72 13.26 51.97 48.19 50.22 48.69"/><polygon class="cls-49" points="48.17 49.2 33.84 53.33 19.44 49.49 15.88 13.65 51.01 13.29 48.17 49.2"/><polyline class="cls-50" points="45.28 14.58 49.87 14.53 48.54 29.3"/><line class="cls-50" x1="49.35" y1="20.28" x2="48.91" y2="25.17"/><line class="cls-50" x1="49.19" y1="22.12" x2="49.1" y2="23.1"/><line class="cls-51" x1="47.88" y1="17.54" x2="47.39" y2="23.05"/><line class="cls-51" x1="46.55" y1="40.75" x2="46.05" y2="46.26"/><polygon class="cls-20" points="33.44 13.47 33.84 53.33 19.45 49.49 15.88 13.65 33.44 13.47"/><path class="cls-6" d="M26.69,20l0,3.86H25.51l0-3.86Zm-.94,1.33,3.08,0,0,1.08-3.09,0ZM29.28,20l0,3.85-1.22,0,0-3.86Z"/><path class="cls-6" d="M29.66,20l3.42,0V21H32l0,2.79H30.81l0-2.78h-1.1Z"/><path class="cls-6" d="M34.58,23.76H33.29L34,19.71l1.73,2.07,1.69-2.1.76,4.05h-1.3l-.21-1.58-.92,1.23-.94-1.21Z"/><path class="cls-6" d="M39.86,19.85l0,2.84,1.57,0,0,1-2.79,0,0-3.86Z"/><line class="cls-52" x1="17.67" y1="20.01" x2="19.44" y2="37.5"/><line class="cls-53" x1="18.27" y1="25.91" x2="18.86" y2="31.7"/><polyline class="cls-30" points="18.4 38.98 15.88 13.65 23.77 13.57"/><polyline class="cls-30" points="44.64 13.36 51.01 13.29 48.17 49.2 33.84 53.33 19.44 49.49 18.91 44.08"/><line class="cls-30" x1="29.44" y1="13.51" x2="40.53" y2="13.4"/><line class="cls-30" x1="26.39" y1="13.54" x2="27.32" y2="13.53"/><polygon class="cls-6" points="33.83 42.58 28.56 40.92 28.06 36.4 30.73 36.11 31.04 38.88 33.8 39.75 36.65 38.78 37.05 34.9 27.7 34.99 26.78 27.57 40.14 27.43 40.17 30.12 29.82 30.23 30.08 32.28 40.03 32.18 39.15 40.77 33.83 42.58"/><polyline class="cls-54" points="138.57 38.42 144.77 38.36 142.01 73.29 128.07 77.31 114.07 73.57 113.54 68.31"/><polyline class="cls-48" points="142.61 38.38 144.77 38.36 142.01 73.29 140.26 73.79"/><polygon class="cls-55" points="138.22 74.3 123.88 78.44 109.49 74.59 105.92 38.75 141.05 38.39 138.22 74.3"/><polyline class="cls-50" points="135.33 39.68 139.91 39.63 138.58 54.4"/><line class="cls-50" x1="139.4" y1="45.38" x2="138.95" y2="50.27"/><line class="cls-50" x1="139.23" y1="47.22" x2="139.14" y2="48.2"/><line class="cls-51" x1="138.12" y1="61.74" x2="137.62" y2="67.25"/><polygon class="cls-56" points="123.48 38.58 123.89 78.43 109.49 74.59 105.92 38.76 123.48 38.58"/><line class="cls-57" x1="107.71" y1="45.11" x2="109.49" y2="62.6"/><line class="cls-58" x1="108.31" y1="51.01" x2="108.9" y2="56.8"/><polyline class="cls-30" points="108.44 64.08 105.92 38.75 113.81 38.67"/><polyline class="cls-30" points="134.68 38.46 141.05 38.39 138.22 74.3 123.88 78.44 109.49 74.59 108.95 69.18"/><line class="cls-30" x1="119.48" y1="38.61" x2="130.57" y2="38.5"/><line class="cls-30" x1="116.43" y1="38.64" x2="117.37" y2="38.63"/><text class="cls-59" transform="translate(117.28 49.49) rotate(-0.58)">CSS</text><polygon class="cls-6" points="129.94 53.11 116.54 53.11 116.85 56.31 123.25 56.31 117.05 58.7 117.35 61.91 126.05 61.91 125.77 65.11 123.25 65.9 120.74 65.09 120.48 63.51 117.5 63.51 117.86 67.49 123.25 69.09 128.63 67.49 129.42 58.7 123.27 58.7 129.65 56.31 129.94 53.11"/><path class="cls-15" d="M22.89,61.29H47.62a.75.75,0,0,1,.75.75V78.4a2.14,2.14,0,0,1-2.14,2.14H22.89a0,0,0,0,1,0,0V61.29A0,0,0,0,1,22.89,61.29Z"/><path class="cls-8" d="M20,61.29H45.47a0,0,0,0,1,0,0V80.55a0,0,0,0,1,0,0H21.6A1.62,1.62,0,0,1,20,78.93V61.29A0,0,0,0,1,20,61.29Z"/><path class="cls-60" d="M48.44,72.34v6.17a2,2,0,0,1-2,2h-.89"/><path class="cls-60" d="M45.57,61h.89a2,2,0,0,1,2,2V70"/><rect class="cls-14" x="22.58" y="63.82" width="3.68" height="3.68" rx="1.84"/><line class="cls-61" x1="22.77" y1="70.04" x2="40.26" y2="70.04"/><line class="cls-61" x1="22.77" y1="71.61" x2="30.51" y2="71.61"/><polyline class="cls-62" points="31.71 79.82 22.42 79.82 20.81 79.82 20.81 72.71"/><path class="cls-60" d="M20,65.56V62.18A1.16,1.16,0,0,1,21.12,61H44.45a1.16,1.16,0,0,1,1.15,1.15v3.19"/><path class="cls-60" d="M45.6,74.67v4.67a1.15,1.15,0,0,1-1.15,1.14H21.12A1.15,1.15,0,0,1,20,79.34V67.5"/><line class="cls-60" x1="45.6" y1="67.92" x2="45.6" y2="71.71"/><rect class="cls-63" x="22.58" y="63.82" width="3.68" height="3.68" rx="1.84"/><path class="cls-15" d="M56.27,61.29H81a.75.75,0,0,1,.75.75V78.4a2.14,2.14,0,0,1-2.14,2.14H56.27a0,0,0,0,1,0,0V61.29A0,0,0,0,1,56.27,61.29Z"/><path class="cls-8" d="M53.37,61.29H78.86a0,0,0,0,1,0,0V80.55a0,0,0,0,1,0,0H55a1.62,1.62,0,0,1-1.62-1.62V61.29A0,0,0,0,1,53.37,61.29Z"/><path class="cls-60" d="M81.83,72.34v6.17a2,2,0,0,1-2,2H79"/><path class="cls-60" d="M79,61h.89a2,2,0,0,1,2,2V70"/><rect class="cls-14" x="55.97" y="63.82" width="3.68" height="3.68" rx="1.84"/><line class="cls-61" x1="56.16" y1="70.04" x2="73.64" y2="70.04"/><line class="cls-61" x1="56.16" y1="71.61" x2="63.9" y2="71.61"/><polyline class="cls-62" points="65.1 79.82 55.8 79.82 54.2 79.82 54.2 72.71"/><path class="cls-60" d="M53.36,65.56V62.18A1.15,1.15,0,0,1,54.51,61H77.84A1.16,1.16,0,0,1,79,62.18v3.19"/><path class="cls-60" d="M79,74.67v4.67a1.15,1.15,0,0,1-1.15,1.14H54.51a1.14,1.14,0,0,1-1.15-1.14V67.5"/><line class="cls-60" x1="78.99" y1="67.92" x2="78.99" y2="71.71"/><rect class="cls-63" x="55.97" y="63.82" width="3.68" height="3.68" rx="1.84"/><line class="cls-30" x1="23.58" y1="166.61" x2="23.58" y2="170.51"/><path class="cls-64" d="M185.1,5.29h94.61a4,4,0,0,1,4,4v67.2a1.91,1.91,0,0,1-1.91,1.91H183a1.91,1.91,0,0,1-1.91-1.91V9.25A4,4,0,0,1,185.1,5.29Z"/><rect class="cls-65" x="181.55" y="14.12" width="102.12" height="3.26"/><polygon class="cls-65" points="283.67 17.38 283.67 76.45 281.76 78.36 242.23 78.36 224.75 14.12 283.67 14.12 283.67 17.38"/><path class="cls-66" d="M185,5.07h94.71A3.91,3.91,0,0,1,283.67,9v5.14a0,0,0,0,1,0,0H181.14a0,0,0,0,1,0,0V9A3.91,3.91,0,0,1,185,5.07Z"/><circle class="cls-67" cx="272.57" cy="10.04" r="1.13"/><circle class="cls-68" cx="276.07" cy="10.04" r="1.13"/><circle class="cls-69" cx="279.56" cy="10.04" r="1.13"/><circle class="cls-10" cx="272.57" cy="10.04" r="1.13"/><circle class="cls-10" cx="276.07" cy="10.04" r="1.13"/><circle class="cls-10" cx="279.56" cy="10.04" r="1.13"/><line class="cls-30" x1="206.91" y1="14.12" x2="283.67" y2="14.12"/><line class="cls-30" x1="181.14" y1="14.12" x2="202.92" y2="14.12"/><line class="cls-70" x1="193.22" y1="6.26" x2="205.92" y2="6.26"/><line class="cls-70" x1="209.24" y1="6.26" x2="213.33" y2="6.26"/><line class="cls-71" x1="195.27" y1="10.04" x2="189.99" y2="10.04"/><line class="cls-71" x1="186.67" y1="10.04" x2="184.62" y2="10.04"/><line class="cls-70" x1="260.58" y1="6.26" x2="247.88" y2="6.26"/><line class="cls-70" x1="244.56" y1="6.26" x2="240.47" y2="6.26"/><path class="cls-30" d="M227.86,5.29h51.85a4,4,0,0,1,4,4v67.2a1.92,1.92,0,0,1-1.91,1.91H183.05a1.91,1.91,0,0,1-1.91-1.91V9.25a4,4,0,0,1,4-4h38.05"/><path class="cls-72" d="M269.21,83.77h13a6.18,6.18,0,0,0,6.18-6.18h0V7.87A7.26,7.26,0,0,0,281.22.51H218.07"/><line class="cls-72" x1="254.21" y1="83.77" x2="266.28" y2="83.77"/><line class="cls-72" x1="205.59" y1="83.77" x2="250.29" y2="83.77"/><path class="cls-72" d="M195.29.51H183.72a7.26,7.26,0,0,0-7.16,7.36V77.59h0a6.18,6.18,0,0,0,6.18,6.18h17.33"/><line class="cls-30" x1="199.57" y1="0.51" x2="214.24" y2="0.51"/><line class="cls-73" x1="192.69" y1="28.9" x2="202.57" y2="28.9"/><line class="cls-73" x1="207.11" y1="28.9" x2="213.99" y2="28.9"/><line class="cls-73" x1="218.9" y1="28.92" x2="225.79" y2="28.92"/><line class="cls-74" x1="192.63" y1="23.63" x2="207.52" y2="23.63"/><line class="cls-70" x1="211.28" y1="23.63" x2="219.82" y2="23.63"/><line class="cls-51" x1="192.63" y1="34.19" x2="215.52" y2="34.19"/><line class="cls-70" x1="219.28" y1="34.19" x2="227.82" y2="34.19"/><line class="cls-74" x1="192.63" y1="39.46" x2="207.52" y2="39.46"/><line class="cls-70" x1="211.28" y1="39.46" x2="219.82" y2="39.46"/><line class="cls-73" x1="192.69" y1="56.29" x2="202.57" y2="56.29"/><line class="cls-73" x1="207.11" y1="56.29" x2="213.99" y2="56.29"/><line class="cls-73" x1="218.9" y1="56.31" x2="225.79" y2="56.31"/><line class="cls-74" x1="192.63" y1="51.02" x2="207.52" y2="51.02"/><line class="cls-70" x1="211.28" y1="51.02" x2="219.82" y2="51.02"/><line class="cls-51" x1="192.63" y1="61.57" x2="215.52" y2="61.57"/><line class="cls-70" x1="219.28" y1="61.57" x2="227.82" y2="61.57"/><line class="cls-74" x1="192.63" y1="66.85" x2="207.52" y2="66.85"/><line class="cls-70" x1="211.28" y1="66.85" x2="219.82" y2="66.85"/><rect class="cls-66" x="226.51" y="83.86" width="11.92" height="3.36" rx="0.39"/><line class="cls-75" x1="228.9" y1="84.26" x2="232.09" y2="84.26"/><line class="cls-75" x1="233.68" y1="84.26" x2="235.63" y2="84.26"/><rect class="cls-3" x="226.51" y="83.86" width="11.92" height="3.36" rx="0.39"/><rect class="cls-66" x="219.96" y="86.79" width="25.01" height="7.06" rx="0.82"/><line class="cls-70" x1="239.95" y1="93.01" x2="233.26" y2="93.01"/><line class="cls-70" x1="229.94" y1="93.01" x2="225.85" y2="93.01"/><rect class="cls-30" x="219.96" y="86.79" width="25.01" height="7.06" rx="0.82"/><rect class="cls-66" x="269.49" y="29.4" width="39.81" height="29.28" rx="2.73"/><path class="cls-76" d="M309.37,32.49V56.31A2.73,2.73,0,0,1,306.64,59H294.81L283.89,29.76h22.75A2.74,2.74,0,0,1,309.37,32.49Z"/><path class="cls-77" d="M309.3,32.13v2.06H269.49V32.13a2.73,2.73,0,0,1,2.73-2.73h34.35A2.73,2.73,0,0,1,309.3,32.13Z"/><line class="cls-70" x1="272.71" y1="35.31" x2="285.4" y2="35.31"/><line class="cls-70" x1="288.72" y1="35.31" x2="292.82" y2="35.31"/><line class="cls-78" x1="286.32" y1="57.21" x2="299.02" y2="57.21"/><rect class="cls-72" x="269.49" y="29.4" width="39.81" height="29.28" rx="2.73"/><line class="cls-72" x1="269.68" y1="34.19" x2="309.3" y2="34.19"/><circle class="cls-8" cx="297.17" cy="42.93" r="1.84"/><path class="cls-8" d="M284.68,41.1a1.23,1.23,0,0,1,2.13,0l2.71,4.71,2.72,4.7a1.24,1.24,0,0,1-1.07,1.85H280.31a1.23,1.23,0,0,1-1.06-1.85l2.71-4.7Z"/><path class="cls-8" d="M291.49,45a.81.81,0,0,1,1.4,0l1.79,3.09,1.78,3.09a.81.81,0,0,1-.7,1.22h-7.14a.81.81,0,0,1-.7-1.22l1.79-3.09Z"/><circle class="cls-67" cx="300.31" cy="31.79" r="0.88"/><circle class="cls-68" cx="303.04" cy="31.79" r="0.88"/><circle class="cls-69" cx="305.77" cy="31.79" r="0.88"/><circle class="cls-79" cx="300.31" cy="31.79" r="0.88"/><circle class="cls-79" cx="303.04" cy="31.79" r="0.88"/><circle class="cls-79" cx="305.77" cy="31.79" r="0.88"/><rect class="cls-66" x="158.64" y="44.22" width="39.81" height="29.28" rx="2.73"/><path class="cls-76" d="M198.51,47.32V71.14a2.73,2.73,0,0,1-2.73,2.73H184L173,44.59h22.75A2.74,2.74,0,0,1,198.51,47.32Z"/><path class="cls-77" d="M198.45,47V49H158.64V47a2.73,2.73,0,0,1,2.73-2.73h34.35A2.73,2.73,0,0,1,198.45,47Z"/><line class="cls-70" x1="161.85" y1="50.13" x2="174.55" y2="50.13"/><line class="cls-70" x1="177.87" y1="50.13" x2="181.96" y2="50.13"/><line class="cls-78" x1="175.47" y1="72.03" x2="188.16" y2="72.03"/><rect class="cls-72" x="158.64" y="44.22" width="39.81" height="29.28" rx="2.73"/><line class="cls-72" x1="158.82" y1="49.01" x2="198.45" y2="49.01"/><circle class="cls-67" cx="189.46" cy="46.62" r="0.88"/><circle class="cls-68" cx="192.19" cy="46.62" r="0.88"/><circle class="cls-69" cx="194.91" cy="46.62" r="0.88"/><circle class="cls-79" cx="189.46" cy="46.62" r="0.88"/><circle class="cls-79" cx="192.19" cy="46.62" r="0.88"/><circle class="cls-79" cx="194.91" cy="46.62" r="0.88"/><text class="cls-80" transform="translate(166.79 64.88)">&lt;/&gt;</text><rect class="cls-81" x="186.95" y="185.73" width="95.15" height="1.64"/><path class="cls-30" d="M187,162.45V126.06a2.45,2.45,0,0,1,2.42-2.48h7.39"/><line class="cls-30" x1="187.02" y1="172.22" x2="187.02" y2="166.64"/><line class="cls-30" x1="191.94" y1="156.56" x2="191.94" y2="147.12"/><line class="cls-30" x1="200.53" y1="123.44" x2="207.89" y2="123.44"/><line class="cls-50" x1="205" y1="120.39" x2="204.91" y2="121.37"/><line class="cls-18" x1="229.22" y1="124.63" x2="239.22" y2="124.63"/><path class="cls-82" d="M176.89,187.92h114a6.34,6.34,0,0,1-6.34,6.34H183.22a6.33,6.33,0,0,1-6.33-6.34Z"/><path class="cls-81" d="M289.6,191.09a4.49,4.49,0,0,1-4.81,3.17H183.44a5.38,5.38,0,0,1-5.57-3.07Z"/><path class="cls-30" d="M176.7,187.66h114A6.34,6.34,0,0,1,284.4,194H183a6.34,6.34,0,0,1-6.34-6.34Z"/><line class="cls-25" x1="168.37" y1="196.61" x2="182.83" y2="196.61"/><circle class="cls-24" cx="185.05" cy="196.61" r="0.69"/><line class="cls-27" x1="185.26" y1="190.93" x2="189.46" y2="190.93"/><circle class="cls-8" cx="183" cy="190.93" r="0.75"/><rect class="cls-83" x="160.85" y="194.15" width="145.13" height="5.31"/><rect class="cls-84" x="160.85" y="194.15" width="145.13" height="2.28"/><rect class="cls-85" x="160.85" y="197.89" width="145.13" height="1.14"/><path class="cls-86" d="M161,195.6a221.68,221.68,0,0,0,38.11,2.06c16.16-.95,26.93-2.69,43.24-2.69,19.17,0,38,2.69,63.51,3"/><path class="cls-86" d="M305.51,195.63c-25.51.32-44.34,3-63.51,3A158.32,158.32,0,0,1,221,197a247.6,247.6,0,0,0-60,.67h0"/><polyline class="cls-87" points="167.61 194.15 305.98 194.15 305.98 199.46 160.85 199.46 160.85 194.15 163.07 194.15"/><line class="cls-25" x1="7.9" y1="196.61" x2="22.35" y2="196.61"/><circle class="cls-24" cx="24.57" cy="196.61" r="0.69"/><rect class="cls-83" x="0.37" y="194.15" width="145.13" height="5.31"/><rect class="cls-84" x="0.37" y="194.15" width="145.13" height="2.28"/><rect class="cls-85" x="0.37" y="197.89" width="145.13" height="1.14"/><path class="cls-86" d="M.48,195.61a221.73,221.73,0,0,0,38.11,2.06c16.16-1,26.93-2.7,43.25-2.7,19.17,0,38,2.7,63.5,3"/><path class="cls-86" d="M145,195.63c-25.51.32-44.34,3-63.51,3a158.32,158.32,0,0,1-21-1.65,247.6,247.6,0,0,0-60,.68h0"/><polyline class="cls-87" points="7.13 194.15 145.5 194.15 145.5 199.47 0.37 199.47 0.37 194.15 2.59 194.15"/><line class="cls-25" x1="7.9" y1="97.51" x2="22.35" y2="97.51"/><circle class="cls-24" cx="24.57" cy="97.51" r="0.69"/><rect class="cls-83" x="0.37" y="95.05" width="145.13" height="5.31"/><rect class="cls-84" x="0.37" y="95.05" width="145.13" height="2.28"/><rect class="cls-85" x="0.37" y="98.79" width="145.13" height="1.14"/><path class="cls-86" d="M.48,96.51a221.73,221.73,0,0,0,38.11,2.06c16.16-.95,26.93-2.7,43.25-2.7,19.17,0,38,2.7,63.5,3"/><path class="cls-86" d="M145,96.53c-25.51.32-44.34,3-63.51,3a156.65,156.65,0,0,1-21-1.65,247.6,247.6,0,0,0-60,.68h0"/><polyline class="cls-87" points="7.13 95.05 145.5 95.05 145.5 100.37 0.37 100.37 0.37 95.05 2.59 95.05"/><line class="cls-25" x1="170.01" y1="96.31" x2="184.47" y2="96.31"/><circle class="cls-24" cx="186.69" cy="96.31" r="0.69"/><rect class="cls-83" x="162.49" y="93.85" width="145.13" height="5.31"/><rect class="cls-84" x="162.49" y="93.85" width="145.13" height="2.28"/><rect class="cls-85" x="162.49" y="97.59" width="145.13" height="1.14"/><path class="cls-86" d="M162.59,95.31a221.79,221.79,0,0,0,38.12,2.06c16.15-1,26.92-2.7,43.24-2.7,19.17,0,38,2.7,63.51,3"/><path class="cls-86" d="M307.14,95.33c-25.5.32-44.34,3-63.5,3a156.52,156.52,0,0,1-21-1.65,247.59,247.59,0,0,0-60,.68h0"/><polyline class="cls-87" points="169.25 93.85 307.62 93.85 307.62 99.17 162.49 99.17 162.49 93.85 164.71 93.85"/><path class="cls-88" d="M210.64,166.56A29.14,29.14,0,0,0,224.55,168a88.25,88.25,0,0,0,13.75-3.14c3.12-.9,6-2.41,9.16-3.3,2.75-.79,3.75-1.56,8.44-2a60.61,60.61,0,0,1,20.17,1.41"/><path class="cls-89" d="M253,160.05c-5.72,1-12.34,4.11-17.45,5.71-8.44,2.65-17.69,3.58-26.12.87-1.72-.56-3.75-1.91-3.25-3.65.3-1.06,1.43-1.62,2.42-2.14a21,21,0,0,0,3.88-2.6,31.93,31.93,0,0,1,3.56-2.92c3.35-2,7.85-1.62,11.16.5a10.69,10.69,0,0,0,2.26,1.32,5.79,5.79,0,0,0,2.19.26c5.31-.23,9.69-4,14.16-6.83a48.54,48.54,0,0,1,15.41-6.46,31.47,31.47,0,0,1,4.86-.72h.18l1.81-.24H278l-.12,18.29s-3.24-1.55-16.27-1.81l-.06,0"/><circle class="cls-8" cx="219.99" cy="158.86" r="1.48"/><circle class="cls-10" cx="220.08" cy="158.86" r="1.48"/><path class="cls-8" d="M236.46,157.85c3.47-.89,6.59-3.41,9.56-5.32,3.82-2.46,7.81-4.8,12.26-5.94a1.13,1.13,0,0,0-.6-2.17,43.22,43.22,0,0,0-12.25,5.82c-1.49.95-3,1.93-4.45,2.86a19.34,19.34,0,0,1-5.11,2.58,1.13,1.13,0,0,0,.59,2.17Z"/><path class="cls-90" d="M277.92,153.13l-.08,8.31s-3.24-1.55-16.27-1.81l-.06,0-8.55.47c-5.72,1-12.34,4.11-17.45,5.71a55.15,55.15,0,0,1-10.94,2.29c2-.91,11-4.49,12.84-5.58,5.74-3.34,4.46-3,10.43-5.9a43.17,43.17,0,0,1,6.48-2.69,45.18,45.18,0,0,1,6.73-1.3A48.63,48.63,0,0,1,277.92,153.13Z"/><path class="cls-8" d="M224.67,156.86a6.75,6.75,0,0,0,4.58,2.81,24.7,24.7,0,0,0,5.15-.29c2-.25,4-1,6-.57a7.85,7.85,0,0,1,4.74,2.78,1.5,1.5,0,0,0,2.12-2.12c-2.59-3.26-6.92-4.2-10.84-3.46a37.9,37.9,0,0,1-5.41.67,3.75,3.75,0,0,1-4.26-2c-1.24-1.48-3.35.65-2.12,2.13Z"/><path class="cls-30" d="M220.09,168a51.19,51.19,0,0,0,15.5-2.5c6-1.87,14-5.83,20.31-6"/><path class="cls-30" d="M242.09,152.85c-3.24,2.17-6.58,4.15-10.4,4.31a5.78,5.78,0,0,1-2.19-.25,11.13,11.13,0,0,1-2.26-1.32c-3.31-2.12-7.81-2.55-11.16-.5a30.77,30.77,0,0,0-3.56,2.91,21.09,21.09,0,0,1-3.88,2.61c-1,.51-2.12,1.07-2.42,2.14-.5,1.74,1.53,3.09,3.25,3.64a33.92,33.92,0,0,0,8.27,1.55"/><polyline class="cls-30" points="208.89 184.18 191.94 184.18 191.94 159.43"/><polyline class="cls-30" points="278.04 173.94 278.04 184.18 213.13 184.18"/><polyline class="cls-30" points="191.94 143.87 191.94 128.96 221.47 128.96"/><rect class="cls-8" x="173.88" y="117.47" width="31.16" height="31.16" rx="15.58"/><path class="cls-91" d="M191.5,122.39a15.45,15.45,0,0,0-5,0c-2.12.37-2.5,1.15-2.5,2.6v1h5v1.52h-6.88a3.13,3.13,0,0,0-3.12,2.54,9.33,9.33,0,0,0,0,5.08c.35,1.47,1.2,2.53,2.65,2.53h1.72v-2.28a3.18,3.18,0,0,1,3.13-3.11h5a2.52,2.52,0,0,0,2.51-2.54V125A2.81,2.81,0,0,0,191.5,122.39Zm-5.3,2.75a.92.92,0,1,1,.9-.91A.91.91,0,0,1,186.2,125.14Z"/><path class="cls-89" d="M199.87,130.83c-.36-1.44-1-2.53-2.5-2.53H195.5v2.22a3.21,3.21,0,0,1-3.13,3.17h-5a2.55,2.55,0,0,0-2.49,2.54V141c0,1.36,1.18,2.15,2.49,2.54a8.42,8.42,0,0,0,5,0c1.26-.36,2.5-1.1,2.5-2.54v-1h-5v-1.54h7.49c1.46,0,2-1,2.5-2.54A8.51,8.51,0,0,0,199.87,130.83Zm-7.61,10.1a.92.92,0,1,1-.9.92A.91.91,0,0,1,192.26,140.93Z"/><path class="cls-92" d="M185.31,134.82a2.55,2.55,0,0,0-.43,1.41V141c0,1.36,1.18,2.15,2.49,2.54a8.42,8.42,0,0,0,5,0c1.26-.36,2.5-1.1,2.5-2.54v-1h-5v-1.54h7.49c1.46,0,2-1,2.5-2.54a8.51,8.51,0,0,0,0-5.08c-.36-1.44-1-2.53-2.5-2.53H195.5v2.22a3.21,3.21,0,0,1-3.13,3.17h-5a2.37,2.37,0,0,0-1.09.26"/><line class="cls-93" x1="187.82" y1="131.88" x2="190.97" y2="131.88"/><path class="cls-93" d="M183.24,134.1a3.2,3.2,0,0,1,2.95-2.18"/><line class="cls-94" x1="183.47" y1="127.98" x2="187.97" y2="127.98"/><path class="cls-92" d="M181.38,127.62a3.12,3.12,0,0,0-2.37,2.46,9.33,9.33,0,0,0,0,5.08c.35,1.47,1.2,2.53,2.65,2.53h1.72v-2.28a3.18,3.18,0,0,1,3.13-3.11h5a2.52,2.52,0,0,0,2.51-2.54V125a2.81,2.81,0,0,0-2.51-2.6,15.45,15.45,0,0,0-5,0c-2.12.37-2.5,1.15-2.5,2.6v1h5v1.52h-6.26"/><rect class="cls-30" x="173.88" y="117.47" width="31.16" height="31.16" rx="15.58"/><path class="cls-51" d="M261.26,143.88s4.22,4.59,3,14.87"/><path class="cls-51" d="M273,143.71s3.12,5.85.2,15.78"/><path class="cls-8" d="M263.28,147.62s1.05-4.32,3.64-4.4l-5.12.54"/><path class="cls-8" d="M253.65,146.72s8.47-.75,9.23,1.62v-4.55Z"/><path class="cls-30" d="M267.84,143.1a29,29,0,0,0-6.58.78,48.52,48.52,0,0,0-15.41,6.45"/><path class="cls-30" d="M277.92,161.2s-1.85-1.85-20.12-1.85"/><polygon class="cls-8" points="271.04 143.51 273.37 146.29 275.81 143.51 271.04 143.51"/><line class="cls-30" x1="276.07" y1="143.22" x2="271.04" y2="143.11"/><path class="cls-6" d="M266.89,159.77s3.61,10.08,11.15,10.08v13.92c-16.64,0-18.27-24.28-18.27-24.28Z"/><polyline class="cls-30" points="225.73 128.96 278.04 128.96 278.04 174.29"/><path class="cls-30" d="M187,187.55V176.71"/><path class="cls-30" d="M282.42,136.41v51.14"/><path class="cls-30" d="M210.84,123.58H280a2.44,2.44,0,0,1,2.42,2.46v6.3"/></g></g></svg>