<?xml version="1.0" encoding="utf-8"?>
<!-- Generator: Adobe Illustrator 24.3.0, SVG Export Plug-In . SVG Version: 6.00 Build 0)  -->
<svg version="1.1" id="Layer_1" xmlns="http://www.w3.org/2000/svg" xmlns:xlink="http://www.w3.org/1999/xlink" x="0px" y="0px"
	 viewBox="0 0 2038.4 1950.3" style="enable-background:new 0 0 2038.4 1950.3;" xml:space="preserve">
<style type="text/css">
	.st0{fill:#ECAC77;}
	.st1{fill:#FDCC91;}
	.st2{fill:#6F6575;}
	.st3{fill:#625768;}
	.st4{fill:#504656;}
	.st5{opacity:0.34;}
	.st6{fill:#C8E8EB;}
	.st7{fill:#70BF44;}
	.st8{fill:#539627;}
	.st9{opacity:0.14;}
	.st10{fill:#B1C8E5;}
	.st11{opacity:0.45;}
	.st12{fill:none;stroke:#539627;stroke-width:3;stroke-miterlimit:10;}
	.st13{fill:#F5BE67;}
	.st14{opacity:0.32;fill:#F2A83D;enable-background:new    ;}
	.st15{fill:#F99E19;}
	.st16{fill:#1B3331;}
	.st17{fill:#FDC6A2;}
	.st18{opacity:0.52;}
	.st19{fill:#FF9976;}
	.st20{fill:#F8A121;}
	.st21{fill:none;stroke:#C67305;stroke-width:2;stroke-miterlimit:10;}
	.st22{opacity:0.34;fill:#E0860E;enable-background:new    ;}
	.st23{fill:#52B5B2;}
	.st24{opacity:9.000000e-02;fill:#FF9976;enable-background:new    ;}
	.st25{fill:#C67305;}
	.st26{fill:#71A0D3;}
	.st27{fill:#8FEAE9;}
	.st28{opacity:0.3;}
	.st29{opacity:0.3;fill:#71A0D3;enable-background:new    ;}
	.st30{opacity:0.23;fill:#FFFFFF;enable-background:new    ;}
	.st31{opacity:0.16;fill:#FFFFFF;enable-background:new    ;}
	.st32{fill:#F2A83D;}
	.st33{fill:#302835;}
	.st34{opacity:0.41;}
	.st35{fill:#FFBE69;}
	.st36{fill:#0B1615;}
	.st37{opacity:0.24;fill:#FF9976;enable-background:new    ;}
	.st38{fill:#FFFFFF;}
	.st39{opacity:0.53;}
	.st40{opacity:0.1;fill:#FFFFFF;enable-background:new    ;}
	.st41{fill:none;stroke:#539627;stroke-width:5;stroke-linecap:round;stroke-linejoin:round;}
	.st42{fill:#E0860E;}
	.st43{fill:none;stroke:#C67305;stroke-width:2;stroke-linecap:round;stroke-linejoin:round;stroke-miterlimit:10;}
</style>
<path class="st0" d="M2036.1,1849.4l0.5-66.3l-71.2,19.4c-126.7-43.6-411.9-82-759.4-100.5c-59.6-3.2-121.1-5.7-183.9-7.6
	C460,1677.2,2.6,1719.8,0.5,1789.5s451.9,140,1014,157c62.8,1.9,124.3,3.1,184,3.5c465.3,3.6,821.5-35.3,837.1-95.1l0.1-1l0.4-1.3
	c0-0.4,0.1-0.9,0.1-1.3C2036.2,1850.6,2036.1,1850,2036.1,1849.4z"/>
<path class="st1" d="M2036.1,1849.4c0.1,0.6,0.1,1.3,0.1,1.9c0,0.4-0.1,0.9-0.1,1.3l-0.3,1.3l-0.1,1
	c-15.6,59.8-371.8,98.7-837.1,95.1c-59.7-0.5-121.2-1.6-184-3.5c-562.2-17.1-1016.1-87.3-1014-157c0.2-5.8,3.5-11.4,9.7-16.8
	c68.6,63.3,491.5,123.2,1004.3,138.7c62.8,1.9,124.3,3.1,184,3.5c465.3,3.6,821.5-35.3,837.1-95.1h0.4v-2.3c0-0.4,0.1-0.9,0.1-1.3
	c0-0.6,0-1.3-0.1-1.9l0.2-31.2l0.3-0.1L2036.1,1849.4z"/>
<path class="st2" d="M2036.6,1783c0,61.9-359.7,113.4-834.3,124.1c-59.7,1.3-121.2,2.1-184,2.1C455.9,1909.2,0,1852.7,0,1783
	s455.9-126.2,1018.3-126.2c62.8,0,124.4,0.7,184,2.1C1676.9,1669.6,2036.6,1721.1,2036.6,1783z"/>
<ellipse class="st3" cx="1202.4" cy="1783" rx="834.3" ry="124.1"/>
<path class="st4" d="M2038.4,1783c0,61.9-359.7,113.4-834.3,124.1c-18.9-0.4-37.6-0.9-56.1-1.5c446.5-13.4,778.2-63.2,778.2-122.7
	s-331.7-109.3-778.2-122.7c18.5-0.5,37.2-1,56.1-1.5C1678.7,1669.6,2038.4,1721.1,2038.4,1783z"/>
<g class="st5">
	<path class="st6" d="M696.9,446.1c-73-8.5-144.4-27.5-212-56.3c-7-3-15.3-9.5-11.9-16.3c1.5-3,4.9-4.5,8-5.8l46.2-18.7l-21.6-18.9
		c16.2,2.3,28.1-17.9,24.3-33.9s-17.2-27.5-29.9-37.8c-12-9.7-24.1-19.4-36.2-28.9c-4.7-3.7-9.6-7.7-11.9-13.2
		c-7-17.1,14.6-34.6,11.3-52.8c-2.7-15-20.2-21.5-34.9-25.3l-76.7-19.7c-21.1-5.4-46.8-16.5-46.5-38.2c0.2-23.3,29.6-33,52.8-36.1
		l108.5-14.4c16.7-2.2,33.8-4.4,50.2-0.7c16.4,3.7,32.3,14.6,37.1,30.7c4,13.3,0,27.8,2.8,41.4c4.3,20.8,23.2,34.9,40.6,46.9
		l75.2,51.9c12.7,8.8,25.4,17.6,39.4,24.1c20.7,9.7,43.5,14.2,66.2,17.7c23.8,3.6,48,6.2,71.8,3.4c12.9-1.5,25.9-4.6,38.7-2.4
		c10.6,1.8,20.1,7.2,29.6,12.2c130,68.9,283.1,93.1,428,67.8c-5.6,8.6-15.8,12.6-25.6,15.8c-82.8,26.9-171.5,27.2-258.5,27.2h-129
		c-16.5,0-33.3,0-49.3,4.1c-16.1,4.1-31,12.1-45.5,20.5c-31.5,18.3-61.7,38.6-90.5,60.9"/>
</g>
<path class="st6" d="M847.1,173.1c20.5,20.5,57,21.8,78.9,2.8c9.7-8.5,17.8-20.8,30.5-22.7c10.3-1.5,20.1,4.5,30.3,6.8
	c15.8,3.6,32-1.9,47.7-6c37.1-9.6,76.6-11.2,113.5-1.1c20.2,5.5,39.7,14.6,60.6,15.8c24.1,1.4,48.2-7.7,72-4.3
	c18.2,2.6,34.4,12.2,51.2,19.6c26.8,11.8,55.7,18.3,85,19.1c15.3,0.4,30.8-0.8,45.8,1.8c37.7,6.6,73.5,36.4,109.9,24.6
	c-21.5,8.7-45.3,8.9-68.4,9c-344.6,0.8-689.2-1-1033.8-5.4"/>
<path class="st6" d="M733.5,291.9c-243.1,7.9-486.4,7.5-729.7-1.4l77.7-9.1c44.3-5.2,89.2-10.6,130.1-28.2
	c38.8-16.8,75.7-44.8,117.9-42.5c17.1,0.9,33.6,6.9,50.6,9s36.3-0.7,47.3-13.9c5.6-6.7,8.6-15.4,15.2-21.1
	c14.2-12.1,37.1-4.3,53.4-13.2c14.2-7.7,23.1-27.5,39.2-26.1c7.3,0.6,14,6,21.2,4.9c7-1,11.7-7.4,16.4-12.7
	c17.6-19.9,43.7-30.1,70.2-27.4"/>
<path class="st7" d="M489.9,838.9c-39.9-14.4-80.1-29-116.6-50.8s-69.4-51.4-88.2-89.5c-36.7-74.1-7.9-182,47.6-243.3
	c14,49.9,35.1,98.5,67.8,138.6s77.8,71.5,128.7,81.5"/>
<path class="st8" d="M308.8,549.7c-1.8,11.6-2.1,23.4-1.1,35.1c1,10.9,3.3,21.6,6.8,32c3.5,10.2,8.1,20,13.7,29.2
	c5.6,9.3,12.1,18.1,19.2,26.3c7.2,8.3,14.9,16.1,23.1,23.4c8.5,7.6,17.5,14.8,26.8,21.6s18.6,13.1,28.2,19.2s19.2,11.7,29,17.3
	c9.5,5.4,19.1,10.6,28.8,15.8c9,4.8,18.1,9.6,27.2,14.3l6.3,3.3c2.1,1.3,4.9,0.6,6.2-1.5s0.6-4.9-1.5-6.2c0,0-0.1,0-0.1-0.1
	c-8.8-4.7-17.7-9.3-26.5-14c-9.4-5-18.8-10-28.1-15.2c-9.7-5.4-19.4-11-28.9-16.8s-19-12-28.2-18.4c-4.6-3.2-9.1-6.5-13.6-9.9
	l-1.6-1.2c0.6,0.5,0.3,0.2-0.1-0.1l-1-0.8l-3.2-2.5c-2.2-1.8-4.4-3.5-6.5-5.3c-8.4-7-16.3-14.5-23.8-22.5c-3.6-3.9-7.1-7.9-10.4-12
	l-1.2-1.5l-0.6-0.8l-0.3-0.3c-0.4-0.5,0.5,0.7,0.2,0.2c-0.8-1.1-1.6-2.1-2.4-3.2c-1.5-2.1-3-4.2-4.5-6.4c-2.9-4.3-5.6-8.8-8.1-13.4
	c-1.2-2.2-2.4-4.5-3.5-6.9c-0.6-1.2-1.1-2.4-1.6-3.6l-0.8-1.7c-0.1-0.2-0.5-0.9-0.2-0.4s0.1,0.2,0,0s-0.2-0.4-0.3-0.7
	c-4-9.6-6.8-19.7-8.5-30c-0.1-0.6-0.2-1.3-0.3-1.9c0-0.3-0.1-0.6-0.1-0.9c-0.1-0.6,0.1,0.9,0,0.3c0-0.2,0-0.4-0.1-0.6
	c-0.2-1.3-0.3-2.7-0.5-4.1c-0.3-2.7-0.4-5.4-0.5-8.1c-0.2-5.7,0-11.3,0.4-17c0.1-1.4,0.3-2.7,0.4-4.1c0.1-0.7,0.2-1.4,0.3-2.1
	l0.1-0.5c0.1-0.6-0.1,0.8,0,0.2c0.1-0.4,0.1-0.8,0.2-1.2c0.3-2.3-0.6-5-3.1-5.5C312.3,546.1,309.2,547.2,308.8,549.7L308.8,549.7z"
	/>
<ellipse class="st2" cx="1015.7" cy="1746.3" rx="339.2" ry="42.1"/>
<g class="st9">
	<path class="st10" d="M633.1,1339.2c-40.2-70.2-123.5-101.7-183.3-156.2c-50.1-45.9-83-107.6-93.3-174.8
		c-9.7-64.5,2.1-131.2-10.7-195.2c-7.5-37.5-23.3-73.8-23.1-112c0.2-47.9,25.5-91.8,52.4-131.4c26-38.3,57.2-77.1,101.3-90.8
		c39-12.1,81.4-2.4,119.9,11.3c79.6,28.4,152.2,73.3,230.4,105.4c69.5,28.5,142.7,46.7,217.4,54.1c43.3,4.2,89.1,5.5,126.1,28.4
		c74.6,46.2,76.7,152.2,117.6,229.8c13.9,26.4,33.4,51.3,36.7,81c6.6,58.6-50.8,104-105.3,126.3s-117.5,38-151.1,86.6
		c-21.9,31.7-27.5,73-51.7,103c-42.1,52.2-137.8,43.2-169.4-16c-16.7-31.2-16-68.3-18-103.6c-1.9-33.5-6.6-66.8-14-99.6
		c-5.2-23-11.9-46.2-26.2-64.9s-37.8-31.9-61-28.3c-25.5,4-44.4,27.3-51.3,52.2c-6.9,24.8-4,51.2-1.1,76.8"/>
</g>
<path class="st7" d="M1038.1,954.4c-15.1-42.7-7.7-90,3.5-133.9s26-87.8,25.4-133.1c-0.3-25.1-5.4-49.9-5.6-75s5.4-51.7,23-69.6
	c11.8,32.9,22.4,66.1,31.9,99.7c4.8,17,9.4,34.3,10.6,52c1.7,23.6-2.6,47.2-6.1,70.7c-9.5,63.1-12.8,131.6,19.5,186.7"/>
<g class="st11">
	<path class="st8" d="M1140.2,952l-102.1,2.5l-0.3-0.7l71.1-1.7c-32.3-55-29.1-123.6-19.5-186.7c3.5-23.4,7.8-47,6.1-70.7
		c-1.2-17.7-5.8-34.9-10.6-52c-6.1-21.5-12.7-42.9-19.7-64.2c3.4-13.3,9.5-25.8,19.1-35.6c11.8,32.9,22.4,66.1,31.9,99.7
		c4.8,17,9.4,34.3,10.6,52c1.7,23.6-2.6,47.2-6.1,70.7C1111.1,828.4,1107.9,896.9,1140.2,952z"/>
</g>
<path class="st12" d="M1078.5,748.6c-13.8,49.5-1.2,204.7,35,211.7"/>
<path class="st7" d="M1090.5,951.5c-12.6-43.5-2.6-90.3,11-133.5s30.9-86.2,32.8-131.5c1.1-25-2.6-50.1-1.4-75.2s8.3-51.3,26.8-68.2
	c9.9,33.5,18.6,67.3,26.2,101.4c3.9,17.3,7.4,34.8,7.7,52.5c0.3,23.7-5.2,47-10.1,70.2c-13.1,62.5-20.2,130.7,9,187.5"/>
<g class="st11">
	<path class="st8" d="M1192.6,954.8l-102.1-3.3c-0.1-0.3-0.1-0.5-0.2-0.8l71.1,2.3c-29.2-56.8-22.1-125-9-187.5
		c4.8-23.2,10.4-46.5,10.1-70.2c-0.2-17.7-3.8-35.2-7.7-52.5c-4.9-21.8-10.2-43.6-16-65.2c4.2-13.1,10.9-25.2,21-34.4
		c9.9,33.5,18.6,67.3,26.2,101.4c3.8,17.3,7.4,34.8,7.7,52.5c0.3,23.7-5.2,47-10.1,70.2C1170.5,829.7,1163.4,898,1192.6,954.8z"/>
</g>
<path class="st12" d="M1142.4,748.3c-16.6,48.6-12.7,204.3,23.1,213.4"/>
<path class="st7" d="M995,957.7c-18.7-41.3-15.3-89-7.9-133.7s18.4-89.7,13.9-134.8c-2.5-24.9-9.7-49.2-12-74.2s1-51.9,16.9-71.3
	c14.5,31.8,27.9,64,40.3,96.6c6.3,16.6,12.3,33.4,15,50.9c3.7,23.4,1.4,47.3-0.1,70.9c-4.1,63.7-1.5,132.3,35.4,184.4"/>
<g class="st11">
	<path class="st8" d="M1096.5,946.5L995,957.7l-0.3-0.7l70.7-7.8c-36.9-52.1-39.5-120.6-35.4-184.4c1.5-23.7,3.8-47.5,0.1-70.9
		c-2.8-17.5-8.8-34.3-15-50.9c-7.9-20.9-16.3-41.7-25.1-62.2c2.3-13.6,7.2-26.5,16-37.1c14.5,31.7,27.9,64,40.3,96.6
		c6.3,16.6,12.3,33.4,15,50.9c3.7,23.4,1.4,47.3-0.1,70.9C1057,825.9,1059.6,894.4,1096.5,946.5z"/>
</g>
<path class="st12" d="M1017.7,749.2c-9.5,50.5,16.3,204,53,208"/>
<path class="st13" d="M1154.2,1166.1H822.6V923h373.6c16.6,0,30,13.5,30,30c0,1.6-0.1,3.2-0.4,4.8l-28.2,171.4
	C1194.1,1150.5,1175.8,1166.1,1154.2,1166.1z"/>
<path class="st14" d="M1225.8,957.9l-28.2,171.4c-3.5,21.2-21.9,36.8-43.4,36.8h-28.4c21.5,0,39.9-15.6,43.4-36.8l28.2-171.4
	c2.7-16.3-8.4-31.8-24.7-34.5c-1.6-0.3-3.2-0.4-4.8-0.4h28.4c16.6,0,30,13.5,30,30C1226.2,954.7,1226.1,956.3,1225.8,957.9z"/>
<rect x="867.1" y="962.1" class="st15" width="377.4" height="12.9"/>
<rect x="859.7" y="1005.2" class="st15" width="377.4" height="12.9"/>
<rect x="850.8" y="1047.1" class="st15" width="377.4" height="12.9"/>
<rect x="838.7" y="1089" class="st15" width="377.4" height="12.9"/>
<rect x="835.8" y="1122.9" class="st15" width="377.4" height="12.9"/>
<rect x="896.9" y="1099.5" class="st16" width="375.5" height="23.4"/>
<polygon class="st16" points="1250.5,1753.1 1190.6,1110.7 1213.7,1106.7 1273.6,1749.1 "/>
<polygon class="st16" points="871.1,1760.4 931.1,1118 908,1114.1 848,1756.5 "/>
<path class="st17" d="M1013.8,974.2c-12.4,43.3,24.3,89.9,10.4,132.7c-8.3,25.5-32.3,41.9-54.8,56.5c-7.2,4.7-17.2,9.3-23.8,3.7
	c-4.8-4.2-4.6-12.1-1.2-17.6s9-9,14.4-12.4c13.8-8.9,27.5-19,35.8-33.2c2.6-4.4,4.7-9.6,3.5-14.5s-6.8-9.1-11.4-7
	c-6.6,3-5.7,14.4-12.4,17.1c-5.5,2.1-11.1-4-11.2-9.9s3.3-11.1,5.7-16.4c16.2-35.1-4.2-80.8,17.3-113"/>
<path class="st17" d="M498.4,979.5c14.9,42.5-19,91.2-2.5,133.1c9.8,24.9,34.7,40,58,53.2c7.5,4.3,17.8,8.3,24,2.3
	c4.6-4.4,3.9-12.4,0.2-17.6s-9.5-8.4-15.1-11.6c-14.3-8.1-28.5-17.3-37.7-31c-2.8-4.2-5.2-9.3-4.4-14.3s6.2-9.5,11-7.7
	c6.8,2.6,6.5,14.1,13.4,16.3c5.6,1.8,10.8-4.7,10.6-10.6s-3.9-10.9-6.7-16.1c-18.2-34.1-0.6-81-23.9-111.8"/>
<g class="st18">
	<path class="st19" d="M539.4,1025.6c-11.1,2.8-22.9,2.5-34.4,1.7c-1.7-0.1-3.4-0.3-5-0.4c1.4-7.7,2.1-15.4,2.2-23.2l2.8,0.2
		c11.1,0.8,22.5,1.1,33.2-1.4C538.9,1010.1,539.1,1017.8,539.4,1025.6z"/>
</g>
<g class="st18">
	<path class="st19" d="M975.4,1022.9c11.2,2.1,23,1.2,34.4-0.3c1.7-0.2,3.3-0.5,5-0.7c-1.8-7.6-3-15.3-3.5-23l-2.8,0.4
		c-11,1.4-22.4,2.4-33.2,0.5C975.1,1007.3,975.3,1015.1,975.4,1022.9z"/>
</g>
<path class="st20" d="M596.3,603.9c-35.2,101.7-46.8,212.8-33.4,320.4c0.4,3.1,0.8,6.2,1.3,9.4l40.4,456.4l15.3,354.2
	c1.1,15.3,12.9,27.2,27.1,27.2h41c14.1,0,25.8-11.6,27-26.8l21-339.6l23.1-203.4l29.8,540.8c0.8,15.2,12.2,27.1,26.2,27.6l38.2,1.3
	c14.4,0.5,26.7-11.3,27.9-26.9l67.7-855.2"/>
<polyline class="st21" points="648.5,1761.1 640.3,1378.7 607.2,990.7 "/>
<polyline class="st21" points="876.3,1761.1 884.5,1378.7 917.6,990.7 "/>
<path class="st22" d="M942.4,986.7l-8,101.7c-40.5,12.2-88,19.1-138.6,19.1c-91.2,0-171.9-22.6-221-57.3l-7.3-80.7
	c3.9,11.4,24.3,22.5,33.1,30.8c17.8,16.8,30.5,32,54.8,34.8c56.9,6.6,114.4,13.2,171.3,6.8C870.4,1036.8,916.5,1021.9,942.4,986.7z"
	/>
<path class="st23" d="M659.1,430.6c3.3-1.1,160.7-56.8,242,32.2s-187.7,53.6-187.7,53.6L659.1,430.6z"/>
<path class="st17" d="M712.5,444.2c11.2-32.1,19.6-65.1,25.3-98.6c19.8,16.7,45.9,23.8,71.4,19.4c2-0.4,4.2-0.7,5.9,0.3
	c1.2,0.9,2.1,2.1,2.5,3.6c2.8,7.3,2.1,15.5,2.4,23.3c0.7,19,7.8,37.2,11.3,55.9c0.6,3.2,1.1,6.6-0.1,9.6c-1.5,3.9-5.4,6.2-9.1,8
	c-34.8,16.8-76,8.1-113.6-0.9"/>
<path class="st24" d="M831.8,457.4c-1.1,2.5-3,4.6-5.4,6c-26.9-25.5-46.5-60-59.1-87.8c5.3,1,10.6,1.5,16,1.5c1.5,0,3,0,4.5-0.1
	c10.6-0.5,21.1-3,30.9-7.2c2.3,7,1.7,14.7,1.9,22.2c0.5,12.8,3.8,25.2,7.1,37.7c1.6,6,3.1,12.1,4.3,18.2
	C832.5,451,833,454.4,831.8,457.4z"/>
<path class="st25" d="M760.3,1209.4c7.1-20.6,12.2-41.9,15.1-63.5c3.1-22.3,4.1-44.9,3.1-67.4c-0.6-12.6-1.9-25.1-4-37.5
	c-0.3-1.8-3.1-1-2.8,0.8c3.6,22,5,44.3,4.1,66.6c-0.8,22.2-3.6,44.3-8.4,66c-2.6,11.6-5.9,23.1-9.8,34.3
	C756.9,1210.4,759.7,1211.2,760.3,1209.4L760.3,1209.4z"/>
<path class="st25" d="M780,1138.2c7.1-0.5,14.6-1.3,20.8-5.1c3-1.8,5.4-4.4,7-7.4c2.1-4.1,2.6-8.8,3.2-13.2
	c2.6-19.8,5.2-39.8,4.5-59.9c-0.3-11.1-1.8-22.1-4.6-32.8c-0.2-0.6-0.8-1-1.5-0.8c-0.6,0.2-1,0.8-0.8,1.5l0,0
	c5,18.5,5.3,37.8,4,56.8c-0.7,9.5-1.8,19-3,28.5c-0.4,4.7-1.1,9.4-2.1,14c-0.8,3.8-2.7,7.2-5.6,9.8c-5.9,5.1-14.4,5.9-21.8,6.4
	C778.5,1136,778.5,1138.3,780,1138.2L780,1138.2z"/>
<path class="st25" d="M582.1,1113.7c14.4-1.9,27-10.4,35.9-21.7c10.1-12.9,14.9-29.1,15.6-45.3c0.4-9.7-0.5-19.5-2.8-29
	c-0.4-1.8-3.2-1-2.8,0.8c3.7,16.1,4,33.1-0.8,49c-4.1,13.8-12.4,26.6-24.3,35c-6.2,4.4-13.4,7.3-20.9,8.4
	C580.3,1111.1,580.3,1114,582.1,1113.7L582.1,1113.7z"/>
<path class="st25" d="M889.8,1012.8c-3.2,13.7-1.8,28,4,40.8c5.6,12.4,15.6,22.3,28,27.8c6.8,3,14.1,4.4,21.5,4.2
	c1.8,0,1.9-2.9,0-2.9c-12.7,0.2-25-4.5-34.3-13.1c-9.7-8.8-15.6-21-17.4-33.9c-1.1-7.4-0.7-15,1-22.2
	C893,1011.8,890.2,1011,889.8,1012.8L889.8,1012.8z"/>
<path class="st26" d="M458.8,952c0.5,9.5,1,19.2,3.7,28.3s7.8,17.9,15.8,23.2s18.2,6.6,27.9,7.3c14.9,1.1,30.5,1.2,44.1-5
	s24.6-20.3,22.8-35.2c-1.5-12-10.9-23.4-7.2-34.9"/>
<path class="st26" d="M1048.4,948.8c0,9.5,0,19.2-2.2,28.5s-6.8,18.3-14.5,24s-17.8,7.5-27.4,8.8c-14.8,1.9-30.4,2.8-44.3-2.6
	s-25.7-19-24.6-33.9c0.9-12,9.7-24,5.3-35.2"/>
<path class="st10" d="M959.4,988.9h-2"/>
<path class="st10" d="M578.5,960.4c-1,1.2-2.1,2.3-3.2,3.4"/>
<path class="st27" d="M1055,915c-1.4,15.4-3.6,31.5-12.4,44.3c-17.9,26.1-54.5,28.7-86.3,28.2c-0.8,1.2-1.5,2.4-2.4,3.6
	c-25.5,37-72.8,52.5-117.4,57.5c-57.4,6.5-115.4,6.5-172.8,0.1c-24.3-2.8-49-13.2-66.8-30c-15.2-14.3-21.3-35.3-24.7-56.2
	c-26.2,25.9-70.5,23.3-106.6,12.8c-8-2.3-16.3-5.2-21.8-11.4c-7.7-8.6-8.1-21.3-8-32.8c1.2-149,29.2-305.8,122.8-421.8
	c31.3-38.8,68.9-73.1,117.7-83.3c5.8-1.2,11.9-2.1,17.6-0.4c6.7,2,11.9,7.1,17.4,11.4c22.7,17.8,52.3,24.2,80.4,17.2
	c24.9-6.4,49.2-23.4,74.2-16.9c14.3,3.7,25.4,14.6,35.5,25.5C1012.3,583.2,1069.7,751.7,1055,915z"/>
<g class="st28">
	<path class="st26" d="M942.9,1004.7c-26.8,27.4-67.5,39.6-106.2,44c-57.4,6.5-115.4,6.5-172.8,0.1c-24.3-2.8-49-13.2-66.8-30
		c-15.2-14.3-21.3-35.3-24.7-56.2c-26.2,25.9-70.5,23.3-106.6,12.8c-8-2.3-16.3-5.2-21.8-11.4c-7.7-8.6-8.1-21.3-8-32.8
		c0.2-24.2,1.1-48.7,2.9-73.2c20.5,51.7,79,77,130.6,56.5c1.4-0.5,2.8-1.1,4.1-1.7c6.9,21,24,37.6,43.5,48s41.4,15.7,63.1,20.1
		C766.5,998.6,854.7,1006.6,942.9,1004.7z"/>
</g>
<g class="st28">
	<path class="st26" d="M1054.6,915c-1.4,15.4-3.6,31.5-12.4,44.3c-10.3,15-26.8,22.2-45,25.6c6.7-13.7,8.7-30,9.9-45.7
		c14.2-180.5-39.7-366.5-145-502.5c1,0.2,2.1,0.4,3.1,0.7c14.3,3.7,25.4,14.6,35.5,25.5C1011.8,583.2,1069.2,751.7,1054.6,915z"/>
</g>
<path class="st23" d="M967.4,851.9c3.3,18.3,6,36.9,6.7,55.5c0.7,18.2-0.5,36.8-5.7,54.3c-2.8,9.7-7,19-12.3,27.6
	c-1,1.6,1.6,3.2,2.6,1.5c9.8-15.6,15.1-33.4,17.3-51.6c2.3-18.8,1.4-37.8-0.9-56.5c-1.2-10.6-2.9-21.2-4.8-31.7
	C969.9,849.2,967,850,967.4,851.9L967.4,851.9z"/>
<path class="st23" d="M571.3,963.2c-5.2-26.2-7.7-53-8.8-79.7c-1.1-28.1-0.6-56.2,1-84.3c1.6-26.7,4.1-53.4,7.7-80
	c3-22.2,6.7-44.4,11.4-66.4c3.1-14.7,6.6-29.7,11.9-43.8c0.4-1,0.9-2.2,1.3-3.2c0.7-1.8-1.8-3.3-2.6-1.5c-5.5,13-8.8,27-11.9,40.7
	c-4.8,21.4-8.6,43-11.7,64.7c-3.8,26.3-6.6,52.6-8.4,79.1c-1.9,28.3-2.8,56.7-2,85c0.7,27.1,2.9,54.3,7.5,81
	c0.5,3.1,1.1,6.1,1.7,9.2C568.7,965.9,571.6,965.1,571.3,963.2L571.3,963.2z"/>
<path class="st29" d="M568.8,964.8c-8.4,8.3-18.6,13.6-29.8,16.8c-6.5,1.8-13.3,2.9-20,3.3c-0.3-147.1,52.6-314.7,69.4-364.2
	C576,662,560.9,751.2,559.5,840.5C558.8,883.7,561.3,926.9,568.8,964.8z"/>
<ellipse class="st30" cx="378.7" cy="607.6" rx="36.1" ry="48.6"/>
<ellipse class="st30" cx="539.4" cy="574.2" rx="50.8" ry="68.4"/>
<ellipse class="st30" cx="620.4" cy="516.4" rx="21" ry="24.7"/>
<ellipse class="st4" cx="1691.4" cy="1776" rx="250.6" ry="70.1"/>
<ellipse class="st4" cx="468.9" cy="1836.5" rx="195.4" ry="7.9"/>
<ellipse class="st4" cx="395.2" cy="1794.4" rx="195.4" ry="7.9"/>
<ellipse class="st31" cx="1236.8" cy="1782.1" rx="22.2" ry="12"/>
<ellipse class="st4" cx="1542.4" cy="1828.6" rx="50.8" ry="21"/>
<ellipse class="st4" cx="1540.6" cy="1712.9" rx="27.7" ry="11.5"/>
<ellipse class="st4" cx="559.1" cy="1825.1" rx="22.2" ry="9.7"/>
<ellipse class="st32" cx="1128.2" cy="1151.2" rx="21" ry="7.9"/>
<ellipse class="st32" cx="1174" cy="1071.1" rx="10.8" ry="5"/>
<ellipse class="st32" cx="1171.4" cy="1029.1" rx="11.1" ry="3.8"/>
<ellipse class="st32" cx="1136.9" cy="1068.2" rx="3.5" ry="3.2"/>
<ellipse class="st25" cx="650.2" cy="1062.1" rx="6.4" ry="9.3"/>
<ellipse transform="matrix(0.8295 -0.5585 0.5585 0.8295 -441.125 672.8774)" class="st25" cx="881.6" cy="1059" rx="6.4" ry="9.3"/>
<circle class="st25" cx="793.8" cy="1071" r="6.6"/>
<circle class="st25" cx="793.4" cy="1094.4" r="6.6"/>
<circle class="st25" cx="792.2" cy="1116.6" r="6.6"/>
<path class="st33" d="M802.8,1785v37.5c0,9.9,4.8,19.1,12.9,24.8l61.6,43.3c5.1,3.6,11.2,5.5,17.4,5.5h32
	c16.7,0,30.3-13.6,30.3-30.3l0,0c0-9.6-4.5-18.6-12.2-24.3l-101.4-52.3"/>
<path class="st33" d="M696.9,1784.7v37.5c0,9.9-4.8,19.1-12.9,24.8l-61.6,43.3c-5.1,3.6-11.2,5.5-17.4,5.5h-32
	c-16.7,0-30.3-13.6-30.3-30.3l0,0c0-9.6,4.5-18.6,12.2-24.3l101.4-75.3"/>
<g class="st34">
	<path class="st35" d="M657.2,1267.7c0,11.8-16.1,18.3-26.5,12.9s-15.2-18-16.2-29.8s0.8-23.7-0.8-35.4c-1.9-14.5-9-28.9-5.8-43.2
		c2.3-10,9.4-18.3,18.9-22.2c12.2-4.8,26.5-1.4,37.5,5.8s19.3,17.8,27.2,28.3c7.8,10.3,15.6,24.1,9,35.2c-5,8.4-16,10.8-23,17.7
		c-14.9,14.6-6.1,42.7-20.3,58.1c-9.7,10.6-27.9,10.2-39,1.1s-15.2-24.8-12.9-39s10.4-26.8,20.1-37.4"/>
</g>
<g class="st34">
	<path class="st35" d="M631.7,1316.7c3.3,0.5,6.6,0.3,9.8-0.5c1.7-0.5,3.5-0.6,5.3-0.4c4.4,0.9,7.2,5.6,7.5,10.1
		c0.3,6.3-2.9,12.2-8.4,15.4c-5.5,3-12.2,2.9-17.6-0.3c-5.3-3.3-8.7-9-9.1-15.2c-0.2-2.8,0.5-5.9,2.6-7.8
		C624.3,1315.7,628.3,1315.9,631.7,1316.7L631.7,1316.7z"/>
</g>
<circle class="st16" cx="656" cy="68.7" r="33.7"/>
<path class="st16" d="M763.1,287.1c2.9,12.9,1.7,26.6,13.9,31.7s-80.4,20.4-69.2,13.4c-20.5,11.1-49,3.7-61.4-16
	c-3.9-6.2-6.7-13.6-13-17.4c-8.6-5.1-21.8-1.8-27.6-10c-3.7-5.1-2.2-12.1-2.3-18.4c-0.5-18.9-17-35.3-15-54.1
	c1-8.9,6-16.8,10.9-24.3c16.1-24.7,35.2-51.5,64.1-57.4"/>
<path class="st16" d="M709.7,306.6c-18.7-3.3-37,12.1-55.6,8.2c-11.8-2.5-20.5-12-28.3-21.1c-11-12.6-22.4-26-25.7-42.4
	c-3-14.6,0.8-29.7,3.8-44.3c8.7-42.1,11.5-86,28.8-125.4s54.6-74.3,97.5-71.9C751.2,11,771,21,792,22.7c23.3,1.9,49.5-6,68.6,7.5
	c8.3,5.9,13.8,15,21.2,22c6.8,6.4,15.2,10.9,22.3,16.9c22.5,19.1,29.8,54.1,16.6,80.5s-45.4,41.8-74.2,35.4"/>
<path class="st36" d="M702.5,336.6c-11.5,2.7-23.7,1.2-34.2-4.3c-2.1-5.3-3.9-10.7-5.3-16.3c-1.5-5.6-2.6-11.4-3.2-17.1
	c-1.6-13.6-0.4-27.3,3.5-40.5c3.7,19.1,10.7,37.3,20.7,53.9C689.3,321,695.5,329.1,702.5,336.6z"/>
<ellipse class="st17" cx="786.3" cy="224.1" rx="131" ry="151.8"/>
<path class="st37" d="M917.3,224.1c0,83.8-58.7,151.8-131,151.8c-5.5,0-10.9-0.4-16.3-1.2c64.7-9.3,114.7-73.2,114.7-150.6
	s-50-141.3-114.7-150.6c5.4-0.8,10.9-1.2,16.3-1.2C858.6,72.3,917.3,140.3,917.3,224.1z"/>
<circle class="st17" cx="659.1" cy="228" r="30.3"/>
<path class="st38" d="M863.1,273.5c0,20-16.3,49.3-36.3,49.3c-20.1,0-36.3-16.3-36.3-36.3L863.1,273.5z"/>
<g class="st39">
	<path class="st19" d="M676.3,201c5,4.9,13.6,4.3,19.5,0.6s9.9-9.9,13.7-15.8s7.8-12,13.8-15.7c7.6-4.6,17.2-4.6,25.1-8.7
		c10.1-5.1,15.8-15.8,22-25.3c7.9-12.1,17.6-23,28.6-32.4c0.8-0.8,1.8-1.4,2.8-1.9c4.6-1.9,9.2,2.5,12.6,6.1
		c4.8,5,10.3,9.2,16.4,12.4c2.8,1.5,6.2,2.8,9.2,1.8c3.3-1.2,5.1-4.9,5.1-8.4s-1.5-6.8-2.9-10C837.1,92.5,831,81.1,820.5,75
		c-8-4.6-17.5-5.6-26.7-6.4l-31.3-2.9c-2.9-0.4-5.9-0.4-8.8,0.1c-3.2,0.6-6.1,2.3-8.9,3.9c-11.1,6.3-22.4,12.9-30.6,22.7
		c-5,5.9-8.7,12.9-11.9,19.9c-5.2,11.4-9.3,23.2-12.4,35.3"/>
</g>
<path class="st16" d="M641.3,190.3c15.1,3.4,28.3,19.1,43.1,14.3c15.2-4.9,16.5-26.6,28.5-37.1c8-7,20-8.2,27.9-15.4
	c7.4-6.8,9.7-17.7,16.6-25c5.8-6.2,14-9.3,21-14.2c12.1-8.7,19.5-22.5,20-37.3c0.3-11.1-3.9-23-13.2-29.2c-13.5-8.9-31.5-3.1-46.5,3
	"/>
<path class="st16" d="M787.7,58c0.3,11.1,8.9,20.2,18,26.6s19.5,11.4,26.6,19.9c6,7.1,9.5,16.4,16.7,22.3c3.6,3,8,4.9,12,7.5
	c12.9,8.4,21.9,23.6,36.9,27c2.2,0.6,4.6,0.6,6.8-0.1c6-2.3,6.4-10.6,5.1-16.9c-4.8-22.9-18.8-42.7-32.4-61.7"/>
<path class="st19" d="M652,242.8c-3.4-4.6-4.5-10.5-3-15.9c1.6-5.3,4.9-9.9,9.5-13.1c1.5-1.1,0.1-3.7-1.5-2.6
	c-5.2,3.6-9.1,8.8-10.9,14.9c-1.8,6.3-0.6,13,3.3,18.3C650.6,245.8,653.2,244.3,652,242.8z"/>
<path class="st19" d="M647.5,228.1c2.9-0.2,5.8,0.5,8.4,1.9c2.9,1.8,5.2,4.5,6.5,7.7c0.4,0.7,1.3,0.9,2,0.5c0.7-0.4,0.9-1.3,0.5-2
	c-1.6-3.6-4.2-6.7-7.5-8.8c-3-1.7-6.5-2.5-9.9-2.3C645.5,225.2,645.5,228.2,647.5,228.1L647.5,228.1z"/>
<path class="st19" d="M827.5,216.1c-1.1,2-0.3,4,0.5,5.9s1.8,4.1,2.9,6.1c2.1,4,4.7,7.7,7.6,11.2c0.7,0.9,1.5,1.7,2.2,2.6
	c0.4,0.4,0.8,0.8,1.2,1.2c0.3,0.5,0.2,0.6-0.3,1c-1.5,1.6-3.7,2.4-5.6,3.3l-14.2,6.7c-1.7,0.8-0.2,3.4,1.5,2.6l11.3-5.4
	c3.2-1.5,7.2-2.8,9.5-5.6c1.1-1.4,1.5-2.9,0.3-4.3s-2.4-2.6-3.6-4c-2.3-2.8-4.4-5.7-6.2-8.9c-1-1.8-2-3.6-2.8-5.4
	c-0.5-1-0.9-2-1.3-3c-0.3-0.8-0.8-1.9-0.4-2.6c0.9-1.7-1.7-3.2-2.6-1.5L827.5,216.1z"/>
<path class="st16" d="M736.4,201.6c4.4-1.3,8.7-3.1,12.7-5.4c8-4.4,18.2-6,27.7-7.7c5.2-0.9,10.7-2.1,13.2-7
	c1.6-3.4,1.2-7.4-1.2-10.4c-5-6.6-15.5-7.4-23.4-4.4c-6.7,2.6-11.8,7.4-15.7,12.7s-6.8,11-10.4,16.4c-1.4,2-2.8,4-4.1,6L736.4,201.6
	z"/>
<path class="st16" d="M895.7,188.6c-4.6-0.4-9.1-1.3-13.5-2.8c-8.7-2.8-19-2.3-28.7-2c-5.3,0.1-10.9,0.1-14.3-4.2
	c-2.3-3-2.6-7-0.9-10.4c3.6-7.4,13.7-10.4,22.1-9c7.1,1.2,13,4.9,17.9,9.4s8.8,9.5,13.5,14c1.7,1.7,3.5,3.3,5.2,5.1L895.7,188.6z"/>
<ellipse transform="matrix(0.263 -0.9648 0.9648 0.263 335.7391 709.5537)" class="st16" cx="632.3" cy="135" rx="52.1" ry="37.6"/>
<ellipse transform="matrix(0.866 -0.5 0.5 0.866 73.2559 356.8459)" class="st16" cx="702.5" cy="41.7" rx="52.1" ry="37.7"/>
<ellipse transform="matrix(0.866 -0.5 0.5 0.866 87.4585 419.6204)" class="st16" cx="826.8" cy="46.6" rx="49.2" ry="35.5"/>
<ellipse class="st16" cx="776.9" cy="230.4" rx="12.7" ry="18.4"/>
<ellipse class="st16" cx="872" cy="222.5" rx="12.7" ry="18.4"/>
<circle class="st38" cx="788.5" cy="221.8" r="4.5"/>
<circle class="st38" cx="880.4" cy="214.4" r="4.5"/>
<ellipse transform="matrix(0.7457 -0.6663 0.6663 0.7457 105.5438 469.2632)" class="st40" cx="667.5" cy="96.4" rx="39.8" ry="23"/>
<circle class="st40" cx="691.4" cy="42" r="8.8"/>
<path class="st41" d="M285.7,625.7c0,0,24.5,13.4,38.6,4.7"/>
<path class="st41" d="M303.2,674.1c0,0,32.7,12.3,49.1-2.3"/>
<path class="st41" d="M384.1,639.2c0,0,2.9,34.8-15.6,46.6"/>
<path class="st41" d="M428.7,675.5c0,0,6.7,34.3-10.4,48"/>
<path class="st41" d="M345.9,715.9c0,0,33.4,10.3,48.9-5.3"/>
<rect x="820.2" y="1756" class="st33" width="41.2" height="46.4"/>
<path class="st42" d="M879.6,1787.7h-88.1c-4.2,0-7.6-3.4-7.6-7.6c0,0,0,0,0,0l-4-23.4c0-4.2,3.4-7.6,7.6-7.6h97.1
	c4.2,0,7.6,3.4,7.6,7.6l-5,23.4C887.2,1784.3,883.8,1787.7,879.6,1787.7C879.6,1787.7,879.6,1787.7,879.6,1787.7z"/>
<path class="st42" d="M706.5,1786.5h-90.1c-4.2,0-7.6-3.4-7.6-7.6l-3-23.4c0-4.2,3.4-7.6,7.6-7.6c0,0,0,0,0,0h97.1
	c4.2,0,7.6,3.4,7.6,7.6l-4,23.4C714.1,1783.1,710.7,1786.5,706.5,1786.5C706.5,1786.5,706.5,1786.5,706.5,1786.5z"/>
<g>
	<line class="st43" x1="598.5" y1="1759.2" x2="725.8" y2="1759.2"/>
	<line class="st43" x1="602.5" y1="1767" x2="721.8" y2="1767"/>
	<line class="st43" x1="603.5" y1="1775.5" x2="720.8" y2="1775.5"/>
</g>
<g>
	<line class="st43" x1="770.2" y1="1759.2" x2="897.6" y2="1759.2"/>
	<line class="st43" x1="774.2" y1="1767" x2="893.6" y2="1767"/>
	<line class="st43" x1="775.2" y1="1775.5" x2="892.6" y2="1775.5"/>
</g>
</svg>
