<svg width="163" height="163" viewBox="0 0 163 163" fill="none" xmlns="http://www.w3.org/2000/svg">
<path fill-rule="evenodd" clip-rule="evenodd" d="M81 161C124.63 161 160 125.63 160 82C160 38.3695 124.63 3 81 3C37.3695 3 2 38.3695 2 82C2 125.63 37.3695 161 81 161Z" fill="white"/>
<path fill-rule="evenodd" clip-rule="evenodd" d="M81.5 163C126.511 163 163 126.511 163 81.5C163 36.4888 126.511 0 81.5 0C36.4888 0 0 36.4888 0 81.5C0 126.511 36.4888 163 81.5 163ZM81.5 159.024C124.316 159.024 159.024 124.316 159.024 81.5C159.024 38.6845 124.316 3.97561 81.5 3.97561C38.6845 3.97561 3.97561 38.6845 3.97561 81.5C3.97561 124.316 38.6845 159.024 81.5 159.024Z" fill="#6ECFF6"/>
<path d="M35.5 58.5H53.5V63.5H42V70H51V75H42V85H35.5V58.5Z" fill="#6ECFF6"/>
<path d="M62 58.5H68V85H62V58.5Z" fill="#6ECFF6"/>
<path fill-rule="evenodd" clip-rule="evenodd" d="M78 58.5V85H84.5V76H89C93.8325 76 96.5 72.3325 96.5 67.5C96.5 62.6675 93.8325 58.5 89 58.5H78ZM86.25 63.5H84.5V71.5H86.25C88.5972 71.5 90.5 69.8472 90.5 67.5C90.5 65.1528 88.5972 63.5 86.25 63.5Z" fill="#6ECFF6"/>
<path d="M104 58.5H110V76C110 78.4853 112.015 80.5 114.5 80.5H116.5C118.985 80.5 121 78.4853 121 76V58.5H127V76C127 81.5228 122.523 86 117 86H114C108.477 86 104 81.5228 104 76V58.5Z" fill="#6ECFF6"/>
<path d="M24 111.821V99.1729H30.3283C31.5449 99.1729 32.5813 99.3561 33.4376 99.7226C34.2939 100.085 34.9466 100.589 35.3956 101.236C35.8499 101.878 36.077 102.619 36.077 103.459C36.077 104.299 35.8473 105.04 35.3878 105.682C34.9283 106.324 34.2626 106.825 33.3906 107.183C32.5239 107.541 31.4744 107.72 30.2421 107.72H26.2086V105.577H29.6939C30.3466 105.577 30.8844 105.489 31.3073 105.312C31.7355 105.13 32.054 104.881 32.2628 104.564C32.4769 104.243 32.5839 103.875 32.5839 103.459C32.5839 103.039 32.4769 102.673 32.2628 102.36C32.054 102.043 31.7355 101.798 31.3073 101.625C30.8792 101.448 30.3361 101.359 29.6782 101.359H27.3913V111.821H24Z" fill="#808080"/>
<path d="M43.3843 111.821V99.1729H49.7126C50.924 99.1729 51.9578 99.3438 52.8141 99.6855C53.6757 100.023 54.3309 100.503 54.78 101.124C55.2342 101.742 55.4614 102.469 55.4614 103.305C55.4614 104.144 55.2316 104.867 54.7721 105.472C54.3127 106.073 53.6469 106.534 52.775 106.856C51.9082 107.177 50.8587 107.337 49.6265 107.337H45.3893V105.188H49.0782C49.7257 105.188 50.2635 105.118 50.6916 104.978C51.1198 104.838 51.4383 104.628 51.6471 104.348C51.8612 104.068 51.9683 103.72 51.9683 103.305C51.9683 102.885 51.8612 102.53 51.6471 102.242C51.4383 101.954 51.1172 101.736 50.6838 101.588C50.2557 101.435 49.7152 101.359 49.0626 101.359H46.7756V111.821H43.3843ZM52.0466 106.065L56.0331 111.821H52.2894L48.389 106.065H52.0466Z" fill="#808080"/>
<path d="M65.7272 111.821H62.0932L67.6304 99.1729H72.0007L77.5301 111.821H73.8961L69.8782 102.063H69.7529L65.7272 111.821ZM65.5001 106.849H74.084V108.937H65.5001V106.849Z" fill="#808080"/>
<path d="M84.5653 111.821V99.1729H87.9566V104.75H88.168L93.9402 99.1729H98.0051L92.0527 104.836L98.0756 111.821H94.0186L89.6248 106.621L87.9566 108.227V111.821H84.5653Z" fill="#808080"/>
<path d="M113.577 102.81C113.514 102.312 113.246 101.925 112.77 101.649C112.295 101.374 111.65 101.236 110.836 101.236C110.282 101.236 109.815 101.297 109.434 101.421C109.053 101.54 108.76 101.707 108.557 101.921C108.358 102.135 108.259 102.378 108.259 102.65C108.249 102.876 108.309 103.074 108.439 103.243C108.575 103.412 108.76 103.558 108.995 103.681C109.23 103.801 109.502 103.906 109.81 103.996C110.118 104.083 110.447 104.157 110.797 104.219L112.238 104.49C112.938 104.614 113.58 104.778 114.165 104.984C114.749 105.19 115.256 105.443 115.684 105.744C116.112 106.044 116.444 106.399 116.679 106.806C116.919 107.214 117.042 107.681 117.047 108.208C117.042 108.982 116.791 109.653 116.295 110.221C115.804 110.785 115.094 111.224 114.165 111.537C113.24 111.846 112.126 112 110.82 112C109.525 112 108.398 111.844 107.437 111.531C106.481 111.218 105.735 110.755 105.197 110.141C104.664 109.524 104.385 108.76 104.359 107.85H107.64C107.677 108.274 107.831 108.628 108.103 108.912C108.379 109.192 108.747 109.404 109.207 109.548C109.672 109.688 110.196 109.758 110.781 109.758C111.355 109.758 111.854 109.692 112.277 109.561C112.705 109.429 113.037 109.246 113.272 109.011C113.507 108.776 113.624 108.507 113.624 108.202C113.624 107.918 113.517 107.679 113.303 107.486C113.094 107.292 112.786 107.127 112.379 106.991C111.977 106.856 111.483 106.732 110.899 106.621L109.152 106.275C107.8 106.016 106.732 105.61 105.949 105.058C105.166 104.507 104.777 103.764 104.782 102.829C104.777 102.063 105.035 101.394 105.557 100.822C106.084 100.25 106.808 99.8029 107.727 99.4817C108.646 99.1606 109.69 99 110.859 99C112.05 99 113.089 99.1606 113.977 99.4817C114.869 99.8029 115.564 100.25 116.06 100.822C116.556 101.394 116.812 102.057 116.827 102.81H113.577Z" fill="#808080"/>
<path d="M127.197 111.821H123.563L129.1 99.1729H133.471L139 111.821H135.366L131.348 102.063H131.223L127.197 111.821ZM126.97 106.849H135.554V108.937H126.97V106.849Z" fill="#808080"/>
</svg>
