<?xml version="1.0" standalone="no"?>
<!DOCTYPE svg PUBLIC "-//W3C//DTD SVG 20010904//EN"
 "http://www.w3.org/TR/2001/REC-SVG-20010904/DTD/svg10.dtd">
<svg version="1.0" xmlns="http://www.w3.org/2000/svg"
 width="700.000000pt" height="700.000000pt" viewBox="0 0 700.000000 700.000000"
 preserveAspectRatio="xMidYMid meet">
<metadata>
Created by potrace 1.14, written by Peter Selinger 2001-2017
</metadata>
<g transform="translate(0.000000,700.000000) scale(0.100000,-0.100000)"
fill="#000000" stroke="none">
<path d="M3170 6989 c-981 -96 -1877 -599 -2469 -1386 -225 -300 -389 -607
-511 -959 -92 -266 -155 -560 -180 -834 -13 -148 -13 -472 0 -620 89 -989 596
-1897 1395 -2495 495 -371 1035 -586 1695 -677 148 -20 681 -17 840 5 406 57
742 159 1095 332 315 154 578 333 835 567 559 510 951 1225 1079 1968 41 237
46 301 46 610 0 309 -5 373 -46 610 -149 864 -635 1654 -1346 2189 -193 145
-323 225 -558 341 -355 175 -694 279 -1095 335 -137 20 -635 28 -780 14z m660
-180 c950 -89 1825 -599 2388 -1392 329 -464 532 -1010 593 -1597 16 -149 16
-494 0 -640 -84 -793 -409 -1478 -961 -2030 -550 -550 -1243 -879 -2025 -961
-142 -14 -508 -14 -650 0 -1128 118 -2102 776 -2625 1774 -433 826 -495 1816
-168 2697 441 1190 1550 2040 2801 2150 233 20 426 20 647 -1z"/>
<path d="M1520 3920 l0 -570 145 0 145 0 0 215 0 215 190 0 190 0 0 110 0 110
-190 0 -190 0 0 135 0 135 245 0 245 0 0 110 0 110 -390 0 -390 0 0 -570z"/>
<path d="M2660 3920 l0 -570 130 0 130 0 0 570 0 570 -130 0 -130 0 0 -570z"/>
<path d="M3350 3921 l0 -571 140 0 140 0 0 189 0 189 133 5 c198 7 270 42 335
165 105 197 31 482 -148 566 -42 20 -64 21 -322 24 l-278 3 0 -570z m440 327
c66 -34 85 -66 85 -146 0 -53 -5 -73 -22 -98 -30 -42 -85 -67 -160 -72 l-63
-4 0 171 0 171 58 0 c40 0 71 -7 102 -22z"/>
<path d="M4460 4103 c0 -414 6 -477 51 -564 34 -67 122 -153 192 -187 134 -66
368 -69 505 -7 66 30 160 119 196 185 50 92 56 149 56 573 l0 387 -135 0 -135
0 0 -403 c0 -451 2 -440 -74 -502 -37 -30 -40 -30 -155 -30 -113 0 -119 1
-154 28 -21 16 -46 46 -57 67 -19 37 -20 60 -20 440 l0 400 -135 0 -135 0 0
-387z"/>
<path d="M1030 2470 l0 -280 75 0 75 0 0 90 0 90 88 0 c140 0 229 37 267 111
21 40 19 113 -5 159 -42 81 -137 109 -377 110 l-123 0 0 -280z m338 147 c44
-40 28 -116 -28 -136 -18 -6 -62 -11 -96 -11 l-64 0 0 86 0 86 84 -3 c63 -3
89 -8 104 -22z"/>
<path d="M1868 2745 c-5 -5 -8 -131 -8 -282 l0 -273 75 0 75 0 0 100 0 100 50
0 49 0 68 -100 68 -99 83 -1 c45 0 82 2 82 5 0 3 -32 52 -71 108 -66 93 -70
102 -53 112 43 23 94 83 96 111 5 108 -35 170 -132 203 -40 14 -371 27 -382
16z m322 -120 c53 -27 49 -104 -6 -125 -14 -6 -59 -10 -100 -10 l-74 0 0 75 0
75 75 0 c48 0 87 -6 105 -15z"/>
<path d="M2903 2738 c-15 -19 -233 -519 -233 -535 0 -10 20 -13 75 -13 l76 0
29 65 29 66 122 -3 121 -3 25 -62 25 -63 79 0 c57 0 79 3 78 13 0 6 -53 131
-117 277 l-117 265 -91 3 c-65 2 -94 -1 -101 -10z m138 -228 l38 -90 -80 0
c-45 0 -79 3 -77 8 2 4 19 46 38 94 19 48 37 85 39 82 2 -2 21 -45 42 -94z"/>
<path d="M3630 2470 l0 -280 75 0 75 0 0 78 c0 76 1 79 35 112 21 20 38 30 43
24 5 -5 48 -55 96 -111 l87 -103 85 0 c46 0 84 4 84 8 0 4 -56 73 -125 153
l-126 144 126 121 c69 66 125 124 125 127 0 4 -39 7 -86 7 l-87 0 -126 -122
-126 -123 -5 120 -5 120 -72 3 -73 3 0 -281z"/>
<path d="M4643 2736 c-98 -31 -143 -80 -143 -155 0 -83 65 -124 263 -166 88
-19 124 -43 108 -74 -18 -32 -39 -43 -98 -48 -66 -5 -121 17 -138 55 -9 20
-17 22 -82 22 -67 0 -73 -2 -73 -20 0 -59 64 -122 147 -146 86 -25 244 -17
308 16 60 31 86 65 92 121 9 86 -58 143 -206 174 -101 21 -158 43 -165 61 -14
37 39 74 106 74 42 0 99 -27 105 -50 5 -18 14 -20 79 -20 82 0 87 5 59 63 -18
39 -68 74 -131 93 -58 17 -175 17 -231 0z"/>
<path d="M5543 2738 c-15 -19 -233 -519 -233 -535 0 -10 20 -13 75 -13 l76 0
29 65 29 66 122 -3 121 -3 25 -62 25 -63 79 0 c43 0 79 4 79 8 0 4 -53 129
-118 278 l-118 269 -90 3 c-65 2 -94 -1 -101 -10z m138 -228 l38 -90 -80 0
c-45 0 -79 3 -77 8 2 4 19 46 38 94 19 48 37 85 39 82 2 -2 21 -45 42 -94z"/>
</g>
</svg>
